<svg width="90" height="90" viewBox="0 0 90 90" fill="none" xmlns="http://www.w3.org/2000/svg">
<rect x="10" y="62" width="18" height="18" rx="9" fill="#FFE147"/>
<path d="M66.5625 59.0625C63.7941 59.0625 61.3763 60.5747 60.0769 62.8125H54.3685C63.1716 59.1338 69.375 50.4347 69.375 40.3125C69.375 26.8725 58.44 15.9375 45 15.9375C31.8741 15.9375 21.1378 26.3672 20.6428 39.375H17.686L24.375 47.4019L31.0641 39.375H28.1503C28.6388 30.5044 36.0094 23.4375 45 23.4375C54.3047 23.4375 61.875 31.0078 61.875 40.3125C61.875 49.6172 54.3047 57.1875 45 57.1875H34.6875V68.4375H59.3091C60.1453 71.6672 63.075 74.0625 66.5625 74.0625C70.6978 74.0625 74.0625 70.6978 74.0625 66.5625C74.0625 62.4272 70.6978 59.0625 66.5625 59.0625ZM45 59.0625C55.3388 59.0625 63.75 50.6512 63.75 40.3125C63.75 29.9738 55.3388 21.5625 45 21.5625C34.6613 21.5625 26.25 29.9738 26.25 40.3125V41.25H27.061L24.375 44.4731L21.6891 41.25H22.5V40.3125C22.5 27.9066 32.5941 17.8125 45 17.8125C57.406 17.8125 67.5 27.9066 67.5 40.3125C67.5 52.7184 57.406 62.8125 45 62.8125H36.5625V59.0625H45ZM36.5625 66.5625V64.6875H59.3091C59.1535 65.2884 59.0625 65.9137 59.0625 66.5625H36.5625ZM66.5625 72.1875C63.4603 72.1875 60.9375 69.6647 60.9375 66.5625C60.9375 63.4603 63.4603 60.9375 66.5625 60.9375C69.6647 60.9375 72.1875 63.4603 72.1875 66.5625C72.1875 69.6647 69.6647 72.1875 66.5625 72.1875Z" fill="black"/>
<path d="M69.6497 64.0249L65.625 68.0496L64.4128 66.8374L63.0872 68.163L65.625 70.7008L70.9753 65.3505L69.6497 64.0249Z" fill="black"/>
<path d="M30 49.6875H18.75C17.1994 49.6875 15.9375 50.9494 15.9375 52.5V71.25C15.9375 72.8006 17.1994 74.0625 18.75 74.0625H30C31.5506 74.0625 32.8125 72.8006 32.8125 71.25V52.5C32.8125 50.9494 31.5506 49.6875 30 49.6875ZM30.9375 71.25C30.9375 71.7675 30.5166 72.1875 30 72.1875H18.75C18.2334 72.1875 17.8125 71.7675 17.8125 71.25V52.5C17.8125 51.9825 18.2334 51.5625 18.75 51.5625H30C30.5166 51.5625 30.9375 51.9825 30.9375 52.5V71.25Z" fill="black"/>
<path d="M45.9375 46.875C49.5562 46.875 52.5 43.9312 52.5 40.3125C52.5 36.6938 49.5562 33.75 45.9375 33.75C42.3188 33.75 39.375 36.6938 39.375 40.3125C39.375 43.9312 42.3188 46.875 45.9375 46.875ZM45.9375 35.625C48.5222 35.625 50.625 37.7278 50.625 40.3125C50.625 42.8972 48.5222 45 45.9375 45C43.3528 45 41.25 42.8972 41.25 40.3125C41.25 37.7278 43.3528 35.625 45.9375 35.625Z" fill="black"/>
<path d="M33.75 43.8572L36.015 44.4225L34.8141 46.4241L39.8269 51.4359L41.8275 50.235L42.3928 52.5H49.4822L50.0475 50.235L52.0481 51.4359L57.0609 46.4241L55.86 44.4225L58.125 43.8572V36.7678L55.86 36.2025L57.0609 34.2019L52.0481 29.1891L50.0475 30.39L49.4822 28.125H42.3928L41.8275 30.39L39.8269 29.1891L34.8141 34.2019L36.015 36.2025L33.75 36.7678V43.8572ZM35.625 38.2322L37.9181 37.6594L38.3888 36.5138L37.1738 34.4906L40.1156 31.5488L42.1388 32.7638L43.2844 32.2931L43.8572 30H48.0178L48.5906 32.2931L49.7362 32.7638L51.7594 31.5488L54.7013 34.4906L53.4862 36.5138L53.9569 37.6594L56.25 38.2322V42.3928L54.4228 42.8494L53.9222 43.0425L53.4853 44.1094L54.7003 46.1344L51.7584 49.0772L49.7353 47.8622L48.5916 48.3272L48.0178 50.625H43.8572L43.4006 48.7978L43.2103 48.2962L42.1397 47.8612L40.1166 49.0763L37.1747 46.1334L38.3897 44.1084L37.9181 42.9647L35.625 42.3928V38.2322Z" fill="black"/>
<path d="M45.9375 43.125C47.4881 43.125 48.75 41.8631 48.75 40.3125C48.75 38.7619 47.4881 37.5 45.9375 37.5C44.3869 37.5 43.125 38.7619 43.125 40.3125C43.125 41.8631 44.3869 43.125 45.9375 43.125ZM45.9375 39.375C46.4541 39.375 46.875 39.7959 46.875 40.3125C46.875 40.8291 46.4541 41.25 45.9375 41.25C45.4209 41.25 45 40.8291 45 40.3125C45 39.7959 45.4209 39.375 45.9375 39.375Z" fill="black"/>
<path d="M19.6875 53.4375H29.0625V55.3125H19.6875V53.4375Z" fill="black"/>
<path d="M19.6875 57.1875H29.0625V59.0625H19.6875V57.1875Z" fill="black"/>
<path d="M19.6875 60.9375H29.0625V62.8125H19.6875V60.9375Z" fill="black"/>
<path d="M19.6875 64.6875H29.0625V66.5625H19.6875V64.6875Z" fill="black"/>
<path d="M27.1875 68.4375H29.0625V70.3125H27.1875V68.4375Z" fill="black"/>
<path d="M23.4375 68.4375H25.3125V70.3125H23.4375V68.4375Z" fill="black"/>
<path d="M19.6875 68.4375H21.5625V70.3125H19.6875V68.4375Z" fill="black"/>
</svg>
