<svg width="90" height="90" viewBox="0 0 90 90" fill="none" xmlns="http://www.w3.org/2000/svg">
<rect x="19" y="62" width="18" height="18" rx="9" fill="#FFE147"/>
<path d="M33.6173 26.5809C30.4639 26.5809 27.9075 29.1372 27.9075 32.2906V56.5866C27.9075 59.74 30.4639 62.2964 33.6173 62.2964H54.6664C57.8198 62.2964 60.3762 59.74 60.3762 56.5866V32.2906C60.3762 29.1372 57.8198 26.5809 54.6664 26.5809H33.6173ZM33.6173 23.155H54.6664C59.7038 23.155 63.802 27.2532 63.802 32.2906V56.5866C63.802 61.624 59.7038 65.7222 54.6664 65.7222H33.6173C28.5799 65.7222 24.4817 61.624 24.4817 56.5866V32.2906C24.4817 27.2532 28.5799 23.155 33.6173 23.155Z" fill="#252B33"/>
<path d="M52.7444 29.624H35.6151C33.0924 29.624 31.0473 31.6691 31.0473 34.1918V54.7469C31.0473 57.2697 33.0924 59.3147 35.6151 59.3147H52.7444C55.2671 59.3147 57.3122 57.2697 57.3122 54.7469V34.1918C57.3122 31.6691 55.2671 29.624 52.7444 29.624Z" stroke="#252B33" stroke-width="3"/>
<path d="M31.0473 24.7891C31.0473 24.3415 32.8391 18.8509 32.6153 16.5042" stroke="#252B33" stroke-width="3.5" stroke-linecap="round"/>
<path d="M57.7514 24.7891C57.7514 24.3415 55.9602 18.8509 56.184 16.5042" stroke="#252B33" stroke-width="3.5" stroke-linecap="round"/>
<path d="M31.0473 64.4661C31.0473 64.9137 32.8391 70.4044 32.6153 72.7511" stroke="#252B33" stroke-width="3.5" stroke-linecap="round"/>
<path d="M57.7514 64.4661C57.7514 64.9137 55.9602 70.4044 56.184 72.7511" stroke="#252B33" stroke-width="3.5" stroke-linecap="round"/>
<path d="M63.1728 32.0337H65V36.1788H63.1728V32.0337Z" fill="#252B33" stroke="#252B33" stroke-width="2" stroke-linejoin="round"/>
<path d="M63.1728 42.3113H65V48.4582H63.1728V42.3113Z" fill="#252B33" stroke="#252B33" stroke-width="2" stroke-linejoin="round"/>
</svg>
