<svg width="90" height="90" viewBox="0 0 90 90" fill="none" xmlns="http://www.w3.org/2000/svg">
<rect x="20" y="62" width="18" height="18" rx="9" fill="#FFE147"/>
<path d="M54.6069 28.0625C54.011 26.6933 53.5451 25.2712 53.2152 23.8149C52.9292 22.1183 52.8236 20.1336 52.8236 20.1336C52.7613 19.5011 52.4991 18.9049 52.075 18.4316C51.6508 17.9583 51.0869 17.6324 50.465 17.5014C48.2531 17.0882 46.0012 16.9295 43.7532 17.0286C41.5021 16.9309 39.2473 17.0911 37.0325 17.5058C36.4137 17.6414 35.8533 17.9686 35.431 18.441C35.0088 18.9133 34.7463 19.5068 34.6807 20.1369C34.6807 20.1369 34.5694 22.1205 34.2924 23.8182C33.9664 25.2745 33.5003 26.6959 32.9007 28.0625" stroke="#252B33" stroke-width="3"/>
<path d="M54.6069 62.5774C54.0113 63.9451 53.5453 65.3657 53.2152 66.8205C52.9292 68.5171 52.8236 70.5018 52.8236 70.5018C52.7613 71.1343 52.4991 71.7305 52.075 72.2038C51.6508 72.6771 51.0869 73.003 50.465 73.134C48.2533 73.5484 46.0013 73.7081 43.7532 73.6102C41.5021 73.7078 39.2473 73.5477 37.0325 73.1329C36.4137 72.9974 35.8533 72.6701 35.431 72.1978C35.0088 71.7254 34.7463 71.132 34.6807 70.5018C34.6807 70.5018 34.5694 68.5182 34.2924 66.8205C33.9663 65.3646 33.5002 63.9436 32.9007 62.5774" stroke="#252B33" stroke-width="3"/>
<path d="M51.819 27.4961H35.6753C33.8905 27.512 32.1851 28.2356 30.9335 29.508C29.6819 30.7805 28.9866 32.4977 29.0002 34.2824V56.3536C28.9866 58.1383 29.6819 59.8555 30.9335 61.128C32.1851 62.4004 33.8905 63.124 35.6753 63.1399H51.819C53.6037 63.124 55.3092 62.4004 56.5608 61.128C57.8123 59.8555 58.5077 58.1383 58.494 56.3536V34.2858C58.5077 32.501 57.8123 30.7838 56.5608 29.5114C55.3092 28.2389 53.6037 27.5153 51.819 27.4994V27.4961Z" stroke="#252B33" stroke-width="3"/>
<path fill-rule="evenodd" clip-rule="evenodd" d="M60.8392 47.3101C60.8023 47.3102 60.7657 47.3177 60.7317 47.3321C60.6976 47.3464 60.6668 47.3674 60.6409 47.3938C60.615 47.4202 60.5947 47.4515 60.581 47.4858C60.5673 47.5201 60.5605 47.5568 60.5611 47.5937V55.5137C60.5611 55.5875 60.5904 55.6582 60.6426 55.7104C60.6947 55.7626 60.7655 55.7919 60.8392 55.7919C60.913 55.7919 60.9837 55.7626 61.0359 55.7104C61.0881 55.6582 61.1174 55.5875 61.1174 55.5137V47.5937C61.1179 47.5568 61.1112 47.5201 61.0975 47.4858C61.0838 47.4515 61.0634 47.4202 61.0375 47.3938C61.0117 47.3674 60.9808 47.3464 60.9468 47.3321C60.9127 47.3177 60.8762 47.3102 60.8392 47.3101V47.3101Z" stroke="#252B33" stroke-width="2"/>
<path fill-rule="evenodd" clip-rule="evenodd" d="M-nan -nanL61 34V39C61 38.9907 61 38.9667 61 38.9297C61 38.8927 61 38.8434 61 38.7851V38.5492C61 37.873 61 37.1866 61 36.5006C61 35.8222 61 35.1434 61 34.4741L-nan -nanL-nan -nanL61 34.4741V34.1781C61 34.1278 61 34.0861 61 34.0556C61 34.025 61 34.0061 61 34L-nan -nanL-nan -nanZ" stroke="#252B33" stroke-width="2"/>
<path d="M50.9289 31.7136H36.632C35.6412 31.7224 34.6944 32.1243 33.9998 32.8308C33.3051 33.5374 32.9194 34.4909 32.9274 35.4817V55.3957C32.9194 56.3865 33.3051 57.34 33.9998 58.0466C34.6944 58.7531 35.6412 59.155 36.632 59.1638H50.9289C51.9199 59.1553 52.8668 58.7535 53.5616 58.0469C54.2563 57.3403 54.6419 56.3866 54.6336 55.3957V35.4817C54.6419 34.4908 54.2563 33.5372 53.5616 32.8305C52.8668 32.1239 51.9199 31.7221 50.9289 31.7136V31.7136Z" stroke="#252B33" stroke-width="2"/>
</svg>
