<svg width="25" height="25" viewBox="0 0 25 25" fill="none" xmlns="http://www.w3.org/2000/svg">
<rect x="5" y="5" width="15" height="15" fill="#252B33"/>
<path d="M12.5 0C15.8152 0 18.9946 1.31696 21.3388 3.66117C23.683 6.00537 25 9.18479 25 12.5C25 15.8152 23.683 18.9946 21.3388 21.3388C18.9946 23.683 15.8152 25 12.5 25C9.18479 25 6.00537 23.683 3.66117 21.3388C1.31696 18.9946 0 15.8152 0 12.5C0 9.18479 1.31696 6.00537 3.66117 3.66117C6.00537 1.31696 9.18479 0 12.5 0V0ZM7.03125 11.7188C6.82405 11.7188 6.62534 11.8011 6.47882 11.9476C6.33231 12.0941 6.25 12.2928 6.25 12.5C6.25 12.7072 6.33231 12.9059 6.47882 13.0524C6.62534 13.1989 6.82405 13.2812 7.03125 13.2812H16.0828L12.7281 16.6344C12.6555 16.707 12.5979 16.7932 12.5586 16.8882C12.5192 16.9831 12.499 17.0848 12.499 17.1875C12.499 17.2902 12.5192 17.3919 12.5586 17.4868C12.5979 17.5818 12.6555 17.668 12.7281 17.7406C12.8008 17.8133 12.887 17.8709 12.9819 17.9102C13.0768 17.9495 13.1785 17.9697 13.2812 17.9697C13.384 17.9697 13.4857 17.9495 13.5806 17.9102C13.6755 17.8709 13.7617 17.8133 13.8344 17.7406L18.5219 13.0531C18.5946 12.9806 18.6524 12.8943 18.6917 12.7994C18.7311 12.7045 18.7514 12.6028 18.7514 12.5C18.7514 12.3972 18.7311 12.2955 18.6917 12.2006C18.6524 12.1057 18.5946 12.0194 18.5219 11.9469L13.8344 7.25937C13.6877 7.11268 13.4887 7.03026 13.2812 7.03026C13.0738 7.03026 12.8748 7.11268 12.7281 7.25937C12.5814 7.40607 12.499 7.60504 12.499 7.8125C12.499 8.01996 12.5814 8.21893 12.7281 8.36563L16.0828 11.7188H7.03125Z" fill="#FFE147"/>
</svg>
