<svg width="90" height="90" viewBox="0 0 90 90" fill="none" xmlns="http://www.w3.org/2000/svg">
<rect x="16" y="9" width="18" height="18" rx="9" fill="#FFE147"/>
<path d="M15.7587 35.8567H73.6213L44.5332 15.592L15.7587 35.8567Z" stroke="#252B33" stroke-width="3.5" stroke-linejoin="round"/>
<path d="M44.291 28.4089C45.3388 28.4089 46.1883 27.5594 46.1883 26.5116C46.1883 25.4637 45.3388 24.6143 44.291 24.6143C43.2431 24.6143 42.3937 25.4637 42.3937 26.5116C42.3937 27.5594 43.2431 28.4089 44.291 28.4089Z" stroke="#252B33" stroke-width="3"/>
<path d="M28.869 61.803V50.219H24.3655V61.803H28.869Z" stroke="#252B33" stroke-width="3.5" stroke-linejoin="round"/>
<path d="M65.846 61.803V50.219H61.3425V61.803H65.846Z" stroke="#252B33" stroke-width="3.5" stroke-linejoin="round"/>
<path d="M22.1328 44.2798H31.5364" stroke="#252B33" stroke-width="3.5" stroke-linecap="round"/>
<path d="M22.1328 67.2312H31.5364" stroke="#252B33" stroke-width="3.5" stroke-linecap="round"/>
<path d="M15.7587 75.0002H72.994" stroke="#252B33" stroke-width="3.5" stroke-linecap="round"/>
<path d="M59.1098 44.2798H68.5134" stroke="#252B33" stroke-width="3.5" stroke-linecap="round"/>
<path d="M59.1098 67.2312H68.5134" stroke="#252B33" stroke-width="3.5" stroke-linecap="round"/>
</svg>
