<svg width="90" height="90" viewBox="0 0 90 90" fill="none" xmlns="http://www.w3.org/2000/svg">
<rect x="11" y="62" width="18" height="18" rx="9" fill="#FFE147"/>
<path d="M55.2407 29.2437H33.8198C31.5853 29.2437 29.7739 31.055 29.7739 33.2895V50.1606C29.7739 52.395 31.5853 54.2064 33.8198 54.2064H55.2407C57.4751 54.2064 59.2865 52.395 59.2865 50.1606V33.2895C59.2865 31.055 57.4751 29.2437 55.2407 29.2437Z" stroke="#252B33" stroke-width="3.5"/>
<path d="M37.5971 41.1551C39.002 41.1551 40.1409 40.0162 40.1409 38.6112C40.1409 37.2063 39.002 36.0674 37.5971 36.0674C36.1921 36.0674 35.0532 37.2063 35.0532 38.6112C35.0532 40.0162 36.1921 41.1551 37.5971 41.1551Z" stroke="#252B33" stroke-width="3"/>
<path d="M52.1667 41.1551C53.5716 41.1551 54.7105 40.0162 54.7105 38.6112C54.7105 37.2063 53.5716 36.0674 52.1667 36.0674C50.7617 36.0674 49.6228 37.2063 49.6228 38.6112C49.6228 40.0162 50.7617 41.1551 52.1667 41.1551Z" stroke="#252B33" stroke-width="3"/>
<path d="M38.9082 46.4417V48.5755C38.9082 48.5755 39.0111 49.5802 39.7694 49.5802C40.6514 49.5802 42.0478 49.5617 44.0557 49.5802C46.0635 49.5987 47.8969 49.6136 48.8713 49.5951C50.0342 49.5732 49.8886 48.5766 49.8886 48.5766V46.4428" stroke="#252B33" stroke-width="3" stroke-linecap="round" stroke-linejoin="round"/>
<path d="M28.2251 36.0186C25.6277 36.0186 19.9612 35.1747 19.8029 41.6087C19.6445 48.0427 25.4404 47.2731 28.2251 47.2731" stroke="#252B33" stroke-width="3.5" stroke-linecap="round" stroke-linejoin="round"/>
<path d="M24.0129 35.9863V23.6719" stroke="#252B33" stroke-width="3.5" stroke-linecap="round"/>
<path d="M23.8452 23.1404C25.5312 23.1404 26.8979 21.7737 26.8979 20.0878C26.8979 18.4019 25.5312 17.0352 23.8452 17.0352C22.1593 17.0352 20.7926 18.4019 20.7926 20.0878C20.7926 21.7737 22.1593 23.1404 23.8452 23.1404Z" stroke="#252B33" stroke-width="3.5" stroke-linecap="round" stroke-linejoin="round"/>
<path d="M60.7594 36.0186C63.3568 36.0186 69.0233 35.1747 69.1817 41.6087C69.34 48.0427 63.5441 47.2731 60.7594 47.2731" stroke="#252B33" stroke-width="3.5" stroke-linecap="round" stroke-linejoin="round"/>
<path d="M64.9728 35.9863V23.6719" stroke="#252B33" stroke-width="3.5" stroke-linecap="round"/>
<path d="M64.9583 23.1404C66.6442 23.1404 68.0109 21.7737 68.0109 20.0878C68.0109 18.4019 66.6442 17.0352 64.9583 17.0352C63.2723 17.0352 61.9056 18.4019 61.9056 20.0878C61.9056 21.7737 63.2723 23.1404 64.9583 23.1404Z" stroke="#252B33" stroke-width="3.5" stroke-linecap="round" stroke-linejoin="round"/>
<path d="M41.1648 55.1902V60.8545" stroke="#252B33" stroke-width="3.5"/>
<path d="M47.2382 55.4583V60.8624" stroke="#252B33" stroke-width="3.5"/>
<path d="M44.0837 60.7251C56.027 60.9182 68.0674 65.4761 68.0674 73.0002H21.2063C21.2063 65.4761 32.1451 60.5332 44.0837 60.7251Z" stroke="#252B33" stroke-width="3.5" stroke-linecap="round" stroke-linejoin="round"/>
</svg>
