<svg width="90" height="90" viewBox="0 0 90 90" fill="none" xmlns="http://www.w3.org/2000/svg">
<rect x="10" y="62" width="18" height="18" rx="9" fill="#FFE147"/>
<path d="M51.8203 53.8896L66.156 57.5429C66.248 57.5598 66.3423 57.5598 66.4343 57.5429C66.5272 57.52 66.6155 57.4818 66.6956 57.4295L70.0637 54.7327" stroke="#252B33" stroke-width="3.5" stroke-linecap="round" stroke-linejoin="round"/>
<path d="M33.2839 50.1934C33.2839 50.1934 34.246 51.6258 38.6342 52.8571C43.0224 54.0885 51.2308 53.782 51.2308 53.782" stroke="#252B33" stroke-width="3.5" stroke-linecap="round" stroke-linejoin="round"/>
<path d="M33.3793 55.9314C33.3793 55.9314 34.246 57.5627 38.6342 58.7929C43.0223 60.0231 51.2307 59.7175 51.2307 59.7175" stroke="#252B33" stroke-width="3.5" stroke-linecap="round" stroke-linejoin="round"/>
<path d="M51.7646 59.6341C55.3326 60.4668 64.6202 63.0115 66.2605 62.9979C67.9008 62.9842 70.2181 60.2182 70.2181 60.2182V41.4658C70.2181 41.4658 67.1034 36.7584 57.9862 36.3086C48.8691 35.8587 46.9198 35.9872 39.861 37.4265C36.1691 38.1785 34.7401 39.1701 34.1949 39.7835C33.771 40.1874 33.442 40.68 33.2315 41.2262C33.0209 41.7725 32.934 42.3588 32.9771 42.9426V58.9344C33.004 59.6593 33.2291 60.363 33.628 60.9689C34.4686 61.8515 36.6042 65.5274 50.9126 65.1946C51.0803 65.1968 51.2445 65.1472 51.3829 65.0526C51.5465 64.9197 51.567 64.9935 51.567 64.6641V48.3065C51.567 47.9907 51.5772 47.9657 51.7396 47.8464C51.9021 47.7271 52.219 47.8464 52.219 47.8464L65.5914 51.4634C65.5914 51.4634 65.847 51.5213 65.9117 51.5327C66.0402 51.525 66.1678 51.507 66.2934 51.4792L70.217 48.8085" stroke="#252B33" stroke-width="3.5" stroke-linecap="round" stroke-linejoin="round"/>
<path d="M56.0778 62.0689V71.7142C56.0321 72.0777 55.8731 72.4175 55.6234 72.6854C55.3119 72.8936 54.945 73.003 54.5704 72.9999H22.5195C21.8408 72.9825 21.19 72.7263 20.6816 72.2764C20.2613 71.6666 20.0248 70.949 20 70.2089V19.0459C20.0564 18.4983 20.2602 17.9761 20.5896 17.535C20.9663 17.2075 21.4437 17.0188 21.9425 17H43.7164C44.0999 17.022 44.472 17.1391 44.799 17.3408C45.0542 17.5709 45.2273 17.8778 45.2919 18.2153V28.9829H56.0755V34.9129" stroke="#252B33" stroke-width="3.5" stroke-linecap="round" stroke-linejoin="round"/>
<path d="M44.841 17.342L55.8802 28.8832" stroke="#252B33" stroke-width="3.5" stroke-linecap="round"/>
</svg>
