<svg width="90" height="90" viewBox="0 0 90 90" fill="none" xmlns="http://www.w3.org/2000/svg">
<rect x="10" y="63" width="18" height="18" rx="9" fill="#FFE147"/>
<path d="M60.2609 17.9131H29.7391C23.2558 17.9131 18 23.1689 18 29.6522V61.3479C18 67.8312 23.2558 73.087 29.7391 73.087H60.2609C66.7442 73.087 72 67.8312 72 61.3479V29.6522C72 23.1689 66.7442 17.9131 60.2609 17.9131Z" stroke="#252B33" stroke-width="3.5"/>
<path d="M45.4742 27.0483C56.1416 27.0483 63.7556 35.0016 64.2252 45.4483C64.3343 48.4488 63.6107 51.4209 62.1344 54.0354C61.7024 54.8748 63.9176 63.0581 63.9176 63.0581L55.0851 60.7619C51.882 62.3989 48.3508 63.2918 44.7546 63.3739C34.0861 63.3739 25.999 56.4854 25.999 45.4494C25.999 34.4135 34.8057 27.0483 45.4742 27.0483Z" stroke="#252B33" stroke-width="3.5" stroke-linejoin="round"/>
</svg>
