<svg width="90" height="90" viewBox="0 0 90 90" fill="none" xmlns="http://www.w3.org/2000/svg">
<rect x="10" y="62" width="18" height="18" rx="9" fill="#FFE147"/>
<g clip-path="url(#clip0)">
<path d="M73.828 72.6562H72.8905V38.4375C72.8905 37.7903 72.3659 37.2656 71.7186 37.2656H62.3437C61.6964 37.2656 61.1718 37.7903 61.1718 38.4375V50.9765C61.1718 51.6238 61.6964 52.1484 62.3437 52.1484C62.9909 52.1484 63.5155 51.6238 63.5155 50.9765V39.6094H70.5468V72.6562H63.5155V62.4591C63.5155 61.8119 62.9909 61.2873 62.3437 61.2873C61.6964 61.2873 61.1718 61.8119 61.1718 62.4591V72.6562H58.3593V46.1719C58.3593 45.5246 57.8346 45 57.1874 45H47.8124C47.1652 45 46.6406 45.5246 46.6406 46.1719V72.6562H43.3593V53.4375C43.3593 52.7903 42.8347 52.2656 42.1874 52.2656H32.8125C32.1652 52.2656 31.6406 52.7903 31.6406 53.4375V72.6562H28.8281V60.9375C28.8281 60.2902 28.3035 59.7656 27.6562 59.7656H18.2812C17.634 59.7656 17.1094 60.2902 17.1094 60.9375V72.6562H16.1719C15.5246 72.6562 15 73.1809 15 73.8281C15 74.4753 15.5246 74.9999 16.1719 74.9999H73.828C74.4752 74.9999 74.9999 74.4753 74.9999 73.8281C74.9999 73.1809 74.4752 72.6562 73.828 72.6562ZM26.4844 72.6562H19.4531V62.1093H26.4844V72.6562ZM41.0156 72.6562H33.9843V54.6094H41.0156V72.6562ZM56.0155 72.6562H48.9843V47.3437H56.0155V72.6562Z" fill="black"/>
<path d="M63.1722 55.643C62.9542 55.425 62.6519 55.3008 62.3437 55.3008C62.0355 55.3008 61.7331 55.425 61.5151 55.643C61.2972 55.8609 61.1718 56.1633 61.1718 56.4727C61.1718 56.7809 61.2972 57.082 61.5151 57.3012C61.7331 57.5193 62.0355 57.6445 62.3437 57.6445C62.6519 57.6445 62.9542 57.5191 63.1722 57.3012C63.3901 57.082 63.5155 56.7809 63.5155 56.4727C63.5155 56.1633 63.3901 55.8609 63.1722 55.643Z" fill="black"/>
<path d="M66.0938 15C61.1828 15 57.1875 18.9953 57.1875 23.9062C57.1875 28.8172 61.1829 32.8125 66.0938 32.8125C71.0047 32.8125 75 28.8172 75 23.9062C75 18.9953 71.0047 15 66.0938 15ZM66.0938 27.3156C65.3609 27.3156 64.7647 26.823 64.7647 26.2178C64.7647 25.5705 64.2401 25.0459 63.5929 25.0459C62.9456 25.0459 62.421 25.5705 62.421 26.2178C62.421 27.7315 63.4698 29.0191 64.9219 29.4786V30.3618C61.8608 29.8074 59.5313 27.1247 59.5313 23.9062C59.5313 20.6878 61.8608 18.005 64.9219 17.4506V18.4175C63.4698 18.877 62.421 20.1647 62.421 21.6784C62.421 23.5761 64.0687 25.1199 66.0938 25.1199C66.8265 25.1199 67.4228 25.6124 67.4228 26.2178C67.4228 26.8231 66.8267 27.3156 66.0938 27.3156ZM67.2656 30.3618V29.4786C68.7177 29.0191 69.7665 27.7315 69.7665 26.2178C69.7665 24.3201 68.1189 22.7762 66.0938 22.7762C65.361 22.7762 64.7647 22.2837 64.7647 21.6784C64.7647 21.0731 65.3609 20.5806 66.0938 20.5806C66.8267 20.5806 67.4228 21.0731 67.4228 21.6784C67.4228 22.3256 67.9474 22.8503 68.5947 22.8503C69.2419 22.8503 69.7665 22.3256 69.7665 21.6784C69.7665 20.1647 68.7177 18.877 67.2656 18.4175V17.4506C70.3268 18.005 72.6563 20.6878 72.6563 23.9062C72.6563 27.1247 70.3267 29.8074 67.2656 30.3618Z" fill="black"/>
<path d="M56.7184 30.1602H52.1306C51.4833 30.1602 50.9587 30.6848 50.9587 31.332C50.9587 31.9793 51.4833 32.5039 52.1306 32.5039H53.8892L41.3596 45.0336L34.9939 38.6678C34.5363 38.2103 33.7943 38.2103 33.3365 38.6678L20.5919 51.4123C20.1343 51.8699 20.1343 52.6119 20.5919 53.0696C20.8207 53.2984 21.1207 53.4129 21.4206 53.4129C21.7204 53.4129 22.0204 53.2984 22.2492 53.0697L34.1652 41.1537L40.5309 47.5195C40.9885 47.9771 41.7305 47.9771 42.1883 47.5195L55.5466 34.1612V35.9199C55.5466 36.5671 56.0712 37.0918 56.7184 37.0918C57.3657 37.0918 57.8903 36.5671 57.8903 35.9199V31.332C57.8903 30.6848 57.3657 30.1602 56.7184 30.1602Z" fill="black"/>
<path d="M19.2023 54.4596C18.9844 54.2416 18.682 54.1162 18.3738 54.1162C18.0656 54.1162 17.7633 54.2416 17.5453 54.4596C17.3273 54.6775 17.2019 54.9799 17.2019 55.2881C17.2019 55.5963 17.3273 55.8986 17.5453 56.1166C17.7633 56.3345 18.0656 56.46 18.3738 56.46C18.682 56.46 18.9844 56.3346 19.2023 56.1166C19.4203 55.8986 19.5457 55.5963 19.5457 55.2881C19.5457 54.9799 19.4203 54.6775 19.2023 54.4596Z" fill="black"/>
</g>
<defs>
<clipPath id="clip0">
<rect width="60" height="60" fill="white" transform="translate(15 15)"/>
</clipPath>
</defs>
</svg>
