<svg width="90" height="90" viewBox="0 0 90 90" fill="none" xmlns="http://www.w3.org/2000/svg">
<rect x="63" y="20" width="18" height="18" rx="9" fill="#FFE147"/>
<path d="M61.8061 56.897C62.0181 57.4089 62.1273 57.9576 62.1273 58.5117C62.1273 59.0659 62.0181 59.6146 61.8061 60.1265C61.594 60.6385 61.2832 61.1036 60.8914 61.4954C60.4996 61.8873 60.0344 62.1981 59.5225 62.4101C59.0105 62.6222 58.4618 62.7313 57.9077 62.7313C57.3536 62.7313 56.8049 62.6222 56.2929 62.4101C55.781 62.1981 55.3158 61.8873 54.924 61.4954L54.7972 61.3686C54.3046 60.8919 53.683 60.5702 53.0093 60.4432C52.3357 60.3162 51.6396 60.3895 51.0072 60.6541C50.3749 60.9187 49.834 61.3629 49.4515 61.9318C49.069 62.5007 48.8618 63.1692 48.8554 63.8547V64.2127C48.8643 64.7717 48.7618 65.327 48.5541 65.846C48.3463 66.365 48.0373 66.8376 47.6451 67.236C47.2529 67.6345 46.7854 67.9509 46.2697 68.167C45.754 68.383 45.2005 68.4942 44.6414 68.4942C44.0824 68.4942 43.5289 68.383 43.0132 68.167C42.4975 67.9509 42.03 67.6345 41.6378 67.236C41.2456 66.8376 40.9366 66.365 40.7288 65.846C40.5211 65.327 40.4186 64.7717 40.4275 64.2127V64.0231C40.4112 63.3257 40.1856 62.6493 39.7798 62.0819C39.3741 61.5144 38.8071 61.0821 38.1525 60.8412C37.5168 60.5604 36.8116 60.4765 36.1278 60.6003C35.4441 60.7242 34.8131 61.05 34.3163 61.5359L34.1895 61.6627C33.3981 62.4541 32.3249 62.8986 31.2058 62.8986C30.0867 62.8986 29.0134 62.4541 28.2221 61.6627C27.4308 60.8714 26.9862 59.7981 26.9862 58.679C26.9862 57.5599 27.4308 56.4867 28.2221 55.6954M26.8285 31.9771C26.8285 31.423 26.9376 30.8743 27.1497 30.3624C27.3617 29.8504 27.6726 29.3853 28.0644 28.9934C28.4562 28.6016 28.9214 28.2908 29.4333 28.0788C29.9452 27.8667 30.4939 27.7576 31.0481 27.7576C31.6022 27.7576 32.1509 27.8667 32.6628 28.0788C33.1748 28.2908 33.6399 28.6016 34.0318 28.9934L34.1586 29.1202C34.6552 29.6064 35.2861 29.9326 35.9699 30.0566C36.6537 30.1807 37.359 30.0969 37.9947 29.8161H38.1631C38.7853 29.5492 39.316 29.1064 39.6901 28.5421C40.0641 27.9778 40.2652 27.3165 40.2687 26.6395V26.2815C40.2599 25.7225 40.3623 25.1673 40.5701 24.6482C40.7778 24.1292 41.0868 23.6566 41.479 23.2582C41.8712 22.8597 42.3387 22.5433 42.8544 22.3272C43.3701 22.1112 43.9236 22 44.4827 22C45.0418 22 45.5953 22.1112 46.1109 22.3272C46.6266 22.5433 47.0942 22.8597 47.4864 23.2582C47.8785 23.6566 48.1875 24.1292 48.3953 24.6482C48.6031 25.1673 48.7055 25.7225 48.6966 26.2815V26.4712C48.704 27.1556 48.9116 27.8228 49.2938 28.3906C49.676 28.9584 50.2161 29.4018 50.8474 29.6662C51.4787 29.9306 52.1736 30.0043 52.8464 29.8784C53.5191 29.7524 54.1402 29.4321 54.6331 28.9572L54.7599 28.8304C55.5512 28.0391 56.6245 27.5945 57.7436 27.5945C58.8627 27.5945 59.936 28.0391 60.7273 28.8304C61.5186 29.6217 61.9632 30.695 61.9632 31.8141" stroke="#252B33" stroke-width="3.5" stroke-linecap="round" stroke-linejoin="round"/>
<path d="M17 43.962V53.2477H23.0742V35.3284H17V38.75" stroke="#252B33" stroke-width="3.5" stroke-linecap="round" stroke-linejoin="round"/>
<path d="M23.0774 36.3877H26.8856V52.2651H23.0774" stroke="#252B33" stroke-width="2.5" stroke-linecap="round" stroke-linejoin="round"/>
<path d="M26.8846 37.3625C26.8846 37.3625 27.8617 40.0531 36.1691 38.8309C44.4766 37.6086 43.9065 38.505 44.5587 39.4011" stroke="#252B33" stroke-width="3.5" stroke-linecap="round"/>
<path d="M26.8846 50.5576C26.8846 50.5576 31.2015 50.4767 32.0966 50.9647C32.9917 51.4528 43.9886 56.1778 45.7799 56.6658C47.5711 57.1539 56.2049 53.8153 56.2049 53.8153L62.7198 52.187V37.2812C62.7198 37.2812 61.015 38.2586 56.2049 38.3406C53.5049 38.412 50.8045 38.2202 48.1416 37.7683L41.8702 42.5879C41.6697 42.783 41.5103 43.0163 41.4014 43.274C41.2926 43.5317 41.2365 43.8085 41.2365 44.0883C41.2365 44.368 41.2926 44.6451 41.4014 44.9028C41.5103 45.1605 41.6697 45.3938 41.8702 45.5889C43.3035 47.2619 45.2101 45.5889 45.2101 45.5889L48.1416 43.3895" stroke="#252B33" stroke-width="3.5" stroke-linecap="round" stroke-linejoin="round"/>
<path d="M46.022 45.1191L55.7326 53.7025" stroke="#252B33" stroke-width="3.5" stroke-linecap="round"/>
<path d="M62.7213 37.3612V36.384H66.8703V52.103H62.7213" stroke="#252B33" stroke-width="2.5" stroke-linecap="round" stroke-linejoin="round"/>
<path d="M65.4849 52.5922V53.5693H72.9784V49.0088" stroke="#252B33" stroke-width="3.5" stroke-linecap="round" stroke-linejoin="round"/>
<path d="M65.4849 36.3853V35H72.9784V44.2793" stroke="#252B33" stroke-width="3.5" stroke-linecap="round" stroke-linejoin="round"/>
</svg>
