<svg width="90" height="90" viewBox="0 0 90 90" fill="none" xmlns="http://www.w3.org/2000/svg">
<rect x="63" y="62" width="18" height="18" rx="9" fill="#FFE147"/>
<path d="M30.6229 23.6565H33.3281V36.4941H48.4136C48.7911 36.502 49.1635 36.4053 49.4894 36.2146C49.7552 35.9776 49.9385 35.6619 50.0127 35.3136L51.7227 26.1503H33.5939" stroke="#252B33" stroke-width="2.5" stroke-linecap="round" stroke-linejoin="round"/>
<path d="M35.4703 43.6866C36.4095 43.6866 37.1709 42.9252 37.1709 41.986C37.1709 41.0468 36.4095 40.2854 35.4703 40.2854C34.5311 40.2854 33.7697 41.0468 33.7697 41.986C33.7697 42.9252 34.5311 43.6866 35.4703 43.6866Z" stroke="#252B33" stroke-width="2.5" stroke-linecap="round" stroke-linejoin="round"/>
<path d="M46.4577 43.6866C47.3969 43.6866 48.1582 42.9252 48.1582 41.986C48.1582 41.0468 47.3969 40.2854 46.4577 40.2854C45.5185 40.2854 44.7571 41.0468 44.7571 41.986C44.7571 42.9252 45.5185 43.6866 46.4577 43.6866Z" stroke="#252B33" stroke-width="2.5" stroke-linecap="round" stroke-linejoin="round"/>
<path d="M33.325 36.4248V41.2681" stroke="#252B33" stroke-width="2.5" stroke-linecap="round"/>
<path d="M37.983 41.561H43.9481" stroke="#252B33" stroke-width="2.5" stroke-linecap="round"/>
<path fill-rule="evenodd" clip-rule="evenodd" d="M29.6319 16.9954H52.7598C53.8973 16.9142 55.0211 17.2843 55.8879 18.0254C56.7547 18.7665 57.2949 19.819 57.3916 20.9554V68.5444C57.2949 69.6808 56.7547 70.7334 55.8879 71.4745C55.0211 72.2156 53.8973 72.5856 52.7598 72.5044H29.6319C28.4943 72.5856 27.3705 72.2156 26.5037 71.4745C25.6369 70.7334 25.0967 69.6808 25 68.5444V20.9606C25.0954 19.8233 25.635 18.7694 26.502 18.0272C27.369 17.285 28.4935 16.9143 29.6319 16.9954V16.9954Z" stroke="#252B33" stroke-width="3.5"/>
<path d="M41.7442 52.582H31.2791C30.1231 52.582 29.186 53.5191 29.186 54.6751V65.1402C29.186 66.2961 30.1231 67.2332 31.2791 67.2332H41.7442C42.9001 67.2332 43.8372 66.2961 43.8372 65.1402V54.6751C43.8372 53.5191 42.9001 52.582 41.7442 52.582Z" fill="white"/>
<path d="M41.7442 54.1519H31.2791C30.9901 54.1519 30.7558 54.3861 30.7558 54.6751V65.1402C30.7558 65.4292 30.9901 65.6635 31.2791 65.6635H41.7442C42.0332 65.6635 42.2675 65.4292 42.2675 65.1402V54.6751C42.2675 54.3861 42.0332 54.1519 41.7442 54.1519Z" stroke="#252B33" stroke-width="3.5"/>
<path d="M67.907 52.582H50.1163C48.9603 52.582 48.0233 53.5191 48.0233 54.6751V65.1402C48.0233 66.2961 48.9603 67.2332 50.1163 67.2332H67.907C69.0629 67.2332 70 66.2961 70 65.1402V54.6751C70 53.5191 69.0629 52.582 67.907 52.582Z" fill="white"/>
<path d="M67.907 54.1519H50.1163C49.8273 54.1519 49.593 54.3861 49.593 54.6751V65.1402C49.593 65.4292 49.8273 65.6635 50.1163 65.6635H67.907C68.196 65.6635 68.4302 65.4292 68.4302 65.1402V54.6751C68.4302 54.3861 68.196 54.1519 67.907 54.1519Z" stroke="#252B33" stroke-width="3.5"/>
</svg>
