<svg width="90" height="90" viewBox="0 0 90 90" fill="none" xmlns="http://www.w3.org/2000/svg">
<rect x="10" y="10" width="18" height="18" rx="9" fill="#FFE147"/>
<path d="M70.7593 21.6729H18.3455C17.4217 21.6729 16.6727 22.4218 16.6727 23.3456V58.8721C16.6727 59.796 17.4217 60.5449 18.3455 60.5449H70.7593C71.6831 60.5449 72.4321 59.796 72.4321 58.8721V23.3456C72.4321 22.4218 71.6831 21.6729 70.7593 21.6729Z" stroke="#252B33" stroke-width="3.5" stroke-linecap="round" stroke-linejoin="round"/>
<path d="M36.4528 62.3828V70.545" stroke="#252B33" stroke-width="3.5" stroke-linecap="round"/>
<path d="M52.7479 62.4097V70.2495" stroke="#252B33" stroke-width="3.5" stroke-linecap="round"/>
<path d="M31.0765 70.614H58.1856" stroke="#252B33" stroke-width="3.5" stroke-linecap="round"/>
<path d="M57.0405 41.563C58.0999 42.3559 62.9634 56.3136 41.0522 53.83" stroke="#252B33" stroke-width="3.5" stroke-linecap="round"/>
<path d="M63.167 37.874L44.8187 28.103L26.9191 37.874L44.8187 47.4582L63.167 37.874Z" stroke="#252B33" stroke-width="3.5" stroke-linecap="round" stroke-linejoin="round"/>
<path d="M45.0846 37.8752L33.1731 41.0123V47.9533" stroke="#252B33" stroke-width="3.5" stroke-linecap="round"/>
<path d="M33.0806 52.9068C34.4041 52.9068 35.4771 51.8339 35.4771 50.5103C35.4771 49.1867 34.4041 48.1138 33.0806 48.1138C31.757 48.1138 30.684 49.1867 30.684 50.5103C30.684 51.8339 31.757 52.9068 33.0806 52.9068Z" stroke="#252B33" stroke-width="3"/>
</svg>
