<svg width="90" height="90" viewBox="0 0 90 90" fill="none" xmlns="http://www.w3.org/2000/svg">
<rect x="10" y="62" width="18" height="18" rx="9" fill="#FFE147"/>
<path d="M67.9359 42.8035C65.8943 41.7828 62.0664 41.771 61.9044 41.771C61.419 41.771 61.0255 42.1645 61.0255 42.6499C61.0255 43.1353 61.419 43.5288 61.9044 43.5288C62.8922 43.5289 65.7601 43.681 67.1498 44.3758C67.2761 44.439 67.4101 44.4688 67.5422 44.4688C67.8646 44.4688 68.175 44.2906 68.329 43.9828C68.5461 43.5486 68.3701 43.0207 67.9359 42.8035Z" fill="black"/>
<path d="M72.3178 55.3174L68.6879 54.2803C68.5312 54.2355 68.4218 54.0904 68.4218 53.9274V52.7158C68.7171 52.5112 68.9988 52.2822 69.2621 52.0266C70.5383 50.7882 71.2411 49.1271 71.2411 47.3491V45.6772L71.5921 44.9754C71.9773 44.2048 72.1808 43.3422 72.1808 42.4809V37.9516C72.1808 37.4662 71.7873 37.0727 71.3019 37.0727H62.8441C59.7687 37.0727 57.2665 39.5749 57.2665 42.6504V42.7027C57.2665 43.419 57.4358 44.1363 57.7561 44.7768L58.2062 45.6771V47.1126C58.2062 49.3877 59.3273 51.429 61.0255 52.6573L61.0257 53.9272C61.0257 54.123 61.0257 54.2041 60.3 54.4115L58.5288 54.9175L53.4053 53.0545C53.4237 52.8127 53.3421 52.5669 53.1657 52.3816L51.5285 50.6615V47.774C51.7016 47.6314 51.8722 47.4849 52.0376 47.33C54.103 45.3941 55.2875 42.6608 55.2875 39.8311V37.525C55.9112 36.1679 56.2273 34.7318 56.2273 33.2527V23.8555C56.2273 23.3701 55.8338 22.9766 55.3484 22.9766H42.1918C37.5618 22.9766 33.795 26.7434 33.795 31.3734V33.253C33.795 34.732 34.1111 36.1681 34.7347 37.5253V39.5094C34.7347 42.7948 36.1956 45.7548 38.4937 47.7062V50.6616L36.8565 52.3817C36.6802 52.567 36.5986 52.8129 36.617 53.0546L31.2094 55.0209C30.8175 55.1634 30.4534 55.3564 30.1228 55.5902L29.2737 55.1656C31.8014 54.0654 32.6021 52.5179 32.6406 52.441C32.7643 52.1936 32.7643 51.9023 32.6406 51.6549C32.007 50.3877 31.9302 48.0649 31.8686 46.1986C31.848 45.5772 31.8286 44.9902 31.7914 44.4676C31.4918 40.2519 28.287 37.0727 24.3366 37.0727C20.3862 37.0727 17.1812 40.2518 16.8817 44.4676C16.8445 44.9904 16.8251 45.5773 16.8046 46.1988C16.7429 48.065 16.6661 50.3875 16.0325 51.6548C15.9088 51.9022 15.9088 52.1935 16.0325 52.4409C16.071 52.5178 16.8701 54.0621 19.4029 55.1636L17.0442 56.3429C15.7833 56.9738 15 58.2412 15 59.6509V66.1441C15 66.6295 15.3935 67.023 15.8789 67.023C16.3643 67.023 16.7578 66.6295 16.7578 66.1441V59.6509C16.7578 58.9112 17.1688 58.2461 17.8303 57.9153L20.7674 56.4468L21.789 57.4177C22.5034 58.0966 23.4198 58.4359 24.3366 58.4359C25.2531 58.4359 26.17 58.0964 26.8841 57.4177L27.9056 56.447L28.8633 56.9258C28.4123 57.6473 28.1564 58.4934 28.1564 59.3797V66.1443C28.1564 66.6297 28.5499 67.0232 29.0353 67.0232C29.5207 67.0232 29.9142 66.6297 29.9142 66.1443V59.3797C29.9142 58.1731 30.6761 57.0854 31.8101 56.673L37.5115 54.5998L39.8849 58.1601C40.1883 58.6153 40.6745 58.9072 41.2188 58.9611C41.2795 58.9671 41.3399 58.97 41.4001 58.97C41.8804 58.97 42.3403 58.781 42.6841 58.4373L44.1321 56.9893V66.1445C44.1321 66.6298 44.5256 67.0234 45.011 67.0234C45.4964 67.0234 45.8899 66.6298 45.8899 66.1445V56.9893L47.3379 58.4373C47.6816 58.7811 48.1416 58.9701 48.6219 58.9701C48.682 58.9701 48.7425 58.9672 48.8031 58.9612C49.3475 58.9073 49.8338 58.6154 50.1371 58.1602L52.5107 54.6001L58.212 56.6732C59.3459 57.0856 60.1078 58.1734 60.1078 59.3799V66.1446C60.1078 66.63 60.5013 67.0235 60.9867 67.0235C61.4721 67.0235 61.8656 66.63 61.8656 66.1446V59.3799C61.8656 58.1579 61.3801 57.0118 60.5657 56.1642L60.7828 56.1022C61.0018 56.0396 61.3007 55.9539 61.6007 55.8069L63.8447 58.0509V66.1446C63.8447 66.63 64.2382 67.0235 64.7236 67.0235C65.209 67.0235 65.6025 66.63 65.6025 66.1446V58.0509L67.8309 55.8225C67.9494 55.8827 68.0739 55.9336 68.2049 55.9709L71.8349 57.008C72.6634 57.2448 73.2422 58.012 73.2422 58.8738V66.1446C73.2422 66.63 73.6357 67.0235 74.1211 67.0235C74.6065 67.0235 75 66.63 75 66.1446V58.8738C75 57.2311 73.897 55.7687 72.3178 55.3174ZM20.6385 53.765C18.9945 53.1734 18.1698 52.3848 17.8178 51.9541C18.0578 51.3267 18.2134 50.6081 18.3187 49.8495C18.8034 51.0117 19.6152 52.0038 20.6385 52.7116V53.765ZM25.6734 56.1437C24.9238 56.8559 23.7495 56.8558 23 56.1436L22.1827 55.3668C22.3206 55.1084 22.3964 54.8155 22.3964 54.5086V53.5718C23.0095 53.7634 23.6613 53.8667 24.3368 53.8667C25.0114 53.8667 25.6629 53.7629 26.2771 53.5723L26.277 54.5084C26.277 54.8155 26.3527 55.1086 26.4907 55.3671L25.6734 56.1437ZM24.337 52.1089C21.7125 52.1089 19.5775 49.9738 19.5775 47.3493C19.5775 46.8639 19.1839 46.4704 18.6986 46.4704C18.6493 46.4704 18.6013 46.4755 18.5543 46.4833C18.5569 46.4077 18.5593 46.332 18.5619 46.2571C18.5815 45.6528 18.6004 45.082 18.6352 44.5924C18.7474 43.0132 19.3785 41.5579 20.4121 40.4946C21.4549 39.4216 22.8488 38.8307 24.3368 38.8307C25.8248 38.8307 27.2186 39.4216 28.2615 40.4946C29.2951 41.5579 29.9262 43.0132 30.0384 44.5924C30.0731 45.0819 30.0921 45.6526 30.112 46.2568C30.1138 46.3087 30.1155 46.3613 30.1173 46.4136C29.1611 44.9403 27.6843 43.8546 25.7761 43.2414C24.0132 42.6751 22.4971 42.7101 22.4331 42.7118C22.2029 42.7182 21.9845 42.8145 21.8248 42.9802L20.239 44.6248C19.9021 44.9743 19.9121 45.5307 20.2616 45.8676C20.6111 46.2045 21.1675 46.1943 21.5044 45.845L22.8239 44.4766C23.9603 44.5322 27.6162 44.9573 29.038 48.0882C28.6802 50.3954 26.6972 52.1089 24.337 52.1089ZM28.0346 53.7679L28.0348 52.7197C29.0572 52.0157 29.8702 51.0255 30.3552 49.8546C30.4605 50.6114 30.6161 51.3283 30.8556 51.9543C30.5055 52.3809 29.677 53.1766 28.0346 53.7679ZM36.4925 39.5093V37.3286C36.4925 37.1963 36.4627 37.0657 36.4051 36.9465C35.8396 35.7753 35.5528 34.5327 35.5528 33.253V31.3735C35.5528 27.7127 38.5311 24.7345 42.1918 24.7345H54.4695V33.2531C54.4695 34.5328 54.1827 35.7754 53.6171 36.9466C53.5596 37.0658 53.5297 37.1964 53.5297 37.3287V39.8313C53.5297 42.2115 52.5729 44.4192 50.8355 46.0477C50.6186 46.2509 50.3934 46.4415 50.1607 46.619C50.1555 46.6225 50.1506 46.6264 50.1456 46.63C48.518 47.8658 46.5244 48.4664 44.4424 48.3315C39.9845 48.0429 36.4925 44.1677 36.4925 39.5093ZM41.4412 57.1941C41.4352 57.2002 41.421 57.2146 41.3923 57.2116C41.3637 57.2088 41.3524 57.192 41.3476 57.1848L38.6142 53.0846L39.4938 52.1604L43.6405 54.9948L41.4412 57.1941ZM45.0111 53.8024L40.2516 50.549V48.9084C41.4831 49.5741 42.862 49.9905 44.3286 50.0854C44.5603 50.1004 44.7906 50.1078 45.0202 50.1078C46.7007 50.1078 48.3182 49.7061 49.7707 48.9436V50.549L45.0111 53.8024ZM48.6746 57.185C48.6698 57.1923 48.6586 57.209 48.63 57.2118C48.6013 57.2155 48.5872 57.2004 48.581 57.1944L46.3818 54.9951L50.5284 52.1606L51.4082 53.0848L48.6746 57.185ZM64.7236 56.4434L62.7291 54.449C62.7639 54.2909 62.7836 54.1179 62.7834 53.927L62.7833 53.5561C63.3368 53.7377 63.9202 53.8455 64.5238 53.8636C64.5915 53.8657 64.6587 53.8666 64.7262 53.8666C65.3932 53.8666 66.0443 53.7658 66.664 53.5735V53.9274C66.664 54.1027 66.686 54.2745 66.7275 54.4396L64.7236 56.4434ZM68.038 50.7652C67.1065 51.6692 65.8759 52.1466 64.5766 52.1066C62.0332 52.0303 59.964 49.79 59.964 47.1129V45.4698C59.964 45.3332 59.9323 45.1987 59.8712 45.0767L59.3283 43.9909C59.1294 43.593 59.0243 43.1477 59.0243 42.7029V42.6505C59.0243 40.5441 60.7379 38.8306 62.8441 38.8306H70.423V42.481C70.423 43.0709 70.2836 43.6617 70.0198 44.1894L69.5761 45.0767C69.515 45.1988 69.4833 45.3332 69.4833 45.4698V47.3492C69.4833 48.6477 68.97 49.8608 68.038 50.7652Z" fill="black"/>
<path d="M70.3621 59.6265C69.8767 59.6265 69.4832 60.02 69.4832 60.5054V66.1438C69.4832 66.6292 69.8767 67.0228 70.3621 67.0228C70.8475 67.0228 71.241 66.6292 71.241 66.1438V60.5054C71.241 60.0201 70.8475 59.6265 70.3621 59.6265Z" fill="black"/>
<path d="M19.6379 60.7886C19.1525 60.7886 18.759 61.1821 18.759 61.6675V66.1442C18.759 66.6295 19.1525 67.0231 19.6379 67.0231C20.1233 67.0231 20.5168 66.6295 20.5168 66.1442V61.6675C20.5168 61.1822 20.1233 60.7886 19.6379 60.7886Z" fill="black"/>
<path d="M52.2108 33.571C48.8866 30.2468 41.9317 30.8824 39.0955 31.3099C38.2022 31.4445 37.5539 32.2005 37.5539 33.1074V35.1322C37.5539 35.6175 37.9474 36.0111 38.4328 36.0111C38.9182 36.0111 39.3117 35.6175 39.3117 35.1322V33.1073C39.3117 33.0774 39.3314 33.0518 39.3576 33.0479C40.4905 32.8771 42.7385 32.6137 45.0676 32.769C47.8084 32.9514 49.7935 33.6394 50.9679 34.8139C51.3111 35.1571 51.8676 35.1571 52.2108 34.8139C52.554 34.4706 52.554 33.9141 52.2108 33.571Z" fill="black"/>
<path d="M34.6739 61.5063C34.1885 61.5063 33.795 61.8999 33.795 62.3853V66.1443C33.795 66.6297 34.1885 67.0232 34.6739 67.0232C35.1593 67.0232 35.5528 66.6297 35.5528 66.1443V62.3853C35.5528 61.9 35.1593 61.5063 34.6739 61.5063Z" fill="black"/>
<path d="M55.3483 61.5063C54.8629 61.5063 54.4694 61.8999 54.4694 62.3853V66.1443C54.4694 66.6297 54.8629 67.0232 55.3483 67.0232C55.8337 67.0232 56.2272 66.6297 56.2272 66.1443V62.3853C56.2272 61.9 55.8337 61.5063 55.3483 61.5063Z" fill="black"/>
</svg>
