<svg width="650" height="396" viewBox="0 0 650 396" fill="none" xmlns="http://www.w3.org/2000/svg">
<path d="M262.424 386.302C262.424 386.302 361.382 358.618 468.632 382.426C610.6 382.426 648.672 272.796 649.962 217.981C649.962 217.981 656.596 66.2704 494.062 43.5691C494.062 43.5691 335.951 43.5691 256.343 8.13301C256.343 8.13301 114.264 -42.2525 22.4933 107.797C22.4933 107.797 -33.8961 192.511 31.8915 308.786C31.8915 308.786 108.736 430.597 262.424 386.302Z" fill="#F0EFF5"/>
<path d="M185.168 60.6498C186.425 60.0951 187.492 59.1842 188.237 58.0296C188.982 56.8751 189.372 55.5276 189.359 54.1537C189.423 53.2526 189.3 52.3481 189 51.4962C188.699 50.6443 188.227 49.8632 187.612 49.2011C186.998 48.5391 186.254 48.0102 185.427 47.6473C184.6 47.2843 183.707 47.095 182.803 47.0911C181.9 47.0872 181.005 47.2687 180.175 47.6245C179.345 47.9802 178.596 48.5026 177.976 49.1593C177.356 49.816 176.877 50.593 176.569 51.4423C176.261 52.2915 176.131 53.1949 176.186 54.0965C176.157 55.4811 176.54 56.8432 177.286 58.0099C178.032 59.1766 179.108 60.0954 180.377 60.6498C170.242 62.1834 170.7 73.1944 170.7 73.1944L194.674 73.3087C194.674 73.3087 195.217 62.1738 185.168 60.6498Z" fill="#252B33"/>
<path d="M574.318 118.61L563.202 106.637L566.803 103.294L574.48 111.552L590.606 95.6832L594.054 99.1885L574.318 118.61Z" fill="#252B33"/>
<path d="M413.076 184.001C413.076 175.818 404.504 170.665 395.721 174.742C393.741 175.67 392.121 177.223 391.111 179.162C388.911 183.429 389.882 188.306 391.883 192.354L398.703 209.623C398.919 210.173 399.296 210.645 399.785 210.977C400.273 211.31 400.85 211.488 401.441 211.488C402.032 211.488 402.609 211.31 403.098 210.977C403.586 210.645 403.963 210.173 404.18 209.623L410.847 192.259C413.191 186.944 413.076 184.001 413.076 184.001ZM404.866 191.087C398.979 194.507 393.007 188.182 396.236 181.934C396.67 181.106 397.331 180.419 398.141 179.952C404.037 176.523 410 182.81 406.771 189.106C406.336 189.934 405.676 190.621 404.866 191.087Z" fill="#EBEBEB"/>
<path d="M514.395 302.703C496.04 285.938 494.993 259.363 498.984 236.151C499.65 232.274 499.774 228.111 502.117 224.958C504.461 221.806 509.156 220.063 512.462 222.187C515.205 223.949 516.024 227.492 517.281 230.502C518.978 234.522 521.771 237.984 525.34 240.494C527.673 242.123 530.674 243.352 533.341 242.323C536.998 240.942 538.027 236.36 538.532 232.483L541.39 210.814C541.894 206.937 542.418 202.984 544.142 199.479C545.866 195.974 549.029 192.925 552.905 192.411C556.782 191.897 561.097 194.65 561.373 198.545C561.478 200.165 560.935 201.755 560.821 203.384C560.706 205.013 561.23 206.889 562.726 207.547C564.221 208.204 565.955 207.337 567.279 206.365C571.86 203.013 575.299 198.355 578.557 193.697C581.814 189.039 584.996 184.258 589.253 180.495C593.511 176.733 599.055 174.056 604.713 174.513C610.371 174.971 615.895 179.219 616.571 184.858C617.248 190.497 613.266 195.602 609.151 199.545C603.032 205.393 596.099 210.324 588.568 214.186C587.215 214.881 585.71 215.633 585.081 217.043C583.872 219.51 586.034 222.415 588.463 223.615C591.263 224.978 594.473 225.111 597.483 225.892C600.493 226.673 603.627 228.454 604.389 231.464C605.456 235.646 601.531 239.332 597.864 241.589C590.495 246.133 582.402 249.38 573.937 251.191C570.908 251.838 567.746 252.334 565.145 254.048C562.545 255.763 560.668 259.011 561.697 261.935C562.726 264.859 566.222 266.221 569.317 266.088C572.413 265.955 575.347 264.697 578.366 264.021C584.034 262.754 590.949 264.078 593.768 269.155C595.673 272.489 595.254 276.728 593.606 280.166C591.958 283.605 589.215 286.396 586.358 288.92C576.347 297.74 564.183 304.274 551.115 306.837C538.046 309.399 526.273 308.961 514.462 302.769" fill="#FFE147"/>
<path d="M515.853 312.151C517.977 303.036 517.443 300.216 522.52 288.948C528.186 276.782 534.547 264.951 541.571 253.515L547.048 244.485C548.857 241.522 550.639 238.589 552.572 235.826C556.292 230.529 560.302 225.441 564.583 220.586C568.651 215.919 572.67 211.642 576.471 207.661C580.271 203.679 583.891 200.041 587.329 196.878C592.736 191.838 598.533 187.232 604.665 183.105C606.837 181.647 608.551 180.562 609.723 179.847L611.066 179.038C611.371 178.857 611.533 178.78 611.533 178.78C611.533 178.78 611.39 178.895 611.104 179.085L609.79 179.942C608.637 180.695 606.932 181.847 604.799 183.295C598.73 187.49 592.983 192.132 587.606 197.183C584.196 200.374 580.605 204.022 576.823 208.004C573.042 211.985 569.041 216.281 565.002 220.948C560.738 225.803 556.748 230.891 553.048 236.188C551.143 238.941 549.353 241.856 547.552 244.818L542.075 253.848C535.064 265.262 528.704 277.064 523.025 289.196C517.901 300.435 518.415 303.198 516.243 312.275" fill="#252B33"/>
<path d="M552.772 235.789C552.679 235.225 552.637 234.655 552.648 234.084C552.591 232.988 552.572 231.398 552.562 229.436C552.562 225.502 552.705 220.072 552.896 214.091C553.086 208.109 553.144 202.66 553.039 198.765C553.039 196.802 552.944 195.212 552.886 194.116C552.828 193.55 552.828 192.978 552.886 192.411C553.016 192.965 553.096 193.529 553.125 194.097C553.258 195.193 553.372 196.783 553.467 198.746C553.677 202.67 553.677 208.109 553.467 214.11C553.258 220.11 553.096 225.406 552.963 229.436C552.963 231.341 552.886 232.884 552.858 234.084C552.885 234.654 552.856 235.225 552.772 235.789Z" fill="#252B33"/>
<path d="M604.532 233.417C604.355 233.442 604.175 233.442 603.998 233.417L602.484 233.34C601.179 233.264 599.283 233.15 596.94 233.093C592.254 232.94 585.767 232.959 578.623 233.293C571.48 233.626 565.012 234.245 560.364 234.817C558.03 235.084 556.154 235.36 554.849 235.541L553.353 235.741C553.01 235.741 552.829 235.798 552.82 235.741C552.984 235.67 553.157 235.622 553.334 235.598L554.811 235.284C556.106 235.036 557.973 234.703 560.307 234.379C564.955 233.693 571.422 233.026 578.595 232.674C585.767 232.321 592.254 232.388 596.95 232.674C599.302 232.788 601.198 232.959 602.503 233.112L604.008 233.293C604.188 233.309 604.364 233.351 604.532 233.417Z" fill="#252B33"/>
<path d="M523.244 288.091C523.139 287.88 523.053 287.66 522.987 287.434C522.835 286.929 522.635 286.291 522.387 285.529C521.863 283.852 521.177 281.424 520.358 278.404C518.72 272.356 516.7 263.954 514.643 254.639C512.586 245.323 510.595 236.913 509.061 230.826C508.299 227.854 507.671 225.425 507.213 223.654C507.013 222.863 506.851 222.215 506.718 221.749C506.651 221.522 506.606 221.289 506.585 221.053C506.693 221.262 506.776 221.482 506.832 221.71L507.432 223.615C507.956 225.282 508.652 227.721 509.461 230.74C511.109 236.779 513.119 245.19 515.176 254.505C517.234 263.821 519.225 272.222 520.758 278.318C521.53 281.29 522.149 283.729 522.606 285.491C522.816 286.291 522.978 286.939 523.101 287.443C523.172 287.653 523.22 287.871 523.244 288.091Z" fill="#252B33"/>
<path d="M593.168 275.985C592.943 276.065 592.71 276.119 592.473 276.147L590.434 276.509L582.938 277.766C576.613 278.861 567.888 280.481 558.258 282.3C548.628 284.119 539.894 285.662 533.541 286.653C530.369 287.148 527.826 287.529 526.016 287.758L523.958 288.015C523.721 288.038 523.481 288.038 523.244 288.015C523.472 287.933 523.708 287.876 523.949 287.843L525.978 287.482L533.474 286.196C539.799 285.1 548.524 283.481 558.154 281.671C567.783 279.861 576.518 278.299 582.919 277.309C586.091 276.813 588.634 276.432 590.444 276.204L592.501 275.956C592.724 275.934 592.948 275.944 593.168 275.985Z" fill="#252B33"/>
<path d="M19.9548 185.81C19.9548 185.81 25.6699 179.352 38.5574 193.602C51.4449 207.851 57.2838 216.529 57.2838 216.529C57.2838 216.529 60.4652 219.386 62.2274 216.481C63.9895 213.576 65.504 206.251 69.8475 206.308C74.3719 206.365 77.0295 210.671 78.1058 217.738C79.1821 224.806 82.0968 240.322 82.3635 241.713C82.6302 243.104 83.9447 244.866 85.4592 243.066C86.9737 241.265 94.4795 226.368 101.338 230.35C108.196 234.331 107.939 254.61 107.948 256.83C107.958 259.049 108.605 259.82 109.729 260.068C110.853 260.316 112.901 255.058 115.206 250.914C117.511 246.771 120.921 242.342 124.684 244.98C128.446 247.619 133.199 261.478 125.998 288.062L121.855 300.159L109.291 302.845C82.0587 306.941 68.8188 300.626 66.6375 296.587C64.4563 292.549 69.2379 289.672 73.629 287.862C78.0201 286.053 83.4589 284.614 83.3446 283.471C83.2303 282.328 82.5445 281.566 80.3347 281.328C78.1248 281.09 57.9792 279.033 54.8168 271.765C51.6545 264.497 67.3138 258.754 69.2665 257.477C71.2191 256.201 69.6189 254.667 68.314 254.248C67.009 253.829 51.9117 249.143 44.9774 247.257C38.0431 245.371 34.0711 242.247 34.4997 237.732C34.9474 233.388 42.3865 232.731 45.4917 231.312C48.5969 229.892 46.1109 226.406 46.1109 226.406C46.1109 226.406 38.1574 219.662 25.4794 205.156C12.8015 190.649 20.0787 185.686 20.0787 185.686" fill="#FFE147"/>
<path d="M31.5563 198.555C31.5563 198.555 31.6515 198.631 31.8039 198.803L32.5088 199.555C33.1279 200.26 34.0138 201.241 35.1473 202.508L44.8248 213.405L76.8959 249.191C89.4501 263.154 100.766 275.861 108.872 285.1L118.397 296.102L120.978 299.112L121.635 299.902C121.712 299.989 121.782 300.082 121.845 300.179C121.845 300.179 121.759 300.102 121.597 299.931L120.902 299.179L118.254 296.226L108.605 285.386C100.433 276.185 89.0881 263.535 76.5244 249.572C63.9608 235.608 52.7116 222.901 44.5676 213.662L35.0425 202.67C33.9376 201.374 33.0708 200.365 32.4707 199.65L31.8039 198.86C31.7134 198.765 31.6306 198.663 31.5563 198.555Z" fill="#252B33"/>
<path d="M68.1616 216.624C68.2979 217.765 68.3552 218.914 68.3331 220.063C68.3997 222.32 68.495 225.178 68.5902 228.349C68.6855 231.521 68.7807 234.522 68.7712 236.646C68.7712 237.713 68.7712 238.551 68.7045 239.17C68.719 239.492 68.6803 239.813 68.5902 240.123C68.4722 238.983 68.4149 237.839 68.4188 236.693C68.3331 234.436 68.2188 231.569 68.0949 228.407C67.9711 225.244 67.952 222.225 67.9806 220.101C67.9806 219.043 67.9806 218.196 68.0568 217.586C68.052 217.262 68.0872 216.939 68.1616 216.624Z" fill="#252B33"/>
<path d="M67.5138 240.618C67.5138 240.751 61.4558 240.78 53.9881 240.675C46.5204 240.57 40.4529 240.37 40.4529 240.227C40.4529 240.084 46.5204 240.065 53.9881 240.17C61.4558 240.275 67.5233 240.475 67.5138 240.618Z" fill="#252B33"/>
<path d="M90.8218 264.202C90.5526 264.368 90.2606 264.493 89.955 264.573C89.3835 264.793 88.5548 265.069 87.5166 265.393C85.4496 266.05 82.5635 266.879 79.3345 267.622C76.1055 268.365 73.1432 268.907 71 269.231C69.9237 269.393 69.095 269.498 68.4473 269.565C68.1341 269.63 67.8128 269.646 67.4948 269.612C68.6251 269.299 69.7734 269.054 70.9333 268.879C73.0574 268.469 75.9912 267.926 79.2107 267.136C82.4302 266.345 85.3163 265.621 87.4118 265.059C88.5297 264.703 89.6685 264.417 90.8218 264.202Z" fill="#252B33"/>
<path d="M96.1845 242.637C96.0464 243.713 95.8267 244.776 95.5273 245.819C95.0701 247.724 94.3938 250.448 93.6222 253.439C92.8507 256.43 92.1268 259.068 91.5743 260.992C91.3372 262.047 91.0187 263.082 90.6218 264.088C90.7521 263.012 90.9687 261.948 91.2695 260.906C91.7363 259.001 92.4125 256.277 93.1746 253.286C93.9366 250.295 94.6795 247.657 95.232 245.733C95.4692 244.678 95.7876 243.643 96.1845 242.637Z" fill="#252B33"/>
<path d="M119.407 260.84C119.382 261.214 119.315 261.585 119.207 261.945C119.007 262.745 118.769 263.735 118.483 264.897C117.854 267.393 116.949 270.822 115.921 274.603C114.892 278.385 113.93 281.795 113.206 284.262C112.863 285.414 112.568 286.386 112.339 287.177C112.249 287.539 112.118 287.891 111.949 288.224C111.975 287.85 112.042 287.479 112.149 287.119C112.349 286.319 112.587 285.338 112.873 284.167C113.501 281.681 114.406 278.252 115.435 274.47C116.464 270.689 117.426 267.269 118.14 264.812C118.492 263.659 118.778 262.687 119.016 261.897C119.105 261.531 119.236 261.176 119.407 260.84Z" fill="#E0E0E0"/>
<path d="M111.939 287.52C111.579 287.69 111.202 287.824 110.815 287.92C110.082 288.148 109.005 288.453 107.672 288.805C105.014 289.52 101.319 290.425 97.1942 291.263C93.0699 292.101 89.3265 292.72 86.5928 293.101C85.2307 293.292 84.1258 293.425 83.3637 293.501C82.9683 293.575 82.5652 293.601 82.1636 293.578C82.5433 293.447 82.9362 293.357 83.3352 293.311L86.5451 292.749C89.2503 292.282 92.9841 291.615 97.099 290.777C101.214 289.939 104.9 289.091 107.577 288.472L110.749 287.729C111.136 287.615 111.536 287.545 111.939 287.52Z" fill="#252B33"/>
<path d="M65.3041 207.88C65.7849 207.837 66.2469 207.673 66.6472 207.403C67.1182 207.062 67.4551 206.567 67.5997 206.003C67.6785 205.637 67.7073 205.262 67.6854 204.889C67.6854 204.489 67.6854 204.06 67.6854 203.603C67.6854 199.926 67.7711 194.649 67.8283 188.144C67.8283 186.512 67.8473 184.807 67.8854 183.029C67.8854 182.133 67.8854 181.228 67.8854 180.304C67.9243 179.854 67.9243 179.402 67.8854 178.952C67.7989 178.521 67.5906 178.125 67.2854 177.809C66.9788 177.488 66.5789 177.271 66.1423 177.19C65.6635 177.155 65.1829 177.155 64.7041 177.19H61.6941H55.3885H27.3274C26.7636 177.202 26.2245 177.423 25.8145 177.81C25.4045 178.198 25.1527 178.723 25.1081 179.285L25.0509 182.924C25.0509 185.353 24.9747 187.686 24.9366 190.087C24.8699 194.783 24.8032 199.307 24.7366 203.622V205.232C24.7023 205.72 24.8222 206.206 25.0795 206.622C25.3249 207.032 25.7005 207.347 26.1463 207.518C26.6143 207.663 27.1062 207.714 27.5941 207.67H33.5378H44.2155L59.6653 207.746L63.8658 207.794H64.9612H65.3327C65.2092 207.807 65.0847 207.807 64.9612 207.794H63.8658H59.6653L44.2155 207.88H33.5378H27.5655C27.0267 207.928 26.4836 207.873 25.9653 207.718C25.4282 207.509 24.9736 207.131 24.6699 206.641C24.3675 206.151 24.2244 205.578 24.2603 205.003C24.2603 204.47 24.2603 203.936 24.2603 203.393C24.3175 199.078 24.3746 194.554 24.4318 189.858C24.4318 187.515 24.4984 185.096 24.5365 182.695C24.5365 181.476 24.5365 180.257 24.5937 179.019C24.7011 178.374 25.032 177.788 25.5284 177.363C26.0248 176.938 26.6549 176.701 27.3084 176.694H55.3694H64.6945C65.2001 176.681 65.7059 176.7 66.209 176.752C66.7302 176.849 67.2071 177.109 67.5711 177.495C67.9276 177.867 68.1719 178.333 68.276 178.838C68.3181 179.316 68.3181 179.797 68.276 180.276C68.276 181.228 68.276 182.114 68.276 183C68.276 184.781 68.2188 186.496 68.1903 188.125C68.0569 194.63 67.9616 199.898 67.8854 203.574C67.8854 204.032 67.8854 204.46 67.8854 204.87C67.897 205.254 67.8586 205.638 67.7711 206.013C67.5988 206.602 67.2287 207.113 66.7234 207.461C66.415 207.666 66.0626 207.797 65.6947 207.842C65.5678 207.878 65.4355 207.891 65.3041 207.88Z" fill="#252B33"/>
<path d="M47.9397 189.782L53.1404 192.935L47.8254 196.059L42.5104 199.174L42.6247 192.897L42.739 186.62L47.9397 189.782Z" fill="#252B33"/>
<path d="M529.759 98.6932C531.477 97.9331 532.933 96.6861 533.949 95.1065C534.965 93.527 535.495 91.6841 535.474 89.8062C535.474 84.5007 531.474 80.1763 526.492 80.1477C521.511 80.1191 517.462 84.415 517.443 89.7205C517.404 91.6131 517.926 93.4751 518.943 95.0717C519.96 96.6684 521.427 97.9285 523.158 98.6932C509.29 100.789 509.918 115.838 509.918 115.838L542.713 115.991C542.713 115.991 543.514 100.808 529.759 98.6932Z" fill="#FFE147"/>
<path d="M335.385 64.7788L282.198 69.8252L285.599 105.679L338.787 100.632L335.385 64.7788Z" fill="white"/>
<path d="M338.781 100.598C338.781 100.598 338.781 100.37 338.695 99.9315L338.495 98.0265C338.323 96.3405 338.076 93.9116 337.761 90.7969C337.142 84.5675 336.256 75.6329 335.19 64.7552L335.399 64.9362L282.23 70.1178L282.449 69.8511V70.1178V70.4226L282.506 71.0132L282.62 72.2134L282.849 74.5851L283.287 79.281C283.579 82.3862 283.868 85.4406 284.154 88.4442C284.716 94.445 285.259 100.217 285.773 105.675L285.526 105.475L323.817 101.951L334.78 100.998L337.704 100.741L338.466 100.684H338.781H338.542L337.809 100.76L334.951 101.065L324.055 102.16L285.64 105.913H285.411V105.685C284.887 100.217 284.335 94.4546 283.754 88.4537C283.468 85.4565 283.179 82.4021 282.887 79.2905C282.735 77.7379 282.582 76.1663 282.439 74.5946L282.211 72.2229L282.068 71.0703L282.011 70.4798V70.175V69.8987L282.239 69.6225L335.428 64.6218H335.628V64.8219C336.58 75.7567 337.438 84.7389 338.009 91.016C338.276 94.1021 338.495 96.5215 338.638 98.1979C338.704 98.9981 338.752 99.6267 338.79 100.103C338.828 100.579 338.781 100.598 338.781 100.598Z" fill="#252B33"/>
<path d="M335.389 64.7839C335.273 64.9907 335.133 65.1826 334.97 65.3554L333.713 66.8128C332.579 68.1082 330.989 69.918 329.027 72.1373L313.291 89.7398L313.148 89.8922L312.977 89.7779L311.558 88.873L290.736 75.5378L284.487 71.3849L282.792 70.2514C282.589 70.1284 282.398 69.9882 282.22 69.8323C282.44 69.9224 282.651 70.0341 282.849 70.1656L284.592 71.2229L290.955 75.1854L311.853 88.4158L313.272 89.3683H312.948L328.779 71.8706L333.589 66.6509L334.904 65.2507C335.055 65.0846 335.217 64.9287 335.389 64.7839Z" fill="#252B33"/>
<path d="M217.144 107.571C217.042 106.41 216.86 105.258 216.601 104.123C216.264 102.805 215.727 101.546 215.011 100.389C214.084 98.8461 212.868 97.4972 211.429 96.4169C209.563 95.0041 207.371 94.0831 205.056 93.7386C202.741 93.3941 200.376 93.637 198.18 94.4452C195.591 95.3989 193.339 97.0912 191.703 99.3125C189.939 101.701 188.987 104.592 188.987 107.561C188.987 110.53 189.939 113.421 191.703 115.81C193.335 118.038 195.588 119.734 198.18 120.687C201.239 121.804 204.591 121.821 207.662 120.737C210.733 119.652 213.331 117.533 215.011 114.743C215.727 113.587 216.264 112.327 216.601 111.009C216.859 109.877 217.04 108.728 217.144 107.571C217.155 107.647 217.155 107.724 217.144 107.799V108.476C217.144 108.843 217.115 109.209 217.059 109.571C217.006 110.072 216.917 110.569 216.792 111.057C216.476 112.397 215.959 113.682 215.258 114.867C213.572 117.76 210.922 119.969 207.773 121.107C204.623 122.246 201.174 122.242 198.027 121.097C196.717 120.655 195.483 120.012 194.37 119.191C193.193 118.343 192.16 117.311 191.312 116.134C189.482 113.663 188.494 110.67 188.494 107.595C188.494 104.52 189.482 101.526 191.312 99.0553C192.16 97.8785 193.193 96.846 194.37 95.9978C195.483 95.1769 196.717 94.5343 198.027 94.0928C200.291 93.2709 202.726 93.0346 205.106 93.406C207.486 93.7773 209.733 94.7442 211.639 96.2169C213.098 97.3375 214.324 98.732 215.249 100.322C215.956 101.505 216.476 102.79 216.792 104.132C216.917 104.62 217.006 105.117 217.059 105.618C217.115 105.981 217.144 106.347 217.144 106.714V107.39C217.15 107.45 217.15 107.511 217.144 107.571Z" fill="#252B33"/>
<path d="M236.223 131.269C236.147 131.384 231.118 128.145 225.003 124.04C218.887 119.934 213.982 116.505 214.058 116.42C214.134 116.334 219.154 119.544 225.279 123.659C231.403 127.774 236.299 131.155 236.223 131.269Z" fill="#252B33"/>
<path d="M278.324 157.463L267.199 145.49L270.8 142.147L278.486 150.405L294.612 134.536L298.061 138.042L278.324 157.463Z" fill="#FFE147"/>
<path d="M590.444 146.005H590.977H591.644L592.596 146.129C594.629 146.459 596.546 147.298 598.169 148.567C600.769 150.617 602.451 153.614 602.845 156.902C602.941 157.854 602.941 158.854 602.941 159.864C602.941 160.874 602.941 161.931 602.941 163.017C602.941 165.179 602.941 167.474 602.941 169.875C602.941 172.275 602.941 174.818 602.941 177.495C602.941 178.809 602.941 180.162 602.941 181.534C603.007 182.953 602.866 184.375 602.522 185.753C601.939 187.981 600.753 190.004 599.095 191.601C597.436 193.198 595.368 194.305 593.12 194.802C591.548 195.073 589.951 195.172 588.358 195.097H545.838L546.009 195.031L536.417 204.623L535.988 205.051V194.897L536.236 195.145C535.184 195.183 534.13 195.144 533.083 195.031C532.035 194.897 531.008 194.631 530.026 194.24C528.093 193.463 526.384 192.216 525.054 190.613C523.724 189.01 522.814 187.101 522.406 185.058C522.229 184.061 522.146 183.05 522.158 182.038V179.076C522.158 175.152 522.158 171.285 522.158 167.513V161.912C522.101 160.078 522.158 158.242 522.329 156.416C522.615 154.621 523.285 152.909 524.292 151.396C525.262 149.955 526.521 148.73 527.988 147.799C529.455 146.868 531.099 146.251 532.817 145.986C534.447 145.832 536.085 145.781 537.722 145.833H555.477L581.119 145.919H588.072H589.872H590.491H589.872H588.072H581.119L555.477 146.005H537.722C536.107 145.954 534.491 146.008 532.883 146.167C530.345 146.551 527.996 147.736 526.178 149.548C524.36 151.361 523.168 153.707 522.777 156.244C522.611 158.049 522.56 159.862 522.625 161.674V167.274C522.625 171.085 522.625 174.895 522.625 178.838C522.541 180.803 522.621 182.772 522.863 184.725C523.274 186.669 524.143 188.488 525.397 190.03C527.345 192.387 530.117 193.916 533.15 194.307C534.175 194.414 535.206 194.449 536.236 194.412H536.484V204.422L536.065 204.242L545.666 194.65L545.733 194.583H545.838H588.358C589.935 194.662 591.516 194.567 593.073 194.297C594.567 193.975 595.986 193.37 597.254 192.516C599.688 190.872 601.444 188.402 602.198 185.563C602.529 184.256 602.673 182.909 602.626 181.562C602.626 180.191 602.626 178.838 602.626 177.523C602.626 174.885 602.626 172.351 602.626 169.903C602.626 167.455 602.626 165.207 602.626 163.045C602.626 161.959 602.626 160.912 602.626 159.892C602.626 158.873 602.626 157.892 602.56 156.959C602.19 153.726 600.557 150.771 598.016 148.739C596.428 147.464 594.544 146.609 592.539 146.252L591.634 146.1H590.977L590.444 146.005Z" fill="#252B33"/>
<path d="M552.667 172.037C552.667 172.037 552.61 171.799 552.486 171.389C552.308 170.829 551.954 170.341 551.476 169.998C551.133 169.753 550.734 169.596 550.316 169.541C549.897 169.486 549.471 169.535 549.076 169.684C548.594 169.86 548.177 170.181 547.883 170.601C547.589 171.022 547.431 171.523 547.431 172.037C547.431 172.55 547.589 173.051 547.883 173.472C548.177 173.893 548.594 174.213 549.076 174.389C549.471 174.538 549.897 174.587 550.316 174.532C550.734 174.478 551.133 174.321 551.476 174.075C551.954 173.732 552.308 173.244 552.486 172.684C552.61 172.284 552.619 172.037 552.667 172.037C552.729 172.264 552.729 172.504 552.667 172.732C552.56 173.371 552.221 173.947 551.715 174.351C551.333 174.663 550.877 174.871 550.391 174.954C549.906 175.038 549.407 174.994 548.943 174.828C548.366 174.625 547.866 174.248 547.512 173.749C547.158 173.25 546.968 172.653 546.968 172.042C546.968 171.43 547.158 170.833 547.512 170.334C547.866 169.835 548.366 169.458 548.943 169.255C549.406 169.088 549.904 169.043 550.39 169.124C550.876 169.206 551.332 169.412 551.715 169.722C552.222 170.129 552.561 170.709 552.667 171.351C552.729 171.575 552.729 171.812 552.667 172.037Z" fill="#252B33"/>
<path d="M565.288 171.942C565.218 171.733 565.161 171.52 565.117 171.304C564.938 170.741 564.584 170.251 564.107 169.903C563.762 169.657 563.362 169.5 562.941 169.445C562.521 169.39 562.094 169.44 561.697 169.589C561.22 169.772 560.809 170.095 560.52 170.516C560.23 170.937 560.075 171.436 560.075 171.947C560.075 172.457 560.23 172.956 560.52 173.377C560.809 173.798 561.22 174.121 561.697 174.304C562.095 174.45 562.522 174.496 562.942 174.44C563.362 174.383 563.762 174.226 564.107 173.98C564.581 173.634 564.935 173.148 565.117 172.589C565.162 172.371 565.219 172.154 565.288 171.942C565.288 171.942 565.374 172.189 565.288 172.637C565.173 173.273 564.836 173.847 564.336 174.256C563.954 174.568 563.498 174.776 563.012 174.859C562.527 174.943 562.028 174.899 561.564 174.733C560.987 174.53 560.487 174.153 560.133 173.654C559.779 173.155 559.589 172.558 559.589 171.947C559.589 171.335 559.779 170.738 560.133 170.239C560.487 169.74 560.987 169.363 561.564 169.16C562.027 168.993 562.525 168.948 563.011 169.029C563.497 169.111 563.953 169.317 564.336 169.627C564.836 170.04 565.174 170.617 565.288 171.256C565.374 171.694 565.317 171.942 565.288 171.942Z" fill="#252B33"/>
<path d="M577.918 171.942C577.847 171.732 577.787 171.519 577.737 171.304C577.575 170.748 577.242 170.258 576.785 169.903C576.44 169.657 576.039 169.5 575.619 169.445C575.199 169.39 574.772 169.44 574.375 169.589C573.898 169.772 573.487 170.095 573.198 170.516C572.908 170.937 572.753 171.436 572.753 171.947C572.753 172.457 572.908 172.956 573.198 173.377C573.487 173.798 573.898 174.121 574.375 174.304C574.773 174.45 575.2 174.496 575.62 174.44C576.04 174.383 576.44 174.226 576.785 173.98C577.239 173.627 577.572 173.141 577.737 172.589C577.871 172.189 577.88 171.942 577.918 171.942C577.956 171.942 578.004 172.189 577.918 172.637C577.804 173.273 577.466 173.847 576.966 174.256C576.584 174.568 576.128 174.776 575.643 174.859C575.157 174.943 574.658 174.899 574.194 174.733C573.617 174.53 573.117 174.153 572.763 173.654C572.409 173.155 572.219 172.558 572.219 171.947C572.219 171.335 572.409 170.738 572.763 170.239C573.117 169.74 573.617 169.363 574.194 169.16C574.657 168.993 575.156 168.948 575.641 169.029C576.127 169.111 576.583 169.317 576.966 169.627C577.467 170.04 577.804 170.617 577.918 171.256C578.004 171.694 577.947 171.942 577.918 171.942Z" fill="#252B33"/>
<path d="M112.511 106.542C112.511 98.3695 103.938 93.2068 95.1652 97.2836C93.1856 98.2116 91.5658 99.7645 90.5551 101.703C88.3452 105.971 89.3263 110.847 91.3171 114.896L98.1371 132.174C98.3536 132.724 98.7306 133.196 99.2191 133.528C99.7075 133.861 100.285 134.039 100.876 134.039C101.466 134.039 102.044 133.861 102.532 133.528C103.02 133.196 103.397 132.724 103.614 132.174L110.282 114.8C112.615 109.495 112.511 106.542 112.511 106.542ZM104.281 113.667C98.3942 117.086 92.4315 110.762 95.651 104.513C96.0807 103.682 96.7425 102.994 97.556 102.532C103.443 99.1029 109.415 105.437 106.186 111.676C105.757 112.51 105.095 113.201 104.281 113.667Z" fill="#FFE147"/>
<path d="M142.791 134.775C142.791 134.775 142.791 134.879 142.915 135.089C143.039 135.298 143.086 135.613 143.229 136.041L144.41 139.642C145.449 142.814 146.963 147.472 148.906 153.444L148.963 153.634H148.773L129.57 150.12H129.446V149.986L129.704 150.11C121.32 156.374 111.117 159.726 100.652 159.654C98.2822 159.616 95.9179 159.419 93.5747 159.064C91.1485 158.699 88.7516 158.161 86.4023 157.454L82.8494 156.159C82.2471 155.948 81.6612 155.694 81.0968 155.397L79.3632 154.568C74.6171 152.179 70.2877 149.04 66.5423 145.271C62.6163 141.292 59.4268 136.648 57.122 131.555C53.6913 124.094 52.2323 115.877 52.8848 107.691C53.5372 99.5044 56.2792 91.6224 60.8484 84.7987C65.4176 77.975 71.6612 72.4377 78.9821 68.7167C86.3029 64.9956 94.4561 63.2151 102.662 63.5456C114.556 63.9715 125.865 68.8127 134.383 77.1249C142.901 85.437 148.018 96.6241 148.735 108.504C149.098 113.426 148.657 118.374 147.43 123.154C146.673 126.174 145.613 129.11 144.267 131.917C143.801 132.87 143.429 133.603 143.163 134.06L142.753 134.784L143.115 134.06C143.372 133.555 143.734 132.831 144.182 131.869C145.486 129.055 146.514 126.12 147.249 123.106C148.434 118.342 148.843 113.418 148.459 108.523C148.002 101.333 145.921 94.339 142.37 88.0694C138.819 81.7997 133.893 76.4174 127.96 72.3278C120.087 66.9261 110.779 64.0025 101.231 63.9329C91.683 63.8633 82.3326 66.6509 74.3815 71.9372C64.985 78.2337 58.1362 87.6689 55.0611 98.5539C51.986 109.439 52.8854 121.063 57.5982 131.346C59.8791 136.389 63.0327 140.991 66.9138 144.938C70.6211 148.669 74.9051 151.78 79.6013 154.149L81.3254 154.977C81.8816 155.278 82.4614 155.533 83.0589 155.739L86.5642 157.025C88.8941 157.732 91.2721 158.27 93.6795 158.635C96.0006 158.988 98.3425 159.189 100.69 159.235C111.07 159.303 121.187 155.979 129.504 149.767L129.761 149.577V149.9L129.637 149.739L148.811 153.339L148.678 153.491L144.296 139.651L143.163 136.032C143.039 135.632 142.953 135.318 142.886 135.079C142.82 134.841 142.791 134.756 142.791 134.756V134.775Z" fill="#252B33"/>
<path d="M451.605 94.7977C451.474 94.2455 451.41 93.6794 451.415 93.1117C451.384 92.4275 451.304 91.7463 451.177 91.0733C451.063 90.1539 450.885 89.2436 450.643 88.3492C450.048 85.8762 449.085 83.5066 447.786 81.3196C446.108 78.4172 443.89 75.863 441.251 73.7947C438.075 71.278 434.353 69.5423 430.383 68.7274C425.833 67.791 421.115 68.0836 416.715 69.5751C414.331 70.3549 412.082 71.4988 410.047 72.9661C407.9 74.4393 406.008 76.254 404.446 78.3382C401.071 82.6936 399.179 88.0147 399.045 93.5231C398.911 99.0314 400.544 104.438 403.703 108.952C404.469 110.035 405.31 111.063 406.218 112.029C407.113 112.951 408.068 113.813 409.076 114.61C411.029 116.168 413.211 117.418 415.543 118.315C419.863 120.017 424.557 120.54 429.145 119.83C433.152 119.205 436.956 117.649 440.251 115.286C442.988 113.352 445.329 110.91 447.148 108.095C448.539 105.969 449.608 103.648 450.319 101.208C450.604 100.326 450.826 99.4253 450.986 98.5125C451.145 97.8486 451.254 97.1735 451.31 96.4931C451.335 95.9222 451.428 95.3563 451.586 94.8072C451.651 95.3737 451.651 95.9457 451.586 96.5122C451.579 97.2052 451.515 97.8964 451.396 98.5791C451.283 99.5182 451.101 100.448 450.853 101.36C450.219 103.89 449.197 106.306 447.824 108.523C445.807 111.804 443.114 114.616 439.924 116.773C436.735 118.929 433.121 120.381 429.326 121.03C424.519 121.823 419.587 121.32 415.038 119.573C412.582 118.655 410.28 117.371 408.209 115.762C407.135 114.928 406.117 114.024 405.161 113.057C404.222 112.039 403.35 110.96 402.551 109.828C399.198 105.071 397.465 99.3613 397.607 93.5431C397.75 87.7248 399.76 82.1067 403.341 77.5191C404.188 76.4237 405.112 75.3892 406.104 74.4234C407.094 73.4821 408.151 72.6131 409.266 71.823C411.406 70.292 413.771 69.1031 416.277 68.2987C420.903 66.7631 425.858 66.4999 430.621 67.5367C434.378 68.358 437.916 69.9726 440.998 72.2725C444.08 74.5723 446.634 77.5043 448.491 80.8719C449.764 83.1644 450.671 85.6425 451.177 88.2158C451.389 89.156 451.526 90.1115 451.586 91.0733C451.674 91.7586 451.706 92.4499 451.682 93.1403C451.717 93.6939 451.691 94.2496 451.605 94.7977Z" fill="#252B33"/>
<path d="M446.281 78.1667C446.338 78.2524 445.852 78.6715 444.928 79.3573L443.214 80.5861C442.881 80.8147 442.519 81.0814 442.128 81.329L440.814 82.0148C436.054 84.7321 430.642 86.0958 425.164 85.9582L422.792 85.8535L420.525 85.4915C420.154 85.4344 419.782 85.3867 419.42 85.3105L418.353 85.0248C417.658 84.8343 416.963 84.6723 416.305 84.4628C413.98 83.6805 411.745 82.6523 409.638 81.3957C406.075 79.243 404.332 77.2808 404.466 77.157C404.599 77.0332 406.552 78.6334 410.181 80.5003C412.279 81.5796 414.469 82.472 416.724 83.1674C417.353 83.3579 418.02 83.5008 418.696 83.6722L419.715 83.9199L420.773 84.0818L422.944 84.4056L425.202 84.4914C430.454 84.6039 435.655 83.4368 440.356 81.0909L441.69 80.5099C442.09 80.3003 442.461 80.0812 442.814 79.8812L444.624 78.9287C445.624 78.3477 446.214 78.0905 446.281 78.1667Z" fill="#252B33"/>
<path d="M403.684 110.533C403.627 110.457 404.113 110.038 405.037 109.342L406.752 108.114C407.085 107.885 407.447 107.618 407.837 107.371L409.152 106.685C413.912 103.971 419.324 102.611 424.802 102.751L427.173 102.856L429.44 103.208C429.812 103.275 430.183 103.323 430.545 103.399L431.612 103.675C432.307 103.875 433.003 104.037 433.66 104.247C435.987 105.022 438.222 106.047 440.328 107.304C443.89 109.466 445.633 111.428 445.5 111.552C445.366 111.676 443.414 110.076 439.785 108.209C437.688 107.122 435.498 106.226 433.241 105.532C432.603 105.351 431.936 105.209 431.269 105.037L430.25 104.78L429.193 104.618L427.021 104.304L424.764 104.208C419.507 104.097 414.302 105.268 409.6 107.618L408.314 108.219C407.914 108.428 407.542 108.657 407.19 108.847L405.38 109.857C404.342 110.362 403.742 110.619 403.684 110.533Z" fill="#252B33"/>
<path d="M451.586 95.4169C451.586 95.8265 439.651 95.8646 424.916 95.5026C410.181 95.1406 398.312 94.5501 398.322 94.1215C398.331 93.6928 410.247 93.6833 424.992 94.0453C439.737 94.4072 451.596 95.0168 451.586 95.4169Z" fill="#252B33"/>
<path d="M423.744 120.744C423.344 120.744 423.306 108.819 423.659 94.1213C424.011 79.424 424.611 67.5176 425.04 67.5271C425.468 67.5366 425.478 79.4621 425.126 94.1975C424.773 108.933 424.145 120.754 423.744 120.744Z" fill="#252B33"/>
<path d="M423.745 120.706C423.649 120.858 420.716 118.868 417.325 114.372C415.348 111.725 413.745 108.818 412.562 105.733C411.123 101.925 410.425 97.877 410.505 93.8071C410.601 89.73 411.514 85.7136 413.191 81.9959C414.536 78.982 416.286 76.1653 418.392 73.6233C421.973 69.2894 424.926 67.3748 425.059 67.5272C425.192 67.6796 422.525 69.8704 419.23 74.2615C417.314 76.8149 415.715 79.5911 414.467 82.5293C412.934 86.1039 412.097 89.9379 412 93.8261C411.944 97.7196 412.589 101.591 413.905 105.256C414.991 108.261 416.446 111.118 418.239 113.762C421.249 118.306 423.897 120.544 423.745 120.706Z" fill="#252B33"/>
<path d="M425.63 67.5364C425.735 67.384 428.669 69.3748 432.05 73.8707C434.028 76.5177 435.63 79.4249 436.813 82.51C438.243 86.3235 438.941 90.3726 438.87 94.4449C438.77 98.5184 437.856 102.531 436.184 106.247C434.831 109.257 433.082 112.073 430.984 114.619C427.402 118.953 424.44 120.877 424.316 120.715C424.192 120.553 426.85 118.372 430.136 113.981C432.051 111.428 433.651 108.651 434.898 105.713C436.424 102.137 437.257 98.3034 437.356 94.4164C437.412 90.5229 436.767 86.651 435.451 82.9862C434.36 79.9821 432.901 77.125 431.107 74.4803C428.126 69.9368 425.459 67.6984 425.63 67.5364Z" fill="#252B33"/>
<path d="M398.379 133.803L398.055 133.889L397.103 134.117L393.407 134.984L379.253 138.223L379.062 138.27L379.119 138.08L384.32 119.277V119.144H384.501L384.348 119.391C380.05 112.48 377.588 104.585 377.195 96.4549C377.09 94.1808 377.141 91.9021 377.347 89.6349C377.599 87.28 378.006 84.9444 378.567 82.6435C379.144 80.259 379.892 77.9193 380.805 75.6425C381.339 74.509 381.872 73.366 382.415 72.223C382.688 71.6403 383.007 71.0797 383.367 70.5465C383.691 69.9941 384.015 69.4416 384.32 68.8892C387.122 64.3769 390.631 60.344 394.712 56.9446C399.024 53.3885 403.932 50.6247 409.209 48.7816C416.949 46.0254 425.266 45.302 433.365 46.6806C441.465 48.0592 449.074 51.4937 455.466 56.6554C461.858 61.817 466.818 68.5329 469.871 76.1603C472.924 83.7876 473.968 92.0709 472.904 100.217C471.426 112.029 465.601 122.867 456.564 130.615C447.528 138.364 435.929 142.469 424.03 142.128C419.095 142.052 414.205 141.173 409.552 139.528C406.616 138.502 403.789 137.188 401.113 135.603C400.16 135.051 399.503 134.651 399.074 134.308L398.389 133.832L399.074 134.26C399.551 134.555 400.246 134.984 401.16 135.518C403.852 137.054 406.684 138.33 409.619 139.328C414.26 140.932 419.129 141.778 424.04 141.833C432.398 142.017 440.659 140.002 447.994 135.99C455.329 131.977 461.481 126.108 465.834 118.97C470.187 111.832 472.589 103.676 472.798 95.318C473.007 86.96 471.017 78.6936 467.027 71.3467C461.606 61.4149 452.825 53.7376 442.259 49.6902C431.693 45.6427 420.031 45.4894 409.361 49.2579C404.13 51.0807 399.261 53.8118 394.979 57.3257C390.937 60.6953 387.464 64.6929 384.691 69.1654C384.368 69.7083 384.044 70.2608 383.739 70.8037C383.4 71.3351 383.098 71.8889 382.834 72.4611L381.215 75.833C380.302 78.0895 379.557 80.4104 378.986 82.7768C378.423 85.0552 378.013 87.3686 377.757 89.7016C377.547 91.9526 377.493 94.2155 377.595 96.474C377.964 104.54 380.383 112.378 384.625 119.249L384.796 119.525H384.472L384.644 119.411C382.596 126.659 380.834 133.003 379.348 138.194L379.214 138.042L393.388 134.889L397.093 134.089L398.046 133.889C398.156 133.863 398.267 133.844 398.379 133.832V133.803Z" fill="#252B33"/>
<path d="M438.508 156.702C433.85 157.787 430.888 162.502 429.869 167.179C428.85 171.856 429.364 176.704 428.916 181.467C428.469 186.229 426.802 191.287 422.792 193.85L426.783 195.012C425.994 197.511 424.33 199.641 422.096 201.012C423.656 202.219 425.573 202.872 427.545 202.87C425.202 203.489 424.554 206.842 425.849 208.89C427.145 210.938 429.612 211.909 431.964 212.509C434.716 213.355 437.644 213.443 440.442 212.767C444.252 211.614 447.186 208.223 448.662 204.47C450.138 200.717 450.415 196.621 450.567 192.592C450.853 182.505 450.262 172.313 447.71 162.55C447.081 160.188 446.224 157.683 444.214 156.292C442.204 154.901 438.775 155.463 438.165 157.826" fill="#FFE147"/>
<path d="M543.79 302.303C542.685 298.093 536.246 274.375 530.455 258.887C524.063 241.694 510.881 238.141 510.881 238.141C481.21 228.016 454.549 227.959 426.107 237.827C425.154 238.113 424.307 238.418 423.459 238.78H423.373C402.256 247.066 400.075 269.374 400.075 269.374L391.169 323.487C391.076 323.914 391.006 324.347 390.959 324.782L390.873 325.296C390.722 327.826 391.333 330.342 392.627 332.521C393.921 334.699 395.838 336.44 398.132 337.517C410.514 343.232 422.363 341.87 432.536 337.67L425.145 348.433H513.148L507.375 334.231L509.28 325.658L522.911 342.061C524.544 344.024 526.732 345.448 529.188 346.147C544.904 347.976 547.448 324.572 544.495 310.952" fill="#252B33"/>
<path d="M488.039 232.245C488.039 232.245 473.837 303.684 468.836 303.131C463.836 302.579 440.375 233.598 440.375 233.598C440.375 233.598 470.36 225.597 488.039 232.245Z" fill="#FFBE9D"/>
<path d="M447.767 237.513C447.691 229.292 447.462 220.634 447.462 220.634C447.462 220.634 436.861 218.948 434.575 205.137C432.403 191.973 434.394 161.521 434.394 161.521C441.892 158.458 450.149 157.76 458.055 159.522C465.961 161.284 473.14 165.422 478.628 171.38L478.143 238.17C478.085 245.923 471.37 252.048 463.074 251.924C454.682 251.8 447.834 245.38 447.767 237.513Z" fill="#FFBE9D"/>
<path d="M437.908 184.562C437.906 185.024 438.083 185.469 438.404 185.801C438.724 186.134 439.161 186.329 439.623 186.343C439.849 186.36 440.076 186.332 440.29 186.259C440.505 186.187 440.703 186.073 440.872 185.922C441.042 185.772 441.18 185.59 441.278 185.386C441.375 185.182 441.431 184.96 441.442 184.734C441.445 184.272 441.267 183.827 440.947 183.495C440.627 183.162 440.189 182.967 439.728 182.953C439.502 182.936 439.275 182.964 439.061 183.037C438.846 183.109 438.648 183.224 438.478 183.374C438.309 183.524 438.171 183.706 438.073 183.91C437.975 184.114 437.919 184.336 437.908 184.562Z" fill="#263238"/>
<path d="M435.575 183.305C435.794 183.534 437.127 182.534 439.032 182.524C440.937 182.515 442.347 183.477 442.557 183.229C442.766 182.981 442.423 182.715 441.814 182.277C440.973 181.703 439.974 181.406 438.956 181.429C437.962 181.451 436.999 181.784 436.203 182.381C435.66 182.781 435.46 183.2 435.575 183.305Z" fill="#263238"/>
<path d="M457.197 185.486C457.194 185.948 457.372 186.393 457.692 186.725C458.012 187.058 458.45 187.253 458.911 187.267C459.135 187.28 459.359 187.249 459.57 187.175C459.781 187.1 459.976 186.985 460.142 186.836C460.309 186.686 460.444 186.505 460.54 186.303C460.636 186.1 460.691 185.881 460.702 185.658C460.705 185.196 460.527 184.751 460.207 184.419C459.887 184.086 459.449 183.891 458.988 183.876C458.764 183.864 458.54 183.895 458.329 183.969C458.118 184.043 457.923 184.159 457.757 184.308C457.59 184.458 457.455 184.639 457.359 184.841C457.263 185.043 457.208 185.263 457.197 185.486Z" fill="#263238"/>
<path d="M455.473 183.877C455.701 184.105 457.035 183.105 458.94 183.096C460.845 183.086 462.255 184.048 462.455 183.8C462.655 183.553 462.331 183.286 461.721 182.848C460.881 182.274 459.881 181.978 458.864 182C457.868 182.015 456.903 182.348 456.111 182.953C455.568 183.353 455.368 183.772 455.473 183.877Z" fill="#263238"/>
<path d="M448.643 198.059C447.634 197.754 446.591 197.575 445.538 197.526C445.052 197.526 444.585 197.383 444.509 197.05C444.463 196.546 444.572 196.041 444.823 195.602L446.243 191.887C448.205 186.591 449.634 182.248 449.415 182.162C449.196 182.076 447.433 186.315 445.462 191.611C444.995 192.916 444.509 194.154 444.109 195.345C443.808 195.932 443.723 196.607 443.871 197.25C443.941 197.421 444.05 197.574 444.188 197.696C444.327 197.818 444.492 197.907 444.671 197.955C444.942 198.025 445.22 198.063 445.5 198.069C446.544 198.199 447.6 198.196 448.643 198.059Z" fill="#263238"/>
<path d="M447.462 220.615C453.97 220.674 460.367 218.927 465.941 215.567C465.941 215.567 461.502 225.092 447.662 223.882L447.462 220.615Z" fill="#EB996E"/>
<path d="M449.472 202.651C449.835 202.195 450.308 201.837 450.845 201.611C451.383 201.384 451.968 201.297 452.549 201.355C452.969 201.392 453.378 201.513 453.751 201.711C454.124 201.909 454.454 202.18 454.72 202.508C454.977 202.825 455.131 203.213 455.16 203.62C455.189 204.028 455.092 204.434 454.882 204.784C454.578 205.128 454.177 205.373 453.732 205.486C453.288 205.6 452.819 205.578 452.387 205.422C451.486 205.11 450.657 204.621 449.948 203.984C449.73 203.834 449.542 203.643 449.396 203.422C449.324 203.319 449.286 203.196 449.286 203.07C449.286 202.944 449.324 202.821 449.396 202.717" fill="#EB996E"/>
<path d="M454.263 199.345C453.949 199.345 453.958 201.403 452.196 202.879C450.434 204.356 448.224 204.146 448.215 204.432C448.215 204.565 448.71 204.832 449.643 204.851C450.856 204.861 452.033 204.442 452.968 203.67C453.868 202.931 454.44 201.866 454.558 200.708C454.635 199.85 454.406 199.336 454.263 199.345Z" fill="#263238"/>
<path d="M471.179 160.245C466.255 167.541 452.996 175.199 443.442 177.085C444.538 175.59 450.367 171.856 451.453 170.37C447.167 173.685 440.975 178.133 435.26 178.533C434.584 178.638 433.892 178.542 433.269 178.257C432.94 178.004 432.673 177.678 432.491 177.304C432.31 176.931 432.217 176.52 432.222 176.104C431.829 171.935 431.89 167.735 432.403 163.579C432.802 160.066 434.53 156.838 437.232 154.558C440.88 151.634 446.147 150.843 451.129 150.634C455.301 150.462 459.606 150.634 463.455 152.072C467.303 153.511 470.618 156.435 471.237 159.997" fill="#FFE147"/>
<path d="M487.515 193.669C488.11 190.61 488.517 187.518 488.735 184.41C489.02 177.266 491.154 151.51 466.608 154.063L467.998 160.988C467.998 160.988 463.417 177.028 473.961 187.849C473.961 187.849 470.961 210.442 478.295 217.739C478.295 217.739 486.163 201.374 487.515 193.669Z" fill="#FFE147"/>
<path d="M473.647 186.649C475.125 186.327 476.664 186.416 478.095 186.906C479.534 187.414 480.712 188.473 481.372 189.849C481.955 191.257 481.979 192.834 481.438 194.259C480.895 195.674 480.042 196.95 478.943 197.993C478.204 198.794 477.287 199.411 476.266 199.793C475.755 199.973 475.208 200.025 474.671 199.945C474.135 199.866 473.627 199.657 473.19 199.336" fill="#FFBE9D"/>
<path d="M474.513 195.602C474.351 195.659 474.999 196.554 476.342 196.183C477.069 195.932 477.668 195.405 478.009 194.716C478.407 193.952 478.649 193.117 478.724 192.259C478.832 191.343 478.606 190.419 478.085 189.658C477.874 189.338 477.593 189.069 477.263 188.873C476.933 188.677 476.563 188.558 476.18 188.525C474.79 188.525 474.361 189.477 474.523 189.477C474.685 189.477 475.171 189.087 476.076 189.296C476.636 189.505 477.103 189.909 477.39 190.434C477.677 190.959 477.765 191.569 477.638 192.154C477.485 193.678 476.904 195.069 476.095 195.421C475.285 195.773 474.609 195.478 474.513 195.602Z" fill="#EB996E"/>
<path d="M425.221 304.046C425.087 304.046 424.973 298.435 424.973 291.511C424.973 284.586 425.087 278.985 425.221 278.985C425.354 278.985 425.468 284.595 425.468 291.511C425.468 298.426 425.354 304.046 425.221 304.046Z" fill="#535A5E"/>
<path d="M460.988 278.461C460.988 278.461 448.605 278.604 447.853 281.319C446.557 285.853 448.872 310.742 448.872 310.742L460.254 314.552C460.254 314.552 465.741 313.285 463.207 302.722C461.553 296.085 459.022 289.698 455.682 283.729C455.682 283.729 470.808 284.148 470.389 280.766C469.97 277.385 460.988 278.461 460.988 278.461Z" fill="#FFBE9D"/>
<path d="M456.073 285.805C456.749 285.672 471.866 284.424 470.923 286.843C469.98 289.263 456.073 289.863 456.073 289.863V285.805Z" fill="#FFBE9D"/>
<path d="M504.641 249.21L502.774 296.416L495.878 314.543L453.51 315.419L451.796 256.944L504.641 249.21Z" fill="#E0E0E0"/>
<path d="M446.872 295.102C446.711 295.211 446.539 295.3 446.357 295.368L444.833 296.054L439.185 298.464L420.496 306.265L410.219 310.504C407.384 311.567 404.633 312.84 401.989 314.314C400.217 315.318 398.653 316.65 397.379 318.238C396.503 319.381 396.188 320.143 396.141 320.143C396.191 319.952 396.267 319.769 396.369 319.6C396.606 319.093 396.893 318.611 397.226 318.162C398.457 316.498 400.013 315.102 401.799 314.057C404.439 312.533 407.198 311.224 410.047 310.142L420.344 305.875L439.089 298.207L444.805 295.94L446.367 295.349C446.524 295.246 446.694 295.163 446.872 295.102Z" fill="#535A5E"/>
<path d="M460.883 313.599C460.601 314.006 460.283 314.385 459.93 314.733C459.311 315.447 458.387 316.447 457.197 317.638C454.825 320.038 451.396 323.201 447.452 326.496C443.509 329.792 439.832 332.63 437.089 334.612C435.727 335.564 434.613 336.383 433.832 336.917C433.442 337.21 433.028 337.468 432.593 337.688C432.938 337.337 433.314 337.018 433.717 336.736L436.88 334.307C439.547 332.259 443.195 329.392 447.138 326.096C451.082 322.801 454.53 319.705 456.949 317.371C458.168 316.219 459.13 315.247 459.807 314.59C460.136 314.229 460.496 313.898 460.883 313.599Z" fill="#535A5E"/>
<path d="M524.692 343.813C524.587 343.909 518.377 336.784 510.814 327.906C503.251 319.029 497.202 311.771 497.307 311.714C497.412 311.656 503.622 318.724 511.185 327.582C518.748 336.441 524.797 343.728 524.692 343.813Z" fill="#535A5E"/>
<path d="M536.665 309.513C536.195 309.389 535.736 309.226 535.293 309.027C534.417 308.684 533.16 308.151 531.626 307.465C528.559 306.084 524.387 304.027 519.948 301.455C515.51 298.883 511.633 296.302 508.909 294.33C507.547 293.378 506.461 292.52 505.727 291.93C505.331 291.647 504.961 291.328 504.622 290.977C505.052 291.203 505.46 291.468 505.842 291.768C506.689 292.349 507.794 293.111 509.109 294.035C511.88 295.94 515.776 298.454 520.196 301.017C524.616 303.579 528.769 305.684 531.778 307.132L535.369 308.837C535.821 309.023 536.254 309.249 536.665 309.513Z" fill="#535A5E"/>
<path d="M514.738 299.15C514.605 299.15 513.862 294.13 513.081 287.901C512.3 281.671 511.776 276.594 511.909 276.585C512.043 276.575 512.795 281.605 513.576 287.834C514.357 294.064 514.881 299.141 514.738 299.15Z" fill="#535A5E"/>
<path d="M478.905 195.517C478.795 195.729 478.664 195.93 478.514 196.117L477.304 197.736L472.913 203.451V203.146L480.067 208.766L480.705 209.28H480.362L486.553 201.527V201.813L481.895 198.003L480.619 196.926C480.46 196.804 480.317 196.663 480.191 196.507C480.191 196.507 480.381 196.602 480.695 196.831L482.038 197.784L486.801 201.441L486.963 201.565L486.83 201.727C485.067 203.994 482.972 206.661 480.714 209.538L480.562 209.738L480.362 209.585L479.752 209.185C477.171 207.128 474.742 205.185 472.637 203.518L472.466 203.375L472.599 203.213L477.133 197.631L478.428 196.079C478.714 195.679 478.886 195.498 478.905 195.517Z" fill="#252B33"/>
<path d="M497.079 310.97C490.221 310.656 483.388 309.924 476.619 308.78C468.608 307.503 468.694 306.77 468.999 305.855C469.761 303.398 483.172 307.57 480.762 304.989C478.352 302.407 463.826 301.798 464.731 299.273C465.912 295.968 479.876 300.597 481.086 300.902C482.296 301.207 482.724 299.464 481.619 299.245C480.038 298.931 463.436 295.263 464.56 292.006C465.189 290.196 468.313 291.711 468.313 291.711C468.313 291.711 483.62 296.302 484.106 294.74C484.591 293.177 475.695 290.158 472.618 289.367C469.542 288.577 468.694 286.805 470.123 285.738C471.075 285.014 480.6 287.234 483.563 288.1C486.525 288.967 494.821 291.463 491.678 286.91L491.545 286.691C488.325 282.29 487.306 277.832 487.887 276.337C488.047 276.025 488.29 275.763 488.589 275.58C488.888 275.397 489.232 275.301 489.582 275.301C489.933 275.301 490.277 275.397 490.576 275.58C490.875 275.763 491.118 276.025 491.278 276.337C491.432 276.557 491.539 276.807 491.592 277.07C491.623 277.203 491.661 277.333 491.707 277.461C492.464 279.168 493.396 280.793 494.488 282.309C495.432 283.694 496.604 284.908 497.955 285.9C499.517 287.034 503.47 291.206 504.623 291.949" fill="#FFBE9D"/>
<path d="M213.61 254.82C209.321 254.741 205.225 253.016 202.172 250.002C199.119 246.988 197.342 242.915 197.208 238.627C196.979 231.207 196.808 224.054 196.808 224.054C196.808 224.054 183.177 222.787 182.177 209.299C181.177 195.812 181.606 164.674 181.606 164.674C189.077 160.903 197.42 159.195 205.772 159.726C214.124 160.256 222.183 163.007 229.117 167.693L231.213 169.113L230.632 238.265C230.611 240.473 230.153 242.654 229.284 244.684C228.415 246.713 227.153 248.55 225.571 250.09C223.988 251.629 222.117 252.839 220.064 253.651C218.011 254.463 215.818 254.86 213.61 254.82Z" fill="#B78876"/>
<path d="M196.475 200.974C196.475 200.822 195.313 200.66 193.427 200.517C192.931 200.517 192.55 200.413 192.474 200.155C192.433 199.667 192.525 199.176 192.741 198.736L193.998 194.897C195.694 189.392 196.856 184.858 196.56 184.772C196.265 184.687 194.655 189.078 192.979 194.583C192.579 195.926 192.198 197.212 191.826 198.479C191.549 199.122 191.498 199.841 191.683 200.517C191.766 200.698 191.889 200.857 192.042 200.982C192.196 201.108 192.376 201.196 192.569 201.241C192.845 201.295 193.127 201.315 193.407 201.298C195.293 201.222 196.465 201.117 196.475 200.974Z" fill="#263238"/>
<path d="M202.637 202.651C199.775 204.034 196.774 205.11 193.684 205.861C194.374 206.799 195.362 207.475 196.487 207.78C197.611 208.084 198.806 207.999 199.875 207.537C203.819 205.803 202.637 202.651 202.637 202.651Z" fill="white"/>
<path d="M196.779 223.844C203.019 223.578 209.037 221.459 214.068 217.758C214.068 217.758 210.505 227.731 196.922 227.34L196.779 223.844Z" fill="#A36957"/>
<path d="M230.46 185.772C230.457 185.252 230.652 184.751 231.006 184.37C231.36 183.989 231.846 183.758 232.365 183.724C234.889 183.658 239.033 184.677 239.395 191.602C239.947 201.536 230.394 199.06 230.365 198.774C230.336 198.488 230.432 189.63 230.46 185.772Z" fill="#B78876"/>
<path d="M232.594 194.897C232.594 194.897 232.765 195.012 233.07 195.126C233.486 195.292 233.95 195.292 234.366 195.126C235.394 194.678 236.185 192.964 236.128 191.173C236.11 190.321 235.899 189.483 235.509 188.725C235.4 188.42 235.218 188.145 234.979 187.926C234.74 187.707 234.451 187.55 234.137 187.468C233.934 187.426 233.723 187.456 233.54 187.554C233.358 187.651 233.215 187.809 233.137 188.001C233.023 188.287 233.137 188.477 233.042 188.497C232.946 188.516 232.823 188.344 232.88 187.925C232.922 187.679 233.046 187.454 233.232 187.287C233.363 187.175 233.514 187.091 233.678 187.039C233.841 186.986 234.014 186.967 234.185 186.982C234.599 187.038 234.992 187.2 235.325 187.452C235.659 187.704 235.922 188.037 236.09 188.42C236.557 189.235 236.821 190.149 236.861 191.087C236.909 193.088 235.985 195.021 234.575 195.517C234.314 195.608 234.035 195.64 233.759 195.608C233.484 195.577 233.219 195.484 232.984 195.336C232.623 195.107 232.556 194.897 232.594 194.897Z" fill="#A36957"/>
<path d="M185.835 187.525C185.867 188.002 186.084 188.449 186.439 188.769C186.795 189.089 187.262 189.258 187.74 189.239C187.974 189.242 188.206 189.198 188.422 189.109C188.638 189.02 188.834 188.888 188.999 188.722C189.163 188.556 189.292 188.359 189.379 188.141C189.465 187.924 189.507 187.692 189.502 187.458C189.475 186.978 189.26 186.528 188.903 186.205C188.547 185.883 188.078 185.713 187.597 185.734C187.363 185.733 187.131 185.778 186.915 185.868C186.698 185.958 186.502 186.091 186.338 186.257C186.174 186.424 186.045 186.623 185.958 186.84C185.872 187.058 185.83 187.291 185.835 187.525Z" fill="#263238"/>
<path d="M182.72 185.687C182.968 185.906 184.282 184.734 186.245 184.648C188.207 184.563 189.731 185.391 189.921 185.144C190.112 184.896 189.759 184.61 189.102 184.191C188.206 183.662 187.168 183.423 186.13 183.505C185.108 183.568 184.132 183.959 183.349 184.62C182.778 185.144 182.568 185.582 182.72 185.687Z" fill="#263238"/>
<path d="M205.428 187.182C205.458 187.66 205.674 188.108 206.03 188.429C206.386 188.749 206.854 188.917 207.333 188.896C207.567 188.899 207.8 188.855 208.016 188.766C208.233 188.677 208.43 188.546 208.595 188.38C208.76 188.214 208.89 188.016 208.978 187.799C209.066 187.582 209.109 187.349 209.105 187.115C209.073 186.638 208.856 186.191 208.5 185.871C208.145 185.551 207.678 185.382 207.2 185.401C206.966 185.399 206.734 185.445 206.518 185.534C206.302 185.623 206.106 185.754 205.941 185.92C205.776 186.086 205.646 186.283 205.558 186.499C205.47 186.716 205.426 186.948 205.428 187.182Z" fill="#263238"/>
<path d="M202.695 185.687C202.942 185.906 204.257 184.734 206.219 184.648C208.181 184.563 209.696 185.391 209.896 185.144C210.096 184.896 209.734 184.61 209.067 184.191C208.175 183.661 207.139 183.421 206.105 183.505C205.082 183.568 204.106 183.959 203.323 184.62C202.752 185.144 202.571 185.582 202.695 185.687Z" fill="#263238"/>
<path d="M215.715 159.997C214.824 162.1 214.562 164.416 214.961 166.665C215.36 168.913 216.403 170.998 217.963 172.666C219.287 174.037 220.964 175.085 222.116 176.619C224.498 179.79 224.107 184.153 224.488 188.096C224.66 189.925 225.088 191.906 226.393 193.116C227.698 194.326 230.251 194.45 231.156 192.878C231.41 192.38 231.578 191.842 231.651 191.287C232.483 186.887 233.308 182.489 234.128 178.095C234.747 174.79 235.375 171.427 234.804 168.094C234.47 166.155 233.734 164.307 232.643 162.669C231.553 161.032 230.131 159.641 228.471 158.586C226.81 157.531 224.947 156.835 223.001 156.543C221.055 156.251 219.07 156.37 217.173 156.892" fill="#252B33"/>
<path d="M217.811 157.206C213.229 156.33 210.658 154.863 207.419 153.396C204.221 151.808 200.567 151.393 197.094 152.225C194.789 152.872 192.607 154.263 190.236 154.234C187.864 154.206 185.759 152.815 183.511 152.101C181.972 151.626 180.354 151.465 178.752 151.629C177.15 151.793 175.597 152.277 174.186 153.053C171.967 154.273 169.976 156.454 169.785 159.121C169.595 161.788 171.976 164.541 174.367 163.779C171.871 164.645 170.862 168.322 172.1 170.77C172.747 171.921 173.734 172.843 174.926 173.411C176.118 173.979 177.457 174.164 178.758 173.942C181.394 173.36 183.761 171.915 185.483 169.837C185.54 172.808 188.521 174.894 191.283 174.809C194.046 174.723 196.541 173.066 198.818 171.361C201.094 169.656 203.399 167.798 206.105 167.198C208.01 166.779 209.915 167.008 211.82 166.779C213.725 166.55 215.773 165.722 216.697 163.921C217.62 162.121 221.278 160.007 219.364 159.95" fill="#252B33"/>
<path d="M190.664 171.827C190.994 172.026 191.334 172.208 191.684 172.37C192.676 172.7 193.749 172.7 194.741 172.37C195.431 172.169 196.09 171.878 196.703 171.504C197.37 171.104 198.046 170.551 198.77 170.065C199.524 169.492 200.323 168.982 201.161 168.541C202.088 168.067 203.111 167.81 204.152 167.789C206.276 167.789 208.191 168.322 209.924 168.17C210.687 168.123 211.431 167.91 212.102 167.545C212.774 167.179 213.357 166.671 213.81 166.055C214.452 165.227 214.854 164.239 214.972 163.198C215.049 162.455 214.973 162.036 215.02 162.036C215.068 162.036 215.068 162.131 215.106 162.331C215.156 162.62 215.175 162.914 215.163 163.207C215.12 164.307 214.748 165.369 214.096 166.255C213.658 166.882 213.098 167.413 212.448 167.817C211.698 168.277 210.849 168.551 209.972 168.618C208.124 168.798 206.162 168.237 204.171 168.275C202.18 168.313 200.466 169.408 199.037 170.427C198.304 170.942 197.618 171.446 196.913 171.847C196.262 172.227 195.559 172.513 194.827 172.694C193.769 173.017 192.632 172.966 191.607 172.551C191.336 172.424 191.086 172.257 190.864 172.056C190.725 171.916 190.658 171.84 190.664 171.827Z" fill="#252B33"/>
<path d="M216.392 152.501C216.401 153.561 216.493 154.618 216.668 155.663C217.001 156.671 217.419 157.65 217.916 158.588C217.068 157.852 216.466 156.874 216.194 155.785C215.921 154.696 215.99 153.549 216.392 152.501Z" fill="#252B33"/>
<path d="M221.469 152.291C221.574 152.396 220.345 153.558 219.43 155.387C218.516 157.216 218.259 158.873 218.116 158.845C218.012 157.556 218.315 156.266 218.983 155.158C219.5 153.972 220.367 152.971 221.469 152.291Z" fill="#252B33"/>
<path d="M285.163 293.53L305.899 346.881H274.162L259.369 308.894L285.163 293.53Z" fill="#B78876"/>
<path d="M172.767 250.21C172.767 250.21 145.42 278.357 133.609 278.357C129.742 278.357 126.713 231.474 126.665 217.958C127.292 216.213 128.188 214.577 129.323 213.109C130.322 211.714 131.476 210.436 132.761 209.299C134.384 207.909 136.188 206.746 138.124 205.842C139.972 205.194 140.124 202.67 138.438 202.165C136.752 201.66 131.628 203.327 127.008 207.68C122.388 212.033 123.788 202.289 124.227 198.736C124.665 195.183 125.493 184.105 124.503 183.134C123.055 181.705 121.217 183.029 120.855 186.592C120.493 190.154 118.75 200.803 116.845 200.527C114.94 200.251 117.473 182.162 117.473 182.162C117.473 182.162 118.626 178.352 116.521 177.971C112.634 177.276 111.425 196.669 111.358 198.517C111.358 199.803 109.263 199.584 109.386 198.203C109.51 196.822 112.244 180.2 108.329 179.448C105.31 178.876 107.186 195.402 104.7 198.574C102.214 201.746 104.557 185.858 101.642 185.429C100.557 185.277 99.7374 185.306 99.7374 194.583C99.7374 199.574 101.642 207.109 100.899 216.71C102.157 245.057 100.766 324.658 132.332 315.228C167.013 304.846 190.712 282.129 190.712 282.129L172.767 250.21Z" fill="#B78876"/>
<path d="M249.33 275.433C249.471 275.796 249.573 276.172 249.634 276.557C249.806 277.281 250.025 278.338 250.273 279.652C250.758 282.281 251.339 285.929 251.787 289.978C252.235 294.026 252.463 297.712 252.559 300.379C252.559 301.712 252.625 302.798 252.616 303.541C252.646 303.93 252.627 304.32 252.559 304.703C252.478 304.324 252.433 303.938 252.425 303.551C252.368 302.703 252.292 301.646 252.206 300.398C252.025 297.741 251.74 294.073 251.254 290.035C250.768 285.996 250.301 282.348 249.882 279.709C249.692 278.471 249.539 277.433 249.406 276.595C249.335 276.212 249.31 275.822 249.33 275.433Z" fill="#263238"/>
<path d="M168.137 346.88L255.502 347.318L252.559 328.878C253.33 320.126 253.288 311.323 252.435 302.579L256.864 314.571L292.974 296.473C292.974 296.473 279.848 261.478 268.856 249.619C254.978 234.636 229.994 236.131 229.994 236.131L213.115 247.562L197.58 236.617C189.246 237.595 181.134 239.954 173.576 243.599L172.776 243.828V243.999C163.613 248.762 150.535 260.449 138.086 271.775L152.459 285.767L168.376 300.598C169.277 300.464 170.19 300.426 171.1 300.483C171.366 302.122 168.137 346.88 168.137 346.88Z" fill="#252B33"/>
<path opacity="0.2" d="M249.749 269.841L261.627 312.19L256.864 314.571L252.444 302.579C252.444 302.579 248.13 277.471 249.749 269.841Z" fill="#535A5E"/>
<path d="M196.608 236.494V231.922C196.608 231.922 210.248 230.864 213.01 246.981C213.01 246.981 217.459 231.922 230.699 230.407L232.604 237.446C232.604 237.446 226.327 257.059 225.422 257.23C224.517 257.401 213.039 260.745 213.039 260.745L206.371 259.24L198.989 250.829L196.608 236.494Z" fill="#393E44"/>
<path d="M232.899 236.913C232.673 237.202 232.418 237.467 232.137 237.703C231.641 238.208 230.917 238.913 230.06 239.837C227.835 242.224 225.853 244.828 224.145 247.609C223.726 248.295 223.345 248.971 222.983 249.629L222.764 250.029L222.554 249.629C221.04 246.771 219.697 244.295 218.668 242.361C218.447 241.988 218.152 241.664 217.801 241.408C217.52 241.214 217.191 241.099 216.849 241.075C216.566 241.071 216.285 241.12 216.02 241.218C216.02 241.218 216.239 240.913 216.858 240.904C217.229 240.898 217.593 241.001 217.906 241.199C218.313 241.465 218.658 241.816 218.916 242.228C219.992 244.028 221.364 246.552 222.954 249.438H222.573C222.935 248.771 223.316 248.076 223.745 247.39C225.458 244.57 227.502 241.964 229.832 239.627C230.727 238.732 231.489 238.056 232.032 237.598C232.286 237.329 232.578 237.099 232.899 236.913Z" fill="white"/>
<path d="M195.722 237.761C195.967 237.96 196.185 238.191 196.37 238.446C196.77 238.913 197.323 239.589 197.999 240.437C199.361 242.123 201.209 244.476 203.228 247.105L203.552 247.524H203.133C203.866 246.181 203.923 244.666 204.257 243.276C204.469 242.013 205.149 240.877 206.162 240.094C206.52 239.857 206.928 239.705 207.354 239.651C207.78 239.596 208.213 239.64 208.619 239.78C208.833 239.87 209.029 239.996 209.2 240.151C209.305 240.275 209.343 240.342 209.334 240.351C209.092 240.193 208.833 240.062 208.562 239.961C208.185 239.867 207.793 239.856 207.411 239.928C207.03 240 206.669 240.155 206.352 240.38C205.461 241.147 204.881 242.215 204.724 243.38C204.547 244.886 204.166 246.36 203.59 247.762L203.409 248.095L203.18 247.791L202.857 247.371C200.837 244.752 199.047 242.361 197.742 240.618C197.103 239.751 196.589 239.037 196.237 238.542C196.033 238.304 195.86 238.042 195.722 237.761Z" fill="white"/>
<path d="M205.428 346.88C205.416 346.792 205.416 346.702 205.428 346.614C205.428 346.423 205.428 346.166 205.428 345.861C205.428 345.156 205.514 344.185 205.581 342.946C205.743 340.384 205.981 336.736 206.257 332.25C206.886 323.182 207.743 310.723 208.686 296.959L211.248 261.716C211.6 257.23 211.886 253.591 212.086 251.029C212.191 249.791 212.277 248.819 212.343 248.124C212.343 247.809 212.401 247.562 212.42 247.362C212.409 247.279 212.409 247.196 212.42 247.114C212.436 247.199 212.436 247.286 212.42 247.371V248.124C212.42 248.829 212.324 249.8 212.258 251.038C212.096 253.601 211.867 257.249 211.581 261.735C210.962 270.803 210.105 283.262 209.162 297.026C208.219 310.79 207.257 323.248 206.59 332.269C206.238 336.755 205.962 340.394 205.762 342.956C205.647 344.194 205.562 345.166 205.504 345.871C205.504 346.175 205.447 346.423 205.428 346.623C205.442 346.708 205.442 346.795 205.428 346.88Z" fill="#263238"/>
<path d="M174.062 262.145C174.078 262.651 174.05 263.158 173.976 263.659C173.9 264.717 173.786 266.098 173.652 267.774C173.395 271.241 173.129 276.052 172.833 281.367C172.538 286.682 172.214 291.482 171.881 294.959C171.709 296.693 171.538 298.102 171.395 299.064C171.349 299.57 171.256 300.071 171.119 300.56C171.103 300.053 171.131 299.547 171.205 299.045C171.29 297.988 171.395 296.597 171.528 294.93C171.795 291.454 172.052 286.644 172.357 281.338C172.662 276.033 172.967 271.213 173.31 267.736C173.481 266.003 173.652 264.602 173.795 263.631C173.842 263.129 173.932 262.632 174.062 262.145Z" fill="#535A5E"/>
<path d="M212.096 244.676C212.096 244.676 207.41 250.8 208.095 251.715L212.096 257.058H214.953C214.953 257.058 217.621 249.572 216.935 248.619C216.249 247.667 212.096 244.676 212.096 244.676Z" fill="#FFE147"/>
<path d="M219.24 243.028L214.068 247.067L216.049 250.867L221.364 246.943L219.24 243.028Z" fill="#FFE147"/>
<path d="M204.047 245.581L208.762 249.514L211.372 245.581L205.419 241.056L204.047 245.581Z" fill="#FFE147"/>
<path d="M212.039 257.049L204.847 321.496L211.924 343.899L221.364 321.696L215.153 256.287L212.039 257.049Z" fill="#FFE147"/>
<path d="M262.36 245.076C262.063 244.835 261.744 244.621 261.408 244.438C260.478 244.007 259.419 243.945 258.445 244.266C257.019 244.813 255.753 245.707 254.759 246.867C253.448 248.219 252.315 249.733 251.387 251.372C249.714 254.371 248.737 257.708 248.53 261.135C248.377 263.774 248.711 265.403 248.606 265.412C248.488 265.043 248.405 264.663 248.358 264.279C248.212 263.234 248.155 262.18 248.187 261.126C248.288 257.617 249.239 254.185 250.959 251.124C251.905 249.447 253.074 247.906 254.435 246.543C255.491 245.347 256.84 244.447 258.35 243.933C258.871 243.775 259.419 243.722 259.96 243.78C260.502 243.837 261.026 244.002 261.503 244.266C261.756 244.413 261.985 244.6 262.179 244.819C262.322 244.971 262.37 245.066 262.36 245.076Z" fill="#263238"/>
<path d="M330.436 165.369C324.331 169.113 320.092 175.371 317.577 182.067C315.063 188.763 314.11 195.945 313.367 203.022C311.399 221.836 310.74 240.763 311.395 259.668C334.475 262.583 357.735 265.517 380.929 263.935C376.9 237.427 374.347 210.947 377.576 184.324" fill="#263238"/>
<path d="M382.282 385.657L365.451 351.671L371.871 326.811C372.623 332.078 373.29 336.65 373.29 336.65L409.342 334.745C409.66 334.729 409.97 334.646 410.254 334.503C410.537 334.36 410.788 334.159 410.99 333.913C411.191 333.668 411.34 333.383 411.425 333.076C411.51 332.77 411.531 332.45 411.486 332.135L404.504 282.414C404.504 282.414 402.246 259.344 380.405 250.772H380.3C379.424 250.429 378.51 250.124 377.567 249.819C348.124 239.608 320.549 239.675 289.869 250.143C289.869 250.143 276.238 253.81 269.628 271.594C263.017 289.377 256.292 315.514 256.292 315.514L286.868 326.344L287.068 321.172L293.831 347.042L279 384.724L330.77 386L382.282 385.657Z" fill="#FFE147"/>
<path d="M256.321 315.181L252.883 331.373C249.93 345.328 260.265 359.654 274.438 361.263L349.791 368.998C353.762 369.445 357.782 369.093 361.615 367.964C365.448 366.834 369.016 364.949 372.109 362.419C375.202 359.889 377.758 356.767 379.626 353.234C381.494 349.702 382.637 345.832 382.986 341.851L287.983 332.802L288.573 323.677L256.321 315.181Z" fill="#FFE147"/>
<path d="M350.553 331.745L356.402 330.659C356.402 330.659 370.27 315.485 372.871 315.276C375.014 315.095 386.815 315.209 390.968 315.276C391.344 315.281 391.703 315.433 391.966 315.701C392.23 315.968 392.378 316.329 392.378 316.705C392.378 317.075 392.234 317.432 391.977 317.698C391.719 317.965 391.368 318.121 390.997 318.133L377.062 318.676L376.995 319.8L390.949 319.981C392.378 320.095 393.283 322.343 388.74 322.753L377.062 323.163V323.886L388.901 325.544C389.502 325.63 391.073 325.934 391.083 326.544C391.083 326.544 391.807 328.02 388.425 328.449C387.273 328.592 376.995 328.249 376.995 328.249L377.386 329.201L388.035 331.497C388.407 331.578 388.735 331.796 388.953 332.109C389.17 332.422 389.261 332.806 389.206 333.183C389.154 333.569 388.954 333.92 388.648 334.161C388.343 334.403 387.956 334.516 387.568 334.478L376.204 333.431L365.041 342.337H350.087L350.553 331.745Z" fill="#FFBE9D"/>
<path d="M313.52 242.808C313.52 242.808 328.198 317.867 333.37 317.324C338.542 316.781 362.803 245.38 362.803 245.38C362.803 245.38 331.798 235.941 313.52 242.808Z" fill="#FAFAFA"/>
<path d="M378.472 315.467C378.338 315.467 378.224 310.285 378.224 303.903C378.224 297.521 378.338 292.349 378.472 292.349C378.605 292.349 378.719 297.521 378.719 303.903C378.719 310.285 378.614 315.467 378.472 315.467Z" fill="#252B33"/>
<path d="M288.364 315.952C288.385 314.838 288.487 313.727 288.669 312.628C288.926 310.57 289.307 307.751 289.764 304.636C290.221 301.522 290.65 298.693 290.993 296.664C291.13 295.554 291.35 294.455 291.65 293.378C291.629 294.495 291.527 295.609 291.345 296.711C291.088 298.759 290.707 301.588 290.25 304.703C289.793 307.818 289.364 310.628 289.021 312.666C288.884 313.776 288.664 314.875 288.364 315.952Z" fill="#252B33"/>
<path d="M330.77 385.953C330.743 385.722 330.743 385.488 330.77 385.257C330.77 384.752 330.77 384.095 330.77 383.267C330.77 381.533 330.77 379.028 330.836 375.932C330.951 369.741 331.284 361.197 331.713 351.767C332.141 342.337 332.522 333.793 332.732 327.602C332.817 324.554 332.894 322.068 332.951 320.277C332.951 319.458 332.951 318.791 333.008 318.286C333.002 318.053 333.022 317.82 333.065 317.591C333.086 317.822 333.086 318.055 333.065 318.286C333.065 318.788 333.065 319.454 333.065 320.286C333.065 322.01 333.065 324.515 333.008 327.611C332.894 333.802 332.551 342.347 332.132 351.786C331.713 361.225 331.312 369.76 331.112 375.942C331.017 378.999 330.941 381.485 330.893 383.267C330.893 384.095 330.893 384.762 330.827 385.257C330.822 385.49 330.803 385.722 330.77 385.953Z" fill="#252B33"/>
<path d="M362.679 245.257C362.679 245.257 362.726 245.581 362.841 246.209C363.005 247.096 363.257 247.964 363.593 248.8C364.13 250.117 364.767 251.391 365.498 252.61C366.485 254.238 367.384 255.917 368.194 257.639C369.229 259.753 369.626 262.123 369.337 264.459C369.101 265.756 368.577 266.983 367.803 268.05C366.998 269.16 366.099 270.199 365.117 271.156C363.02 273.165 361.107 275.358 359.402 277.709C357.584 280.228 356.559 283.233 356.459 286.339C356.46 287.899 356.805 289.441 357.468 290.854C358.166 292.242 358.783 293.67 359.316 295.13C359.557 295.874 359.657 296.655 359.612 297.435C359.556 298.213 359.311 298.965 358.897 299.626C358.032 300.804 356.957 301.812 355.725 302.598L343.79 311.399L335.723 317.286L333.513 318.877L332.932 319.277L332.722 319.4C332.722 319.4 332.779 319.334 332.903 319.229L333.456 318.791L335.608 317.133L343.543 311.104L355.411 302.227C356.593 301.471 357.623 300.502 358.45 299.369C358.825 298.775 359.048 298.098 359.097 297.397C359.133 296.671 359.036 295.945 358.812 295.254C358.282 293.816 357.668 292.41 356.973 291.044C356.282 289.572 355.924 287.965 355.925 286.339C356.025 283.136 357.084 280.037 358.964 277.442C360.686 275.065 362.625 272.852 364.755 270.832C366.708 268.927 368.508 266.822 368.889 264.383C369.187 262.127 368.82 259.833 367.832 257.782C367.049 256.057 366.175 254.375 365.212 252.743C364.5 251.494 363.886 250.192 363.374 248.848C363.052 247.993 362.828 247.105 362.707 246.2C362.673 245.966 362.65 245.731 362.641 245.495C362.64 245.414 362.653 245.333 362.679 245.257Z" fill="#252B33"/>
<path d="M333.313 316.552H333.084L332.408 316.428C331.547 316.249 330.697 316.017 329.865 315.733C326.796 314.695 323.953 313.078 321.492 310.971C317.813 307.806 315.141 303.634 313.805 298.969C313.018 296.229 312.696 293.376 312.853 290.53C312.931 289.03 313.132 287.539 313.453 286.072C313.817 284.612 313.859 283.091 313.577 281.614C313.379 280.913 312.978 280.287 312.424 279.814C311.832 279.381 311.168 279.059 310.462 278.861C309.757 278.623 309.024 278.433 308.309 278.137C307.6 277.844 306.953 277.417 306.404 276.88C305.372 275.794 304.689 274.424 304.442 272.946C304.178 271.569 304.101 270.162 304.214 268.765C304.659 263.981 305.709 259.273 307.338 254.753C308.425 251.711 309.763 248.764 311.338 245.942C311.9 244.99 312.358 244.19 312.691 243.695L313.062 243.123C313.1 243.052 313.148 242.988 313.205 242.932C313.205 242.932 313.205 243.009 313.11 243.142L312.777 243.742C312.472 244.256 312.043 245.038 311.5 246.038C310.01 248.881 308.736 251.833 307.69 254.867C306.136 259.372 305.128 264.048 304.69 268.793C304.597 270.151 304.681 271.515 304.938 272.851C305.173 274.232 305.809 275.514 306.766 276.537C307.284 277.026 307.888 277.413 308.548 277.68C309.214 277.956 309.938 278.147 310.672 278.395C311.437 278.616 312.154 278.978 312.786 279.461C313.419 279.997 313.877 280.711 314.101 281.509C314.407 283.058 314.368 284.655 313.986 286.186C313.673 287.635 313.472 289.107 313.386 290.587C313.245 293.383 313.567 296.183 314.339 298.874C315.633 303.466 318.23 307.585 321.816 310.732C324.231 312.85 327.014 314.506 330.027 315.619C331.094 316 331.932 316.247 332.532 316.4L333.189 316.571C333.23 316.563 333.271 316.557 333.313 316.552Z" fill="#252B33"/>
<path d="M372.957 331.85L309.833 329.811L309.929 350.767L351.725 359.949L381.129 364.645C399.398 364.645 414.019 347.871 411.19 329.821H411.114L372.957 331.85Z" fill="#FFE147"/>
<path d="M390.33 331.45C390.06 331.493 389.785 331.512 389.511 331.507L387.168 331.574L378.538 331.726C371.252 331.84 361.183 331.964 350.058 331.85C338.933 331.736 328.865 331.345 321.588 330.897C317.949 330.65 315.015 330.421 313.015 330.211L310.681 329.973C310.405 329.959 310.131 329.92 309.862 329.859C310.135 329.836 310.409 329.836 310.681 329.859L313.024 330.002C315.063 330.145 318.006 330.326 321.597 330.526C328.874 330.926 338.933 331.278 350.058 331.383C361.183 331.488 371.233 331.383 378.519 331.383H387.159H389.502C389.779 331.385 390.056 331.407 390.33 331.45Z" fill="#252B33"/>
<path d="M309.3 331.745L303.452 330.659C303.452 330.659 289.583 315.485 286.973 315.276C284.839 315.095 273.038 315.209 268.923 315.276C268.547 315.281 268.189 315.433 267.925 315.701C267.661 315.968 267.513 316.329 267.513 316.705C267.513 317.074 267.656 317.429 267.911 317.695C268.167 317.961 268.516 318.119 268.885 318.133L282.83 318.676L282.896 319.8L268.932 319.981C267.513 320.095 266.599 322.343 271.152 322.753L282.83 323.163V323.886L270.99 325.544C270.39 325.63 268.818 325.934 268.799 326.544C268.799 326.544 268.085 328.02 271.457 328.449C272.619 328.592 282.887 328.249 282.887 328.249L282.487 329.201L271.847 331.497C271.475 331.58 271.148 331.798 270.929 332.11C270.71 332.423 270.616 332.805 270.666 333.183C270.721 333.568 270.921 333.917 271.226 334.158C271.531 334.399 271.917 334.514 272.304 334.478L283.677 333.431L294.841 342.337H309.757L309.3 331.745Z" fill="#FFBE9D"/>
<path d="M380.005 364.302C379.768 364.329 379.528 364.329 379.291 364.302L377.252 364.083C375.471 363.883 372.918 363.559 369.756 363.13C363.431 362.254 354.725 360.873 345.172 359.006C335.618 357.139 327.074 355.119 320.844 353.538C317.758 352.757 315.263 352.09 313.548 351.633L311.576 351.062C311.343 351.003 311.113 350.926 310.891 350.833C311.13 350.853 311.366 350.898 311.595 350.966L313.596 351.443L320.93 353.233C327.131 354.719 335.723 356.672 345.267 358.548C354.811 360.425 363.507 361.854 369.804 362.816L377.271 363.93L379.3 364.245C379.536 364.25 379.771 364.269 380.005 364.302Z" fill="#252B33"/>
<path d="M310.5 350.852C310.222 349.878 310.037 348.88 309.948 347.871C309.7 345.966 309.433 343.432 309.281 340.584C309.128 337.736 309.138 335.136 309.195 333.259C309.181 332.248 309.261 331.237 309.433 330.24C309.546 331.245 309.584 332.258 309.547 333.269C309.547 335.174 309.633 337.707 309.776 340.555C309.919 343.404 310.138 345.966 310.3 347.823C310.434 348.827 310.5 349.839 310.5 350.852Z" fill="#252B33"/>
<path d="M317.396 351.671C317.27 351.418 317.177 351.149 317.12 350.871C316.977 350.357 316.787 349.595 316.596 348.652C315.582 343.71 315.261 338.651 315.644 333.621C315.72 332.669 315.815 331.878 315.901 331.345C315.916 331.065 315.974 330.788 316.072 330.526C316.108 331.564 316.082 332.604 315.996 333.64C315.92 335.545 315.891 338.212 316.072 341.137C316.253 344.061 316.596 346.69 316.901 348.585C317.13 349.603 317.295 350.633 317.396 351.671Z" fill="#252B33"/>
<path d="M311.567 333.593C311.624 333.65 311.262 333.907 311.272 334.545C311.272 334.707 311.305 334.867 311.371 335.014C311.437 335.162 311.533 335.294 311.653 335.402C311.809 335.507 311.993 335.563 312.181 335.563C312.37 335.563 312.553 335.507 312.71 335.402C312.881 335.313 313.02 335.175 313.11 335.005C313.2 334.834 313.237 334.641 313.215 334.45C313.183 334.292 313.118 334.142 313.025 334.011C312.931 333.88 312.811 333.769 312.672 333.688C312.167 333.383 311.719 333.564 311.719 333.488C311.719 333.412 312.11 333.078 312.824 333.383C313.028 333.467 313.21 333.596 313.355 333.761C313.5 333.926 313.606 334.123 313.663 334.336C313.696 334.618 313.646 334.904 313.518 335.158C313.391 335.412 313.191 335.623 312.944 335.764C312.697 335.906 312.414 335.971 312.13 335.952C311.846 335.934 311.574 335.832 311.348 335.66C311.185 335.507 311.06 335.318 310.984 335.107C310.908 334.897 310.882 334.672 310.91 334.45C311.024 333.717 311.567 333.526 311.567 333.593Z" fill="#252B33"/>
<path d="M323.045 354.767C322.83 354.794 322.612 354.794 322.397 354.767C321.969 354.767 321.349 354.767 320.54 354.767C318.27 354.827 316.008 355.04 313.767 355.405C310.446 355.969 307.156 356.7 303.909 357.596C300.223 358.549 296.203 359.739 291.888 360.682C287.83 361.629 283.672 362.08 279.505 362.025C276.1 361.937 272.731 361.294 269.533 360.12C267.387 359.307 265.376 358.173 263.57 356.758C263.084 356.371 262.623 355.954 262.189 355.51C262.025 355.368 261.878 355.209 261.751 355.034C261.751 355.034 262.408 355.643 263.656 356.605C265.48 357.948 267.488 359.019 269.618 359.787C272.808 360.918 276.16 361.526 279.544 361.587C283.663 361.613 287.772 361.152 291.783 360.215C296.07 359.263 300.099 358.12 303.795 357.167C307.063 356.292 310.376 355.592 313.72 355.072C315.978 354.74 318.258 354.581 320.54 354.596C321.349 354.596 321.978 354.596 322.397 354.681C322.615 354.689 322.832 354.718 323.045 354.767Z" fill="#252B33"/>
<path d="M350.811 251.648C352.306 243.285 354.04 234.503 354.04 234.503C354.04 234.503 365.146 234.608 369.861 220.93C374.357 207.88 377.605 176.485 377.605 176.485C370.49 172.063 362.193 169.922 353.827 170.349C345.461 170.776 337.425 173.752 330.798 178.876L319.73 247.057C318.444 254.972 324.226 262.383 332.713 263.688C341.276 265.012 349.382 259.668 350.811 251.648Z" fill="#FFBE9D"/>
<path d="M369.347 199.993C369.269 200.464 369.011 200.886 368.626 201.169C368.242 201.452 367.762 201.574 367.289 201.508C367.055 201.488 366.828 201.421 366.621 201.311C366.414 201.201 366.231 201.05 366.083 200.868C365.935 200.686 365.826 200.475 365.762 200.25C365.697 200.024 365.679 199.788 365.708 199.555C365.788 199.083 366.048 198.661 366.434 198.378C366.82 198.095 367.301 197.974 367.775 198.041C368.007 198.063 368.233 198.132 368.438 198.243C368.644 198.353 368.825 198.504 368.972 198.686C369.118 198.868 369.227 199.077 369.291 199.302C369.355 199.526 369.374 199.761 369.347 199.993Z" fill="#263238"/>
<path d="M372.633 198.488C372.366 198.688 371.175 197.431 369.232 197.098C367.289 196.764 365.698 197.479 365.527 197.202C365.441 197.088 365.746 196.697 366.479 196.355C367.423 195.923 368.477 195.79 369.499 195.974C370.511 196.152 371.441 196.646 372.156 197.383C372.633 197.945 372.756 198.402 372.633 198.488Z" fill="#263238"/>
<path d="M349.401 196.802C349.321 197.272 349.062 197.693 348.678 197.975C348.294 198.258 347.816 198.38 347.343 198.317C346.881 198.273 346.455 198.048 346.159 197.691C345.862 197.334 345.72 196.874 345.762 196.412C345.842 195.939 346.102 195.516 346.488 195.232C346.873 194.948 347.354 194.824 347.829 194.888C348.29 194.936 348.714 195.164 349.008 195.522C349.302 195.881 349.443 196.34 349.401 196.802Z" fill="#263238"/>
<path d="M352.239 195.63C351.973 195.821 350.782 194.573 348.839 194.23C346.896 193.887 345.305 194.621 345.134 194.345C345.048 194.221 345.343 193.83 346.086 193.487C347.03 193.055 348.085 192.925 349.105 193.116C350.118 193.288 351.049 193.778 351.763 194.516C352.239 195.078 352.363 195.545 352.239 195.63Z" fill="#263238"/>
<path d="M356.745 211.271C357.827 211.141 358.92 211.141 360.002 211.271C360.507 211.271 360.955 211.271 361.136 210.966C361.268 210.463 361.245 209.932 361.069 209.442C360.812 208.156 360.545 206.813 360.269 205.403C359.174 199.688 358.478 194.983 358.716 194.926C358.954 194.869 360.012 199.498 361.107 205.232C361.364 206.651 361.612 207.994 361.841 209.28C362.044 209.934 362.014 210.638 361.755 211.271C361.652 211.435 361.512 211.573 361.347 211.674C361.182 211.775 360.995 211.836 360.802 211.852C360.515 211.892 360.223 211.892 359.936 211.852C358.851 211.797 357.779 211.601 356.745 211.271Z" fill="#263238"/>
<path d="M354.021 234.503C347.376 233.43 341.158 230.539 336.056 226.149C336.056 226.149 338.914 236.627 353.201 237.789L354.021 234.503Z" fill="#EB996E"/>
<path d="M355.106 215.853C354.823 215.314 354.406 214.856 353.896 214.522C353.386 214.189 352.799 213.991 352.192 213.948C351.757 213.911 351.319 213.963 350.905 214.1C350.49 214.238 350.108 214.458 349.782 214.748C349.463 215.024 349.238 215.392 349.137 215.802C349.037 216.211 349.066 216.641 349.22 217.034C349.47 217.437 349.835 217.756 350.267 217.951C350.7 218.146 351.181 218.208 351.649 218.129C352.623 217.963 353.555 217.607 354.392 217.081C354.639 216.965 354.862 216.803 355.049 216.605C355.141 216.511 355.201 216.392 355.224 216.263C355.246 216.133 355.228 216 355.173 215.881" fill="#EB996E"/>
<path d="M350.801 211.614C351.115 211.614 350.744 213.757 352.287 215.576C353.83 217.395 356.097 217.548 356.097 217.853C356.097 217.986 355.525 218.167 354.573 218.024C353.336 217.828 352.209 217.201 351.391 216.252C350.594 215.358 350.171 214.192 350.21 212.995C350.325 212.042 350.658 211.576 350.801 211.614Z" fill="#263238"/>
<path d="M340.314 168.817C344.076 177.114 356.268 187.21 365.679 190.792C364.822 189.077 359.536 184.258 358.678 182.553C362.488 186.677 367.965 192.278 373.766 193.678C374.437 193.904 375.159 193.927 375.843 193.745C376.22 193.542 376.546 193.255 376.795 192.907C377.045 192.558 377.211 192.157 377.281 191.735C378.402 187.548 379.066 183.253 379.262 178.923C379.474 175.277 378.281 171.688 375.928 168.893C372.718 165.283 367.48 163.559 362.441 162.483C358.212 161.588 353.792 161.016 349.62 161.816C345.448 162.616 341.562 165.017 340.314 168.551" fill="#263238"/>
<path d="M317.873 200.06C317.797 196.839 317.918 193.617 318.235 190.411C319.187 183.086 321.464 156.444 346.048 163.302L343.438 170.132C343.438 170.132 345.343 187.277 332.703 196.478C332.703 196.478 332.761 213.624 324.016 219.767C324.016 219.767 317.92 208.166 317.873 200.069" fill="#263238"/>
<path d="M333.227 195.307C331.775 194.723 330.19 194.549 328.645 194.802C327.105 195.079 325.737 195.952 324.835 197.231C324 198.567 323.704 200.171 324.007 201.717C324.316 203.255 324.967 204.703 325.912 205.956C326.52 206.891 327.339 207.671 328.302 208.232C328.792 208.508 329.342 208.658 329.904 208.67C330.466 208.681 331.021 208.554 331.522 208.299" fill="#FFBE9D"/>
<path d="M330.789 204.289C330.951 204.375 330.141 205.175 328.827 204.556C328.482 204.368 328.177 204.114 327.93 203.808C327.683 203.503 327.499 203.151 327.388 202.774C327.11 201.928 327.006 201.033 327.083 200.146C327.133 199.194 327.522 198.292 328.179 197.602C328.458 197.308 328.8 197.082 329.18 196.94C329.559 196.798 329.966 196.744 330.37 196.783C331.789 197.002 332.056 198.06 331.884 198.06C331.713 198.06 331.294 197.555 330.332 197.612C329.727 197.728 329.183 198.057 328.801 198.539C328.418 199.022 328.221 199.625 328.246 200.241C328.141 201.822 328.484 203.346 329.246 203.841C330.008 204.337 330.722 204.146 330.789 204.289Z" fill="#EB996E"/>
<path d="M330.77 208.29C326.96 231.064 330.055 254.344 330.77 277.433C330.836 279.642 330.855 281.957 329.817 283.929C328.303 286.91 324.759 288.368 321.416 288.568C318.073 288.768 314.748 287.996 311.424 287.72C311.062 285.51 310.71 283.291 310.348 281.052C309.233 283.605 308.119 286.148 307.014 288.672C308.481 272.48 310.087 256.287 311.834 240.094" fill="#263238"/>
</svg>
