<svg width="90" height="90" viewBox="0 0 90 90" fill="none" xmlns="http://www.w3.org/2000/svg">
<rect x="50" y="62" width="18" height="18" rx="9" fill="#FFE147"/>
<path d="M24.3921 42.6391C24.3921 42.6391 22.215 42.3691 22.0985 43.4307C21.8723 45.9748 21.8723 48.534 22.0985 51.0782C22.2321 51.7813 22.5037 52.451 22.8974 53.0486C23.2911 53.6463 23.7989 54.1602 24.3921 54.5605C26.0882 55.5644 28.6614 54.5604 28.8818 55.0935C29.4587 56.5312 30.445 62.2703 33.0734 66.3814C35.7019 70.4925 36.4612 70.6356 38.0454 71.5356C40.3473 72.71 42.9444 73.1805 45.5121 72.888C49.1316 72.6884 50.3765 72.6571 52.7522 70.8514C55.2596 69.0983 57.1578 66.6069 58.1822 63.7241C59.2603 60.9206 60.1088 58.0343 60.7203 55.0935C61.0123 54.3343 64.1139 55.5644 65.8827 54.5605C66.4388 54.1573 66.8987 53.6358 67.2292 53.0337C67.5598 52.4316 67.7532 51.7638 67.7949 51.0782C67.7949 51.0782 68.2564 44.2706 67.7949 43.4307C67.3334 42.5907 65.8827 42.6391 65.8827 42.6391" stroke="#252B33" stroke-width="3.5"/>
<path d="M43.2483 46.3015C43.2483 46.3015 43.489 51.5051 40.8871 51.7313C38.2852 51.9574 27.5223 51.8467 27.1842 51.7313C26.7796 51.7601 26.3738 51.6931 25.9999 51.5358C25.626 51.3784 25.2948 51.1351 25.0326 50.8256C24.4384 49.8202 24.0545 48.7045 23.9041 47.5464V39.8526C24.0105 38.9916 24.4088 38.1931 25.0326 37.5901C25.8772 37.0036 26.844 36.6173 27.8603 36.4604H62.3603C63.3665 36.777 64.2664 37.3637 64.9621 38.1565C65.4498 39.0139 65.6478 40.0056 65.5272 40.9845V47.5475C65.5944 48.6695 65.4011 49.792 64.9621 50.8267C64.7155 51.1814 64.3966 51.4801 64.0268 51.7034C63.6571 51.9266 63.2448 52.0695 62.8161 52.1225C62.8161 52.1225 49.7927 52.6891 47.9904 51.4014C46.1881 50.1137 46.752 46.3027 46.752 46.3027L43.2483 46.3015Z" stroke="#252B33" stroke-width="3.5" stroke-linecap="round" stroke-linejoin="round"/>
<path d="M26.0632 36.4593C26.0632 36.4593 25.5405 16.2166 45.0333 16.2166C64.5262 16.2166 63.3955 36.4593 63.3955 36.4593" stroke="#252B33" stroke-width="3.5" stroke-linecap="round" stroke-linejoin="round"/>
</svg>
