<svg width="90" height="90" viewBox="0 0 90 90" fill="none" xmlns="http://www.w3.org/2000/svg">
<rect x="50" y="62" width="18" height="18" rx="9" fill="#FFE147"/>
<path d="M34.0541 26.9868C30.9288 26.9868 28.3953 29.5204 28.3953 32.6456V56.7248C28.3953 59.85 30.9288 62.3835 34.0541 62.3835H54.9153C58.0406 62.3835 60.5741 59.85 60.5741 56.7248V32.6456C60.5741 29.5204 58.0406 26.9868 54.9153 26.9868H34.0541ZM34.0541 23.5916H54.9153C59.9077 23.5916 63.9694 27.6532 63.9694 32.6456V56.7248C63.9694 61.7172 59.9077 65.7788 54.9153 65.7788H34.0541C29.0616 65.7788 25 61.7172 25 56.7248V32.6456C25 27.6532 29.0616 23.5916 34.0541 23.5916Z" fill="#252B33"/>
<path d="M53.0104 30.0027H36.0341C33.5338 30.0027 31.507 32.0295 31.507 34.5297V54.9014C31.507 57.4016 33.5338 59.4284 36.0341 59.4284H53.0104C55.5106 59.4284 57.5374 57.4016 57.5374 54.9014V34.5297C57.5374 32.0295 55.5106 30.0027 53.0104 30.0027Z" stroke="#252B33" stroke-width="3"/>
<path d="M31.507 25.211C31.507 24.7674 33.2828 19.3258 33.061 17" stroke="#252B33" stroke-width="3.5" stroke-linecap="round"/>
<path d="M57.9727 25.211C57.9727 24.7674 56.1975 19.3258 56.4193 17" stroke="#252B33" stroke-width="3.5" stroke-linecap="round"/>
<path d="M31.507 64.5339C31.507 64.9776 33.2828 70.4192 33.061 72.745" stroke="#252B33" stroke-width="3.5" stroke-linecap="round"/>
<path d="M57.9727 64.5339C57.9727 64.9776 56.1975 70.4192 56.4193 72.745" stroke="#252B33" stroke-width="3.5" stroke-linecap="round"/>
<path d="M63.3457 32.3909H65.1566V36.499H63.3457V32.3909Z" fill="#252B33" stroke="#252B33" stroke-linejoin="round"/>
<path d="M63.3457 39.1814H65.1566V45.2734H63.3457V39.1814Z" fill="#252B33" stroke="#252B33" stroke-linejoin="round"/>
<path d="M32.8653 39.2119H42.4443C42.4443 39.2119 44.2335 34.5921 44.8084 34.5321C45.3834 34.4721 47.4115 42.364 47.9197 42.364C48.4278 42.364 50.4222 37.3072 50.9054 37.2065C51.3887 37.1057 52.896 39.2119 52.896 39.2119H56.8776" stroke="#252B33" stroke-width="2.5" stroke-linecap="round" stroke-linejoin="round"/>
<path d="M40.5324 55.9551C40.5324 55.9551 37.8442 53.1405 37.4457 50.8859C37.0166 48.4159 37.756 47.5785 38.2883 47.0008C38.6678 46.6272 39.1533 46.3798 39.6786 46.2924C40.2039 46.205 40.7433 46.2818 41.2234 46.5123C41.9643 46.8512 42.5454 47.4635 42.8452 48.221C43.52 47.8045 44.3193 47.6371 45.1045 47.748C45.5867 47.8098 46.0387 48.0171 46.4001 48.3423C46.7615 48.6674 47.0152 49.0951 47.1275 49.5682C47.3072 50.101 47.347 50.6711 47.2433 51.2237C47.1395 51.7764 46.8956 52.2931 46.5348 52.7244C44.7195 54.9986 40.5324 55.9551 40.5324 55.9551Z" stroke="#252B33" stroke-width="2" stroke-linecap="round" stroke-linejoin="round"/>
<path d="M39.4346 50.14C39.5409 49.7626 39.7132 49.4069 39.9433 49.0894C40.1986 48.8969 40.5079 48.7892 40.8275 48.7816" stroke="#252B33" stroke-linecap="round" stroke-linejoin="bevel"/>
</svg>
