<svg width="90" height="90" viewBox="0 0 90 90" fill="none" xmlns="http://www.w3.org/2000/svg">
<rect x="54" y="62" width="18" height="18" rx="9" fill="#FFE147"/>
<path d="M27.9588 54.3975C29.2168 54.3975 30.2366 53.3777 30.2366 52.1196C30.2366 50.8616 29.2168 49.8418 27.9588 49.8418C26.7007 49.8418 25.6809 50.8616 25.6809 52.1196C25.6809 53.3777 26.7007 54.3975 27.9588 54.3975Z" fill="#252B33"/>
<path d="M26.2686 35.4375H29.3256" stroke="#252B33" stroke-width="2" stroke-linecap="round"/>
<path d="M26.2697 43.6516H29.8822" stroke="#252B33" stroke-width="2" stroke-linecap="round"/>
<path d="M26.2697 39.5447H28.79" stroke="#252B33" stroke-width="2" stroke-linecap="round"/>
<path d="M48.2054 17.6191C56.4056 17.6191 63.0558 29.8774 63.0558 45C63.0558 60.1226 56.4068 72.3809 48.2054 72.3809C43.8171 72.3809 38.6122 71.1281 35.708 65.159C33.5315 60.6978 33.355 52.0317 33.355 45C33.355 38.8601 32.8994 31.3329 34.9142 26.3672C35.9908 23.7401 37.8357 21.4993 40.2073 19.9384C42.5789 18.3774 45.3666 17.569 48.2054 17.6191V17.6191Z" stroke="#252B33" stroke-width="3.5"/>
<path d="M39.1327 17.6189C48.0744 17.6189 55.3225 29.8771 55.3225 44.9998C55.3225 60.1224 48.0744 72.3806 39.1327 72.3806C34.3493 72.3806 28.674 71.1278 25.5078 65.1587C23.1343 60.6976 22.9429 52.0315 22.9429 44.9998C22.9429 38.8598 22.4464 31.3327 24.6422 26.367C27.4155 20.0824 33.8219 17.6189 39.1327 17.6189Z" stroke="#252B33" stroke-width="3.5"/>
<path d="M23.6899 56.9529C24.2456 57.5874 24.9334 58.0928 25.7047 58.4341C26.476 58.7754 27.3127 58.9445 28.156 58.9291C30.1072 58.7092 31.925 57.8306 33.3096 56.4382" stroke="#252B33" stroke-width="3.5" stroke-linecap="round"/>
<path d="M23.7359 32.6824C24.3194 31.9722 25.0636 31.4117 25.9075 31.0474C26.7514 30.6831 27.6704 30.5256 28.5874 30.588C29.4498 30.6317 30.2896 30.8803 31.0366 31.3135C31.7836 31.7467 32.4162 32.352 32.8823 33.0789" stroke="#252B33" stroke-width="3.5" stroke-linecap="round"/>
<path d="M53.7417 42.8383C53.3987 42.7652 53.0439 42.772 52.7039 42.858C52.364 42.9441 52.0483 43.1069 51.7814 43.3343C51.5144 43.5617 51.3036 43.8477 51.1646 44.1696C51.0257 44.4916 50.9623 44.841 50.98 45.1912C50.6953 48.0795 53.998 47.9929 53.998 47.9929H64.7805C65.4068 47.8343 65.9632 47.4741 66.3644 46.9677C66.7655 46.4614 66.9888 45.8371 67 45.1912C66.9817 44.5954 66.7461 44.0271 66.3371 43.5935C65.9281 43.1599 65.3743 42.8912 64.7805 42.8383" stroke="#252B33" stroke-width="3.5" stroke-linecap="round"/>
</svg>
