<svg width="744" height="585" viewBox="0 0 744 585" fill="none" xmlns="http://www.w3.org/2000/svg">
<path d="M399.057 562.724C399.057 562.724 625.758 622.593 663.943 372.498C671.291 309.153 667.005 236.024 663.943 207.377C663.943 207.377 659.109 126.265 587.571 78.4666C587.571 78.4666 496.214 16.6667 399.057 78.4666C399.057 78.4666 359.42 112.746 326.551 122.885C326.551 122.885 254.529 127.23 201.359 203.997C201.359 203.997 189.758 241.173 122.57 235.38C122.57 235.38 8.49486 235.38 28.3125 359.945C28.3125 359.945 45.7143 485.475 191.208 520.238C191.208 520.238 336.703 544.378 399.057 562.724Z" fill="#F0EFF5"/>
<path d="M419.118 41.3027H343.057V137.318H419.118V41.3027Z" fill="#FFE147"/>
<path d="M386.843 95.1609H376.292V97.7227H386.843V95.1609Z" fill="#E0E0E0"/>
<path d="M383.523 74.3528L369.517 76.4089L364.293 89.5717L373.074 100.678L387.079 98.6221L392.304 85.4594L383.523 74.3528Z" fill="#252B33"/>
<path d="M390.079 82.8638L376.074 84.9199L370.832 98.0658L379.613 109.189L393.635 107.133L398.86 93.9704L390.079 82.8638Z" fill="#FAFAFA"/>
<path d="M388.343 0.00488281H377.792V2.19587H388.343V0.00488281Z" fill="#E0E0E0"/>
<path d="M515.369 40.1841H463.696V150.778H515.369V40.1841Z" fill="#E0E0E0"/>
<path d="M580.998 158.514H517.51V265.366H580.998V158.514Z" fill="#E0E0E0"/>
<path d="M515.369 158.514H463.696V265.366H515.369V158.514Z" fill="#E0E0E0"/>
<path d="M706.929 158.514H651.143V265.366H706.929V158.514Z" fill="#E0E0E0"/>
<path d="M580.998 40.1841H517.51V150.778H580.998V40.1841Z" fill="#E0E0E0"/>
<path d="M706.929 40.1841H651.143V150.778H706.929V40.1841Z" fill="#E0E0E0"/>
<path d="M515.369 267.288H463.696V363.573H515.369V267.288Z" fill="#E0E0E0"/>
<path d="M580.998 267.288H517.51V363.573H580.998V267.288Z" fill="#E0E0E0"/>
<path d="M706.929 267.288H651.143V363.573H706.929V267.288Z" fill="#E0E0E0"/>
<path d="M649.002 40.1841H588.717V150.778H649.002V40.1841Z" fill="#E0E0E0"/>
<path d="M649.002 267.288H588.717V363.573H649.002V267.288Z" fill="#E0E0E0"/>
<path d="M649.002 158.514H588.717V265.366H649.002V158.514Z" fill="#E0E0E0"/>
<path d="M115.667 40.1841H63.9934V150.778H115.667V40.1841Z" fill="#E0E0E0"/>
<path d="M181.295 158.514H117.807V265.366H181.295V158.514Z" fill="#F5F5F5"/>
<path d="M115.667 158.514H63.9934V265.366H115.667V158.514Z" fill="#E0E0E0"/>
<path d="M307.243 158.514H251.457V265.366H307.243V158.514Z" fill="#E0E0E0"/>
<path d="M181.295 40.1841H117.807V150.778H181.295V40.1841Z" fill="#E0E0E0"/>
<path d="M307.243 40.1841H251.457V150.778H307.243V40.1841Z" fill="#E0E0E0"/>
<path d="M115.667 267.288H63.9934V363.573H115.667V267.288Z" fill="#E0E0E0"/>
<path d="M181.295 267.288H117.807V363.573H181.295V267.288Z" fill="#E0E0E0"/>
<path d="M307.243 267.288H251.457V363.573H307.243V267.288Z" fill="#E0E0E0"/>
<path d="M249.3 40.1841H189.014V150.778H249.3V40.1841Z" fill="#E0E0E0"/>
<path d="M249.3 267.288H189.014V363.573H249.3V267.288Z" fill="#E0E0E0"/>
<path d="M249.3 158.514H189.014V265.366H249.3V158.514Z" fill="#E0E0E0"/>
<path d="M585.565 534.082V583.615H658.002H737.889V534.082H585.565Z" fill="#F5F5F5"/>
<path d="M579.177 520.228V534.082H743.215V520.228H658.002H579.177Z" fill="#E0E0E0"/>
<path d="M661.204 583.615H737.889V534.082H743.215V520.228H658.002V532.801L661.204 583.615Z" fill="#E0E0E0"/>
<path d="M637.778 542.071H606.885V549.52H637.778V542.071Z" fill="#E0E0E0"/>
<path d="M642.581 558.84H602.907V574.581H642.581V558.84Z" fill="white"/>
<path d="M623.199 465.538L622.98 446.931L688.221 452.51L690.26 470.931L623.199 465.538Z" fill="#F5F5F5"/>
<path d="M637.284 455.387L636.999 458.729L677.804 462.22L678.09 458.878L637.284 455.387Z" fill="#E0E0E0"/>
<path d="M615.43 447.858L615.396 429.235L680.586 435.522L682.238 452.173L615.43 447.858Z" fill="#E0E0E0"/>
<path d="M615.413 431.78L615.379 444.336L678.884 449.021L677.822 437.426L615.413 431.78Z" fill="white"/>
<path d="M674.064 442.263C673.296 442.334 672.523 442.334 671.755 442.263L665.519 441.774C660.244 441.319 652.98 440.645 644.941 439.836C636.901 439.027 629.654 438.235 624.396 437.628L618.177 436.853C617.412 436.801 616.654 436.666 615.918 436.448C616.681 436.378 617.448 436.378 618.211 436.448L624.446 436.937C629.722 437.392 637.002 438.083 645.025 438.892C653.047 439.701 660.328 440.477 665.586 441.1L671.805 441.859C672.57 441.913 673.327 442.048 674.064 442.263Z" fill="#F5F5F5"/>
<path d="M673.929 443.83C673.162 443.914 672.387 443.914 671.62 443.83L665.3 443.527C659.991 443.241 652.643 442.785 644.536 442.212C636.43 441.639 629.081 441.083 623.772 440.645L617.503 440.072C616.729 440.036 615.962 439.923 615.211 439.735C615.978 439.651 616.752 439.651 617.52 439.735L623.823 440.038C629.149 440.325 636.497 440.797 644.604 441.353C652.71 441.909 660.042 442.482 665.35 442.937L671.637 443.51C672.409 443.549 673.176 443.656 673.929 443.83Z" fill="#F5F5F5"/>
<path d="M623.958 482.712L623.705 464.089L688.962 469.617L690.816 486.234L623.958 482.712Z" fill="#E0E0E0"/>
<path d="M631.138 483.1C630.592 480.074 630.327 477.005 630.345 473.931C630.071 470.868 630.099 467.786 630.43 464.729C630.978 467.754 631.243 470.823 631.222 473.897C631.496 476.96 631.468 480.042 631.138 483.1Z" fill="#F5F5F5"/>
<path d="M633.598 464.948C634.095 467.972 634.309 471.036 634.239 474.1C634.441 477.156 634.362 480.225 634.003 483.268C633.487 480.246 633.272 477.181 633.362 474.116C633.149 471.06 633.228 467.99 633.598 464.948Z" fill="#F5F5F5"/>
<path d="M639.531 473.122C650.907 474.386 664.289 475.094 675.85 476.122L639.531 473.122Z" fill="white"/>
<path d="M675.85 476.122C674.069 476.228 672.282 476.183 670.508 475.987C667.137 475.819 662.671 475.532 657.648 475.161C652.626 474.791 648.092 474.369 644.823 473.965C643.036 473.854 641.264 473.572 639.531 473.122C641.315 473.068 643.101 473.147 644.873 473.358L657.716 474.285C662.772 474.656 667.272 475.027 670.558 475.381C672.34 475.479 674.11 475.727 675.85 476.122Z" fill="#F5F5F5"/>
<path d="M680.603 485.712C680.046 482.972 679.763 480.182 679.76 477.386C679.471 474.585 679.471 471.761 679.76 468.959C680.327 471.698 680.61 474.488 680.603 477.285C680.913 480.085 680.913 482.911 680.603 485.712Z" fill="#F5F5F5"/>
<path d="M684.631 485.914C683.487 480.421 682.922 474.823 682.946 469.212C683.66 471.929 684.083 474.714 684.21 477.521C684.638 480.297 684.779 483.109 684.631 485.914Z" fill="#F5F5F5"/>
<path d="M649.154 477.302C656.334 477.791 661.811 478.144 667.541 478.279L649.154 477.302Z" fill="white"/>
<path d="M667.693 478.279C661.547 478.539 655.39 478.211 649.306 477.302C652.371 477.004 655.459 477.004 658.525 477.302C661.605 477.34 664.674 477.667 667.693 478.279Z" fill="#F5F5F5"/>
<path d="M628.323 519.082L627.109 500.492L692.552 502.565L695.283 519.065L628.323 519.082Z" fill="#E0E0E0"/>
<path d="M630.918 516.74L694.608 515.829L692.839 504.268L629.722 503.088L630.918 516.74Z" fill="white"/>
<path d="M630.109 500.863L629.502 482.24L694.861 486.504L697.035 503.088L630.109 500.863Z" fill="#F5F5F5"/>
<path d="M643.938 490.369L643.72 493.716L684.588 496.373L684.806 493.027L643.938 490.369Z" fill="#E0E0E0"/>
<path d="M693.496 509.02C692.667 509.159 691.826 509.221 690.985 509.206L684.244 509.374C678.496 509.475 670.541 509.56 661.761 509.593C652.98 509.627 645.042 509.593 639.278 509.593L632.536 509.475C631.702 509.5 630.867 509.449 630.042 509.324C630.866 509.183 631.701 509.121 632.536 509.138L639.278 508.97C645.025 508.869 652.98 508.801 661.761 508.751C670.541 508.7 678.496 508.751 684.244 508.751L691.069 508.869C691.881 508.849 692.693 508.9 693.496 509.02Z" fill="#E0E0E0"/>
<path d="M694.238 512.627C693.408 512.761 692.566 512.807 691.726 512.762H684.85C679.069 512.762 671.064 512.762 662.216 512.577C653.367 512.391 645.362 512.29 639.581 512.138L632.722 511.902C631.88 511.919 631.039 511.851 630.21 511.7C631.041 511.577 631.882 511.532 632.722 511.565H639.581C645.379 511.565 653.384 511.565 662.232 511.751C671.081 511.936 679.086 512.037 684.867 512.189L691.726 512.425C692.567 512.43 693.407 512.497 694.238 512.627Z" fill="#E0E0E0"/>
<path d="M725.282 583.615C725.282 583.868 562.914 584.053 362.658 584.053C162.402 584.053 0 583.868 0 583.615C0 583.362 162.335 583.177 362.658 583.177C562.981 583.177 725.282 583.379 725.282 583.615Z" fill="#252B33"/>
<path d="M55.9036 374.36C46.988 375.792 42.9936 386.747 43.7689 395.747C44.5442 404.747 48.252 413.544 47.2576 422.527C46.0104 433.92 37.3814 443.561 36.387 454.988C35.2072 468.471 44.8138 480.42 47.5778 493.65C48.9599 500.088 48.7745 506.88 51.1677 513.015C53.2087 518.233 56.996 522.583 61.8843 525.322C66.7726 528.061 72.4594 529.02 77.9757 528.036C83.4919 527.052 88.4963 524.185 92.1361 519.925C95.7759 515.665 97.8259 510.275 97.9367 504.672C98.1221 494.324 91.7514 484.566 92.5267 474.251C93.0997 466.617 97.5828 459.386 96.6053 451.802C95.4592 442.769 87.0998 436.364 84.1504 427.752C81.201 419.14 84.0324 409.651 83.0043 400.601C81.1841 384.371 72.1337 373.045 55.9036 374.36Z" fill="#CCB439"/>
<path d="M10.2976 452.948C8.71331 467.982 15.4548 485.678 23.1738 498.656C31.0176 511.732 42.8247 521.969 56.8812 527.88C58.4486 528.537 60.4036 529.076 61.7351 528.015C62.2032 527.496 62.5551 526.883 62.7673 526.218C62.9795 525.552 63.047 524.849 62.9654 524.155C63.0673 508.19 57.994 492.621 48.5052 479.781C39.0165 466.941 25.6231 457.521 10.3313 452.931" fill="#FFE147"/>
<g opacity="0.1">
<path opacity="0.1" d="M10.2976 452.948C8.71331 467.982 15.4548 485.678 23.1738 498.656C31.0176 511.732 42.8247 521.969 56.8812 527.88C58.4486 528.537 60.4036 529.076 61.7351 528.015C62.2032 527.496 62.5551 526.883 62.7673 526.218C62.9795 525.552 63.047 524.849 62.9654 524.155C63.0673 508.19 57.994 492.621 48.5052 479.781C39.0165 466.941 25.6231 457.521 10.3313 452.931" fill="black"/>
</g>
<path d="M75.8248 559.329C75.6441 559.073 75.4969 558.796 75.3866 558.503C75.1169 557.846 74.7461 557.037 74.3248 556.042C73.4147 553.885 72.0664 550.801 70.3473 546.992C66.9766 539.408 61.8193 529.076 55.4149 518.088C49.9187 508.727 43.9563 499.649 37.55 490.886C35.0894 487.515 33.0501 484.835 31.6343 482.998L29.949 480.841C29.5782 480.352 29.3928 480.083 29.4265 480.066C29.6641 480.272 29.8839 480.497 30.0838 480.74L31.7692 482.779C33.286 484.566 35.3927 487.212 37.9208 490.532C44.4884 499.213 50.5381 508.273 56.0385 517.667C61.523 527.064 66.4473 536.777 70.7855 546.756C72.4709 550.582 73.7012 553.717 74.5102 555.908L75.4371 558.436C75.5948 558.72 75.7246 559.019 75.8248 559.329Z" fill="#252B33"/>
<path d="M66.1339 415.954C66.2281 416.432 66.2845 416.917 66.3024 417.404C66.3698 418.426 66.4709 419.808 66.6058 421.55C66.8417 425.224 67.1788 430.415 67.5833 436.718C68.3923 449.594 69.5383 467.358 70.954 486.993C72.3697 506.627 73.7012 524.374 74.6956 537.234C75.1843 543.604 75.5719 548.779 75.8585 552.402C75.9764 554.087 76.0607 555.52 76.145 556.531C76.1861 557.013 76.1861 557.498 76.145 557.981C76.0335 557.51 75.9602 557.031 75.9259 556.548C75.8247 555.537 75.6731 554.155 75.4877 552.419C75.1506 548.745 74.6618 543.571 74.0551 537.251C72.9091 524.408 71.4428 506.644 70.0608 487.01C68.6788 467.375 67.7013 449.78 66.9766 436.819C66.69 430.432 66.4372 425.241 66.2687 421.567C66.2687 419.881 66.1676 418.432 66.1339 417.421C66.1006 416.933 66.1006 416.443 66.1339 415.954Z" fill="#252B33"/>
<path d="M52.2969 537.891H89.9649V565.548C89.9649 570.34 88.0614 574.935 84.6731 578.323C81.2849 581.712 76.6894 583.615 71.8977 583.615C67.2691 583.618 62.8158 581.845 59.4547 578.663C56.0936 575.48 54.0808 571.13 53.8306 566.509L52.2969 537.891Z" fill="#252B33"/>
<path d="M542.841 310.383C540.745 308.833 538.16 308.091 535.56 308.293C535.56 306.877 535.56 306.018 535.56 306.018H495.785C495.785 306.018 494.538 332.259 514.628 333.186C523.628 333.607 528.768 329.579 531.718 324.506C533.198 324.857 534.713 325.044 536.234 325.062C538.455 325.161 540.647 324.54 542.487 323.293C543.5 322.5 544.303 321.471 544.826 320.295C545.349 319.12 545.576 317.835 545.487 316.551C545.543 315.39 545.333 314.231 544.875 313.162C544.416 312.094 543.721 311.143 542.841 310.383ZM540.111 320.141C538.425 321.405 535.375 321.22 533.369 320.866C534.37 318.075 535.021 315.171 535.307 312.22C537.049 312.018 538.807 312.43 540.279 313.383C540.711 313.783 541.044 314.277 541.255 314.826C541.465 315.375 541.546 315.966 541.493 316.551C541.571 317.217 541.486 317.892 541.245 318.517C541.004 319.143 540.615 319.7 540.111 320.141Z" fill="#FFE147"/>
<path d="M523.881 303.625C524.079 303.329 524.196 302.986 524.218 302.63C524.157 302.123 523.971 301.639 523.677 301.221C523.383 300.803 522.99 300.465 522.532 300.237C521.862 299.912 521.154 299.668 520.426 299.512C519.507 299.312 518.64 298.922 517.881 298.366C517.461 298 517.127 297.546 516.903 297.036C516.679 296.526 516.57 295.974 516.583 295.417C516.586 294.19 516.93 292.987 517.577 291.945C518.943 289.737 521.403 288.338 523.139 286.147C524.012 284.949 524.596 283.564 524.844 282.102C525.093 280.64 525 279.14 524.572 277.72C524.153 276.178 523.346 274.768 522.229 273.625C520.963 272.51 519.53 271.6 517.982 270.928C516.253 270.217 514.713 269.115 513.482 267.709C512.894 266.921 512.491 266.011 512.302 265.046C512.077 264.032 512.214 262.97 512.69 262.046C512.954 261.57 513.33 261.166 513.785 260.867L514.24 261.625C512.796 262.524 511.657 263.839 510.975 265.397C510.292 266.956 510.096 268.684 510.415 270.355C510.689 271.941 511.469 273.396 512.639 274.501C513.955 275.509 515.119 276.701 516.094 278.041C516.507 278.793 516.705 279.644 516.667 280.501C516.642 281.351 516.417 282.182 516.01 282.928C515.267 284.25 514.214 285.372 512.943 286.198C510.499 287.748 507.988 288.524 506.117 289.939C505.271 290.543 504.567 291.322 504.052 292.224C503.537 293.126 503.223 294.129 503.134 295.164C502.975 296.741 503.249 298.332 503.926 299.765C504.544 300.973 505.425 302.027 506.505 302.849L506.252 302.731C506.022 302.601 505.803 302.455 505.594 302.293C504.77 301.656 504.097 300.844 503.623 299.917C502.861 298.436 502.528 296.773 502.662 295.113C502.735 294.068 503.016 293.049 503.488 292.113C504.036 291.071 504.807 290.162 505.746 289.451C507.684 287.934 510.263 287.091 512.488 285.608C513.643 284.828 514.601 283.789 515.285 282.574C515.637 281.958 515.822 281.261 515.822 280.552C515.822 279.842 515.637 279.145 515.285 278.529C514.319 277.259 513.185 276.125 511.915 275.159C510.608 273.928 509.749 272.297 509.471 270.524C509.121 268.676 509.34 266.766 510.098 265.045C510.857 263.324 512.119 261.873 513.718 260.884L514.156 261.642C513.825 261.864 513.549 262.158 513.347 262.502C513.038 263.285 512.944 264.138 513.074 264.97C513.205 265.803 513.555 266.585 514.089 267.237C515.243 268.526 516.671 269.54 518.268 270.204C519.895 270.915 521.397 271.882 522.718 273.069C523.931 274.315 524.801 275.854 525.246 277.535C525.683 279.074 525.758 280.693 525.465 282.266C525.173 283.839 524.521 285.323 523.561 286.602C521.656 288.911 519.229 290.26 517.965 292.265C516.701 294.271 516.583 296.799 518.049 297.995C519.516 299.192 521.42 299.158 522.566 299.934C523.058 300.197 523.472 300.585 523.767 301.058C524.063 301.531 524.23 302.073 524.252 302.63C524.236 302.917 524.136 303.192 523.965 303.422C523.965 303.574 523.898 303.625 523.881 303.625Z" fill="#252B33"/>
<path d="M275.946 95.5486H82.0101C79.0036 95.5486 76.5664 97.9858 76.5664 100.992V147.525C76.5664 150.532 79.0036 152.969 82.0101 152.969H275.946C278.952 152.969 281.389 150.532 281.389 147.525V100.992C281.389 97.9858 278.952 95.5486 275.946 95.5486Z" fill="#252B33"/>
<path d="M119.746 133.84C118.201 135.762 116.121 137.183 113.769 137.924C111.417 138.664 108.898 138.69 106.53 137.999C104.163 137.309 102.054 135.931 100.469 134.042C98.8844 132.153 97.8953 129.836 97.6269 127.385C97.3584 124.934 97.8227 122.458 98.961 120.27C100.099 118.083 101.861 116.282 104.022 115.095C106.184 113.908 108.649 113.389 111.105 113.602C113.562 113.816 115.9 114.753 117.824 116.295C119.103 117.321 120.168 118.588 120.957 120.025C121.746 121.462 122.244 123.04 122.422 124.67C122.601 126.299 122.456 127.948 121.997 129.521C121.538 131.095 120.773 132.562 119.746 133.84Z" fill="#FFE147"/>
<path d="M117.032 121.79C114.998 124.38 112.743 126.788 110.291 128.986C109.718 129.526 109.161 130.048 108.605 130.571L108.302 130.874L107.998 130.571C106.129 128.862 104.435 126.971 102.942 124.925C104.989 126.417 106.88 128.111 108.588 129.981H107.982L109.667 128.295C111.927 125.915 114.391 123.738 117.032 121.79Z" fill="#252B33"/>
<path d="M261.418 120.054C261.418 120.29 235.379 120.492 203.256 120.492C171.132 120.492 145.11 120.29 145.11 120.054C145.11 119.818 171.132 119.616 203.256 119.616C235.379 119.616 261.418 119.801 261.418 120.054Z" fill="white"/>
<path d="M213.705 131.413C213.705 131.649 198.655 131.851 180.099 131.851C161.543 131.851 146.391 131.649 146.391 131.413C146.391 131.177 161.442 130.975 180.099 130.975C198.756 130.975 213.705 131.245 213.705 131.413Z" fill="white"/>
<path d="M275.946 161.228H82.0101C79.0036 161.228 76.5664 163.665 76.5664 166.671V213.204C76.5664 216.211 79.0036 218.648 82.0101 218.648H275.946C278.952 218.648 281.389 216.211 281.389 213.204V166.671C281.389 163.665 278.952 161.228 275.946 161.228Z" fill="#252B33"/>
<path d="M119.746 199.519C118.201 201.441 116.121 202.862 113.769 203.603C111.417 204.343 108.898 204.369 106.53 203.678C104.163 202.988 102.054 201.61 100.469 199.721C98.8844 197.832 97.8953 195.515 97.6269 193.064C97.3584 190.612 97.8227 188.137 98.961 185.949C100.099 183.762 101.861 181.961 104.022 180.774C106.184 179.587 108.649 179.068 111.105 179.281C113.562 179.495 115.9 180.432 117.824 181.974C120.404 184.048 122.055 187.06 122.415 190.349C122.775 193.639 121.815 196.937 119.746 199.519Z" fill="#FFE147"/>
<path d="M117.032 187.486C115 190.072 112.745 192.475 110.291 194.665L108.605 196.351L108.302 196.637L107.998 196.334C106.129 194.625 104.435 192.734 102.942 190.688C104.985 192.185 106.876 193.878 108.588 195.744H107.982L109.667 194.059C111.918 191.649 114.383 189.449 117.032 187.486Z" fill="#252B33"/>
<path d="M261.418 185.733C261.418 185.986 235.379 186.171 203.256 186.171C171.132 186.171 145.11 185.986 145.11 185.733C145.11 185.48 171.132 185.295 203.256 185.295C235.379 185.295 261.418 185.497 261.418 185.733Z" fill="white"/>
<path d="M213.705 197.092C213.705 197.345 198.655 197.53 180.099 197.53C161.543 197.53 146.391 197.345 146.391 197.092C146.391 196.839 161.442 196.654 180.099 196.654C198.756 196.654 213.705 196.856 213.705 197.092Z" fill="white"/>
<path d="M275.946 226.923H82.0101C79.0036 226.923 76.5664 229.361 76.5664 232.367V278.9C76.5664 281.907 79.0036 284.344 82.0101 284.344H275.946C278.952 284.344 281.389 281.907 281.389 278.9V232.367C281.389 229.361 278.952 226.923 275.946 226.923Z" fill="#252B33"/>
<path d="M119.746 265.215C118.201 267.137 116.121 268.558 113.769 269.298C111.417 270.039 108.898 270.065 106.53 269.374C104.163 268.683 102.054 267.306 100.469 265.417C98.8844 263.528 97.8953 261.211 97.6269 258.76C97.3584 256.308 97.8227 253.832 98.961 251.645C100.099 249.457 101.861 247.656 104.022 246.47C106.184 245.283 108.649 244.763 111.105 244.977C113.562 245.191 115.9 246.128 117.824 247.67C119.103 248.695 120.168 249.963 120.957 251.4C121.746 252.836 122.244 254.415 122.422 256.044C122.601 257.674 122.456 259.322 121.997 260.896C121.538 262.47 120.773 263.937 119.746 265.215Z" fill="#FFE147"/>
<path d="M117.032 253.164C115.008 255.763 112.752 258.172 110.291 260.361L108.605 261.945L108.302 262.248L107.998 261.945C106.129 260.237 104.435 258.345 102.942 256.299C104.989 257.792 106.88 259.485 108.588 261.355H107.982L109.667 259.67C111.927 257.29 114.391 255.113 117.032 253.164Z" fill="#252B33"/>
<path d="M261.418 251.428C261.418 251.664 235.379 251.867 203.256 251.867C171.132 251.867 145.11 251.664 145.11 251.428C145.11 251.192 171.132 250.99 203.256 250.99C235.379 250.99 261.418 251.192 261.418 251.428Z" fill="white"/>
<path d="M213.705 262.788C213.705 263.024 198.655 263.226 180.099 263.226C161.543 263.226 146.391 263.024 146.391 262.788C146.391 262.552 161.442 262.35 180.099 262.35C198.756 262.35 213.705 262.552 213.705 262.788Z" fill="white"/>
<path d="M397.478 444.353L394.259 583.615H388.124L388.512 444.707L397.478 444.353Z" fill="#252B33"/>
<path d="M419.674 442.802L449.539 583.615H456.381L431.522 442.802H419.674Z" fill="#252B33"/>
<path d="M363.686 444.353L330.636 583.615H323.793L353.776 443.78L363.686 444.353Z" fill="#263238"/>
<path d="M458.455 291.254C458.455 291.254 496.308 289.096 492.533 332.899C488.758 376.702 486.583 421.128 472.511 436.297C458.438 451.465 316.732 451.987 304.833 439.549C292.934 427.111 327.552 427.651 334.041 427.651C340.529 427.651 380.557 431.426 393.534 397.314C406.511 363.202 403.276 289.096 458.455 291.254Z" fill="#263238"/>
<path d="M460.881 291.355C460.881 291.355 489.819 297.287 487.123 327.573C484.426 357.859 476.842 410.881 462.769 424.398C448.696 437.915 393.669 440.864 363.787 439.01C329.17 436.836 307.327 430.246 307.327 430.246C307.327 430.246 301.007 434.308 302.912 436.988C304.816 439.667 321.704 450.134 403.528 448.381C485.353 446.628 479.673 434.561 483.061 421.415C486.449 408.269 493.594 337.922 492.6 322.467C491.606 307.012 483.819 293.984 460.881 291.355Z" fill="#252B33"/>
<path d="M379.579 162.812C384.133 161.242 389.078 161.217 393.648 162.74C398.218 164.263 402.158 167.25 404.86 171.238C408.517 176.901 409.376 184.014 413.101 189.626C415.747 193.586 419.657 196.502 422.893 200.008C426.129 203.513 428.775 208.148 427.949 212.85C427.174 217.249 423.449 221.159 424.191 225.575C424.899 229.704 429.247 232.401 430.174 236.513C431.168 241.35 426.517 245.867 421.629 246.625C416.742 247.383 411.888 245.496 407.287 243.676C402.686 241.855 397.798 240.035 392.927 240.912C387.281 241.94 382.95 246.372 378.012 249.339C372.805 252.313 366.845 253.708 360.86 253.352C354.874 252.996 349.121 250.904 344.304 247.333C340.596 244.485 337.344 240.069 338.254 235.535C339.097 231.254 343.31 228.288 344.422 224.092C346.209 217.856 341.052 211.485 341.81 205.03C342.855 196.367 353.608 192.407 357.45 184.587C359.321 180.828 359.49 176.446 361.124 172.587C362.759 168.727 367.074 165.289 370.916 166.941" fill="#252B33"/>
<path d="M375.939 241.653C376.495 238.569 375.501 225.592 375.501 225.592C375.501 225.592 364.006 224.142 363.501 212.395C362.995 200.648 364.175 173.632 364.175 173.632L385.36 163.52L403.899 184.587L404.253 241.535L375.939 241.653Z" fill="#FFBE9D"/>
<path d="M365.675 194.345C365.678 194.633 365.766 194.913 365.928 195.151C366.09 195.389 366.318 195.575 366.584 195.684C366.85 195.793 367.143 195.822 367.425 195.766C367.708 195.71 367.967 195.573 368.172 195.37C368.377 195.168 368.517 194.91 368.576 194.628C368.635 194.346 368.61 194.054 368.504 193.786C368.397 193.519 368.215 193.288 367.978 193.124C367.742 192.96 367.463 192.868 367.175 192.862C366.78 192.862 366.401 193.018 366.12 193.295C365.839 193.573 365.679 193.95 365.675 194.345Z" fill="#263238"/>
<path d="M364.731 191.716C364.916 191.918 366.029 190.991 367.596 190.924C369.164 190.856 370.343 191.665 370.512 191.446C370.68 191.227 370.411 190.991 369.888 190.62C369.205 190.144 368.383 189.907 367.55 189.947C366.718 189.986 365.922 190.3 365.287 190.839C364.798 191.244 364.647 191.631 364.731 191.716Z" fill="#263238"/>
<path d="M382.866 194.345C382.844 194.55 382.865 194.756 382.928 194.952C382.991 195.148 383.095 195.329 383.233 195.482C383.37 195.635 383.538 195.757 383.726 195.841C383.914 195.925 384.118 195.968 384.323 195.968C384.529 195.968 384.733 195.925 384.921 195.841C385.109 195.757 385.277 195.635 385.414 195.482C385.552 195.329 385.656 195.148 385.719 194.952C385.782 194.756 385.803 194.55 385.781 194.345C385.803 194.14 385.782 193.933 385.719 193.737C385.656 193.542 385.552 193.361 385.414 193.208C385.277 193.055 385.109 192.933 384.921 192.849C384.733 192.765 384.529 192.722 384.323 192.722C384.118 192.722 383.914 192.765 383.726 192.849C383.538 192.933 383.37 193.055 383.233 193.208C383.095 193.361 382.991 193.542 382.928 193.737C382.865 193.933 382.844 194.14 382.866 194.345Z" fill="#263238"/>
<path d="M382.191 192.019C382.377 192.221 383.489 191.294 385.057 191.227C386.624 191.159 387.804 191.968 387.972 191.749C388.141 191.53 387.871 191.294 387.349 190.923C386.669 190.449 385.851 190.213 385.023 190.249C384.19 190.289 383.392 190.596 382.748 191.126C382.276 191.547 382.107 191.918 382.191 192.019Z" fill="#263238"/>
<path d="M376.276 205.569C375.444 205.322 374.582 205.192 373.714 205.182C373.31 205.182 372.922 205.081 372.855 204.794C372.817 204.347 372.905 203.897 373.107 203.496C373.461 202.452 373.849 201.339 374.237 200.126C375.293 197.292 376.144 194.386 376.782 191.429C375.506 194.153 374.442 196.97 373.596 199.856C373.225 201.036 372.855 202.148 372.501 203.227C372.266 203.756 372.207 204.347 372.332 204.912C372.386 205.061 372.476 205.194 372.593 205.3C372.711 205.406 372.853 205.481 373.006 205.519C373.23 205.55 373.457 205.55 373.68 205.519C374.539 205.66 375.413 205.677 376.276 205.569Z" fill="#263238"/>
<path d="M375.5 225.625C380.94 225.449 386.211 223.692 390.669 220.569C390.669 220.569 387.096 229.131 375.635 228.44L375.5 225.625Z" fill="#EB996E"/>
<path d="M376.849 209.715C376.945 209.219 377.162 208.754 377.479 208.36C377.796 207.967 378.205 207.657 378.669 207.457C378.989 207.311 379.337 207.236 379.689 207.236C380.041 207.236 380.388 207.311 380.708 207.457C381.016 207.61 381.27 207.853 381.436 208.155C381.602 208.456 381.671 208.8 381.635 209.142C381.54 209.536 381.328 209.891 381.028 210.162C380.727 210.433 380.351 210.606 379.95 210.659C379.166 210.763 378.369 210.706 377.607 210.491C377.393 210.457 377.187 210.383 377.001 210.272C376.909 210.214 376.836 210.13 376.791 210.031C376.746 209.933 376.731 209.823 376.748 209.715" fill="#EB996E"/>
<path d="M380.759 205.519C380.86 205.519 381.046 205.94 380.995 206.699C380.901 207.715 380.439 208.661 379.697 209.362C378.962 210.058 377.996 210.46 376.984 210.491C376.209 210.491 375.77 210.288 375.804 210.187C375.838 210.086 377.641 210.086 379.091 208.721C380.54 207.356 380.506 205.502 380.759 205.519Z" fill="#263238"/>
<path d="M363.214 172.3C363.637 175.703 365.285 178.834 367.851 181.108C370.417 183.383 373.724 184.643 377.152 184.654L373.967 177.643C376.798 180.929 379.731 184.384 383.624 186.272C387.517 188.159 392.59 188.463 395.894 185.631C396.972 188.513 396.955 191.699 397.95 194.598C398.944 197.496 401.32 209.496 404.287 209.024C407.253 208.552 409.056 196.536 409.764 193.856C410.615 190.046 410.56 186.089 409.602 182.304C408.645 178.519 406.813 175.012 404.253 172.064C401.236 168.546 397.443 165.777 393.173 163.975C388.902 162.173 384.272 161.388 379.647 161.682C375.523 161.864 371.546 163.266 368.22 165.71C365.379 167.977 363.399 171.146 362.607 174.693" fill="#252B33"/>
<path d="M347.473 225.221C347.195 225.203 346.922 225.14 346.664 225.036C345.915 224.809 345.192 224.504 344.507 224.125C341.931 222.751 339.803 220.67 338.372 218.126C337.263 216.247 336.591 214.144 336.404 211.97C336.217 209.797 336.521 207.61 337.293 205.57C338.207 203.158 339.679 200.997 341.591 199.266C343.641 197.402 346.157 196.127 348.872 195.575C350.132 195.397 351.308 194.839 352.243 193.974C353.029 193.021 353.485 191.838 353.54 190.603C353.743 188.126 352.765 185.716 352.495 183.289C352.201 180.953 352.681 178.585 353.861 176.547C354.897 174.783 356.41 173.346 358.226 172.401C359.911 171.542 361.411 170.986 362.709 170.413C363.846 169.97 364.931 169.405 365.945 168.727C366.775 168.111 367.517 167.385 368.153 166.57C368.059 166.829 367.928 167.073 367.765 167.295C367.305 167.95 366.735 168.52 366.079 168.98C365.076 169.725 363.99 170.352 362.844 170.851C361.546 171.458 360.012 172.064 358.462 172.924C356.772 173.844 355.375 175.223 354.434 176.901C353.342 178.81 352.915 181.027 353.22 183.205C353.49 185.514 354.518 187.924 354.332 190.688C354.276 192.124 353.742 193.5 352.816 194.598C351.761 195.597 350.426 196.249 348.99 196.469C346.509 196.991 344.199 198.127 342.27 199.773C340.342 201.419 338.857 203.522 337.951 205.89C337.206 207.825 336.896 209.9 337.045 211.969C337.194 214.037 337.796 216.047 338.81 217.856C340.156 220.343 342.147 222.421 344.574 223.873C346.361 224.85 347.473 225.137 347.473 225.221Z" fill="#252B33"/>
<path d="M423.77 240.659C423.77 240.659 424.764 239.985 426.5 238.737C429.014 237.073 431.01 234.738 432.264 231.996C433.031 230.093 433.149 227.99 432.601 226.013C432.297 224.943 431.715 223.972 430.916 223.198C430.005 222.4 428.997 221.721 427.916 221.176C426.671 220.507 425.622 219.527 424.871 218.33C424.121 217.133 423.695 215.762 423.635 214.35C423.517 211.3 425.404 208.772 426.079 206.058C426.653 203.33 426.203 200.487 424.815 198.069C423.531 195.768 421.814 193.736 419.758 192.086C415.899 188.851 411.871 186.474 409.09 183.66C406.798 181.565 405.091 178.911 404.135 175.957C403.905 175.15 403.769 174.319 403.731 173.48C403.687 173.189 403.687 172.894 403.731 172.604C403.87 173.704 404.096 174.791 404.405 175.856C405.459 178.69 407.196 181.219 409.461 183.221C412.225 185.867 416.202 188.143 420.213 191.429C422.342 193.135 424.122 195.235 425.455 197.614C426.964 200.216 427.451 203.286 426.82 206.227C426.045 209.176 424.242 211.603 424.376 214.283C424.418 215.592 424.811 216.867 425.513 217.972C426.216 219.078 427.203 219.975 428.371 220.569C429.507 221.154 430.566 221.879 431.522 222.726C432.392 223.608 433.018 224.7 433.343 225.895C433.896 228.021 433.742 230.269 432.904 232.299C432.194 233.937 431.156 235.411 429.854 236.631C428.875 237.551 427.814 238.38 426.685 239.108C425.775 239.698 425 240.119 424.545 240.372C424.3 240.501 424.039 240.598 423.77 240.659Z" fill="#252B33"/>
<path d="M362.827 186.356C364.456 185.002 365.603 183.158 366.096 181.098C366.577 179.048 366.831 176.951 366.855 174.845C366.855 174.238 366.855 173.446 366.214 173.295C365.574 173.143 365.169 173.716 364.9 174.238C362.839 178.14 362.111 182.609 362.827 186.963L363.197 186.609" fill="#252B33"/>
<path d="M333.417 575.272L333.097 560.104L361.478 559.329L362.169 581.491L360.484 581.66C352.664 582.3 320.675 584.39 315.4 582.941C309.451 581.34 333.417 575.272 333.417 575.272Z" fill="#FFE147"/>
<g opacity="0.5">
<path opacity="0.5" d="M351.872 581.576C352.226 579.166 353.464 576.973 355.343 575.424C357.172 573.872 359.521 573.071 361.916 573.182L362.135 581.104L351.872 581.576Z" fill="white"/>
</g>
<g opacity="0.4">
<path opacity="0.4" d="M321.72 578.66C321.72 578.66 313.294 581.323 314.423 582.688C315.552 584.053 347.911 583.16 362.169 581.508V580.885L324.366 582.25C324.366 582.25 323.372 578.677 321.72 578.66Z" fill="white"/>
</g>
<path d="M362.641 580.851H362.153L360.754 580.969L355.596 581.34C351.248 581.609 345.231 581.913 338.574 582.115C331.917 582.317 325.9 582.334 321.535 582.3H316.378H314.979H314.49H314.979H316.378H321.535C325.9 582.3 331.917 582.182 338.574 581.997C345.231 581.812 351.231 581.542 355.596 581.34L360.754 581.07H362.153L362.641 580.851Z" fill="#263238"/>
<path d="M324.35 582.688C324.09 581.838 323.74 581.019 323.305 580.244C322.785 579.532 322.179 578.887 321.501 578.323C322.365 578.673 323.1 579.279 323.609 580.059C324.118 580.839 324.377 581.757 324.35 582.688Z" fill="#263238"/>
<path d="M332.608 578.205C332.524 578.205 332.102 577.784 331.681 577.143C331.26 576.503 330.956 575.947 331.04 575.879C331.125 575.812 331.529 576.317 331.967 576.958C332.266 577.324 332.484 577.749 332.608 578.205Z" fill="#263238"/>
<path d="M334.866 576.924C334.866 577.008 334.344 576.722 333.855 576.284C333.366 575.845 332.996 575.458 333.046 575.39C333.097 575.323 333.569 575.593 334.074 576.031C334.58 576.469 334.934 576.857 334.866 576.924Z" fill="#263238"/>
<path d="M336.248 574.21C335.779 574.404 335.271 574.485 334.765 574.446C334.268 574.505 333.764 574.465 333.282 574.328C334.247 574.053 335.264 574.012 336.248 574.21Z" fill="#263238"/>
<path d="M336.686 572.306C336.197 572.66 335.605 572.843 335.001 572.828C334.435 572.934 333.85 572.876 333.316 572.66C333.871 572.552 334.435 572.495 335.001 572.491C335.557 572.387 336.121 572.325 336.686 572.306Z" fill="#263238"/>
<path d="M331.563 575.761C330.96 575.861 330.345 575.861 329.743 575.761C329.081 575.696 328.427 575.572 327.788 575.39C327.403 575.289 327.031 575.148 326.675 574.969C326.456 574.846 326.289 574.649 326.204 574.413C326.17 574.278 326.176 574.136 326.221 574.005C326.266 573.873 326.348 573.758 326.456 573.671C327.14 573.311 327.926 573.196 328.684 573.347C329.442 573.497 330.125 573.903 330.619 574.497C330.908 574.848 331.12 575.256 331.243 575.694C331.28 575.86 331.28 576.033 331.243 576.199C331.04 575.642 330.743 575.123 330.366 574.666C329.946 574.192 329.395 573.852 328.782 573.688C328.059 573.468 327.278 573.54 326.608 573.89C326.338 574.126 326.456 574.463 326.777 574.649C327.111 574.818 327.461 574.954 327.822 575.053C328.438 575.248 329.069 575.395 329.709 575.491C330.872 575.727 331.563 575.694 331.563 575.761Z" fill="#263238"/>
<path d="M331.108 575.862C330.86 575.491 330.769 575.036 330.855 574.598C330.901 574.12 331.057 573.658 331.31 573.25C331.458 572.976 331.674 572.744 331.936 572.576C332.198 572.408 332.499 572.309 332.81 572.289C332.997 572.322 333.164 572.427 333.274 572.582C333.384 572.736 333.429 572.928 333.4 573.115C333.356 573.406 333.259 573.686 333.114 573.941C332.88 574.345 332.597 574.719 332.271 575.053C332.005 575.393 331.657 575.659 331.26 575.828C331.26 575.828 331.614 575.491 332.102 574.901C332.374 574.552 332.617 574.179 332.827 573.789C333.063 573.385 333.215 572.694 332.827 572.626C332.439 572.559 331.917 573.064 331.647 573.435C331.405 573.797 331.239 574.204 331.159 574.632C331.094 575.039 331.077 575.451 331.108 575.862Z" fill="#263238"/>
<path d="M361.765 573.098C361.765 573.098 360.956 573.098 359.675 573.233C358.003 573.457 356.431 574.153 355.141 575.24C353.851 576.327 352.898 577.759 352.394 579.368C352.006 580.598 351.973 581.407 351.922 581.407C351.872 581.407 351.922 581.205 351.922 580.834C351.952 580.314 352.043 579.799 352.192 579.3C352.652 577.618 353.61 576.115 354.939 574.986C356.28 573.87 357.923 573.177 359.658 572.997C360.179 572.937 360.705 572.937 361.225 572.997C361.409 573.003 361.591 573.037 361.765 573.098Z" fill="#263238"/>
<path d="M358.495 561.368C358.754 563.301 358.889 565.249 358.9 567.199C359.02 569.141 359.02 571.089 358.9 573.031C358.651 571.102 358.516 569.161 358.495 567.216C358.386 565.268 358.386 563.316 358.495 561.368Z" fill="#263238"/>
<path d="M348.231 578.896C346.886 579.264 345.496 579.44 344.102 579.418C342.712 579.53 341.312 579.462 339.939 579.216C339.939 579.115 341.81 579.216 344.085 579.081C346.36 578.946 348.214 578.795 348.231 578.896Z" fill="#263238"/>
<path d="M353.793 578.744C353.793 578.744 353.658 579.132 353.473 579.57C353.287 580.008 353.203 580.379 353.102 580.379C353.001 580.379 352.95 579.924 353.102 579.435C353.254 578.946 353.726 578.677 353.793 578.744Z" fill="#263238"/>
<path d="M355.9 576.081C355.9 576.081 355.799 576.435 355.512 576.738C355.226 577.042 354.939 577.244 354.872 577.177C354.804 577.109 354.973 576.823 355.259 576.503C355.546 576.182 355.748 576.014 355.9 576.081Z" fill="#263238"/>
<path d="M358.782 574.8C358.782 574.901 358.394 574.901 357.973 575.053C357.551 575.205 357.265 575.458 357.197 575.39C357.13 575.323 357.349 574.918 357.855 574.733C358.36 574.548 358.815 574.716 358.782 574.8Z" fill="#263238"/>
<path d="M360.956 574.177C360.956 574.261 360.838 574.413 360.602 574.514C360.366 574.615 360.147 574.615 360.113 574.514C360.079 574.413 360.231 574.278 360.467 574.177C360.703 574.076 360.956 574.093 360.956 574.177Z" fill="#263238"/>
<path d="M264.89 494.189L271.463 480.538L297.131 492.706L287.71 512.779L286.024 512.121C278.76 509.172 249.283 496.549 245.238 492.875C240.755 488.779 264.89 494.189 264.89 494.189Z" fill="#FFE147"/>
<g opacity="0.5">
<path opacity="0.5" d="M278.491 508.161C279.898 506.18 281.986 504.788 284.356 504.251C286.689 503.704 289.143 504.053 291.232 505.228L287.861 512.408L278.491 508.161Z" fill="white"/>
</g>
<g opacity="0.4">
<path opacity="0.4" d="M252.907 491.914C252.907 491.914 244.227 490.498 244.581 492.2C244.935 493.903 274.227 507.773 287.693 512.762L287.929 512.172L253.615 496.279C253.615 496.279 254.373 492.689 252.907 491.914Z" fill="white"/>
</g>
<path d="M288.333 512.357C288.175 512.33 288.021 512.279 287.878 512.206L286.564 511.683L281.743 509.678C277.732 507.992 272.238 505.498 266.204 502.65C260.171 499.801 254.794 497.122 250.935 495.116L246.351 492.723L245.12 492.049L244.699 491.779L245.154 491.981L246.418 492.588L251.036 494.897C254.946 496.835 260.339 499.498 266.356 502.346C272.373 505.195 277.85 507.672 281.845 509.442L286.547 511.548L287.828 512.138L288.333 512.357Z" fill="#263238"/>
<path d="M253.429 496.7C253.59 495.834 253.652 494.952 253.615 494.071C253.456 493.2 253.208 492.347 252.873 491.526C253.52 492.208 253.903 493.099 253.952 494.037C254.117 494.959 253.93 495.909 253.429 496.7Z" fill="#263238"/>
<path d="M262.817 496.447C262.716 496.447 262.564 495.841 262.48 495.082C262.395 494.324 262.378 493.683 262.48 493.667C262.687 494.093 262.802 494.558 262.817 495.032C262.918 495.807 262.918 496.431 262.817 496.447Z" fill="#263238"/>
<path d="M265.412 496.33C265.328 496.33 265.058 495.908 264.789 495.302C264.519 494.695 264.401 494.172 264.502 494.139C264.603 494.105 264.856 494.56 265.109 495.167C265.362 495.773 265.497 496.296 265.412 496.33Z" fill="#263238"/>
<path d="M267.873 494.526C267.373 494.482 266.889 494.326 266.457 494.071C265.977 493.912 265.54 493.647 265.176 493.296C265.676 493.34 266.16 493.496 266.592 493.751C267.35 494.105 267.923 494.442 267.873 494.526Z" fill="#263238"/>
<path d="M269.137 493.043C268.557 493.063 267.979 492.966 267.437 492.758C266.896 492.549 266.402 492.233 265.985 491.83C267.034 492.238 268.085 492.642 269.137 493.043Z" fill="#263238"/>
<path d="M263.002 493.801C262.398 493.639 261.827 493.371 261.317 493.009C260.753 492.653 260.223 492.247 259.733 491.796C259.438 491.521 259.168 491.223 258.924 490.903C258.784 490.695 258.73 490.441 258.772 490.195C258.798 490.059 258.865 489.934 258.965 489.837C259.064 489.741 259.191 489.677 259.328 489.655C259.83 489.646 260.328 489.749 260.785 489.957C261.242 490.165 261.647 490.473 261.97 490.857C262.293 491.242 262.526 491.693 262.652 492.179C262.778 492.666 262.794 493.174 262.699 493.667C262.699 493.97 262.547 494.139 262.53 494.122C262.6 493.559 262.572 492.989 262.446 492.436C262.275 491.827 261.937 491.278 261.468 490.852C261.202 490.59 260.886 490.385 260.538 490.249C260.191 490.113 259.819 490.049 259.446 490.06C259.092 490.06 259.042 490.481 259.261 490.785C259.475 491.088 259.717 491.37 259.985 491.627C260.453 492.081 260.954 492.498 261.485 492.875C262.395 493.448 263.036 493.751 263.002 493.801Z" fill="#263238"/>
<path d="M262.547 493.683C262.5 493.24 262.62 492.795 262.884 492.436C263.148 492.032 263.5 491.693 263.912 491.442C264.167 491.264 264.464 491.153 264.773 491.121C265.083 491.088 265.395 491.135 265.682 491.257C265.832 491.373 265.932 491.544 265.96 491.732C265.988 491.92 265.943 492.112 265.834 492.268C265.67 492.506 265.457 492.708 265.21 492.858C264.818 493.124 264.393 493.339 263.946 493.498C263.552 493.666 263.126 493.74 262.699 493.717C262.699 493.717 263.154 493.582 263.862 493.262C264.271 493.084 264.661 492.864 265.025 492.605C265.412 492.369 265.867 491.813 265.48 491.543C265.245 491.468 264.996 491.446 264.751 491.478C264.507 491.51 264.272 491.596 264.064 491.729C263.689 491.946 263.357 492.232 263.086 492.571C262.864 492.92 262.683 493.293 262.547 493.683Z" fill="#263238"/>
<path d="M291.131 505.093C291.131 505.093 290.44 504.672 289.21 504.268C287.62 503.718 285.906 503.631 284.269 504.016C282.631 504.401 281.136 505.242 279.957 506.442C279.03 507.352 278.642 508.127 278.592 508.043C278.647 507.856 278.732 507.679 278.845 507.52C279.111 507.075 279.421 506.657 279.772 506.273C280.948 504.984 282.487 504.08 284.186 503.68C285.885 503.28 287.666 503.402 289.294 504.032C289.778 504.218 290.242 504.455 290.676 504.74C290.996 504.942 291.148 505.077 291.131 505.093Z" fill="#263238"/>
<path d="M293.541 493.161C292.889 494.996 292.129 496.791 291.266 498.537C290.508 500.327 289.647 502.072 288.687 503.762C289.34 501.927 290.099 500.132 290.963 498.386C291.712 496.592 292.573 494.847 293.541 493.161Z" fill="#263238"/>
<path d="M276.434 504.133C275.075 503.84 273.761 503.37 272.524 502.734C271.235 502.196 270.018 501.5 268.901 500.661C268.901 500.577 270.586 501.47 272.659 502.431C274.732 503.391 276.468 504.049 276.434 504.133Z" fill="#263238"/>
<path d="M281.474 506.509C281.474 506.61 281.17 506.796 280.816 507.099C280.463 507.402 280.21 507.706 280.125 507.655C280.041 507.605 280.126 507.183 280.597 506.846C281.069 506.509 281.457 506.425 281.474 506.509Z" fill="#263238"/>
<path d="M284.491 505.043C284.491 505.144 284.221 505.329 283.833 505.464C283.446 505.599 283.092 505.667 283.058 505.565C283.024 505.464 283.328 505.296 283.715 505.144C284.103 504.992 284.457 504.959 284.491 505.043Z" fill="#263238"/>
<path d="M287.71 505.262C287.71 505.262 287.305 505.161 286.867 505.127C286.429 505.094 286.058 505.127 286.024 505.127C285.991 505.127 286.361 504.79 286.918 504.858C287.474 504.925 287.777 505.195 287.71 505.262Z" fill="#263238"/>
<path d="M289.884 505.666C289.884 505.666 289.665 505.818 289.412 505.801C289.159 505.784 288.957 505.683 288.974 505.599C288.99 505.515 289.193 505.431 289.429 505.447C289.665 505.464 289.884 505.565 289.884 505.666Z" fill="#263238"/>
<path d="M451.966 295.838L445.932 265.501C441.55 240.794 406.832 239.108 406.832 239.108L379.495 238.653C379.495 238.653 359.271 235.94 346.816 249.996C333.923 264.54 318.063 281.748 318.063 281.748L330.164 312.203L358.815 288.608C356.42 292.811 355.1 297.541 354.973 302.377C354.973 310.45 363.4 314.175 363.4 314.175L366.012 338.663L357.585 378.32L446.59 374.747C445.087 361.446 440.587 348.658 433.427 337.348L435.112 295.838H451.966Z" fill="#FFE147"/>
<path d="M413.826 261.911C414.064 262.535 414.223 263.186 414.298 263.85C414.584 265.282 414.921 267.052 415.343 269.158C416.253 273.844 417.432 279.945 418.713 286.686C419.994 293.428 421.14 299.765 421.848 304.282C422.219 306.54 422.472 308.377 422.623 309.641C422.745 310.297 422.785 310.965 422.741 311.63C422.519 311.003 422.366 310.353 422.286 309.692C422 308.259 421.646 306.489 421.241 304.383C420.331 299.697 419.152 293.596 417.871 286.855C416.59 280.113 415.444 273.793 414.736 269.26C414.365 267.001 414.112 265.181 413.961 263.9C413.851 263.243 413.806 262.577 413.826 261.911Z" fill="#252B33"/>
<path d="M452.488 294.254C447.019 294.722 441.527 294.891 436.039 294.759C430.553 294.922 425.062 294.792 419.59 294.372C425.06 293.914 430.551 293.751 436.039 293.883C441.525 293.72 447.015 293.844 452.488 294.254Z" fill="#263238"/>
<path d="M455.876 321.692C454.19 307.164 451.78 294.726 451.78 294.726H420.264C420.264 294.726 424.174 313.265 423.314 317.478C422.539 321.203 361.478 323.663 345.568 323.916C344.608 323.208 343.243 324.405 342.012 323.326C340.926 322.362 340.009 321.223 339.299 319.956C338.36 318.418 337.629 316.763 337.125 315.034C337.065 314.711 336.912 314.411 336.684 314.174C336.457 313.936 336.164 313.77 335.843 313.697C335.523 313.623 335.187 313.645 334.879 313.76C334.57 313.875 334.302 314.078 334.108 314.343C333.467 315.708 334.192 320.242 337.209 324.624C340.226 329.006 332.304 326.731 329.406 325.955C326.507 325.18 317.406 323.208 316.479 323.933C315.097 324.995 315.956 326.697 318.872 327.405C321.788 328.113 330.4 330.776 329.928 332.461C329.456 334.146 314.76 329.815 314.76 329.815C314.76 329.815 311.76 328.416 311.153 330.186C310.074 333.388 326.035 336.624 327.569 336.927C328.63 337.13 328.175 338.832 327.046 338.613C325.917 338.394 312.451 334.113 311.322 337.365C310.445 339.86 324.434 340.163 326.743 342.624C329.052 345.084 316.159 341.292 315.417 343.702C315.147 344.613 320.473 345.017 328.226 346.113C336.151 346.869 344.115 347.15 352.074 346.955C369.956 347.933 433.191 349.247 446.691 348.287C462.398 347.09 456.483 326.748 455.876 321.692Z" fill="#FFBE9D"/>
<path d="M355.731 296.698C355.976 295.31 356.337 293.946 356.81 292.619C357.181 291.355 357.636 289.872 358.209 288.237C358.495 287.428 358.815 286.552 359.169 285.692C359.372 285.22 359.624 284.816 359.742 284.428C359.876 284.003 359.933 283.558 359.911 283.113C359.828 282.173 359.688 281.239 359.49 280.316C359.321 279.406 359.153 278.529 358.984 277.67C358.714 275.984 358.445 274.535 358.209 273.153C357.896 271.775 357.727 270.369 357.703 268.956C358.22 270.272 358.593 271.639 358.815 273.035C359.119 274.4 359.439 275.9 359.776 277.501L360.332 280.164C360.562 281.128 360.714 282.108 360.787 283.097C360.815 283.639 360.741 284.182 360.568 284.698C360.392 285.153 360.189 285.597 359.961 286.029C359.608 286.872 359.271 287.714 358.967 288.523C358.411 290.057 357.872 291.49 357.4 292.804C357.007 294.166 356.447 295.474 355.731 296.698Z" fill="#252B33"/>
<path d="M392.472 181.806C394.899 184.94 397.529 188.547 397.006 192.474C396.585 195.845 393.838 198.963 394.293 202.401C394.832 206.362 399.349 208.957 399.652 212.951C399.837 216.322 396.989 218.816 394.984 221.378C393.512 223.272 392.428 225.438 391.795 227.752C391.161 230.066 390.991 232.481 391.293 234.861C391.625 237.228 392.491 239.488 393.825 241.47C395.159 243.453 396.927 245.106 398.995 246.305C401.091 247.464 403.451 248.062 405.847 248.038C408.242 248.014 410.59 247.371 412.663 246.17C416.317 243.621 418.978 239.888 420.197 235.603C422.084 230.176 422.59 223.805 419.371 219.019C418.056 217.097 416.152 215.446 415.73 213.154C415.191 210.255 417.247 207.524 417.568 204.592C418.006 200.665 415.292 197.075 412.292 194.48C409.292 191.884 405.753 189.828 403.512 186.575" fill="#252B33"/>
<g opacity="0.3">
<path opacity="0.3" d="M414.888 270.119C415.983 286.973 416.573 302.563 416.978 319.467C419.227 319.369 421.412 318.684 423.315 317.478C424.174 310.265 418.713 288.304 414.888 270.119Z" fill="black"/>
</g>
<path d="M373.798 262.35C373.553 261.064 373.688 259.734 374.186 258.524C374.759 256.468 375.652 254.968 375.871 255.069C375.798 256.337 375.513 257.585 375.029 258.76C374.81 260.014 374.395 261.225 373.798 262.35Z" fill="#FAFAFA"/>
<path d="M355.9 262.299C355.765 262.501 354.568 261.911 353.406 260.799C352.243 259.687 351.568 258.524 351.72 258.389C351.872 258.254 352.849 259.114 353.962 260.159C355.074 261.204 356.018 262.097 355.9 262.299Z" fill="#FAFAFA"/>
<path d="M338.793 276.288C338.793 276.288 338.642 276.136 338.54 275.833H338.928C339.191 277.208 339.191 278.62 338.928 279.995C338.828 281.569 338.238 283.071 337.243 284.293C337.441 282.792 337.739 281.305 338.136 279.844C338.439 278.158 338.507 276.574 338.608 275.849H338.995C338.894 276.186 338.861 276.271 338.793 276.288Z" fill="#FAFAFA"/>
<path d="M338.035 293.782C336.748 293.728 335.488 293.395 334.344 292.804C332.389 292.046 330.872 291.254 330.973 291.018C332.266 291.068 333.531 291.402 334.681 291.995C336.602 292.754 338.119 293.546 338.035 293.782Z" fill="#FAFAFA"/>
<path d="M352.529 284.091C352.293 284.091 352.327 282.574 352.883 280.838C353.439 279.102 354.214 277.855 354.433 277.956C354.653 278.057 354.231 279.422 353.709 281.091C353.186 282.76 352.698 284.125 352.529 284.091Z" fill="#FAFAFA"/>
<path d="M367.697 245.732C367.697 245.968 366.433 246.221 364.849 246.305C363.265 246.389 361.984 246.305 361.967 246.001C361.95 245.698 363.231 245.496 364.815 245.428C366.4 245.361 367.697 245.479 367.697 245.732Z" fill="#FAFAFA"/>
<path d="M370.782 278.647C370.63 278.816 369.265 277.804 368.355 275.95C367.674 274.892 367.432 273.611 367.681 272.377C367.933 272.377 368.287 273.877 369.13 275.563C369.973 277.248 370.967 278.462 370.782 278.647Z" fill="#FAFAFA"/>
<path d="M400.714 271.585C400.882 271.754 399.82 273.102 398.219 274.484C396.618 275.866 395.118 276.709 394.984 276.507C394.849 276.304 396.079 275.158 397.646 273.81C399.214 272.462 400.545 271.417 400.714 271.585Z" fill="#FAFAFA"/>
<path d="M385.916 266.934C386.051 267.136 385.124 268.063 383.826 269.024C382.529 269.984 381.349 270.625 381.214 270.422C381.079 270.22 382.006 269.293 383.304 268.333C384.602 267.372 385.764 266.748 385.916 266.934Z" fill="#FAFAFA"/>
<path d="M393.18 254.833C391.811 254.546 390.56 253.853 389.59 252.844C387.905 251.344 386.877 249.726 387.079 249.591C387.281 249.456 388.495 250.754 390.163 252.17C391.832 253.586 393.298 254.614 393.18 254.833Z" fill="#FAFAFA"/>
<path d="M410.219 250.114C410.354 250.299 409.41 251.277 408.079 252.271C406.747 253.265 405.551 253.956 405.399 253.754C405.247 253.552 406.208 252.591 407.54 251.58C408.871 250.569 410.068 249.911 410.219 250.114Z" fill="#FAFAFA"/>
<path d="M424.444 256.855C424.422 255.637 424.604 254.424 424.983 253.265C425.371 251.327 425.624 249.726 425.876 249.743C426.25 250.945 426.25 252.232 425.876 253.434C425.455 255.456 424.663 256.94 424.444 256.855Z" fill="#FAFAFA"/>
<path d="M426.955 273.085C426.786 273.254 425.27 272.125 423.584 270.54C421.899 268.956 420.601 267.54 420.77 267.372C420.938 267.203 422.455 268.316 424.14 269.9C425.826 271.484 427.123 272.9 426.955 273.085Z" fill="#FAFAFA"/>
<path d="M438.483 266.26C438.264 266.159 438.702 264.574 439.46 262.889C440.219 261.204 441.028 259.72 441.247 259.822C441.186 261.006 440.851 262.159 440.269 263.192C439.494 264.979 438.685 266.361 438.483 266.26Z" fill="#FAFAFA"/>
<path d="M439.073 285.759C439.36 284.349 439.934 283.013 440.758 281.832C441.325 280.523 442.144 279.338 443.168 278.344C442.882 279.749 442.308 281.081 441.483 282.254C440.918 283.57 440.099 284.761 439.073 285.759Z" fill="#FAFAFA"/>
<path d="M427.713 288.742C427.511 288.894 426.365 287.681 425.118 286.029C423.871 284.377 423.045 282.945 423.23 282.793C423.416 282.641 424.595 283.855 425.826 285.506C427.056 287.158 427.899 288.591 427.713 288.742Z" fill="#FAFAFA"/>
<path d="M406.275 297.085C406.682 295.318 407.47 293.661 408.584 292.231C409.465 290.652 410.685 289.287 412.157 288.237C411.37 289.824 410.421 291.327 409.326 292.72C408.459 294.274 407.437 295.737 406.275 297.085Z" fill="#FAFAFA"/>
<path d="M390.871 295.534C389.84 294.398 389.034 293.077 388.495 291.641C387.699 290.326 387.156 288.875 386.894 287.36C388.727 289.807 390.077 292.582 390.871 295.534Z" fill="#FAFAFA"/>
<path d="M371.472 291.018C370.506 292.426 369.309 293.663 367.933 294.675C366.75 295.906 365.365 296.927 363.838 297.692C363.669 297.506 365.253 295.871 367.36 294.018C368.547 292.788 369.939 291.773 371.472 291.018Z" fill="#FAFAFA"/>
<path d="M378.838 312.085C378.635 312.237 377.253 310.669 375.467 308.849C373.68 307.029 372.096 305.613 372.248 305.478C373.741 306.063 375.071 307 376.124 308.209C377.333 309.259 378.265 310.59 378.838 312.085Z" fill="#FAFAFA"/>
<path d="M392.422 312.725C392.518 311.182 393.037 309.695 393.922 308.428C395.186 306.237 396.72 304.821 396.888 305.057C396.283 306.407 395.537 307.689 394.663 308.883C394.051 310.237 393.299 311.525 392.422 312.725Z" fill="#FAFAFA"/>
<path d="M411.517 314.95C409.974 314.222 408.566 313.236 407.354 312.034C405.955 311.047 404.73 309.834 403.73 308.444C405.279 309.171 406.693 310.157 407.91 311.36C409.304 312.347 410.523 313.561 411.517 314.95Z" fill="#FAFAFA"/>
<path d="M409.832 264.76C408.51 264.547 407.277 263.962 406.275 263.074C404.489 261.777 403.393 260.344 403.562 260.175C403.73 260.007 405.079 261.119 406.798 262.366C408.517 263.614 409.832 264.541 409.832 264.76Z" fill="#FAFAFA"/>
<path d="M382.242 351.135C382.343 351.371 380.978 352.096 379.461 353.225C377.944 354.354 376.815 355.416 376.63 355.264C376.444 355.112 377.304 353.714 378.939 352.517C380.574 351.32 382.175 350.916 382.242 351.135Z" fill="#FAFAFA"/>
<path d="M402.635 359.461C401.165 357.184 400.216 354.612 399.854 351.927C401.317 354.207 402.266 356.777 402.635 359.461Z" fill="#FAFAFA"/>
<path d="M423.197 352.18C423.382 352.348 422.32 353.73 420.854 355.264C419.388 356.798 418.056 357.91 417.888 357.742C417.719 357.573 418.764 356.191 420.23 354.657C421.697 353.124 423.028 352.028 423.197 352.18Z" fill="#FAFAFA"/>
<path d="M438.483 363.27C438.298 363.455 436.932 362.376 434.91 361.989C432.888 361.601 431.219 361.989 431.135 361.77C431.699 361.361 432.351 361.091 433.039 360.98C433.727 360.868 434.431 360.92 435.095 361.129C437.32 361.584 438.601 363.135 438.483 363.27Z" fill="#FAFAFA"/>
<path d="M446.792 370.77C446.792 370.77 330.4 346.382 319.125 351.725C307.85 357.067 255.89 485.51 255.89 485.51L297.738 503.509L342.754 394.365C342.754 394.365 424.242 424.128 438.483 421.128C452.724 418.128 446.792 370.77 446.792 370.77Z" fill="#252B33"/>
<path d="M394.765 377.612C392.995 378.202 325.664 405.893 320.912 414.775C316.159 423.656 327.822 571.413 327.822 571.413H366.113L363.754 440.106L438.483 421.128L394.765 377.612Z" fill="#252B33"/>
<path d="M438.87 421.482C438.502 421.468 438.136 421.423 437.775 421.347L434.64 420.791C431.927 420.286 428 419.51 423.163 418.482C413.506 416.443 400.191 413.426 385.697 409.196C378.45 407.106 371.607 404.915 365.473 402.792C359.338 400.668 353.793 398.544 349.259 396.606C346.967 395.679 344.928 394.752 343.141 393.943C341.355 393.134 339.771 392.443 338.574 391.803L335.743 390.37C335.398 390.22 335.07 390.034 334.765 389.814C335.124 389.921 335.473 390.056 335.81 390.219L338.726 391.5C339.973 392.073 341.523 392.747 343.327 393.505C345.13 394.264 347.186 395.19 349.478 396.033C354.046 397.904 359.591 399.876 365.742 402.033C371.894 404.19 378.753 406.263 385.967 408.353C400.444 412.516 413.708 415.685 423.331 417.876L434.741 420.454L437.842 421.162C438.195 421.234 438.54 421.341 438.87 421.482Z" fill="#263238"/>
<path d="M320.928 448.718C320.74 447.995 320.621 447.256 320.574 446.51C320.406 444.909 320.187 442.87 319.934 440.443C319.681 438.016 319.412 434.797 319.108 431.46C318.593 427.764 318.593 424.015 319.108 420.319C319.855 416.584 321.816 413.2 324.687 410.696C326.97 408.661 329.558 406.995 332.355 405.758C334.209 404.914 336.104 404.165 338.035 403.516C338.731 403.237 339.454 403.028 340.192 402.893C340.192 403.044 337.226 404.106 332.625 406.263C329.928 407.532 327.439 409.203 325.243 411.218C322.54 413.638 320.69 416.865 319.968 420.42C319.496 424.04 319.496 427.705 319.968 431.325C320.221 434.696 320.44 437.712 320.625 440.325C320.81 442.937 320.895 444.808 320.979 446.409C321.048 447.178 321.031 447.952 320.928 448.718Z" fill="#263238"/>
<path d="M354.518 436.027C357.752 436.814 360.821 438.167 363.585 440.021C360.354 439.227 357.285 437.875 354.518 436.027Z" fill="#263238"/>
<path d="M357.905 431.982C358.996 433.366 360.015 434.806 360.956 436.297C362.641 438.606 364.445 440.207 364.327 440.409C362.677 439.609 361.283 438.366 360.298 436.819C359.059 435.466 358.229 433.788 357.905 431.982Z" fill="#263238"/>
<path d="M372.602 437.982C372.602 437.982 372.484 438.302 372.012 438.589C371.328 438.951 370.561 439.131 369.787 439.111C368.725 439.074 367.661 439.102 366.602 439.196C366.034 439.279 365.52 439.578 365.166 440.029C364.811 440.481 364.644 441.051 364.697 441.622C364.827 445.04 364.669 448.462 364.225 451.853C363.793 448.444 363.658 445.004 363.821 441.572C363.829 440.789 364.083 440.029 364.546 439.398C365.042 438.839 365.725 438.48 366.467 438.387C367.591 438.326 368.719 438.359 369.838 438.488C370.787 438.558 371.739 438.384 372.602 437.982Z" fill="#263238"/>
<path opacity="0.3" d="M363.417 350.966L442.747 357.337L439.359 348.455L364.192 347.376L363.417 350.966Z" fill="black"/>
<path d="M578.133 333.556H110.459V346.028H135.47L122.577 583.227L129.689 583.615L142.616 346.028H552.633L563.622 583.429H570.768L559.762 346.028H578.133V333.556Z" fill="#252B33"/>
<path d="M246.856 259.805L272.794 335.579H390.231L389.354 331.686L341.877 330.203L320.001 259.754L246.856 259.805Z" fill="#252B33"/>
<path d="M298.901 295.383C299.676 298.501 298.344 301.535 295.934 302.124C293.524 302.714 290.878 300.776 290.154 297.658C289.429 294.54 290.71 291.523 293.12 290.917C295.53 290.31 298.125 292.282 298.901 295.383Z" fill="white"/>
</svg>
