<svg width="90" height="90" viewBox="0 0 90 90" fill="none" xmlns="http://www.w3.org/2000/svg">
<rect x="28" y="62" width="18" height="18" rx="9" fill="#FFE147"/>
<path d="M42.107 69.5056C41.5881 69.8167 40.9955 69.9833 40.3905 69.9883C39.7855 69.9932 39.1902 69.8363 38.6662 69.5338C38.1423 69.2313 37.7087 68.7942 37.4105 68.2678C37.1123 67.7414 36.9603 67.1448 36.9702 66.5399L37.1549 55.1304C37.1646 54.5396 37.3284 53.9615 37.6302 53.4534C37.932 52.9453 38.3613 52.5249 38.8755 52.2337C39.3897 51.9425 39.9711 51.7907 40.562 51.7932C41.1529 51.7958 41.733 51.9527 42.2447 52.2483L51.843 57.7899C52.3547 58.0853 52.7804 58.5093 53.0779 59.0198C53.3754 59.5302 53.5345 60.1096 53.5393 60.7004C53.5442 61.2912 53.3946 61.8731 53.1055 62.3884C52.8164 62.9037 52.3978 63.3346 51.891 63.6383L42.107 69.5056Z" stroke="#252B33" stroke-width="3.5"/>
<path d="M71.6307 48.4317C72.0062 45.3515 72.0742 42.2416 71.8337 39.1479C71.6549 36.3936 71.1498 33.6703 70.3291 31.035C67.2524 22.5839 62.2323 22.9177 56.2055 23.3939C54.2027 23.5674 52.19 23.5984 50.1827 23.4867L49.5531 23.3755C47.6283 22.7927 45.7474 22.0739 43.9245 21.2245C38.4165 18.7821 33.8274 16.6881 28.0284 23.6297C26.3325 25.8033 24.9251 28.1871 23.8411 30.7219C22.5545 33.5476 21.5526 36.4944 20.8502 39.5187C20.2036 41.8882 20.0783 44.3697 20.4829 46.7923C20.6284 47.5041 20.9323 48.174 21.372 48.7524C21.8118 49.3308 22.376 49.8027 23.023 50.1333C24.3299 50.6829 25.7826 50.7811 27.1515 50.4125C30.4021 49.5167 33.4799 48.0832 36.2574 46.1715C39.2842 44.6364 42.7575 44.2251 46.0591 45.0106C49.4301 45.4038 52.5522 46.9802 54.87 49.4594C56.8241 52.2071 59.2246 54.6084 61.9717 56.5634C63.1452 57.3499 64.5339 57.7525 65.946 57.7156C66.6762 57.6264 67.3758 57.3695 67.9903 56.965C68.6048 56.5606 69.1174 56.0195 69.4882 55.3841C70.708 53.2537 71.4397 50.8792 71.6307 48.4317V48.4317ZM67.969 54.7349C67.7841 55.0843 67.5221 55.3871 67.2029 55.6204C66.8837 55.8536 66.5156 56.0112 66.1265 56.0812C65.2162 56.2441 64.2778 56.1278 63.4349 55.7474C60.8644 53.9145 58.6372 51.6427 56.8556 49.0365C54.1852 45.8976 50.4348 43.8745 46.3452 43.3667C42.3296 42.4759 38.1283 43.0372 34.4874 44.951C31.9149 46.7803 29.0457 48.1518 26.0065 49.0048C25.0845 49.1399 24.1454 48.9227 23.3764 48.3963C23.0348 48.1972 22.743 47.9231 22.523 47.5946C22.303 47.2661 22.1607 46.8919 22.1067 46.5002C21.8188 44.3758 21.9726 42.2149 22.5582 40.1526C23.2427 37.1565 24.2297 34.2376 25.5038 31.4409C26.5468 28.9943 27.8963 26.6901 29.5198 24.5835C34.2215 18.806 38.1928 20.5755 42.8966 22.7493C44.8729 23.7091 46.9275 24.4989 49.0379 25.1099L50.0117 25.2819C52.2217 25.4415 54.4414 25.4086 56.6458 25.1835C61.7978 24.8135 66.1527 24.4542 68.5913 31.5007C69.4091 34.0318 69.8908 36.6595 70.024 39.3162C70.2351 42.3809 70.1623 45.4585 69.8066 48.5098C69.6513 50.6953 69.0248 52.8212 67.97 54.7415L67.969 54.7349Z" stroke="#252B33" stroke-width="3.5" stroke-linecap="round" stroke-linejoin="round"/>
<path d="M37.0206 30.2356L34.7756 37.5787" stroke="#252B33" stroke-width="3" stroke-linecap="round"/>
<path d="M39.5656 35.0261L32.2225 32.7811" stroke="#252B33" stroke-width="3" stroke-linecap="round"/>
<path d="M52.0491 38.3129C52.0491 39.4896 53.003 40.4435 54.1797 40.4435C55.3564 40.4435 56.3102 39.4896 56.3102 38.3129C56.3102 37.1363 55.3564 36.1824 54.1797 36.1824C53.003 36.1824 52.0491 37.1363 52.0491 38.3129Z" stroke="#252B33" stroke-width="2"/>
<path d="M59.5061 34.052C59.5061 35.2286 60.46 36.1825 61.6366 36.1825C62.8133 36.1825 63.7672 35.2286 63.7672 34.052C63.7672 32.8753 62.8133 31.9214 61.6366 31.9214C60.46 31.9214 59.5061 32.8753 59.5061 34.052Z" stroke="#252B33" stroke-width="2"/>
</svg>
