<svg width="90" height="90" viewBox="0 0 90 90" fill="none" xmlns="http://www.w3.org/2000/svg">
<rect x="49" y="21" width="18" height="18" rx="9" fill="#FFE147"/>
<path d="M20.9458 44.5128H73.5497L73.112 53.6091C73.112 53.6091 72.9049 56.433 71.6166 57.8023C70.5997 58.6691 69.2967 59.1266 67.9611 59.0852H58.4059C58.4059 59.0852 54.3561 59.4485 52.0927 56.4331C49.8292 53.4177 49.3761 48.4748 49.3761 48.4748C49.3761 48.4748 48.7948 44.3781 47.2165 44.5128C45.6382 44.6474 45.0568 48.4748 45.0568 48.4748C45.0568 48.4748 43.7032 54.1225 41.8753 56.9464C40.0475 59.7703 35.2291 59.0852 35.2291 59.0852H26.2544C25.1004 58.9726 24.0037 58.5268 23.0985 57.8023C22.4753 57.2321 22.0409 56.486 21.8522 55.6627L21.5235 54.0361C20.5623 54.1006 19.5985 53.9544 18.6996 53.608C18.2189 53.4672 17.7969 53.1743 17.4971 52.773C17.1973 52.3717 17.0357 51.8838 17.037 51.3829C16.9538 50.2709 17.037 49.6711 17.037 48.4737C17.001 48.0087 17.1376 47.5467 17.4202 47.1756C17.7027 46.8044 18.1119 46.5499 18.5697 46.4608L20.7128 46.5201L20.9437 46.5912L20.9458 44.5128Z" stroke="#252B33" stroke-width="3.5" stroke-linejoin="round"/>
<path d="M21.4435 43.858C21.4435 43.858 26.082 38.057 28.7231 35.1018C31.3642 32.1466 33.2428 29.4968 35.4099 30.0945C37.5771 30.6921 39.4593 34.1912 39.4593 34.1912" stroke="#252B33" stroke-width="3.5" stroke-linecap="round"/>
<path d="M72.9527 43.8248C72.9527 43.8248 68.6444 38.2895 66.0383 35.2858C63.4322 32.2822 61.5869 29.6057 59.4143 30.149C57.2417 30.6923 55.3187 34.1281 55.3187 34.1281" stroke="#252B33" stroke-width="3.5" stroke-linecap="round"/>
<path d="M20.8844 47.4033V48.2857L35.1655 48.1149C35.1655 48.1149 36.9728 48.0198 37.3909 48.4532C37.6725 48.7142 37.89 49.0364 38.0269 49.3952C38.1637 49.7539 38.216 50.1395 38.1797 50.5217C38.1797 51.7257 38.0148 51.9513 37.3909 52.5138C36.7605 53.1202 35.1655 52.9646 35.1655 52.9646H21.3744" stroke="#252B33" stroke-width="2" stroke-linejoin="round"/>
<path d="M22.1441 51.5614C22.6882 51.5614 23.1292 51.1204 23.1292 50.5764C23.1292 50.0323 22.6882 49.5913 22.1441 49.5913C21.6001 49.5913 21.1591 50.0323 21.1591 50.5764C21.1591 51.1204 21.6001 51.5614 22.1441 51.5614Z" fill="#252B33"/>
</svg>
