<svg width="90" height="90" viewBox="0 0 90 90" fill="none" xmlns="http://www.w3.org/2000/svg">
<path d="M50.449 26.5001V21.1226C50.449 18.7557 48.5302 16.8369 46.1633 16.8369H24.1224C21.7555 16.8369 19.8367 18.7557 19.8367 21.1226V68.8777C19.8367 71.2446 21.7555 73.1634 24.1224 73.1634H46.1633C48.5302 73.1634 50.449 71.2446 50.449 68.8777V62.5001" stroke="#252B33" stroke-width="3.5" stroke-linecap="round"/>
<path d="M20 23.4919H50.5" stroke="#252B33" stroke-width="3.5"/>
<path d="M19.2048 65.6719H51.224" stroke="#252B33" stroke-width="3.5"/>
<path d="M75 37C75 32.0294 70.9706 28 66 28C61.0294 28 57 32.0294 57 37C57 41.9706 61.0294 46 66 46C70.9706 46 75 41.9706 75 37Z" fill="#FFE147"/>
<path d="M46.2874 48.6954H38V40.4033H46.2874V32H54.5016V40.4033H63V48.6954H54.5016V57H46.2874V48.6954Z" stroke="#252B33" stroke-width="3.5" stroke-linejoin="round"/>
</svg>
