<svg width="90" height="90" viewBox="0 0 90 90" fill="none" xmlns="http://www.w3.org/2000/svg">
<rect x="10" y="63" width="18" height="18" rx="9" fill="#FFE147"/>
<path d="M46.4267 37.4865H36.262V27.3115H46.4267V17H56.5016V27.3115H66.9251V37.4865H56.5016V47.6768H46.4267V37.4865Z" stroke="#252B33" stroke-width="3.5" stroke-linejoin="round"/>
<path d="M20.6721 53.3397C20.6721 53.3397 23.5209 52.6641 27.0861 52.2145C30.6514 51.7649 32.1153 51.0779 34.9316 51.5392C37.9448 52.033 39.2707 52.7517 42.7299 54.3532C44.9179 55.2268 46.9554 56.4381 48.768 57.9429C50.7819 59.7506 50.6754 62.8707 46.9191 63.6791C43.1629 64.4874 34.9328 61.2822 34.9328 61.2822" stroke="#252B33" stroke-width="3.5" stroke-linecap="round" stroke-linejoin="round"/>
<path d="M50.0722 60.6566L62.8775 57.1624C62.8775 57.1624 67.2662 55.9243 69.0669 58.7383C70.8676 61.5523 66.4793 64.4781 66.4793 64.4781C64.0565 65.9949 61.4937 67.2763 58.8266 68.3045C54.128 70.161 51.8032 71.3745 47.6859 71.9056C38.5136 73.0866 36.3751 69.8232 29.3412 68.8669C22.3074 67.9107 20 67.7417 20 67.7417" stroke="#252B33" stroke-width="3.5" stroke-linecap="round" stroke-linejoin="round"/>
</svg>
