<svg xmlns="http://www.w3.org/2000/svg" width="23.097" height="26.269" viewBox="0 0 23.097 26.269">
  <g id="_01-Atomes-_-04-Elements-graphics-_-02-Timer" data-name="01-Atomes-/-04-Elements-graphics-/-02-Timer" transform="translate(-58.353 -8.424)">
    <g id="_01-Atomes-_-02-Icones-_-01-Hexagone" data-name="01-Atomes-/-02-Icones-/-01-Hexagone" transform="translate(58.353 8.424)">
      <path id="Fill-1" d="M80.761,14.483,70.6,8.617a1.361,1.361,0,0,0-1.4,0l-2.277,1.31-4.47,2.591-3.417,1.966a1.4,1.4,0,0,0-.683,1.2V27.438a1.364,1.364,0,0,0,.683,1.2L69.2,34.5a1.361,1.361,0,0,0,1.4,0l10.165-5.866a1.4,1.4,0,0,0,.684-1.2V15.707a1.247,1.247,0,0,0-.684-1.224" transform="translate(-58.353 -8.424)" fill="#ffd200" fill-rule="evenodd"/>
    </g>
  </g>
</svg>
