<svg width="90" height="90" viewBox="0 0 90 90" fill="none" xmlns="http://www.w3.org/2000/svg">
<rect x="20" y="62" width="18" height="18" rx="9" fill="#FFE147"/>
<path d="M32.345 45.1776C38.2423 45.6928 43.4186 41.5813 43.9066 35.9944C44.3946 30.4075 40.0096 25.4608 34.1123 24.9457C28.215 24.4306 23.0387 28.5421 22.5507 34.129C22.0627 39.7159 26.4478 44.6625 32.345 45.1776Z" fill="white"/>
<path d="M32.4925 43.492C37.4587 43.9258 41.8142 40.5032 42.2209 35.8475C42.6275 31.1917 38.9314 27.0658 33.9652 26.6321C28.9991 26.1983 24.6436 29.6208 24.2369 34.2766C23.8302 38.9323 27.5264 43.0582 32.4925 43.492Z" stroke="#252B33" stroke-width="3.5" stroke-linecap="round" stroke-linejoin="round"/>
<path d="M39.6368 42.3118L45.3482 49.1735" stroke="#252B33" stroke-width="3.5" stroke-linecap="round"/>
<path d="M72.02 18.7947H18.98C18.0451 18.7947 17.2872 19.5526 17.2872 20.4875V55.4713C17.2872 56.4062 18.0451 57.1641 18.98 57.1641H72.02C72.9549 57.1641 73.7127 56.4062 73.7127 55.4713V20.4875C73.7127 19.5526 72.9549 18.7947 72.02 18.7947Z" stroke="#252B33" stroke-width="3.5" stroke-linecap="round" stroke-linejoin="round"/>
<path d="M37.4357 59.6457V67.9244" stroke="#252B33" stroke-width="3.5" stroke-linecap="round"/>
<path d="M53.9661 59.6672V67.6196" stroke="#252B33" stroke-width="3.5" stroke-linecap="round"/>
<path d="M31.9816 68H59.4823" stroke="#252B33" stroke-width="3.5" stroke-linecap="round"/>
<path d="M48.2196 37.2808C49.8342 38.833 51.2924 40.5401 52.5733 42.3773C53.7637 44.2116 54.7599 46.1649 55.545 48.2059C57.2932 45.0638 59.3085 42.078 61.5689 39.2816C65.1801 34.8601 69.0849 30.6891 69.0849 30.6891C66.4284 31.6228 63.9029 32.8946 61.5711 34.4731C59.4413 35.985 57.6248 37.8951 56.2211 40.0977C55.1321 39.1564 53.9026 38.391 52.5772 37.8294C51.1752 37.3609 49.694 37.1744 48.2196 37.2808Z" stroke="#252B33" stroke-width="2.5" stroke-linecap="round" stroke-linejoin="round"/>
</svg>
