<svg width="90" height="90" viewBox="0 0 90 90" fill="none" xmlns="http://www.w3.org/2000/svg">
<rect x="54" y="11" width="18" height="18" rx="9" fill="#FFE147"/>
<path d="M56.1406 17.2349H33.3955C31.1972 17.2349 29.4151 19.0477 29.4151 21.2839V68.7153C29.4151 70.9515 31.1972 72.7643 33.3955 72.7643H56.1406C58.3389 72.7643 60.121 70.9515 60.121 68.7153V21.2839C60.121 19.0477 58.3389 17.2349 56.1406 17.2349Z" stroke="#252B33" stroke-width="3.5" stroke-linecap="round" stroke-linejoin="round"/>
<path d="M23.9892 26.5979C23.9892 26.5979 19.5539 30.9344 18.1176 35.2173" stroke="#252B33" stroke-width="3.5" stroke-linecap="round"/>
<path d="M18.0082 54.9693C18.0082 54.9693 20.5642 60.6255 24.0995 63.4348" stroke="#252B33" stroke-width="3.5" stroke-linecap="round"/>
<path d="M65.7912 26.5979C65.7912 26.5979 70.2265 30.9344 71.6628 35.2173" stroke="#252B33" stroke-width="3.5" stroke-linecap="round"/>
<path d="M71.7721 54.971C71.7721 54.971 69.2162 60.6273 65.6809 63.4365" stroke="#252B33" stroke-width="3.5" stroke-linecap="round"/>
<path d="M39.4421 43.3369L36.5797 46.8497L39.5797 50.5278" stroke="#252B33" stroke-width="3" stroke-linecap="round" stroke-linejoin="round"/>
<path d="M51.3845 43.3367L54.247 46.8495L51.2469 50.5275" stroke="#252B33" stroke-width="3" stroke-linecap="round" stroke-linejoin="round"/>
<path d="M47.2905 43.3367L43.6251 50.5706" stroke="#252B33" stroke-width="3" stroke-linecap="round"/>
<path d="M34.8284 53.8093C35.8358 55.6156 37.2864 57.1356 39.0437 58.2262C40.8009 59.3167 42.8069 59.9419 44.8725 60.0428C46.9382 60.1438 48.9956 59.7169 50.8508 58.8029C52.7059 57.8888 54.2978 56.5175 55.4764 54.818" stroke="#252B33" stroke-width="3" stroke-linecap="round"/>
<path d="M34.8284 39.7458C35.8358 37.9396 37.2864 36.4195 39.0437 35.329C40.8009 34.2384 42.8069 33.6132 44.8725 33.5123C46.9382 33.4114 48.9956 33.838 50.8508 34.752C52.7059 35.6661 54.2978 37.0377 55.4764 38.7371" stroke="#252B33" stroke-width="3" stroke-linecap="round"/>
</svg>
