<svg width="90" height="90" viewBox="0 0 90 90" fill="none" xmlns="http://www.w3.org/2000/svg">
<rect x="61" y="50" width="18" height="18" rx="9" fill="#FFE147"/>
<path d="M45.7297 17L21.3699 31.1692L21 59.1547L45.6316 73.3421L69.7207 59.1547V30.8163L45.7297 17Z" stroke="#252B33" stroke-width="3.5" stroke-linecap="round" stroke-linejoin="round"/>
<path d="M23.0513 31.9778L31.2592 36.7617L45.5357 62.4468V72.9486" stroke="#252B33" stroke-width="3.5" stroke-linecap="round" stroke-linejoin="round"/>
<path d="M67.8925 31.9778L59.6846 36.7617L45.4082 62.4468V72.3148" stroke="#252B33" stroke-width="3.5" stroke-linecap="round" stroke-linejoin="round"/>
<path d="M45.3022 17.8323L31.4791 36.6525L22.0476 59.0668" stroke="#252B33" stroke-width="3.5" stroke-linecap="round" stroke-linejoin="round"/>
<path d="M45.8232 17.2073L59.9474 36.6624L69.5255 57.5082" stroke="#252B33" stroke-width="3.5" stroke-linecap="round" stroke-linejoin="round"/>
<path d="M69.1276 57.9484L45.5321 63.3851L22.4841 58.574" stroke="#252B33" stroke-width="3.5" stroke-linecap="round" stroke-linejoin="round"/>
<path d="M44.0945 33.5913L44.1294 36.0333L46.2268 37.2845L48.1226 36.19L48.0877 33.748L45.9903 32.4968L44.0945 33.5913ZM41.543 31.1577L45.1585 29.0703C45.6894 28.7638 46.3445 28.7685 46.871 29.0825L50.6324 31.3264C51.1366 31.6272 51.4488 32.1679 51.4572 32.755L51.5197 37.1344C51.5285 37.7474 51.205 38.3171 50.6741 38.6236L47.0586 40.711C46.5277 41.0175 45.8726 41.0128 45.3461 40.6988L41.5847 38.4549C41.0805 38.1541 40.7683 37.6133 40.7599 37.0263L40.6974 32.6469C40.6886 32.0339 41.0121 31.4642 41.543 31.1577Z" fill="#252B33"/>
</svg>
