<svg width="90" height="90" viewBox="0 0 90 90" fill="none" xmlns="http://www.w3.org/2000/svg">
<rect x="62" y="34" width="18" height="18" rx="9" fill="#FFE147"/>
<path d="M58.0036 32.708C59.0461 33.9843 60.0142 35.3195 60.9031 36.7071C63.5136 36.7035 66.0745 37.419 68.305 38.7752C71.5693 40.8215 74.5348 46.0113 72.1152 52.273C71.1136 54.7102 69.2455 56.6904 66.8706 57.8318" stroke="#252B33" stroke-width="3.5" stroke-linecap="round" stroke-linejoin="round"/>
<path d="M26.505 39.3188C26.4391 39.4836 25.9558 42.8018 25.9558 42.8018C25.9558 42.8018 24.8947 42.7743 23.2351 42.8018C22.236 42.9542 21.2796 43.3127 20.4264 43.8544C19.5732 44.3961 18.8418 45.1092 18.2789 45.9485C17.7159 46.7879 17.3336 47.735 17.1561 48.7299C16.9786 49.7249 17.0099 50.746 17.2479 51.7282C17.486 53.0901 18.0049 54.3877 18.7715 55.5383C19.7014 57.1072 21.0723 58.3676 22.7134 59.1628" stroke="#252B33" stroke-width="3.5" stroke-linecap="round" stroke-linejoin="round"/>
<path d="M29.8175 57.0782L39.6775 49.9829" stroke="#252B33" stroke-width="3.5" stroke-linecap="round"/>
<path d="M26.5883 62.5286C28.4197 62.5286 29.9043 61.044 29.9043 59.2127C29.9043 57.3813 28.4197 55.8967 26.5883 55.8967C24.757 55.8967 23.2724 57.3813 23.2724 59.2127C23.2724 61.044 24.757 62.5286 26.5883 62.5286Z" stroke="#252B33" stroke-width="3.5" stroke-linecap="round" stroke-linejoin="round"/>
<path d="M39.9218 56.6583L40.3787 55.9348L37.4401 60.7046" stroke="#252B33" stroke-width="3.5" stroke-linecap="round" stroke-linejoin="round"/>
<path d="M35.8286 65.5897C37.1616 65.5897 38.2423 64.509 38.2423 63.1759C38.2423 61.8429 37.1616 60.7622 35.8286 60.7622C34.4955 60.7622 33.4148 61.8429 33.4148 63.1759C33.4148 64.509 34.4955 65.5897 35.8286 65.5897Z" stroke="#252B33" stroke-width="3" stroke-linecap="round" stroke-linejoin="round"/>
<path d="M49.483 56.6583L49.026 55.9348L51.9647 60.7046" stroke="#252B33" stroke-width="3.5" stroke-linecap="round" stroke-linejoin="round"/>
<path d="M53.5762 65.5897C52.2431 65.5897 51.1625 64.509 51.1625 63.1759C51.1625 61.8429 52.2431 60.7622 53.5762 60.7622C54.9093 60.7622 55.9899 61.8429 55.9899 63.1759C55.9899 64.509 54.9093 65.5897 53.5762 65.5897Z" stroke="#252B33" stroke-width="3" stroke-linecap="round" stroke-linejoin="round"/>
<path d="M44.9894 65.5471L44.9934 52.1638" stroke="#252B33" stroke-width="3.5" stroke-linecap="round"/>
<path d="M47.4943 69.0893C47.4943 67.4742 46.185 66.1649 44.5699 66.1649C42.9547 66.1649 41.6454 67.4742 41.6454 69.0893C41.6454 70.7044 42.9547 72.0137 44.5699 72.0137C46.185 72.0137 47.4943 70.7044 47.4943 69.0893Z" stroke="#252B33" stroke-width="3.0006" stroke-linecap="round" stroke-linejoin="round"/>
<path d="M59.4388 56.3969L49.0078 49.6405" stroke="#252B33" stroke-width="3.5" stroke-linecap="round"/>
<path d="M65.9653 57.4725C65.4656 55.6087 63.5496 54.5029 61.6858 55.0026C59.822 55.5023 58.7162 57.4183 59.2159 59.2821C59.7156 61.1458 61.6316 62.2516 63.4954 61.7519C65.3592 61.2522 66.465 59.3362 65.9653 57.4725Z" stroke="#252B33" stroke-width="3.5" stroke-linecap="round" stroke-linejoin="round"/>
<path d="M30.9073 35.5413C33.3947 31.8822 37.0859 29.2106 41.339 27.991C45.5921 26.7714 50.1381 27.0811 54.1866 28.866" stroke="#252B33" stroke-width="3.5" stroke-linecap="round" stroke-linejoin="round"/>
<path d="M23.3051 31.3695C26.9156 25.7248 32.4616 21.5912 38.9028 19.7443C45.3439 17.8973 52.2376 18.4638 58.2908 21.3375" stroke="#252B33" stroke-width="3.5" stroke-linecap="round" stroke-linejoin="round"/>
<path d="M38.4312 39.7532C39.7678 38.0795 41.5921 36.8631 43.651 36.2727C45.71 35.6823 47.9017 35.7471 49.9221 36.4583" stroke="#252B33" stroke-width="3.5" stroke-linecap="round" stroke-linejoin="round"/>
</svg>
