<svg width="90" height="90" viewBox="0 0 90 90" fill="none" xmlns="http://www.w3.org/2000/svg">
<rect x="59" y="62" width="18" height="18" rx="9" fill="#FFE147"/>
<path d="M51.9071 50.4324C51.1645 51.8305 51.6959 53.566 53.0941 54.3086C54.4922 55.0512 56.2276 54.5198 56.9703 53.1216C57.7129 51.7235 57.1815 49.9881 55.7833 49.2455C54.3852 48.5029 52.6498 49.0343 51.9071 50.4324Z" stroke="#252B33" stroke-width="3"/>
<path d="M47.7364 47.858L52.7704 50.5317" stroke="#252B33" stroke-width="3.5"/>
<path d="M44.8311 49.1339C46.4151 49.1339 47.6991 47.8499 47.6991 46.2659C47.6991 44.682 46.4151 43.3979 44.8311 43.3979C43.2472 43.3979 41.9631 44.682 41.9631 46.2659C41.9631 47.8499 43.2472 49.1339 44.8311 49.1339Z" stroke="#252B33" stroke-width="2"/>
<path d="M32.9985 53.1163C33.7411 54.5145 35.4765 55.0459 36.8747 54.3033C38.2728 53.5606 38.8042 51.8252 38.0616 50.4271C37.319 49.0289 35.5836 48.4975 34.1854 49.2401C32.7873 49.9827 32.2559 51.7182 32.9985 53.1163Z" stroke="#252B33" stroke-width="3"/>
<path d="M42.2344 47.8523L37.2004 50.5261" stroke="#252B33" stroke-width="3.5"/>
<path d="M44.8831 38.524C46.4665 38.524 47.7501 37.2404 47.7501 35.657C47.7501 34.0736 46.4665 32.79 44.8831 32.79C43.2997 32.79 42.0161 34.0736 42.0161 35.657C42.0161 37.2404 43.2997 38.524 44.8831 38.524Z" stroke="#252B33" stroke-width="3"/>
<path d="M44.8931 43.4151V37.7151" stroke="#252B33" stroke-width="3.5"/>
<path d="M47.523 56.7882C46.7603 55.4671 45.0711 55.0145 43.7501 55.7772C42.429 56.5399 41.9764 58.2291 42.7391 59.5502C43.5018 60.8712 45.191 61.3238 46.5121 60.5611C47.8331 59.7984 48.2857 58.1092 47.523 56.7882Z" fill="#252B33" stroke="#252B33"/>
<path d="M45.0978 49.2715L45.0981 58.7041" stroke="#252B33" stroke-width="3.5"/>
<path d="M53.4467 38.9581C52.684 40.2791 53.1366 41.9683 54.4577 42.731C55.7787 43.4938 57.4679 43.0411 58.2306 41.7201C58.9933 40.399 58.5407 38.7098 57.2197 37.9471C55.8986 37.1844 54.2094 37.637 53.4467 38.9581Z" fill="#252B33" stroke="#252B33"/>
<path d="M48.1497 44.8167L56.3184 40.1001" stroke="#252B33" stroke-width="3.5"/>
<path d="M32.4701 41.7201C33.2328 43.0412 34.922 43.4938 36.2431 42.7311C37.5641 41.9684 38.0168 40.2792 37.254 38.9581C36.4913 37.6371 34.8021 37.1845 33.4811 37.9472C32.16 38.7099 31.7074 40.3991 32.4701 41.7201Z" fill="#252B33" stroke="#252B33"/>
<path d="M42.5514 44.816L34.3827 40.0995" stroke="#252B33" stroke-width="3"/>
<path d="M23.6982 64.6618C23.6982 61.8158 20.4981 61.7269 19.1631 62.2619C18.5411 62.46 17.9986 62.8516 17.6147 63.3796C17.2309 63.9075 17.026 64.5442 17.0293 65.197C16.9619 65.7328 17.0112 66.2766 17.1743 66.7914C17.3374 67.3062 17.6104 67.7797 17.9741 68.1789C18.7637 68.6818 19.683 68.9431 20.6191 68.9308H71.187C71.5485 68.9863 71.9182 68.9461 72.2593 68.8141C72.6003 68.6822 72.9012 68.4631 73.1313 68.1789C73.4486 67.7399 73.6755 67.2425 73.7998 66.7153C73.924 66.188 73.9428 65.6414 73.855 65.1069C73.8622 64.5775 73.7149 64.0576 73.4307 63.611C73.1464 63.1644 72.7375 62.8105 72.2549 62.593C71.6944 62.3464 71.0889 62.2189 70.4766 62.2189C69.8642 62.2189 69.2587 62.3464 68.6982 62.593C68.3342 62.7155 68.0181 62.9494 67.7944 63.2617C67.5708 63.5739 67.4509 63.9488 67.4521 64.3329" stroke="#252B33" stroke-width="3.5" stroke-linecap="round" stroke-linejoin="round"/>
<path d="M17.2591 63.988V25.179C17.2591 25.179 16.4052 21 20.3192 21C24.2332 21 23.7874 25.179 23.7874 25.179V65.4619" stroke="#252B33" stroke-width="3.5" stroke-linecap="round" stroke-linejoin="round"/>
<path d="M67.4531 63.988V25.179C67.4531 25.179 66.5992 21 70.5132 21C74.4272 21 73.9815 25.179 73.9815 25.179V65.4619" stroke="#252B33" stroke-width="3.5" stroke-linecap="round" stroke-linejoin="round"/>
<path d="M23.8051 24.4661H67.017" stroke="#252B33" stroke-width="3.5" stroke-linecap="round"/>
</svg>
