<svg width="90" height="90" viewBox="0 0 90 90" fill="none" xmlns="http://www.w3.org/2000/svg">
<rect x="36" y="62" width="18" height="18" rx="9" fill="#FFE147"/>
<path d="M52.387 40.3592L57.6556 55.0275L71.9041 57.303L65.9773 43.3527L52.387 40.3592Z" stroke="#252B33" stroke-width="3.5" stroke-linecap="round" stroke-linejoin="round"/>
<path d="M57.5365 55.2081L47.8979 67.3019L61.0439 70.0645C61.0439 70.0645 69.413 60.3586 71.9652 57.4227" stroke="#252B33" stroke-width="3.5" stroke-linecap="round" stroke-linejoin="round"/>
<path d="M52.3274 40.4199L42.0997 52.5106L47.7778 67.1827" stroke="#252B33" stroke-width="3.5" stroke-linecap="round" stroke-linejoin="round"/>
<path d="M16.9339 47.1485L33.0396 47.1517L40.502 32.9594L25.0773 32.5844L16.9339 47.1485Z" stroke="#252B33" stroke-width="3.5" stroke-linecap="round" stroke-linejoin="round"/>
<path d="M17.1645 47.6114L23.1514 58.8973L39.0265 58.9042L33.0822 47.3225" stroke="#252B33" stroke-width="3.5" stroke-linecap="round" stroke-linejoin="round"/>
<path d="M40.6404 33.1439L45.0135 41.4391" stroke="#252B33" stroke-width="3.5" stroke-linecap="round"/>
<path d="M36.2412 25.038L50.3267 32.2735L62.7762 23.9482L49.3908 15.9323L36.2412 25.038Z" stroke="#252B33" stroke-width="3.5" stroke-linecap="round" stroke-linejoin="round"/>
<path d="M50.272 32.4604V36.2937" stroke="#252B33" stroke-width="3.5" stroke-linecap="round"/>
<path d="M62.9552 24.0046V37.1475" stroke="#252B33" stroke-width="3.5" stroke-linecap="round"/>
<path d="M36.1008 25.2109V28.0391" stroke="#252B33" stroke-width="3.5" stroke-linecap="round"/>
</svg>
