<svg width="90" height="90" viewBox="0 0 90 90" fill="none" xmlns="http://www.w3.org/2000/svg">
<rect x="56" y="61" width="18" height="18" rx="9" fill="#FFE147"/>
<path d="M41.7085 68.3829C41.7085 69.3015 40.9638 70.0463 40.0451 70.0463C39.1264 70.0463 38.3817 69.3015 38.3817 68.3829C38.3817 67.4642 39.1264 66.7195 40.0451 66.7195C40.9638 66.7195 41.7085 67.4642 41.7085 68.3829Z" fill="#252B33"/>
<path d="M36.2417 52.8831C37.2513 51.9957 41.3852 48.5251 41.3852 48.5251L45.0827 49.3307L45.1578 52.6218C45.1578 52.6218 40.8958 56.7159 40.2998 57.2387C47.2194 59.4187 51.3375 54.9542 51.1213 51.5026C50.8203 49.4781 50.5798 48.5892 51.3445 47.2887C54.0776 44.7346 57.1332 42.2213 59.79 39.9918C62.1934 37.8147 64.3173 38.9473 66.179 38.7433C72.043 37.7525 73.1548 34.4528 73.0761 31.6024C73.0348 30.6946 72.8284 29.8009 72.4667 28.9631C72.466 29.1285 67.3729 33.3237 67.3729 33.3237L64.1669 32.5441L63.3525 29.0892L68.5854 24.6191C68.5854 24.6191 60.2941 20.5053 57.752 29.9C57.4763 32.2386 57.6127 32.859 56.6259 34.4991C54.2079 36.6233 50.6008 40.9652 46.9875 43.0363C44.861 43.6186 43.8496 42.5029 42.181 42.7818C38.0867 43.4469 34.977 47.1565 36.2417 52.8831Z" stroke="#252B33" stroke-width="3" stroke-linecap="round" stroke-linejoin="round"/>
<path d="M61.7275 22.9267C61.7471 22.1328 61.5889 21.3447 61.2644 20.6199C60.9398 19.8951 60.4572 19.2521 59.8519 18.738C58.3338 17.8261 56.5727 17.4008 54.8057 17.5195H24.0429C22.4276 17.4402 20.8266 17.8545 19.4526 18.7075C18.929 19.0356 18.486 19.4777 18.1567 20.0004C17.8273 20.5232 17.6198 21.1135 17.5499 21.7274L17.5894 65.8182C17.5894 65.8182 16.8747 69.6436 19.4861 71.3605C22.0975 73.0774 27.7401 72.506 27.7401 72.506L52.2528 72.5733C52.2528 72.5733 56.4022 72.9107 58.757 71.9308C59.4418 71.6522 60.0604 71.2326 60.5722 70.6991C61.0839 70.1656 61.4776 69.5303 61.7275 68.8345V40.1612" stroke="#252B33" stroke-width="3.5" stroke-linecap="round"/>
<path d="M55.6397 35.3694C55.5627 33.8002 56.2096 30.9542 55.6397 27.8289C55.2825 25.8691 55.4111 25.2446 53.6843 24.2804C52.1085 23.648 50.4232 23.3534 48.7325 23.4147H28.161C26.9864 23.355 25.821 23.6565 24.8139 24.2804C24.4341 24.5162 24.1117 24.8379 23.8712 25.221C23.6308 25.6041 23.4785 26.0386 23.4263 26.4913L23.4548 58.7763C23.4548 58.7763 22.9343 61.5769 24.8381 62.8344C26.7419 64.0918 30.8572 63.6729 30.8572 63.6729L48.7314 63.7218C50.3264 63.8587 51.9324 63.6992 53.4724 63.251C55.1897 62.5357 55.6386 60.1237 55.6386 60.1237V44.9735" stroke="#252B33" stroke-width="3.5" stroke-linecap="round"/>
</svg>
