<svg width="90" height="90" viewBox="0 0 90 90" fill="none" xmlns="http://www.w3.org/2000/svg">
<rect x="19" y="62" width="18" height="18" rx="9" fill="#FFE147"/>
<path d="M32.0325 29.9075C30.6089 29.9075 29.4507 31.0656 29.4507 32.4892V66.5476C29.4507 67.9712 30.6089 69.1294 32.0325 69.1294H33.6106H36.9782H38.97H50.118H53.1568H55.6694H57.1679C58.5914 69.1294 59.7496 67.9712 59.7496 66.5476V32.4892C59.7496 31.0656 58.5914 29.9075 57.1679 29.9075H51.7272H48.2764H41.1961H37.7454H32.0325ZM39.4107 20.9067H42.1961V26.4567H47.2764V20.9067H50.0084V26.4567H57.1679C60.4995 26.4567 63.2003 29.1576 63.2003 32.4892V66.5476C63.2003 69.8793 60.4995 72.5801 57.1679 72.5801H55.6694C55.6694 72.5801 55.3167 74.9949 52.8712 74.9949C50.4258 74.9949 50.118 72.5801 50.118 72.5801H38.97C38.97 72.5801 38.8093 74.9949 36.2393 74.9949C33.6694 74.9949 33.6106 72.5801 33.6106 72.5801H32.0325C28.7008 72.5801 26 69.8793 26 66.5476V32.4892C26 29.1576 28.7008 26.4567 32.0325 26.4567H39.4107V20.9067Z" fill="#252B33"/>
<path d="M34.5983 26.4553V31.3725L33.7115 32.3192V36.2818C33.7062 36.3999 33.7273 36.5178 33.7727 36.627C33.8235 36.7067 33.9028 36.7638 33.9946 36.7867H36.3422C36.4598 36.769 36.5683 36.7128 36.6506 36.627C36.7079 36.5216 36.7309 36.4009 36.7163 36.2818L36.6506 32.1984L35.7508 31.3725V26.4553" stroke="#252B33" stroke-width="2"/>
<path d="M27 39H62V40.7576H53.1964V50.2871C53.1964 50.2871 53.26 51 52.3558 51C51.4517 51 51.5649 50.2871 51.5649 50.2871V40.7576H36.8159V50.2179C36.8159 50.2179 36.6971 51 35.8881 51C35.0791 51 35.0864 50.2179 35.0864 50.2179V40.7576H27V39Z" fill="#252B33" stroke="#252B33" stroke-width="1.5"/>
<path d="M52.0759 16.7253H37.1227C36.8051 16.7253 36.5476 16.9828 36.5476 17.3005V20.7512C36.5476 21.0688 36.8051 21.3263 37.1227 21.3263H52.0759C52.3935 21.3263 52.651 21.0688 52.651 20.7512V17.3005C52.651 16.9828 52.3935 16.7253 52.0759 16.7253Z" stroke="#252B33" stroke-width="3"/>
</svg>
