<svg width="90" height="90" viewBox="0 0 90 90" fill="none" xmlns="http://www.w3.org/2000/svg">
<rect x="19" y="62" width="18" height="18" rx="9" fill="#FFE147"/>
<path d="M32.8372 30.4246C31.4597 30.4246 30.339 31.5453 30.339 32.9228V65.8784C30.339 67.2559 31.4597 68.3766 32.8372 68.3766H34.3641H37.6228H39.55H50.3371H53.2775H55.7087H57.1587C58.5362 68.3766 59.6568 67.2559 59.6568 65.8784V32.9228C59.6568 31.5453 58.5362 30.4246 57.1587 30.4246H51.8941H48.5551H41.7041H38.3651H32.8372ZM39.9764 21.7153H42.7041V27.0856H47.5551V21.7153H50.2311V27.0856H57.1587C60.3824 27.0856 62.9958 29.699 62.9958 32.9228V65.8784C62.9958 69.1022 60.3824 71.7156 57.1587 71.7156H55.7087C55.7087 71.7156 55.3674 74.0522 53.0012 74.0522C50.6349 74.0522 50.3371 71.7156 50.3371 71.7156H39.55C39.55 71.7156 39.3945 74.0522 36.9078 74.0522C34.4211 74.0522 34.3641 71.7156 34.3641 71.7156H32.8372C29.6134 71.7156 27 69.1022 27 65.8784V32.9228C27 29.699 29.6134 27.0856 32.8372 27.0856H39.9764V21.7153Z" fill="#252B33"/>
<path d="M35.3199 27.0847V31.8427L34.4618 32.7587V36.593C34.4567 36.7073 34.4771 36.8214 34.5211 36.927C34.5702 37.0042 34.647 37.0595 34.7357 37.0816H37.0074C37.1212 37.0644 37.2261 37.0101 37.3057 36.927C37.3612 36.825 37.3835 36.7082 37.3693 36.593L37.3057 32.6418L36.4351 31.8427V27.0847" stroke="#252B33" stroke-width="2"/>
<path d="M52.2316 17.6697H37.7626C37.4552 17.6697 37.2061 17.9188 37.2061 18.2262V21.5652C37.2061 21.8725 37.4552 22.1217 37.7626 22.1217H52.2316C52.5389 22.1217 52.7881 21.8725 52.7881 21.5652V18.2262C52.7881 17.9188 52.5389 17.6697 52.2316 17.6697Z" stroke="#252B33" stroke-width="3"/>
<path d="M44.5454 50.4954C46.0429 51.1936 47.8229 50.5458 48.5212 49.0483C49.2195 47.5508 48.5716 45.7708 47.0741 45.0725C45.5766 44.3742 43.7966 45.0221 43.0983 46.5195C42.4 48.017 43.0479 49.7971 44.5454 50.4954Z" stroke="#252B33" stroke-width="3" stroke-linecap="round" stroke-linejoin="round"/>
<path d="M40.8787 58.3582C47.6499 56.3443 51.7782 53.8618 53.0402 51.1554C53.483 50.2059 53.7344 49.1785 53.7801 48.1318C53.8258 47.0851 53.6649 46.0397 53.3065 45.0552C52.9482 44.0707 52.3995 43.1664 51.6917 42.3939C50.9839 41.6215 50.1308 40.9961 49.1813 40.5533C48.2318 40.1105 47.2044 39.8591 46.1577 39.8134C45.111 39.7677 44.0655 39.9286 43.081 40.2869C42.0965 40.6453 41.1923 41.194 40.4198 41.9018C39.6474 42.6096 39.0219 43.4626 38.5792 44.4122C37.3148 47.1236 38.1109 51.7869 40.8787 58.3582Z" stroke="#252B33" stroke-width="3.5" stroke-linecap="round" stroke-linejoin="round"/>
</svg>
