<svg width="90" height="90" viewBox="0 0 90 90" fill="none" xmlns="http://www.w3.org/2000/svg">
<rect x="10" y="10" width="18" height="18" rx="9" fill="#FFE147"/>
<g clip-path="url(#clip0)">
<path d="M28.7078 26.0708C29.1932 26.0708 29.5867 25.6773 29.5867 25.1919C29.5867 24.7065 29.1932 24.313 28.7078 24.313C28.2224 24.313 27.8289 24.7065 27.8289 25.1919C27.8289 25.6773 28.2223 26.0708 28.7078 26.0708ZM21.6765 26.0708C22.1619 26.0708 22.5554 25.6773 22.5554 25.1919C22.5554 24.7065 22.1619 24.313 21.6765 24.313C21.1911 24.313 20.7976 24.7065 20.7976 25.1919C20.7976 25.6773 21.191 26.0708 21.6765 26.0708ZM25.1921 26.0708C25.6775 26.0708 26.0711 25.6773 26.0711 25.1919C26.0711 24.7065 25.6775 24.313 25.1921 24.313C24.7068 24.313 24.3132 24.7065 24.3132 25.1919C24.3132 25.6773 24.7066 26.0708 25.1921 26.0708ZM24.9994 35.3817C25.0048 35.3819 25.0102 35.3819 25.0155 35.3819L32.9619 35.3838H32.9624C33.5114 35.3838 33.9775 35.0282 34.1224 34.4987C34.2675 33.969 34.0473 33.4254 33.5748 33.1459L32.3663 32.4308C34.3088 30.5056 35.4013 27.8787 35.3839 25.1264C35.3491 19.6224 30.8442 15.0803 25.3418 15.0011C19.64 14.9192 15 19.5313 15 25.1922C15 30.6206 19.4728 35.2642 24.9994 35.3817ZM19.2715 19.1851C20.8922 17.5876 23.0344 16.7269 25.3166 16.7587C29.8697 16.8242 33.5973 20.5828 33.6261 25.1374C33.6417 27.5947 32.588 29.9316 30.735 31.5485C30.4252 31.8188 30.2629 32.2244 30.3004 32.6335C30.3379 33.0423 30.5714 33.4112 30.9247 33.6202L30.9335 33.6253L25.0242 33.6239C20.456 33.5363 16.7578 29.7729 16.7578 25.1922C16.7578 22.9163 17.6505 20.783 19.2715 19.1851ZM74.1211 73.2422H73.2422V60.1535C73.2422 56.7244 71.2159 53.6105 68.0701 52.2161L63.4382 50.2308C64.5653 49.8751 65.5835 49.2409 66.412 48.3612C67.6621 47.034 68.3789 45.2332 68.3789 43.4204C68.3789 41.7547 67.797 40.1826 66.6957 38.8735C65.3183 37.2379 64.5598 35.1592 64.5598 33.0201V28.8083C64.5598 25.1195 63.1232 21.6522 60.5148 19.0451C57.9064 16.4365 54.4388 15 50.7504 15C43.1365 15 36.9422 21.1943 36.9422 28.8082V32.8828C36.9427 35.0963 36.0728 37.209 34.6593 38.9121C32.8802 41.0555 32.5106 43.9534 33.6948 46.4749C34.5737 48.3467 36.159 49.6914 38.0569 50.2606L33.4573 52.2607C30.2303 53.6187 28.145 56.7583 28.145 60.2591V70.6056C28.145 71.091 28.5384 71.4845 29.0239 71.4845C29.5095 71.4845 29.9029 71.091 29.9029 70.6056V60.2591C29.9029 57.4675 31.5656 54.9638 34.1487 53.8769L39.9141 51.3698V56.6602H37.2653C36.5188 56.6602 35.8043 56.9785 35.305 57.5335C34.8057 58.0885 34.5646 58.8325 34.6433 59.5747L36.0921 73.2422H15.8789C15.3934 73.2422 15 73.6357 15 74.1211C15 74.6065 15.3934 75 15.8789 75H74.1211C74.6066 75 75 74.6065 75 74.1211C75 73.6357 74.6066 73.2422 74.1211 73.2422ZM65.3509 40.0053C66.1819 40.9931 66.6211 42.174 66.6211 43.4203C66.6211 44.7899 66.0785 46.1514 65.1325 47.1559C64.1307 48.2194 62.7546 48.8051 61.2575 48.8051H60.1121L58.6076 48.1602C57.2933 47.5965 56.3943 46.3882 56.2105 44.9973C58.9223 43.5372 60.77 40.6715 60.77 37.3817V30.7743C61.0273 30.7917 61.2843 30.8012 61.5405 30.8012C61.9632 30.8012 62.3843 30.7772 62.8021 30.7299V33.0199C62.802 35.5728 63.7073 38.0536 65.3509 40.0053ZM50.964 53.8804C47.8198 53.936 44.6992 53.5376 41.6719 52.698V50.6053L41.9261 50.4948C41.928 50.494 41.93 50.4931 41.9321 50.4922L43.5001 49.8105C45.2455 49.0517 46.4789 47.4975 46.8529 45.6813C47.6182 45.9039 48.426 46.0255 49.2622 46.0255H52.1262C52.9656 46.0255 53.7764 45.903 54.5443 45.6788C54.9306 47.4866 56.1687 49.0268 57.9149 49.7759L59.5883 50.4931C59.5894 50.4935 59.5904 50.494 59.5915 50.4944L59.7155 50.5474V52.5252C56.871 53.3727 53.9303 53.8286 50.964 53.8804ZM59.7152 54.3552V56.6603H41.6719V54.5181C44.5212 55.2652 47.4466 55.6432 50.3919 55.6432C50.5928 55.6432 50.7938 55.6415 50.9947 55.638C53.9467 55.5864 56.8745 55.155 59.7152 54.3552ZM62.802 28.9575C60.381 29.2846 57.652 28.6361 55.7719 27.1793C55.3883 26.8821 54.8363 26.952 54.5388 27.3358C54.2415 27.7194 54.3116 28.2715 54.6953 28.5688C55.9245 29.5211 57.407 30.1919 59.0122 30.5301V35.3149C58.5899 36.2775 58.1197 37.078 57.0598 37.9525C56.6135 38.3207 56.1251 38.6264 55.602 38.869C55.1748 38.0354 54.3073 37.4633 53.3081 37.4633H51.2484C49.8278 37.4633 48.6721 38.6192 48.6721 40.0397C48.6721 41.4603 49.8278 42.6161 51.2484 42.6161H53.3081C54.5037 42.6161 55.5115 41.7974 55.8008 40.6914C56.9766 40.2434 58.8936 38.6452 58.8941 38.6446C58.2989 41.8399 55.4916 44.2672 52.1263 44.2672H49.2621C45.4652 44.2672 42.3762 41.1783 42.3762 37.3813V30.5875C45.3613 30.1196 48.1814 29.1094 50.7677 27.5796C54.7057 25.2503 57.2317 22.2065 58.7561 19.8017C61.3643 22.1247 62.848 25.455 62.802 28.9575ZM54.1264 40.0422C54.1252 40.4925 53.7586 40.8585 53.308 40.8585H51.2483C50.7969 40.8585 50.4298 40.4912 50.4298 40.0399C50.4298 39.5887 50.797 39.2214 51.2483 39.2214H53.308C53.7585 39.2214 54.1249 39.5871 54.1264 40.0372V40.0422ZM38.7 28.8082C38.7 22.1636 44.1057 16.7578 50.7504 16.7578C53.1334 16.7578 55.4106 17.4457 57.3565 18.7263C55.9536 20.9751 53.5924 23.8668 49.8728 26.0671C47.321 27.5765 44.522 28.5401 41.5532 28.9313H41.4983C41.498 28.9313 41.4976 28.9313 41.4971 28.9313C41.4967 28.9313 41.4964 28.9313 41.496 28.9313H38.6999V28.8082H38.7ZM35.2857 45.7278C34.3945 43.8296 34.6727 41.6481 36.0108 40.0361C37.6897 38.0133 38.7019 35.5139 38.7 32.8828V30.6891H40.6184V37.3817C40.6184 40.6733 42.4684 43.5404 45.1827 44.9998C45.0129 46.4012 44.1165 47.6255 42.7991 48.1983L41.4036 48.8051H40.1297C38.0332 48.8051 36.1772 47.626 35.2857 45.7278ZM65.8819 59.3896L64.4134 73.2422H37.8598L36.3913 59.3896C36.3647 59.1385 36.443 58.8968 36.6118 58.7092C36.7807 58.5215 37.0129 58.4181 37.2653 58.4181H65.0079C65.2603 58.4181 65.4925 58.5215 65.6613 58.7092C65.8302 58.8968 65.9085 59.1385 65.8819 59.3896ZM71.4844 73.2422H66.1811L67.6298 59.575C67.7086 58.8326 67.4673 58.0886 66.9682 57.5336C66.4689 56.9786 65.7545 56.6603 65.0079 56.6603H61.473V51.301L67.3677 53.8274C69.8685 54.936 71.4844 57.4191 71.4844 60.1535V73.2422ZM51.1365 62.4903C49.2949 62.4903 47.7967 63.9885 47.7967 65.8301C47.7967 67.6717 49.2949 69.1699 51.1365 69.1699C52.9781 69.1699 54.4764 67.6717 54.4764 65.8301C54.4764 63.9885 52.9781 62.4903 51.1365 62.4903ZM51.1365 67.4121C50.2642 67.4121 49.5545 66.7024 49.5545 65.8301C49.5545 64.9578 50.2642 64.2481 51.1365 64.2481C52.0089 64.2481 52.7186 64.9578 52.7186 65.8301C52.7186 66.7024 52.009 67.4121 51.1365 67.4121Z" fill="black"/>
</g>
<defs>
<clipPath id="clip0">
<rect width="60" height="60" fill="white" transform="translate(15 15)"/>
</clipPath>
</defs>
</svg>
