<svg width="90" height="90" viewBox="0 0 90 90" fill="none" xmlns="http://www.w3.org/2000/svg">
<rect x="58" y="58" width="18" height="18" rx="9" fill="#FFE147"/>
<path d="M45 73.2352C60.5939 73.2352 73.2353 60.5939 73.2353 44.9999C73.2353 29.406 60.5939 16.7646 45 16.7646C29.4061 16.7646 16.7647 29.406 16.7647 44.9999C16.7647 60.5939 29.4061 73.2352 45 73.2352Z" stroke="#252B33" stroke-width="3.5"/>
<path d="M45.5882 65C56.309 65 65 56.3091 65 45.5883C65 34.8675 56.309 26.1765 45.5882 26.1765C34.8674 26.1765 26.1765 34.8675 26.1765 45.5883C26.1765 56.3091 34.8674 65 45.5882 65Z" stroke="#252B33" stroke-width="3.5"/>
<path d="M53.367 45.2059C53.3697 44.9827 53.3112 44.763 53.198 44.5706C53.0848 44.3781 52.9211 44.2203 52.7247 44.1142L41.7059 37.9965C41.5157 37.8911 41.3014 37.8371 41.084 37.8399C40.8666 37.8427 40.6537 37.9021 40.4663 38.0124C40.279 38.1227 40.1236 38.2799 40.0156 38.4686C39.9076 38.6573 39.8507 38.8709 39.8506 39.0883V51.3318C39.8507 51.5492 39.9076 51.7628 40.0156 51.9515C40.1236 52.1402 40.279 52.2975 40.4663 52.4077C40.6537 52.518 40.8666 52.5774 41.084 52.5802C41.3014 52.583 41.5157 52.529 41.7059 52.4236L52.7247 46.3059C52.9211 46.1998 53.0848 46.042 53.198 45.8496C53.3112 45.6571 53.3697 45.4374 53.367 45.2142V45.2059ZM55.8647 45.2059C55.8687 45.8749 55.6917 46.5325 55.3524 47.1091C55.0132 47.6857 54.5243 48.1598 53.9376 48.4812L42.9235 54.6024C42.3533 54.9203 41.71 55.0837 41.0572 55.0765C40.4045 55.0692 39.7649 54.8916 39.202 54.5611C38.639 54.2307 38.1721 53.7589 37.8476 53.1924C37.523 52.626 37.3521 51.9846 37.3517 51.3318V39.0836C37.3513 38.4304 37.5216 37.7884 37.8458 37.2213C38.17 36.6543 38.6368 36.1818 39.1999 35.8508C39.763 35.5197 40.4029 35.3417 41.0561 35.3342C41.7092 35.3268 42.353 35.4902 42.9235 35.8083L53.9423 41.9259C54.5289 42.2484 55.0172 42.7235 55.3557 43.3009C55.6941 43.8784 55.87 44.5366 55.8647 45.2059Z" fill="#252B33" stroke="#252B33"/>
</svg>
