<svg width="90" height="90" viewBox="0 0 90 90" fill="none" xmlns="http://www.w3.org/2000/svg">
<path d="M50.449 26.5V21.1225C50.449 18.7556 48.5302 16.8368 46.1633 16.8368H24.1224C21.7555 16.8368 19.8367 18.7556 19.8367 21.1225V68.8776C19.8367 71.2445 21.7555 73.1633 24.1224 73.1633H46.1633C48.5302 73.1633 50.449 71.2445 50.449 68.8776V62.5" stroke="#252B33" stroke-width="3.5" stroke-linecap="round"/>
<path d="M20 23.4919H50.5" stroke="#252B33" stroke-width="3.5"/>
<path d="M19.2049 65.6719H51.2241" stroke="#252B33" stroke-width="3.5"/>
<rect x="56" y="23" width="18" height="18" rx="9" fill="#FFE147"/>
<path d="M59.9296 32H63.4241C63.4241 32 63.7973 38.2426 63.4241 40.3385C63.0924 41.9141 62.2443 43.3339 61.0141 44.3728C59.784 45.4116 58.2423 46.0102 56.6334 46.0734C56.6334 46.0734 50.0658 46.5467 48.5739 40.3385C48.1584 38.163 48.5739 32 48.5739 32H51.9476" stroke="#252B33" stroke-width="3.5" stroke-linecap="round" stroke-linejoin="round"/>
<path d="M56 46.2518C55.8919 48.1252 56 50.1395 56 52.7195C55.8296 53.788 55.2722 54.7785 54.4119 55.5416C53.5516 56.3048 52.435 56.7993 51.2303 56.9507C50.0255 57.1022 48.7979 56.9023 47.7324 56.3812C46.6669 55.8602 45.8211 55.0461 45.3226 54.0617C44.4934 51.8144 45.6339 50.1865 44.5486 48.1175C44.1486 47.4405 43.5358 46.8808 42.7844 46.5064C42.033 46.1321 41.1753 45.9589 40.3152 46.0082C39.4784 46.0312 38.6647 46.257 37.9625 46.6612C37.2602 47.0653 36.6961 47.6322 36.3316 48.3006C35.8192 49.4022 36.071 51.3773 36.0073 52.4818" stroke="#252B33" stroke-width="3.5" stroke-linecap="round" stroke-linejoin="round"/>
<path d="M36 59C37.6569 59 39 57.6569 39 56C39 54.3431 37.6569 53 36 53C34.3431 53 33 54.3431 33 56C33 57.6569 34.3431 59 36 59Z" stroke="#252B33" stroke-width="3.5"/>
</svg>
