<svg width="90" height="90" viewBox="0 0 90 90" fill="none" xmlns="http://www.w3.org/2000/svg">
<rect x="10" y="10" width="18" height="18" rx="9" fill="#FFE147"/>
<path d="M16.4996 18.5H23.7489V52.886H64.1631C65.1709 52.9035 66.164 52.6426 67.0331 52.132C67.7401 51.4954 68.2258 50.6501 68.4198 49.7187L73 25.1766H24.4559" stroke="#252B33" stroke-width="3.5" stroke-linecap="round" stroke-linejoin="round"/>
<path d="M29.4836 73.0018C32.4663 73.0018 34.8843 70.5838 34.8843 67.6011C34.8843 64.6183 32.4663 62.2003 29.4836 62.2003C26.5008 62.2003 24.0828 64.6183 24.0828 67.6011C24.0828 70.5838 26.5008 73.0018 29.4836 73.0018Z" stroke="#252B33" stroke-width="3.5" stroke-linecap="round" stroke-linejoin="round"/>
<path d="M58.9124 73.0018C61.8951 73.0018 64.3131 70.5838 64.3131 67.6011C64.3131 64.6183 61.8951 62.2003 58.9124 62.2003C55.9297 62.2003 53.5117 64.6183 53.5117 67.6011C53.5117 70.5838 55.9297 73.0018 58.9124 73.0018Z" stroke="#252B33" stroke-width="3.5" stroke-linecap="round" stroke-linejoin="round"/>
<path d="M23.7384 52.7023V65.6835" stroke="#252B33" stroke-width="3.5" stroke-linecap="round"/>
<path d="M36.2122 66.4636H52.1836" stroke="#252B33" stroke-width="3.5" stroke-linecap="round"/>
<path d="M48.9027 35.6975H61.8619" stroke="#252B33" stroke-width="3.5" stroke-linecap="round"/>
</svg>
