<svg width="90" height="90" viewBox="0 0 90 90" fill="none" xmlns="http://www.w3.org/2000/svg">
<rect x="34" y="62" width="18" height="18" rx="9" fill="#FFE147"/>
<path d="M39.369 70C41.1234 70.9836 41.1579 70.8593 43.0657 71.8775C43.5391 72.2301 44.1022 72.4423 44.6906 72.4898C45.279 72.5373 45.8688 72.4182 46.3926 72.1461C51.9144 68.662 63.8375 62.7345 68.6466 59.6575C68.8681 59.4497 70.0744 58.9423 70.1808 58.32C70.2946 56.286 70.2872 33.3998 70.2872 31.539C70.2451 31.1901 69.2034 30.5046 68.1839 29.855C64.2112 27.3249 52.7532 21.3602 46.9667 18.1174C46.1462 17.6517 45.2053 17.4417 44.2646 17.5139C44.0073 17.6463 43.4493 17.9282 42.3444 18.4886C37.5947 21.1499 25.7656 27.5638 20.7697 30.3661C20.1078 30.8276 19.5436 31.3398 19.5324 31.6182C19.525 31.8186 19.5225 32.2985 19.5225 33.3502C19.5225 37.4949 19.4718 50.3807 19.5225 56.286C19.5312 57.2411 19.5225 58.0021 19.5225 58.2656C19.8101 58.753 20.2018 59.1708 20.6695 59.4893C22.8114 60.8424 25.0233 62.0814 27.296 63.201C28.4644 63.7895 29.7739 64.0401 31.077 63.9247C35.3133 63.8232 35.6102 61.0678 35.5793 57.9228C35.6609 50.8954 35.5793 40.0066 35.5793 34.8115" stroke="#252B33" stroke-width="3.5" stroke-linecap="round" stroke-linejoin="round"/>
<path d="M59.8661 40.5719C59.6443 39.3327 59.0935 38.176 58.2713 37.2227C57.4498 36.2762 55.5259 35.2184 50.9865 35.159C43.2415 35.0576 41.8075 39.9434 44.0419 42.9436C46.2108 45.8573 54.8417 44.1511 58.5794 46.4387C62.317 48.7264 60.6047 51.5026 59.8661 52.6421C59.1274 53.7816 56.2967 55.6747 50.1947 55.3926C44.0927 55.1105 42.3408 51.5484 42.3408 49.4823" stroke="#252B33" stroke-width="3.5" stroke-linecap="round" stroke-linejoin="round"/>
</svg>
