<svg width="90" height="90" viewBox="0 0 90 90" fill="none" xmlns="http://www.w3.org/2000/svg">
<rect x="10" y="62" width="18" height="18" rx="9" fill="#FFE147"/>
<path d="M30.9063 41.6314C32.9898 41.6314 34.6788 39.9423 34.6788 37.8588C34.6788 35.7753 32.9898 34.0862 30.9063 34.0862C28.8228 34.0862 27.1337 35.7753 27.1337 37.8588C27.1337 39.9423 28.8228 41.6314 30.9063 41.6314Z" stroke="#252B33" stroke-width="3.5" stroke-linecap="round" stroke-linejoin="round"/>
<path d="M64.4565 57.083C64.4565 57.083 45.2166 50.9995 43.8761 51.359C42.5355 51.7185 21.3183 71.8173 21.3183 71.8173" stroke="#252B33" stroke-width="3.5" stroke-linecap="round" stroke-linejoin="round"/>
<path d="M45.8809 24.947H22.2974C22.2974 24.947 20.6866 24.9952 20.1203 25.733C19.7431 26.3588 19.5298 27.0696 19.5 27.7997L19.6457 69.9052C19.6457 69.9052 19.554 71.1976 19.9758 71.6358C20.3976 72.074 21.6747 71.9812 21.6747 71.9812H61.9322C62.2851 72.0235 62.6429 71.9944 62.9844 71.8958C63.3259 71.7971 63.6441 71.6308 63.9201 71.4067C64.3297 70.7154 64.5156 69.9144 64.4523 69.1133V39.2712" stroke="#252B33" stroke-width="3.5" stroke-linecap="round" stroke-linejoin="round"/>
<path d="M64.7482 17L71.3734 23.6252L53.1544 41.8453H46.5292V35.219L64.7482 17Z" stroke="#252B33" stroke-width="3.5" stroke-linecap="round" stroke-linejoin="round"/>
</svg>
