<svg width="90" height="90" viewBox="0 0 90 90" fill="none" xmlns="http://www.w3.org/2000/svg">
<rect x="62" y="30" width="18" height="18" rx="9" fill="#FFE147"/>
<path d="M27.3853 58.2724C27.3853 58.2724 28.9491 48.3098 33.8207 42.0439C37.1689 37.6363 41.7406 34.312 46.9656 32.4854C50.0248 31.3243 59.7703 28.4056 67.3621 34.5833" stroke="#252B33" stroke-width="3.5" stroke-linecap="round" stroke-linejoin="round"/>
<path d="M71.6577 39.6808C71.6577 39.6808 77.8903 42.9554 72.509 57.0929C72.5021 57.115 71.795 58.6823 71.6569 59.0178" stroke="#252B33" stroke-width="3.5" stroke-linecap="round" stroke-linejoin="round"/>
<path d="M58.8452 69.9382C60.5089 69.9382 61.9984 68.6265 62.3868 66.8192C62.7317 65.2142 64.1504 64.068 65.792 64.068H69.2743C69.8964 64.068 70.4025 63.5614 70.4025 62.9388C70.4025 62.3167 69.8964 61.8106 69.2743 61.8106H58.8452H36.6807H26.2526C25.6299 61.8106 25.1234 62.3167 25.1234 62.9388C25.1234 63.5614 25.6299 64.068 26.2526 64.068H29.7338C31.3754 64.068 32.7942 65.2142 33.1391 66.8192C33.5275 68.6265 35.0169 69.9382 36.6807 69.9382C38.3445 69.9382 39.8339 68.6265 40.2223 66.8192C40.5672 65.2142 41.986 64.068 43.6276 64.068H51.8983C53.5398 64.068 54.9585 65.2141 55.3035 66.819C55.6921 68.6264 57.1815 69.9382 58.8452 69.9382ZM58.8452 73.4213C55.4611 73.4213 52.6201 70.9085 51.8983 67.551H43.6276C42.906 70.9085 40.0657 73.4213 36.6807 73.4213C33.2957 73.4213 30.4553 70.9085 29.7338 67.551H26.2526C23.7051 67.551 21.6404 65.4863 21.6404 62.9388C21.6404 60.3924 23.7051 58.3276 26.2526 58.3276H36.6807H58.8452H69.2743C71.8208 58.3276 73.8855 60.3924 73.8855 62.9388C73.8855 65.4863 71.8208 67.551 69.2743 67.551H65.792C65.0705 70.9085 62.2301 73.4213 58.8452 73.4213Z" fill="#252B33" stroke="#252B33" stroke-width="0.05"/>
<path d="M53.991 29.6522V24.6402" stroke="#252B33" stroke-width="3.5" stroke-linecap="round"/>
<path d="M59.5424 30.4452V24.6402" stroke="#252B33" stroke-width="3.5" stroke-linecap="round"/>
<path d="M61.2099 17.5H52.0342C49.9694 17.5 48.2955 18.9647 48.2955 20.7714V20.7728C48.2955 22.5796 49.9694 24.0442 52.0342 24.0442H61.2099C63.2747 24.0442 64.9485 22.5796 64.9485 20.7728V20.7714C64.9485 18.9647 63.2747 17.5 61.2099 17.5Z" stroke="#252B33" stroke-width="3.5" stroke-linecap="round" stroke-linejoin="round"/>
<path d="M16 44.5748H25.7455" stroke="#252B33" stroke-width="3.5" stroke-linecap="round"/>
<path d="M18.3795 50.4499H24.159" stroke="#252B33" stroke-width="3.5" stroke-linecap="round"/>
</svg>
