<svg width="90" height="90" viewBox="0 0 90 90" fill="none" xmlns="http://www.w3.org/2000/svg">
<rect x="12" y="62" width="18" height="18" rx="9" fill="#FFE147"/>
<path d="M56.6155 61.8544V71.713C56.5684 72.077 56.4075 72.4168 56.1559 72.684C55.8448 72.8924 55.4782 73.0025 55.1038 72.9999H23.0624C22.3817 72.9839 21.7286 72.7273 21.2189 72.2759C20.8001 71.6658 20.5651 70.9485 20.5417 70.2089V19.0463C20.5979 18.4989 20.8013 17.9769 21.1304 17.5359C21.5066 17.2081 21.9837 17.0189 22.4823 17H44.2529C44.6368 17.0231 45.0089 17.1414 45.3357 17.3442C45.5905 17.5745 45.7631 17.882 45.8273 18.2194V28.9855H56.6094V35.5641" stroke="#252B33" stroke-width="3.5" stroke-linecap="round" stroke-linejoin="round"/>
<path d="M45.3801 17.3475L56.4178 28.8865" stroke="#252B33" stroke-width="3.5" stroke-linecap="round"/>
<path d="M50.8749 61.3334C62.4729 61.3334 71.8749 55.5877 71.8749 48.5C71.8749 41.4124 62.4729 35.6667 50.8749 35.6667C39.277 35.6667 29.8749 41.4124 29.8749 48.5C29.8749 55.5877 39.277 61.3334 50.8749 61.3334Z" stroke="#252B33" stroke-width="3.5" stroke-linecap="round" stroke-linejoin="round"/>
<path d="M58.1199 53.1667V43.8639C58.1199 43.8639 60.8327 43.7952 61.0297 43.8639C61.2268 43.9326 62.794 44.2424 62.7866 46.5631C62.7792 48.8838 61.1762 48.9292 61.0297 49.0032C60.8832 49.0772 58.1199 49.055 58.1199 49.055" stroke="#252B33" stroke-width="3" stroke-linecap="round" stroke-linejoin="round"/>
<path d="M39.2083 53.1667V43.8639C39.2083 43.8639 41.921 43.7952 42.1181 43.8639C42.3152 43.9326 43.8823 44.2424 43.875 46.5631C43.8676 48.8838 42.2646 48.9292 42.1181 49.0032C41.9716 49.0772 39.2083 49.055 39.2083 49.055" stroke="#252B33" stroke-width="3" stroke-linecap="round" stroke-linejoin="round"/>
<path d="M48.5416 43.8334V53.1667" stroke="#252B33" stroke-width="3" stroke-linecap="round"/>
<path d="M53.4537 43.8334V53.1667" stroke="#252B33" stroke-width="3" stroke-linecap="round"/>
<path d="M49.0633 48.392H53.1612" stroke="#252B33" stroke-width="3" stroke-linecap="round"/>
</svg>
