<svg width="90" height="90" viewBox="0 0 90 90" fill="none" xmlns="http://www.w3.org/2000/svg">
<rect x="62" y="51.5" width="18" height="18" rx="9" fill="#FFE147"/>
<path d="M49.2764 50.7818L61.8521 47.6433L57.4818 40.7963L65.4781 38.8714L72.38 46.9674L66.6005 49.5576L71.5641 57.4614L54.054 64.3497L47.8598 55.0963L37.1069 56.7525L26.36 32.687L38.3387 31.6619L49.2764 50.7818Z" stroke="#252B33" stroke-width="3.5" stroke-linecap="round" stroke-linejoin="round"/>
<path d="M53.4276 63.8444V71.2365C53.3814 71.5942 53.2236 71.9281 52.9765 72.1909C52.6707 72.3951 52.3106 72.5029 51.9429 72.4999H20.4709C19.804 72.4828 19.1645 72.2309 18.6651 71.7886C18.2541 71.1891 18.0232 70.4843 18 69.7577V19.5086C18.0555 18.971 18.2555 18.4584 18.5788 18.0252C18.949 17.7037 19.4179 17.5185 19.9079 17.5H41.2909C41.6681 17.5226 42.0338 17.6386 42.3549 17.8378C42.6065 18.0636 42.7774 18.3656 42.8413 18.6976V29.2765H53.4312V48.5171" stroke="#252B33" stroke-width="3.5" stroke-linecap="round" stroke-linejoin="round"/>
<path d="M42.3927 17.8386L53.2344 29.1725" stroke="#252B33" stroke-width="3.5" stroke-linecap="round"/>
</svg>
