<svg width="90" height="90" viewBox="0 0 90 90" fill="none" xmlns="http://www.w3.org/2000/svg">
<rect x="59" y="48" width="18" height="18" rx="9" fill="#FFE147"/>
<path d="M53.6667 24V19C53.6667 17.8954 52.7712 17 51.6667 17H23C21.8954 17 21 17.8954 21 19V71C21 72.1046 21.8954 73 23 73H51.6667C52.7712 73 53.6667 72.1046 53.6667 71V64.6491" stroke="#252B33" stroke-width="3.5"/>
<path d="M69.6104 38.7229C67.8471 36.3538 65.3127 34.6736 62.4439 33.9722C57.8881 33.0212 54.5613 35.6156 52.5393 35.7432C50.5172 35.8709 47.4392 32.7898 41.979 34.0686C40.0199 34.6055 38.2393 35.6547 36.8203 37.1083C35.4014 38.5618 34.3954 40.3672 33.9059 42.3386C32.85 45.8331 33.5987 52.6165 34.5821 55.2563C35.5655 57.8961 36.9363 62.9301 41.5365 65.3092C46.1367 67.6883 49.5154 64.2271 52.4635 64.1666C55.4117 64.106 58.7385 67.447 63.1428 65.5105C68.6972 62.3156 70.1816 55.1913 70.1816 55.1913C68.1969 54.93 66.3668 53.9811 65.0097 52.5096C63.6526 51.038 62.8545 49.1369 62.7544 47.1377C62.6755 39.9344 69.6104 38.7229 69.6104 38.7229Z" stroke="#252B33" stroke-width="3.5" stroke-linecap="round" stroke-linejoin="round"/>
<path d="M61.6852 20.4597C62.1662 20.9092 61.9417 25.5264 59.6158 28.3534C57.2898 31.1805 51.662 31.7035 51.1274 31.2117C50.5928 30.72 50.2263 26.3821 53.2051 23.1633C56.1839 19.9444 61.2041 20.0102 61.6852 20.4597Z" stroke="#252B33" stroke-width="3.5" stroke-linecap="round" stroke-linejoin="round"/>
</svg>
