<svg width="90" height="90" viewBox="0 0 90 90" fill="none" xmlns="http://www.w3.org/2000/svg">
<rect x="62" y="62" width="18" height="18" rx="9" fill="#FFE147"/>
<path d="M61.5991 29.5235C63.2199 29.5235 64.5337 28.2096 64.5337 26.5889C64.5337 24.9682 63.2199 23.6543 61.5991 23.6543C59.9784 23.6543 58.6646 24.9682 58.6646 26.5889C58.6646 28.2096 59.9784 29.5235 61.5991 29.5235Z" stroke="#252B33" stroke-width="3" stroke-linecap="round" stroke-linejoin="round"/>
<path d="M61.5992 38.0335C66.7838 33.4362 69.4248 29.5179 69.4248 26.5888C69.4248 25.5611 69.2223 24.5435 68.8291 23.5941C68.4358 22.6446 67.8594 21.7819 67.1327 21.0552C66.406 20.3286 65.5433 19.7521 64.5939 19.3589C63.6444 18.9656 62.6268 18.7632 61.5992 18.7632C60.5715 18.7632 59.5539 18.9656 58.6044 19.3589C57.655 19.7521 56.7923 20.3286 56.0656 21.0552C55.3389 21.7819 54.7625 22.6446 54.3692 23.5941C53.976 24.5435 53.7736 25.5611 53.7736 26.5888C53.7736 29.5234 56.4145 33.339 61.5992 38.0335Z" stroke="#252B33" stroke-width="3" stroke-linecap="round" stroke-linejoin="round"/>
<path d="M36.5752 71.9824C33.1199 71.9824 32.9262 66.0869 31.8159 54.7754C31.4357 53.3489 30.938 51.9562 30.3287 50.6115C30.0384 49.2685 29.2726 48.0757 28.1718 47.2533C27.2814 46.5131 26.2078 46.0272 25.064 45.8472C22.9679 45.3013 21.0691 45.7576 19.7951 45.0742C18.7994 44.539 18.0202 43.674 17.5924 42.6276C16.8926 41.4464 16.4338 41.4857 16.6926 40.6538C16.9513 39.8219 18.4443 39.3011 18.4443 39.3011L24.8476 36.4102L26.4447 32.6044C26.4447 32.6044 26.5541 31.4864 27.1142 31.2943C27.6743 31.1021 28.9287 30.8172 29.4768 31.7648C29.9245 32.6513 30.3001 33.572 30.6016 34.5182C30.5707 33.5032 30.8033 32.4974 31.2765 31.5989C31.6751 30.9205 32.3247 30.426 33.0847 30.2222C33.4106 30.2414 33.7259 30.3473 33.9973 30.5289C34.2687 30.7104 34.4863 30.9611 34.6285 31.255C35.0076 31.8441 35.2767 32.4969 35.4238 33.1819C35.6029 34.2051 35.6029 35.2516 35.4238 36.2748L39.4229 41.0031C39.9092 41.5347 40.4533 42.0108 41.0446 42.4224C41.83 42.8331 42.6842 43.0948 43.5649 43.1943C45.1873 43.3526 50.814 43.8384 54.5772 44.0087C60.9923 44.3089 65.1776 45.1463 66.2388 45.1681C66.7593 45.2052 67.2785 45.0835 67.7282 44.8189C68.178 44.5544 68.5366 44.1595 68.7571 43.6866C69.1577 42.6899 69.5838 41.2848 70.0194 41.2608C74.1986 41.0708 71.2039 48.6584 71.2039 48.6584C71.2039 48.6584 72.985 52.4217 72.5952 61.1359C72.5384 66.587 74.8787 71.6941 71.2039 71.9944C67.5291 72.2946 60.5434 60.6097 60.5434 60.6097C57.3622 61.6411 54.0498 62.2156 50.7071 62.3161C47.7663 62.3101 44.839 61.927 41.9956 61.1763C41.9956 61.1763 40.4422 71.9824 36.5752 71.9824Z" stroke="#252B33" stroke-width="3.5" stroke-linecap="round" stroke-linejoin="round"/>
<path d="M27.6367 46.7468L37.2715 39.1384" stroke="#252B33" stroke-width="3" stroke-linecap="round"/>
<path d="M30.5178 50.8256L40.1526 43.2173" stroke="#252B33" stroke-width="3" stroke-linecap="round"/>
</svg>
