<svg width="90" height="90" viewBox="0 0 90 90" fill="none" xmlns="http://www.w3.org/2000/svg">
<rect x="62" y="62" width="18" height="18" rx="9" fill="#FFE147"/>
<path d="M36.5842 65.9824C33.1326 65.9824 32.9391 60.0934 31.83 48.794C31.4502 47.3691 30.9531 45.9779 30.3444 44.6347C30.0544 43.2931 29.2895 42.1016 28.1899 41.2801C27.3004 40.5407 26.228 40.0553 25.0854 39.8755C22.9915 39.3302 21.0948 39.786 19.8222 39.1033C18.8275 38.5687 18.0492 37.7046 17.6219 36.6594C16.9228 35.4794 16.4645 35.5187 16.723 34.6877C16.9815 33.8567 18.4728 33.3365 18.4728 33.3365L24.8692 30.4487L26.4646 26.6469C26.4646 26.6469 26.5739 25.5302 27.1334 25.3383C27.6928 25.1464 28.946 24.8617 29.4934 25.8083C29.9406 26.6938 30.3158 27.6135 30.617 28.5587C30.5861 27.5448 30.8185 26.5401 31.2912 25.6426C31.6894 24.9649 32.3383 24.471 33.0974 24.2673C33.423 24.2866 33.738 24.3924 34.009 24.5737C34.2801 24.7551 34.4975 25.0054 34.6395 25.299C35.0183 25.8875 35.2871 26.5396 35.434 27.2239C35.6129 28.246 35.6129 29.2913 35.434 30.3134L39.4288 35.0366C39.9145 35.5677 40.4581 36.0432 41.0487 36.4544C41.8333 36.8646 42.6866 37.1261 43.5664 37.2254C45.1869 37.3835 50.8076 37.8688 54.5668 38.039C60.9749 38.3389 65.1557 39.1753 66.2157 39.1971C66.7356 39.2342 67.2543 39.1126 67.7035 38.8483C68.1528 38.5841 68.5111 38.1896 68.7313 37.7172C69.1315 36.7216 69.5571 35.318 69.9922 35.294C74.1669 35.1043 71.1755 42.6837 71.1755 42.6837C71.1755 42.6837 72.9546 46.4429 72.5653 55.1477C72.5086 60.5929 74.8463 65.6945 71.1755 65.9944C67.5046 66.2943 60.5265 54.6221 60.5265 54.6221C57.3487 55.6523 54.0399 56.2262 50.7008 56.3266C47.7632 56.3206 44.839 55.938 41.9987 55.188C41.9987 55.188 40.447 65.9824 36.5842 65.9824Z" stroke="#252B33" stroke-width="3.5" stroke-linecap="round" stroke-linejoin="round"/>
<path d="M27.6554 40.7739L37.2798 33.1738" stroke="#252B33" stroke-width="3.5" stroke-linecap="round"/>
<path d="M30.5334 44.8484L40.1579 37.2483" stroke="#252B33" stroke-width="3.5" stroke-linecap="round"/>
</svg>
