<svg width="90" height="90" viewBox="0 0 90 90" fill="none" xmlns="http://www.w3.org/2000/svg">
<rect x="62" y="10" width="18" height="18" rx="9" fill="#FFE147"/>
<path d="M26.9902 29.0081L30.8141 28.2648L34.3418 46.4136L55.6725 42.2674C56.207 42.1737 56.7053 41.9343 57.1125 41.5756C57.4205 41.1669 57.5902 40.6706 57.597 40.1589L57.497 26.7349L31.8747 31.7154" stroke="#252B33" stroke-width="3.5" stroke-linecap="round" stroke-linejoin="round"/>
<path d="M39.3615 56.0672C40.7298 55.8012 41.6235 54.4763 41.3575 53.1079C41.0915 51.7396 39.7666 50.8459 38.3983 51.1119C37.0299 51.3779 36.1362 52.7028 36.4022 54.0712C36.6682 55.4395 37.9931 56.3332 39.3615 56.0672Z" stroke="#252B33" stroke-width="3.5" stroke-linecap="round" stroke-linejoin="round"/>
<path d="M54.8944 53.0479C56.2627 52.7819 57.1564 51.457 56.8904 50.0887C56.6244 48.7203 55.2995 47.8266 53.9312 48.0926C52.5628 48.3586 51.6691 49.6835 51.9351 51.0519C52.2011 52.4203 53.526 53.3139 54.8944 53.0479Z" stroke="#252B33" stroke-width="3.5" stroke-linecap="round" stroke-linejoin="round"/>
<path d="M34.3195 46.3164L35.6504 53.1634" stroke="#252B33" stroke-width="3.5" stroke-linecap="round"/>
<path d="M42.3149 52.2988L50.7499 50.6592" stroke="#252B33" stroke-width="3.5" stroke-linecap="round"/>
<path d="M45.8571 34.7585L52.6974 33.4289" stroke="#252B33" stroke-width="3.5" stroke-linecap="round"/>
<path d="M71.2863 20.7185H17.4372C16.488 20.7185 15.7186 21.4879 15.7186 22.4371V58.9365C15.7186 59.8856 16.488 60.6551 17.4372 60.6551H71.2863C72.2354 60.6551 73.0049 59.8856 73.0049 58.9365V22.4371C73.0049 21.4879 72.2354 20.7185 71.2863 20.7185Z" stroke="#252B33" stroke-width="3.5" stroke-linecap="round" stroke-linejoin="round"/>
<path d="M36.0403 62.5435V70.9291" stroke="#252B33" stroke-width="3.5" stroke-linecap="round"/>
<path d="M52.7817 62.5708V70.6253" stroke="#252B33" stroke-width="3.5" stroke-linecap="round"/>
<path d="M30.5168 71H58.3682" stroke="#252B33" stroke-width="3.5" stroke-linecap="round"/>
</svg>
