<svg width="90" height="90" viewBox="0 0 90 90" fill="none" xmlns="http://www.w3.org/2000/svg">
<rect x="63" y="62" width="18" height="18" rx="9" fill="#FFE147"/>
<path d="M19.1512 52.2468V63.8527C19.1512 63.8527 18.9577 67.913 20.6501 70.071C22.3425 72.229 25.9181 72.4835 25.9181 72.4835H64.8164C64.8164 72.4835 68.5547 72.3088 70.295 70.1508C72.0353 67.9929 71.7783 63.8527 71.7783 63.8527V52.2468" stroke="#252B33" stroke-width="3.5" stroke-linecap="round" stroke-linejoin="round"/>
<path d="M19.9097 28.0774L70.7849 28.1573C71.3761 28.1612 71.9416 28.3997 72.3569 28.8205C72.7723 29.2412 73.0036 29.8096 73 30.4008V43.8668C73 45.1062 58.37 52.9507 45.9116 52.9507C33.4533 52.9507 17.6924 45.0217 17.6924 43.7835V30.321C17.6906 30.028 17.7466 29.7376 17.857 29.4663C17.9675 29.195 18.1303 28.9481 18.3362 28.7398C18.5422 28.5314 18.7871 28.3657 19.0571 28.252C19.3271 28.1384 19.6168 28.079 19.9097 28.0774V28.0774Z" stroke="#252B33" stroke-width="3.5" stroke-linecap="round" stroke-linejoin="round"/>
<path d="M35.1748 24.7749C35.1748 24.7749 34.1154 18.2598 45.5592 18.2598C57.003 18.2598 55.9502 24.7749 55.9502 24.7749" stroke="#252B33" stroke-width="3.5" stroke-linecap="round" stroke-linejoin="round"/>
</svg>
