<svg width="90" height="90" viewBox="0 0 90 90" fill="none" xmlns="http://www.w3.org/2000/svg">
<rect x="52" y="62" width="18" height="18" rx="9" fill="#FFE147"/>
<path fill-rule="evenodd" clip-rule="evenodd" d="M35.1032 17.0003H55.5913C56.6652 16.9862 57.7008 17.3992 58.4703 18.1485C59.2397 18.8978 59.6801 19.9221 59.6945 20.996V69.004C59.6801 70.0779 59.2397 71.1022 58.4703 71.8515C57.7008 72.6008 56.6652 73.0138 55.5913 72.9996H35.1032C34.0293 73.0138 32.9937 72.6008 32.2242 71.8515C31.4548 71.1022 31.0144 70.0779 31 69.004V20.996C31.0144 19.9221 31.4548 18.8978 32.2242 18.1485C32.9937 17.3992 34.0293 16.9862 35.1032 17.0003V17.0003Z" stroke="#252B33" stroke-width="3.5"/>
<path fill-rule="evenodd" clip-rule="evenodd" d="M39.3436 18.1082H51.3955V20.194C51.4069 20.366 51.3501 20.5355 51.2372 20.6657C51.1244 20.7959 50.9647 20.8763 50.7929 20.8893H39.9462C39.7744 20.8763 39.6147 20.7959 39.5018 20.6657C39.389 20.5355 39.3321 20.366 39.3436 20.194V18.1082Z" fill="#252B33"/>
<path fill-rule="evenodd" clip-rule="evenodd" d="M41.1272 68.191C41.1266 68.2279 41.1334 68.2645 41.1471 68.2988C41.1608 68.3331 41.1811 68.3643 41.207 68.3906C41.2329 68.4169 41.2638 68.4378 41.2978 68.4521C41.3319 68.4664 41.3684 68.4737 41.4054 68.4737H49.2854C49.3604 68.4737 49.4323 68.4439 49.4853 68.3909C49.5384 68.3379 49.5681 68.2659 49.5681 68.191C49.5681 68.116 49.5384 68.044 49.4853 67.991C49.4323 67.938 49.3604 67.9082 49.2854 67.9082H41.4054C41.3684 67.9082 41.3319 67.9155 41.2978 67.9298C41.2638 67.9441 41.2329 67.965 41.207 67.9913C41.1811 68.0176 41.1608 68.0488 41.1471 68.0831C41.1334 68.1174 41.1266 68.154 41.1272 68.191V68.191Z" stroke="#252B33" stroke-width="3.5"/>
</svg>
