<svg width="90" height="90" viewBox="0 0 90 90" fill="none" xmlns="http://www.w3.org/2000/svg">
<rect x="62" y="62" width="18" height="18" rx="9" fill="#FFE147"/>
<path d="M61.4513 30.2568H29.3099C29.0171 30.2441 28.731 30.3473 28.5137 30.544C28.2964 30.7406 28.1652 31.0149 28.1486 31.3076V48.8202C28.1652 49.1128 28.2964 49.3871 28.5137 49.5838C28.731 49.7804 29.0171 49.8836 29.3099 49.8709H61.455C61.7479 49.8836 62.0339 49.7804 62.2513 49.5838C62.4686 49.3871 62.5998 49.1128 62.6163 48.8202V31.3076C62.5998 31.0143 62.4681 30.7394 62.2499 30.5426C62.0318 30.3458 61.7448 30.2431 61.4513 30.2568V30.2568Z" stroke="#252B33" stroke-width="3"/>
<path d="M64.9705 26H25.2555C24.9031 25.9999 24.5542 26.0692 24.2287 26.2041C23.9031 26.339 23.6074 26.5367 23.3583 26.786C23.1093 27.0353 22.9119 27.3313 22.7773 27.657C22.6428 27.9826 22.5738 28.3316 22.5743 28.684V53.734C22.5738 54.086 22.6427 54.4347 22.777 54.7602C22.9113 55.0856 23.1084 55.3814 23.357 55.6307C23.6057 55.8799 23.901 56.0777 24.2261 56.2128C24.5512 56.3479 24.8997 56.4176 25.2518 56.418H64.9668C65.6777 56.417 66.3592 56.1337 66.8613 55.6304C67.3634 55.1271 67.6451 54.4449 67.6443 53.734V28.684C67.6451 27.9737 67.3639 27.2921 66.8626 26.7889C66.3613 26.2857 65.6808 26.002 64.9705 26V26Z" stroke="#252B33" stroke-width="3.5"/>
<path d="M71.6643 60.1511H18.5617C17.6968 60.1511 17 61.1833 17 62.4552C17 63.727 17.7005 64.7592 18.5654 64.7592H71.668C72.533 64.7592 73.2335 63.727 73.2335 62.4552C73.2335 61.1833 72.5293 60.1511 71.6643 60.1511Z" stroke="#252B33" stroke-width="3.5"/>
<path fill-rule="evenodd" clip-rule="evenodd" d="M42.0843 53.1273C42.0842 53.1567 42.0899 53.1859 42.1011 53.2131C42.1123 53.2403 42.1288 53.265 42.1496 53.2859C42.1704 53.3067 42.1951 53.3232 42.2224 53.3344C42.2496 53.3456 42.2788 53.3513 42.3082 53.3512H48.5551C48.6119 53.3475 48.6651 53.3224 48.704 53.2809C48.743 53.2394 48.7646 53.1846 48.7646 53.1277C48.7646 53.0708 48.743 53.0161 48.704 52.9746C48.6651 52.9331 48.6119 52.908 48.5551 52.9043H42.3082C42.2788 52.9042 42.2497 52.9099 42.2226 52.921C42.1954 52.9322 42.1707 52.9486 42.1499 52.9693C42.1291 52.99 42.1126 53.0146 42.1014 53.0417C42.0901 53.0688 42.0843 53.0979 42.0843 53.1273V53.1273Z" stroke="#252B33" stroke-width="2"/>
</svg>
