<svg width="90" height="90" viewBox="0 0 90 90" fill="none" xmlns="http://www.w3.org/2000/svg">
<rect x="63" y="10" width="18" height="18" rx="9" fill="#FFE147"/>
<path d="M69.6711 22H20.793C19.493 22.024 18.4491 23.517 18.4661 25.334V64.016C18.4481 65.835 19.49 67.329 20.793 67.353H69.6711C70.9711 67.329 72.015 65.836 71.998 64.019V25.334C72.015 23.516 70.9731 22.024 69.6711 22Z" stroke="#252B33" stroke-width="3.5"/>
<path d="M26.7432 55.8227C27.6928 55.8597 35.2596 55.8379 36.0528 55.8227C36.0528 53.244 33.7881 50.9845 31.3163 50.9845C28.8445 50.9845 26.7432 53.244 26.7432 55.8227ZM24.2432 55.8227C24.2432 51.845 27.4823 48.4845 31.3163 48.4845C33.1646 48.4845 35.0144 49.2851 36.3913 50.681C37.7649 52.0735 38.5528 53.9476 38.5528 55.8227C38.5528 57.1847 37.4625 58.2961 36.1008 58.3223C35.3045 58.3375 27.6575 58.3602 26.6459 58.3208C25.304 58.2686 24.2432 57.1656 24.2432 55.8227Z" fill="#252B33"/>
<path d="M31.3992 48.633C33.2797 48.633 34.8042 47.1739 34.8042 45.374C34.8042 43.5741 33.2797 42.115 31.3992 42.115C29.5186 42.115 27.9942 43.5741 27.9942 45.374C27.9942 47.1739 29.5186 48.633 31.3992 48.633Z" stroke="#252B33" stroke-width="3.5"/>
<path d="M42.959 46.937H64.6934" stroke="#252B33" stroke-width="3.5" stroke-linecap="round"/>
<path d="M42.959 53.188H64.6934" stroke="#252B33" stroke-width="3.5" stroke-linecap="round"/>
<path d="M18 32.0291H71.9512" stroke="#252B33" stroke-width="3.5"/>
</svg>
