<svg width="90" height="90" viewBox="0 0 90 90" fill="none" xmlns="http://www.w3.org/2000/svg">
<rect x="16" y="9" width="18" height="18" rx="9" fill="#FFE147"/>
<path d="M32.7743 35.0997H59.3192C60.0748 35.0232 60.8357 35.1784 61.5012 35.5443C61.9579 36.0465 62.1969 36.7095 62.1649 37.3876V43.0083C62.1759 43.9614 61.8122 44.8808 61.1523 45.5685C60.2042 46.1555 59.1158 46.477 58.001 46.4994H51.8778C51.3761 46.5974 50.9008 46.8025 50.4857 47.1007C50.0706 47.399 49.725 47.7833 49.472 48.2275C49.0056 49.5364 48.8239 50.9298 48.939 52.3146V69.7586C48.939 69.7586 49.2035 74.7055 43.3966 74.9615C42.6676 75.0516 41.9272 74.9831 41.2271 74.7609C40.527 74.5387 39.8842 74.1679 39.3406 73.6739C38.7971 73.1799 38.3659 72.5743 38.0781 71.8985C37.7902 71.2227 37.6521 70.4928 37.6724 69.7586V52.3146C37.7325 50.9126 37.4734 49.5151 36.9155 48.2275C36.6079 47.7748 36.2127 47.3885 35.7529 47.0916C35.2931 46.7948 34.7784 46.5934 34.2392 46.4994H29.0957C28.0486 46.4666 27.0307 46.1445 26.1557 45.5685C25.4752 44.8744 25.0448 43.9737 24.9318 43.0083V22.5398C24.8451 21.3641 25.1655 20.1943 25.8386 19.2266C26.7858 18.5561 27.9413 18.2466 29.0968 18.3538H57.9975C59.062 18.2988 60.1239 18.5071 61.0887 18.9601C61.4121 19.223 61.6752 19.5524 61.8603 19.9258C62.0454 20.2992 62.1481 20.7082 62.1615 21.1247V28.8203" stroke="#252B33" stroke-width="3.5" stroke-linecap="round" stroke-linejoin="round"/>
</svg>
