<svg width="90" height="90" viewBox="0 0 90 90" fill="none" xmlns="http://www.w3.org/2000/svg">
<rect x="10" y="55" width="18" height="18" rx="9" fill="#FFE147"/>
<path d="M70.0711 24H19.3499C18.701 24.0086 18.0821 24.2745 17.6293 24.7393C17.1764 25.204 16.9267 25.8296 16.9349 26.4784V55.2318C16.9306 55.5532 16.9896 55.8723 17.1087 56.1709C17.2277 56.4696 17.4044 56.7418 17.6286 56.9721C17.8529 57.2025 18.1203 57.3863 18.4156 57.5133C18.711 57.6403 19.0284 57.7078 19.3499 57.7121H70.0711C70.7199 57.7035 71.3388 57.4375 71.7917 56.9728C72.2445 56.508 72.4943 55.8825 72.486 55.2336V26.4784C72.4943 25.8296 72.2445 25.204 71.7917 24.7393C71.3388 24.2745 70.7199 24.0086 70.0711 24V24Z" stroke="#252B33" stroke-width="3.5"/>
<path d="M66.1143 28.4207H22.9386C22.5875 28.4182 22.2497 28.5552 21.9995 28.8015C21.7493 29.0479 21.6071 29.3835 21.6041 29.7346V51.6353C21.6071 51.9864 21.7493 52.322 21.9995 52.5684C22.2497 52.8148 22.5875 52.9517 22.9386 52.9493H66.1143C66.4655 52.9517 66.8032 52.8148 67.0534 52.5684C67.3036 52.322 67.4458 51.9864 67.4488 51.6353V29.7346C67.4458 29.3835 67.3036 29.0479 67.0534 28.8015C66.8032 28.5552 66.4655 28.4182 66.1143 28.4207V28.4207Z" stroke="#252B33" stroke-width="3"/>
<path d="M52.6127 62.2981H37.2882C36.9812 62.248 36.6665 62.3105 36.4019 62.474C36.1373 62.6375 35.9407 62.8911 35.8482 63.188C35.6932 63.5443 35.6133 63.9286 35.6133 64.3171C35.6133 64.7056 35.6932 65.0899 35.8482 65.4461C35.9407 65.7431 36.1373 65.9966 36.4019 66.1602C36.6665 66.3237 36.9812 66.3861 37.2882 66.3361H52.6127C52.9197 66.3861 53.2344 66.3237 53.499 66.1602C53.7636 65.9966 53.9602 65.7431 54.0527 65.4461C54.2077 65.0899 54.2876 64.7056 54.2876 64.3171C54.2876 63.9286 54.2077 63.5443 54.0527 63.188C53.9602 62.8911 53.7636 62.6375 53.499 62.474C53.2344 62.3105 52.9197 62.248 52.6127 62.2981V62.2981Z" stroke="#252B33" stroke-width="3.5"/>
</svg>
