<svg width="90" height="90" viewBox="0 0 90 90" fill="none" xmlns="http://www.w3.org/2000/svg">
<rect x="46" y="63" width="18" height="18" rx="9" fill="#FFE147"/>
<path d="M54.5077 28.0196C53.9141 26.6558 53.4499 25.2392 53.1213 23.7885C52.8365 22.0985 52.7312 20.1215 52.7312 20.1215C52.6692 19.4914 52.408 18.8976 51.9855 18.4261C51.563 17.9546 51.0013 17.63 50.3818 17.4994C48.1785 17.0878 45.9353 16.9298 43.696 17.0285C41.4536 16.9312 39.2075 17.0907 37.0014 17.5039C36.3849 17.6389 35.8267 17.9649 35.4061 18.4354C34.9855 18.9059 34.7239 19.4971 34.6586 20.1248C34.6586 20.1248 34.5478 22.1007 34.2719 23.7918C33.9471 25.2425 33.4828 26.6583 32.8855 28.0196" stroke="#252B33" stroke-width="3"/>
<path d="M54.5077 62.4004C53.9143 63.7628 53.4502 65.1779 53.1213 66.6271C52.8365 68.3171 52.7312 70.2941 52.7312 70.2941C52.6692 70.9242 52.408 71.518 51.9855 71.9895C51.563 72.461 51.0013 72.7856 50.3818 72.9161C48.1786 73.3289 45.9354 73.488 43.696 73.3904C41.4536 73.4877 39.2075 73.3282 37.0014 72.915C36.3849 72.78 35.8267 72.454 35.4061 71.9835C34.9855 71.513 34.7239 70.9218 34.6586 70.2941C34.6586 70.2941 34.5478 68.3182 34.2719 66.6271C33.947 65.1768 33.4827 63.7613 32.8855 62.4004" stroke="#252B33" stroke-width="3"/>
<path d="M51.7306 27.4553H35.6494C33.8716 27.4711 32.1727 28.192 30.926 29.4595C29.6793 30.727 28.9866 32.4375 29.0002 34.2154V56.201C28.9866 57.9789 29.6793 59.6894 30.926 60.9569C32.1727 62.2244 33.8716 62.9452 35.6494 62.9611H51.7306C53.5084 62.9452 55.2073 62.2244 56.454 60.9569C57.7007 59.6894 58.3934 57.9789 58.3798 56.201V34.2187C58.3934 32.4408 57.7007 30.7303 56.454 29.4628C55.2073 28.1953 53.5084 27.4745 51.7306 27.4586V27.4553Z" stroke="#252B33" stroke-width="3"/>
<path fill-rule="evenodd" clip-rule="evenodd" d="M60.7159 47.1926C60.6791 47.1928 60.6426 47.2002 60.6087 47.2145C60.5748 47.2289 60.5441 47.2498 60.5183 47.2761C60.4925 47.3023 60.4722 47.3335 60.4586 47.3677C60.445 47.4018 60.4382 47.4384 60.4388 47.4752V55.3645C60.4388 55.438 60.468 55.5085 60.52 55.5604C60.5719 55.6124 60.6424 55.6416 60.7159 55.6416C60.7893 55.6416 60.8598 55.6124 60.9118 55.5604C60.9637 55.5085 60.9929 55.438 60.9929 55.3645V47.4752C60.9935 47.4384 60.9868 47.4018 60.9731 47.3677C60.9595 47.3335 60.9392 47.3023 60.9134 47.2761C60.8876 47.2498 60.8569 47.2289 60.823 47.2145C60.7891 47.2002 60.7527 47.1928 60.7159 47.1926V47.1926Z" stroke="#252B33"/>
<path fill-rule="evenodd" clip-rule="evenodd" d="M60.4388 34.3064V38.8179C60.5023 38.8095 60.5632 38.7878 60.6178 38.7545C60.6724 38.7211 60.7194 38.6766 60.7558 38.624L60.8666 38.4112C60.9723 37.801 61.0154 37.1816 60.9952 36.5627C61.014 35.9506 60.9724 35.3381 60.871 34.7342H60.8511L60.7403 34.4671C60.7031 34.4217 60.6574 34.3841 60.6057 34.3565C60.5539 34.329 60.4972 34.3119 60.4388 34.3064V34.3064Z" stroke="#252B33"/>
<path d="M50.8441 31.6567H36.6026C35.6156 31.6655 34.6725 32.0658 33.9805 32.7696C33.2885 33.4735 32.9043 34.4232 32.9122 35.4102V55.2471C32.9043 56.2341 33.2885 57.1838 33.9805 57.8877C34.6725 58.5915 35.6156 58.9918 36.6026 59.0006H50.8441C51.8311 58.9921 52.7744 58.5919 53.4665 57.888C54.1585 57.1841 54.5427 56.2341 54.5344 55.2471V35.4102C54.5427 34.4231 54.1585 33.4732 53.4665 32.7693C52.7744 32.0654 51.8311 31.6652 50.8441 31.6567V31.6567Z" stroke="#252B33" stroke-width="2"/>
</svg>
