<svg width="90" height="90" viewBox="0 0 90 90" fill="none" xmlns="http://www.w3.org/2000/svg">
<rect x="62" y="62" width="18" height="18" rx="9" fill="#FFE147"/>
<path d="M34.9292 37.6295V35.389C34.9292 34.8001 34.8131 34.217 34.5876 33.673C34.3621 33.129 34.0316 32.6348 33.615 32.2187C33.1983 31.8025 32.7038 31.4725 32.1595 31.2476C31.6153 31.0227 31.0321 30.9073 30.4432 30.9079H21.4811C20.2926 30.9079 19.1528 31.38 18.3125 32.2204C17.4721 33.0607 17 34.2005 17 35.389V37.6295" stroke="#252B33" stroke-width="3.5" stroke-linecap="round" stroke-linejoin="round"/>
<path d="M25.6793 26.3476C28.2605 26.3476 30.3531 24.255 30.3531 21.6738C30.3531 19.0925 28.2605 17 25.6793 17C23.098 17 21.0055 19.0925 21.0055 21.6738C21.0055 24.255 23.098 26.3476 25.6793 26.3476Z" stroke="#252B33" stroke-width="3.5" stroke-linecap="round" stroke-linejoin="round"/>
<path d="M72.739 73.0001V70.7595C72.739 70.1706 72.6229 69.5875 72.3974 69.0436C72.1719 68.4996 71.8414 68.0054 71.4248 67.5892C71.0082 67.173 70.5136 66.8431 69.9694 66.6181C69.4251 66.3932 68.8419 66.2778 68.253 66.2784H59.2909C58.1024 66.2784 56.9627 66.7506 56.1223 67.5909C55.2819 68.4313 54.8098 69.5711 54.8098 70.7595V73.0001" stroke="#252B33" stroke-width="3.5" stroke-linecap="round" stroke-linejoin="round"/>
<path d="M63.4891 61.718C66.0703 61.718 68.1629 59.6255 68.1629 57.0443C68.1629 54.463 66.0703 52.3705 63.4891 52.3705C60.9078 52.3705 58.8153 54.463 58.8153 57.0443C58.8153 59.6255 60.9078 61.718 63.4891 61.718Z" stroke="#252B33" stroke-width="3.5" stroke-linecap="round" stroke-linejoin="round"/>
<path d="M35.9352 45.9679L25.4989 56.4042C24.7844 57.1187 24.7844 58.2771 25.4989 58.9915L31.3764 64.869C32.0908 65.5835 33.2492 65.5835 33.9637 64.869L44.4 54.4327C45.1145 53.7182 45.1145 52.5598 44.4 51.8454L38.5225 45.9679C37.8081 45.2534 36.6497 45.2534 35.9352 45.9679Z" stroke="#252B33" stroke-width="3.5" stroke-linecap="round" stroke-linejoin="round"/>
<path d="M57.7183 24.087L47.2819 34.5234C46.5675 35.2378 46.5675 36.3962 47.2819 37.1107L53.1595 42.9882C53.8739 43.7027 55.0323 43.7027 55.7468 42.9882L66.1831 32.5518C66.8976 31.8374 66.8976 30.679 66.1831 29.9645L60.3056 24.087C59.5911 23.3725 58.4328 23.3725 57.7183 24.087Z" stroke="#252B33" stroke-width="3.5" stroke-linecap="round" stroke-linejoin="round"/>
<path d="M36.9501 53.3195L54.7657 35.6757" stroke="#252B33" stroke-width="3.5" stroke-linecap="round"/>
</svg>
