<svg width="90" height="90" viewBox="0 0 90 90" fill="none" xmlns="http://www.w3.org/2000/svg">
<rect x="10" y="62" width="18" height="18" rx="9" fill="#FFE147"/>
<path d="M66.7475 61.4V74H23V30.5371L35.6357 17H66.7475V24.2243" stroke="#252B33" stroke-width="3.5" stroke-linecap="round" stroke-linejoin="round"/>
<path d="M23 32.1526H36.7531L36.9226 17.0341" stroke="#252B33" stroke-width="3.5" stroke-linecap="round" stroke-linejoin="round"/>
<path d="M31.3727 62.1418C31.3727 62.1418 32.9355 55.4045 34.2763 55.5173C35.6172 55.6302 34.7291 62.002 35.8466 63.4582C36.9642 64.9143 37.5445 61.201 38.5615 61.201C39.0141 61.201 39.4398 62.3197 40.1157 62.9441C40.3995 63.2713 40.774 63.5069 41.1918 63.6209C41.6096 63.7349 42.052 63.7223 42.4626 63.5845" stroke="#252B33" stroke-width="2.5" stroke-linecap="round"/>
<path d="M44.7909 61.5751V54.0379L60.9903 38.1662L68.5765 45.6616L52.2202 61.5751H44.7922H44.7909ZM61.2798 37.8975L67.259 32.3562C67.3837 32.2439 67.5464 32.183 67.7142 32.186C67.882 32.1889 68.0425 32.2555 68.1631 32.3722L74.8207 39.0372C74.879 39.0939 74.925 39.162 74.956 39.2371C74.9871 39.3123 75.0024 39.393 75.0011 39.4743C74.9999 39.5556 74.982 39.6358 74.9487 39.71C74.9153 39.7842 74.8672 39.8508 74.8072 39.9057L68.8305 45.4433L61.281 37.8987L61.2798 37.8975Z" stroke="#252B33" stroke-width="3.5"/>
</svg>
