<svg width="90" height="90" viewBox="0 0 90 90" fill="none" xmlns="http://www.w3.org/2000/svg">
<rect x="50" y="62" width="18" height="18" rx="9" fill="#FFE147"/>
<path d="M72.1515 20.7146H18.4291C17.4822 20.7146 16.7145 21.4822 16.7145 22.4291V57.8631C16.7145 58.81 17.4822 59.5776 18.4291 59.5776H72.1515C73.0985 59.5776 73.8661 58.81 73.8661 57.8631V22.4291C73.8661 21.4822 73.0985 20.7146 72.1515 20.7146Z" stroke="#252B33" stroke-width="3.5" stroke-linecap="round" stroke-linejoin="round"/>
<path d="M37.1222 62.0911V70.4763" stroke="#252B33" stroke-width="3.5" stroke-linecap="round"/>
<path d="M53.8654 62.1128V70.1676" stroke="#252B33" stroke-width="3.5" stroke-linecap="round"/>
<path d="M31.598 70.553H59.4525" stroke="#252B33" stroke-width="3.5" stroke-linecap="round"/>
<path d="M59.3565 29.9605C58.1674 30.7992 56.8509 31.4407 55.4576 31.8602C54.7097 31.0002 53.7157 30.3907 52.61 30.1141C51.5044 29.8375 50.3404 29.9071 49.2757 30.3136C48.2109 30.7201 47.2967 31.4439 46.6567 32.3869C46.0167 33.33 45.6818 34.4469 45.6972 35.5865V36.8278C43.5151 36.8844 41.3528 36.4005 39.403 35.4191C37.4532 34.4377 35.7763 32.9893 34.5218 31.203C34.5218 31.203 29.5542 42.3784 40.7251 47.346C38.1691 49.0806 35.1246 49.9506 32.038 49.8286C43.2134 56.0376 56.8727 49.8286 56.8727 35.5488C56.8714 35.2035 56.8381 34.8591 56.7732 34.52C58.0411 33.2696 58.9356 31.6908 59.3565 29.9605Z" stroke="#252B33" stroke-width="2.5" stroke-linecap="round" stroke-linejoin="round"/>
</svg>
