<svg width="90" height="90" viewBox="0 0 90 90" fill="none" xmlns="http://www.w3.org/2000/svg">
<rect x="15" y="10" width="18" height="18" rx="9" fill="#FFE147"/>
<path d="M42.6154 71.421H49.8461C52.2252 71.421 54.1538 69.4925 54.1538 67.1133V46.5749M25.0769 45.5749V24.0364C25.0769 21.6574 27.0056 19.7288 29.3846 19.7288H35.6154" stroke="#252B33" stroke-width="3.5" stroke-linecap="round" stroke-linejoin="round"/>
<path d="M30.4766 72.4615C37.0274 72.4615 42.3378 67.1511 42.3378 60.6002C42.3378 54.0495 37.0274 48.739 30.4766 48.739C23.9258 48.739 18.6154 54.0495 18.6154 60.6002C18.6154 67.1511 23.9258 72.4615 30.4766 72.4615Z" stroke="#252B33" stroke-width="3.5" stroke-linecap="round" stroke-linejoin="round"/>
<path d="M33.4079 53.082H31.5997C31.1463 53.0563 30.6927 53.1284 30.2695 53.2937C29.8463 53.4589 29.4634 53.7134 29.1464 54.0398C28.8295 54.3663 28.5861 54.7573 28.4325 55.1862C28.279 55.6152 28.2188 56.0723 28.2561 56.5265V58.1127H26.4383C26.3628 58.1127 26.2905 58.1428 26.2371 58.1963C26.1838 58.2498 26.1539 58.3225 26.1539 58.3982V60.7007C26.1539 60.7764 26.1838 60.8491 26.2371 60.9026C26.2905 60.9561 26.3628 60.9862 26.4383 60.9862H28.2561V66.7914C28.2561 66.8289 28.2636 66.8661 28.2778 66.9006C28.2921 66.9353 28.3131 66.9668 28.3395 66.9934C28.3659 67.0199 28.3972 67.0409 28.4318 67.0552C28.4662 67.0695 28.5032 67.0769 28.5405 67.0769H30.9106C30.986 67.0769 31.0584 67.0469 31.1117 66.9934C31.165 66.9397 31.1951 66.8671 31.1951 66.7914V60.9853H33.3201C33.3955 60.9853 33.4679 60.9553 33.5212 60.9017C33.5746 60.8481 33.6046 60.7755 33.6046 60.6998V58.3999C33.6046 58.3242 33.5746 58.2517 33.5212 58.198C33.4679 58.1445 33.3955 58.1145 33.3201 58.1145H31.1968V56.768C31.1968 56.1212 31.3503 55.7925 32.1896 55.7925H33.4079C33.4833 55.7925 33.5557 55.7625 33.609 55.7089C33.6624 55.6554 33.6923 55.5827 33.6923 55.507V53.3702C33.6927 53.3325 33.6855 53.295 33.6714 53.2601C33.6573 53.2251 33.6364 53.1933 33.6099 53.1665C33.5836 53.1398 33.552 53.1185 33.5173 53.104C33.4827 53.0895 33.4455 53.082 33.4079 53.082Z" fill="#252B33"/>
<path d="M72.3646 23.6111V37.975C72.3646 38.143 72.2807 38.9046 72.257 39.0758C72.2334 39.247 72.3109 39.1942 72.0589 39.7768C71.6563 40.7 70.9581 41.463 70.0741 41.9456C68.9382 42.3973 67.7145 42.5848 66.4955 42.4938C66.0874 42.4938 65.9258 42.3376 65.4821 42.4938C65.1782 42.6289 64.9175 42.845 64.7282 43.1185L58.0512 48.7389V44.2093C58.0372 43.7477 57.8803 43.3018 57.6023 42.9331C57.2587 42.4862 57.3707 42.4217 56.6783 42.4217H41.9437C41.2796 42.3388 40.6657 42.0246 40.2099 41.5343C39.9299 41.1617 39.763 41.1037 39.7792 39.7834C39.8244 34.7423 39.7791 23.933 39.7479 19.1719C39.7479 18.277 39.8556 18.4182 40.2163 18.0101C40.4763 17.7508 40.815 17.5853 41.1792 17.5394H70.6643C71.0499 17.5084 71.4352 17.6039 71.7617 17.8118C72.0566 18.1022 72.2653 18.4685 72.3646 18.8703V23.6111Z" stroke="#252B33" stroke-width="3.5" stroke-linecap="round" stroke-linejoin="round"/>
<path d="M66 22.9345C65.2506 23.4605 64.421 23.8628 63.5431 24.126C63.0713 23.5851 62.4439 23.2017 61.7459 23.0277C61.0481 22.8537 60.3133 22.8976 59.6413 23.1533C58.9692 23.4092 58.3924 23.8645 57.9888 24.4578C57.5852 25.051 57.3745 25.7535 57.385 26.4699V27.2496C56.0084 27.2853 54.6444 26.9811 53.4144 26.3643C52.1844 25.7474 51.1268 24.837 50.3358 23.7142C50.3358 23.7142 47.2026 30.7335 54.2518 33.8543C52.6389 34.9451 50.7173 35.4921 48.7692 35.4146C55.8184 39.3151 64.4344 35.4146 64.4344 26.4432C64.4337 26.2258 64.4128 26.0089 64.372 25.7953C65.1708 25.0107 65.7344 24.0201 66 22.9345Z" stroke="#252B33" stroke-width="3" stroke-linecap="round" stroke-linejoin="round"/>
</svg>
