<svg width="90" height="90" viewBox="0 0 90 90" fill="none" xmlns="http://www.w3.org/2000/svg">
<rect x="10" y="32" width="18" height="18" rx="9" fill="#FFE147"/>
<path d="M66.5625 44.0625H62.8125C62.6893 44.0628 62.5673 44.0388 62.4534 43.9918C62.3395 43.9447 62.236 43.8757 62.1489 43.7886C62.0618 43.7015 61.9928 43.598 61.9458 43.4841C61.8988 43.3703 61.8747 43.2482 61.875 43.125V42.5996C64.0947 41.2302 65.6827 39.0384 66.2921 36.5025C67.1337 36.3505 67.898 35.9154 68.4583 35.2694C69.0186 34.6234 69.3413 33.8052 69.3729 32.9506C69.4044 32.0961 69.143 31.2564 68.6318 30.5708C68.1207 29.8852 67.3905 29.3949 66.5625 29.1812V25.3125C66.5603 23.6679 65.9414 22.0839 64.828 20.8734C63.7146 19.663 62.1877 18.9141 60.549 18.7748C60.1541 18.1879 59.6205 17.7074 58.9955 17.3761C58.3706 17.0447 57.6735 16.8726 56.9661 16.875H53.4375C51.2005 16.8775 49.0559 17.7673 47.4741 19.3491C45.8923 20.9309 45.0025 23.0755 45 25.3125V28.125C45 28.3737 45.0988 28.6121 45.2746 28.7879C45.4504 28.9638 45.6889 29.0625 45.9375 29.0625H46.875V29.1808C46.0474 29.3944 45.3175 29.8844 44.8065 30.5696C44.2954 31.2547 44.0337 32.0939 44.0648 32.9481C44.0959 33.8024 44.4179 34.6203 44.9774 35.2665C45.537 35.9127 46.3005 36.3483 47.1415 36.5012C47.1659 36.6041 47.1919 36.7066 47.2195 36.8086L49.0288 36.3164C48.8433 35.6327 48.7495 34.9273 48.75 34.2188V29.0342C52.4521 28.8572 56.0577 27.7945 59.2641 25.9354C59.5226 26.9228 60.0236 27.83 60.7216 28.5748C61.4196 29.3195 62.2925 29.8782 63.2611 30.2002L64.6875 30.6757V34.2188C64.6874 35.6809 64.285 37.1148 63.5244 38.3636C62.7638 39.6123 61.6744 40.6278 60.3753 41.2988C59.0762 41.9697 57.6176 42.2704 56.159 42.1679C54.7005 42.0653 53.2983 41.5635 52.1059 40.7173L51.0191 42.2452C51.4866 42.5772 51.9821 42.8679 52.5 43.1139V43.125C52.4997 43.3736 52.4009 43.6119 52.2251 43.7876C52.0494 43.9634 51.8111 44.0622 51.5625 44.0625H50.625V41.25C50.6239 40.2558 50.2284 39.3026 49.5254 38.5996C48.8224 37.8966 47.8692 37.5011 46.875 37.5H20.625C19.6308 37.5011 18.6776 37.8966 17.9746 38.5996C17.2716 39.3026 16.8761 40.2558 16.875 41.25V44.0625H18.75V41.25C18.7506 40.7529 18.9483 40.2764 19.2998 39.9249C19.6513 39.5733 20.1279 39.3756 20.625 39.375H46.875C47.3721 39.3756 47.8487 39.5733 48.2002 39.9249C48.5517 40.2764 48.7494 40.7529 48.75 41.25V58.125C48.7494 58.6221 48.5517 59.0987 48.2002 59.4502C47.8487 59.8017 47.3721 59.9994 46.875 60H36.5168L37.4791 55.5089C37.5084 55.3722 37.5068 55.2308 37.4743 55.0948C37.4418 54.9588 37.3794 54.8319 37.2915 54.7231C37.2036 54.6144 37.0926 54.5268 36.9664 54.4665C36.8403 54.4063 36.7023 54.375 36.5625 54.375H30C29.8165 54.375 29.6371 54.4289 29.4839 54.5299C29.3307 54.6309 29.2106 54.7746 29.1383 54.9433L26.9712 60H20.625C20.1279 59.9994 19.6513 59.8017 19.2998 59.4502C18.9483 59.0987 18.7506 58.6221 18.75 58.125V45.9375H16.875V58.125C16.8761 59.1192 17.2716 60.0724 17.9746 60.7754C18.6776 61.4785 19.6308 61.8739 20.625 61.875H26.168L23.7568 67.5H17.8125C17.5639 67.5 17.3254 67.5988 17.1496 67.7746C16.9738 67.9504 16.875 68.1889 16.875 68.4375V72.1875C16.875 72.4362 16.9738 72.6746 17.1496 72.8504C17.3254 73.0262 17.5639 73.125 17.8125 73.125H72.1875C72.4361 73.125 72.6746 73.0262 72.8504 72.8504C73.0262 72.6746 73.125 72.4362 73.125 72.1875V68.4375C73.125 68.1889 73.0262 67.9504 72.8504 67.7746C72.6746 67.5988 72.4361 67.5 72.1875 67.5H70.5778C71.3782 66.7977 72.0195 65.9326 72.4587 64.9625C72.898 63.9925 73.1251 62.9399 73.125 61.875V60.9375H71.25V61.875C71.2483 63.3663 70.6551 64.7961 69.6006 65.8506C68.5461 66.9051 67.1163 67.4983 65.625 67.5H50.625V65.625C50.6259 64.8794 50.9225 64.1645 51.4497 63.6372C51.977 63.11 52.6918 62.8134 53.4375 62.8125H65.625C65.8736 62.8125 66.1121 62.7137 66.2879 62.5379C66.4637 62.3621 66.5625 62.1237 66.5625 61.875V55.3125H71.25V59.0625H73.125V50.625C73.123 48.8852 72.431 47.2171 71.2007 45.9868C69.9704 44.7565 68.3024 44.0645 66.5625 44.0625ZM66.5625 34.2188V31.1912C66.8115 31.3347 67.024 31.5335 67.1838 31.7724C67.3436 32.0112 67.4463 32.2836 67.4839 32.5684C67.5215 32.8533 67.4931 33.143 67.4007 33.4151C67.3084 33.6872 67.1547 33.9344 66.9516 34.1376C66.8337 34.2544 66.7011 34.3553 66.557 34.4377C66.5585 34.3647 66.5625 34.2921 66.5625 34.2188ZM45.9375 32.8125C45.937 32.5664 45.9852 32.3226 46.0793 32.0952C46.1735 31.8678 46.3117 31.6613 46.4859 31.4875C46.6022 31.3722 46.733 31.2724 46.875 31.1908V34.2188C46.875 34.2913 46.877 34.3636 46.8786 34.436C46.593 34.272 46.3556 34.0355 46.1903 33.7505C46.0251 33.4655 45.9379 33.142 45.9375 32.8125ZM59.0625 23.8664C55.6399 26.0394 51.6687 27.1914 47.6146 27.1875H46.875V26.1433C54.9004 25.0922 57.7301 22.3457 57.8504 22.2255L56.5305 20.8937C56.5238 20.9003 55.8418 21.5487 54.1959 22.2982C52.8114 22.9288 50.4727 23.7483 46.9642 24.2391C47.064 23.6333 47.2491 23.0446 47.5138 22.4906C51.0212 22.3916 52.8394 21.5035 52.9193 21.4635L52.0859 19.784C52.0725 19.7905 51.023 20.2869 48.9675 20.5139C50.1795 19.3798 51.7776 18.7492 53.4375 18.75H56.9661C57.3875 18.7485 57.8021 18.8562 58.1695 19.0625C58.5369 19.2689 58.8445 19.5669 59.0625 19.9275V23.8664ZM63.8541 28.4215C63.0043 28.1391 62.2652 27.5962 61.7416 26.8698C61.218 26.1434 60.9367 25.2705 60.9375 24.375V20.7188C61.9956 20.9363 62.9463 21.512 63.6294 22.3488C64.3124 23.1856 64.6862 24.2323 64.6875 25.3125V28.6992L63.8541 28.4215ZM54.3013 43.7624C56.1938 44.2405 58.1856 44.1457 60.0241 43.4899C60.1032 44.1055 60.3847 44.6774 60.8242 45.1156C60.9625 45.2534 61.1147 45.3766 61.2783 45.4832L61.0111 45.8393C60.5362 46.4743 59.9151 46.9852 59.2004 47.3287C58.4858 47.6722 57.6988 47.8381 56.9063 47.8123C56.1139 47.7865 55.3393 47.5698 54.6485 47.1805C53.9578 46.7913 53.3712 46.241 52.9386 45.5765C53.2789 45.3849 53.5758 45.1247 53.8103 44.8124C54.0449 44.5002 54.2121 44.1426 54.3013 43.7624ZM48.75 65.625V67.5H44.0625V65.625H48.75ZM46.7597 61.875H46.875C47.1913 61.8752 47.5063 61.8353 47.8125 61.7563V63.75H46.0097L46.7597 61.875ZM39.2597 61.875H44.7403L43.9903 63.75H43.125C42.8764 63.75 42.6379 63.8488 42.4621 64.0246C42.2863 64.2004 42.1875 64.4389 42.1875 64.6875V67.5H40.3125V64.6875C40.3125 64.4389 40.2137 64.2004 40.0379 64.0246C39.8621 63.8488 39.6236 63.75 39.375 63.75H38.5097L39.2597 61.875ZM36.115 61.875H37.24L36.49 63.75H35.7129L36.115 61.875ZM38.4375 65.625V67.5H34.9102L35.3119 65.625H38.4375ZM30.6182 56.25H35.4023L32.9917 67.5H25.7964L30.6182 56.25ZM71.25 69.375V71.25H18.75V69.375H71.25ZM71.25 53.4375H66.5625V50.625H64.6875V60.9375H53.4375C52.7095 60.9376 51.9914 61.1074 51.3405 61.4334C50.6895 61.7595 50.1236 62.2328 49.6875 62.8158V60.601C50.2919 59.9179 50.6254 59.0371 50.625 58.125V45.9375H50.9837C51.5042 46.9732 52.2806 47.8588 53.2393 48.5104C54.1979 49.1619 55.3071 49.5579 56.4617 49.6607C57.6162 49.7635 58.7779 49.5698 59.8366 49.0979C60.8953 48.626 61.816 47.8915 62.5113 46.9641L63.2812 45.9375H66.5625C67.8053 45.9389 68.9967 46.4332 69.8755 47.312C70.7543 48.1908 71.2486 49.3822 71.25 50.625V53.4375ZM60.8652 50.7188L61.6826 52.4063C60.1675 53.1401 58.4957 53.4918 56.8134 53.4307C55.131 53.3696 53.4892 52.8976 52.0312 52.0559L52.9688 50.4321C54.1616 51.1208 55.5049 51.507 56.8814 51.557C58.2579 51.6069 59.6257 51.3192 60.8653 50.7188H60.8652ZM54.375 31.875C54.375 32.2459 54.265 32.6084 54.059 32.9167C53.853 33.2251 53.5601 33.4654 53.2175 33.6073C52.8749 33.7492 52.4979 33.7863 52.1342 33.714C51.7705 33.6416 51.4364 33.4631 51.1742 33.2008C50.9119 32.9386 50.7334 32.6045 50.661 32.2408C50.5887 31.8771 50.6258 31.5001 50.7677 31.1575C50.9096 30.8149 51.15 30.522 51.4583 30.316C51.7666 30.11 52.1292 30 52.5 30C52.9971 30.0006 53.4737 30.1983 53.8252 30.5499C54.1767 30.9014 54.3744 31.3779 54.375 31.875ZM58.125 31.875C58.125 31.5042 58.235 31.1417 58.441 30.8333C58.647 30.525 58.9399 30.2847 59.2825 30.1427C59.6251 30.0008 60.0021 29.9637 60.3658 30.0361C60.7295 30.1084 61.0636 30.287 61.3258 30.5492C61.5881 30.8114 61.7666 31.1455 61.839 31.5092C61.9113 31.8729 61.8742 32.2499 61.7323 32.5926C61.5904 32.9352 61.35 33.228 61.0417 33.434C60.7334 33.6401 60.3708 33.75 60 33.75C59.5029 33.7494 59.0263 33.5517 58.6748 33.2002C58.3233 32.8487 58.1256 32.3721 58.125 31.875ZM58.5512 34.9453L59.5738 36.5169C58.5845 37.16 57.4299 37.5023 56.25 37.5023C55.0701 37.5023 53.9155 37.16 52.9262 36.5169L53.9488 34.9453C54.6337 35.3906 55.4331 35.6276 56.25 35.6276C57.0669 35.6276 57.8663 35.3906 58.5512 34.9453ZM30 44.0625H26.25V42.1875H30V44.0625ZM35.625 42.1875V44.0625H31.875V42.1875H35.625ZM41.25 42.1875V44.0625H37.5V42.1875H41.25ZM46.875 44.0625H43.125V42.1875H46.875V44.0625ZM24.375 42.1875V44.0625H20.625V42.1875H24.375Z" fill="black"/>
</svg>
