<svg width="90" height="90" viewBox="0 0 90 90" fill="none" xmlns="http://www.w3.org/2000/svg">
<rect x="44" y="10" width="18" height="18" rx="9" fill="#FFE147"/>
<path d="M16.7759 24.4781C16.7642 24.5564 19.2382 27.1673 19.2382 27.1673L40.6039 50.4984C41.4635 51.3085 42.2726 52.1706 43.0264 53.08C42.0163 53.7663 40.9141 54.3064 39.7527 54.6842C33.9249 57.1148 27.4629 57.5767 21.3486 55.9995C19.7889 55.5868 15.6196 52.9267 15.8535 53.7779C16.5894 55.5756 17.4896 57.3015 18.5426 58.9339C23.7817 67.2467 34.53 75.0969 50.2274 70.7499C57.1467 69.0861 58.6537 64.6174 64.3301 65.2231C67.384 65.5493 69.319 67.765 70.6437 70.0788C71.1758 70.977 71.7184 71.9479 71.8129 72.9655C71.8129 73.2156 72.3155 72.0913 72.7739 70.1733C73.9135 65.406 73.1341 60.3821 70.6039 56.1842C70.2239 55.5177 69.2383 53.9218 69.4347 52.7491C69.7913 50.9954 69.9515 49.286 70.1713 47.8526C70.7467 45.11 70.8176 42.2853 70.3806 39.5173C69.9564 35.1973 68.4732 31.0488 66.0624 27.439C63.6516 23.8292 60.3876 20.8697 56.5597 18.8229C55.3203 18.0867 54.0106 17.476 52.65 17C52.3752 17.083 53.5643 18.8837 54.0588 20.171C56.2746 26.3123 56.2746 33.0347 54.0588 39.1759C53.6122 40.4959 52.9715 41.5072 53.0978 41.4675C53.224 41.4277 52.5342 41.0373 51.2551 40.0645C48.4585 37.9261 37.5558 29.5056 31.4246 24.7681C29.4592 23.2482 27.8575 21.7108 27.8376 21.8266C27.8177 21.9423 29.4744 27.4199 29.4744 27.4199C29.4744 27.4199 30.1607 29.7792 30.1526 29.7383C30.1444 29.6973 27.8329 28.776 27.8329 28.776L20.584 25.77C20.584 25.77 16.7864 24.3998 16.7759 24.4781Z" stroke="#252B33" stroke-width="3" stroke-linecap="round" stroke-linejoin="bevel"/>
<path d="M40.7149 54.2375C41.5584 54.0241 42.3399 53.6152 42.996 53.0438L32.4734 41.6397L16.7549 24.4653L19.6849 25.4475L22.3144 26.4834L30.135 29.7221L27.7966 21.8115L32.8429 25.8263L43.7758 34.2703L53.1083 41.4467C53.5207 40.627 53.8656 39.775 54.1395 38.8991" stroke="#252B33" stroke-width="3" stroke-linecap="round" stroke-linejoin="round"/>
</svg>
