<svg width="90" height="90" viewBox="0 0 90 90" fill="none" xmlns="http://www.w3.org/2000/svg">
<rect x="57" y="62" width="18" height="18" rx="9" fill="#FFE147"/>
<path d="M63 18H26C24.3431 18 23 19.3431 23 21V70C23 71.6569 24.3431 73 26 73H63C64.6569 73 66 71.6569 66 70V21C66 19.3431 64.6569 18 63 18Z" stroke="#252B33" stroke-width="3.5"/>
<path d="M60.5 24.25H28.5C28.3619 24.25 28.25 24.3619 28.25 24.5V66.5C28.25 66.6381 28.3619 66.75 28.5 66.75H60.5C60.6381 66.75 60.75 66.6381 60.75 66.5V24.5C60.75 24.3619 60.6381 24.25 60.5 24.25Z" stroke="#252B33" stroke-width="3"/>
<path d="M44.3 71C44.8523 71 45.3 70.5523 45.3 70C45.3 69.4477 44.8523 69 44.3 69C43.7478 69 43.3 69.4477 43.3 70C43.3 70.5523 43.7478 71 44.3 71Z" fill="#252B33"/>
<path d="M43.8 21.5C44.0762 21.5 44.3 21.2761 44.3 21C44.3 20.7239 44.0762 20.5 43.8 20.5C43.5239 20.5 43.3 20.7239 43.3 21C43.3 21.2761 43.5239 21.5 43.8 21.5Z" fill="#252B33"/>
</svg>
