<svg width="90" height="90" viewBox="0 0 90 90" fill="none" xmlns="http://www.w3.org/2000/svg">
<rect x="62" y="10" width="18" height="18" rx="9" fill="#FFE147"/>
<g clip-path="url(#clip0)">
<path d="M60.4366 19.9731C60.9221 19.9731 61.3155 19.5858 61.3155 19.1081V19.0804C61.2754 17.935 59.5974 17.9358 59.5577 19.0804V19.1081C59.5577 19.5857 59.9512 19.9731 60.4366 19.9731Z" fill="black"/>
<path d="M55.9608 20.0492C55.7212 19.6344 55.1882 19.4913 54.7707 19.7293C54.3531 19.9676 54.209 20.4969 54.4487 20.9117C54.7205 21.3128 55.1965 21.516 55.6527 21.2556C56.0703 21.0173 56.2144 20.488 55.9747 20.0731L55.9608 20.0492Z" fill="black"/>
<path d="M51.8309 23.5677L51.8068 23.5536C51.3918 23.3118 50.8618 23.4566 50.6235 23.8772C50.3848 24.2978 50.5276 24.8348 50.9426 25.0766C51.3772 25.2905 51.8889 25.2273 52.1502 24.7671C52.3887 24.3465 52.2458 23.8096 51.8309 23.5677Z" fill="black"/>
<path d="M50.0006 28.6572C49.5191 28.6918 49.1079 29.005 49.1079 29.5361C49.1071 30.0318 49.5129 30.43 50.0006 30.415C51.1458 30.3752 51.1456 28.6971 50.0006 28.6572Z" fill="black"/>
<path d="M69.0179 35.5053C69.4526 35.7193 69.9642 35.6561 70.2255 35.1956C70.4641 34.7747 70.3213 34.2374 69.9063 33.9954L69.8823 33.9814C69.4672 33.7395 68.9374 33.8842 68.6989 34.3051C68.46 34.726 68.603 35.2633 69.0179 35.5053Z" fill="black"/>
<path d="M69.9796 29.5361C69.9796 30.0215 70.3669 30.415 70.8446 30.415H70.8723C72.0177 30.375 72.0169 28.697 70.8723 28.6572H70.8446C70.3669 28.6572 69.9796 29.0507 69.9796 29.5361Z" fill="black"/>
<path d="M69.4508 25.1945C69.6183 25.1892 69.7701 25.1458 69.9062 25.0643C70.3212 24.8243 70.464 24.2913 70.2255 23.8739C69.9866 23.4565 69.4569 23.3127 69.042 23.5528L69.018 23.5667C68.603 23.8067 68.4601 24.3397 68.6989 24.7571C68.8591 25.0374 69.1507 25.1945 69.4508 25.1945Z" fill="black"/>
<path d="M65.2064 21.2561C65.6629 21.5163 66.1387 21.3134 66.4104 20.9123C66.6502 20.4974 66.506 19.968 66.0885 19.7299C65.6707 19.4917 65.138 19.6349 64.8984 20.0498L64.8845 20.0738C64.6446 20.4884 64.7889 21.0179 65.2064 21.2561Z" fill="black"/>
<path d="M65.2953 29.5367C65.2953 29.0513 64.9019 28.6578 64.4164 28.6578H61.3155V22.873C61.2751 21.7092 59.5975 21.7101 59.5577 22.873V29.5368C59.5577 30.0222 59.9511 30.4157 60.4366 30.4157H64.4164C64.9019 30.4156 65.2953 30.0222 65.2953 29.5367Z" fill="black"/>
<path d="M26.7835 43.8413L29.3928 41.2373C30.1712 40.4603 28.965 39.1807 28.151 39.9931L25.5417 42.5971C24.6748 43.4641 25.8982 44.7265 26.7835 43.8413Z" fill="black"/>
<path d="M33.4401 39.9931L25.5417 47.8759C24.7286 48.6876 25.9879 49.9141 26.7834 49.1201L34.6818 41.2372C35.4603 40.4603 34.2541 39.1808 33.4401 39.9931Z" fill="black"/>
<path d="M74.2963 48.5224C73.9792 47.2808 72.3454 48.1723 71.6818 48.4581C71.139 45.5077 70.2775 42.9945 69.4019 40.9916C80.2332 32.5262 74.2085 15.0216 60.4369 15.0012C51.1282 14.8783 43.9636 24.0394 46.2972 33.0233H21.733C19.9709 33.0233 18.5372 34.4568 18.5372 36.2189V40.7114C18.5372 41.1968 18.9306 41.5903 19.4161 41.5903C19.9016 41.5903 20.295 41.1968 20.295 40.7114V36.2189C20.295 35.426 20.9401 34.781 21.733 34.781H59.3059C60.0988 34.781 60.7438 35.426 60.7438 36.2189V44.1653C60.7344 44.1946 60.7253 44.2241 60.716 44.2533C59.8545 43.37 59.207 42.8934 59.0231 42.7644V37.3739C59.0231 36.8885 58.6297 36.495 58.1442 36.495H22.8947C22.4092 36.495 22.0159 36.8885 22.0159 37.3739V58.3667H20.2951V45.7257C20.2951 45.2403 19.9017 44.8468 19.4162 44.8468C18.9307 44.8468 18.5373 45.2403 18.5373 45.7257V58.3666H17.595C16.1646 58.3666 15.0008 59.5303 15.0008 60.961C15.0008 62.3915 16.1646 63.5553 17.595 63.5553H55.8278C56.5248 64.9309 57.2379 65.8491 57.607 66.2799V69.3303C57.607 72.4565 60.1504 74.9999 63.2767 74.9999H65.8075C68.9338 74.9999 71.4772 72.4565 71.4772 69.3303V66.2634C72.4068 65.1331 73.1637 63.8189 73.729 62.352C74.1244 61.3257 72.5021 60.6467 72.0889 61.7199C71.6054 62.9745 70.9667 64.0976 70.1877 65.0638H64.4964C64.2152 58.8552 66.649 52.2962 72.79 49.9013C73.0555 51.3496 73.4564 54.2855 73.0983 57.4477C72.9743 58.5406 74.7156 58.7882 74.8448 57.6455C75.3863 52.8633 74.3412 48.6974 74.2963 48.5224ZM59.3059 33.0231H48.1152C45.7386 25.0452 52.0839 16.635 60.4371 16.759C72.3455 16.766 77.7688 31.7607 68.6315 39.355C67.4429 37.0047 66.3998 35.6766 66.3139 35.5689C65.9518 35.1147 65.2321 35.1399 64.9028 35.6186C64.0028 36.9261 63.2015 38.3062 62.5016 39.7507V36.2189C62.5016 34.4568 61.0679 33.0231 59.3059 33.0231ZM23.7736 38.2526H57.2653V43.8499C55.6161 46.9143 54.5773 49.9416 54.1752 52.8608C53.9153 54.748 53.9195 56.5922 54.186 58.3664H23.7736V38.2526ZM17.595 61.7975C16.4915 61.7598 16.4851 60.1644 17.595 60.1243H54.5418C54.6869 60.6904 54.8604 61.2491 55.0626 61.7975H17.595ZM69.7193 66.8216V69.3303C69.7193 71.4873 67.9644 73.2422 65.8074 73.2422H63.2765C61.1195 73.2422 59.3647 71.4873 59.3647 69.3303V66.8216H69.7193ZM63.4347 58.4635C62.7081 61.2199 62.6795 63.7352 62.7356 65.0638H58.8823C54.6536 59.9958 54.8908 51.6723 58.7484 44.8039C60.1389 46.0517 63.11 49.2744 64.6785 55.12C64.1677 56.146 63.7515 57.2618 63.4347 58.4635ZM65.9018 53.0817C64.8323 49.859 63.3814 47.4805 62.0831 45.8219C62.8831 42.96 64.0714 40.2045 65.6488 37.6842C66.8105 39.4833 69.0845 43.5784 70.043 49.2892C68.4015 50.2587 67.014 51.5307 65.9018 53.0817Z" fill="black"/>
</g>
<defs>
<clipPath id="clip0">
<rect width="60" height="60" fill="white" transform="translate(15 15)"/>
</clipPath>
</defs>
</svg>
