<svg width="90" height="90" viewBox="0 0 90 90" fill="none" xmlns="http://www.w3.org/2000/svg">
<rect x="25" y="10" width="18" height="18" rx="9" fill="#FFE147"/>
<path d="M34.4557 51.4361L27.8488 50.6382L27.2284 53.5495L31.9116 56.093" stroke="#252B33" stroke-width="3.5" stroke-linecap="round" stroke-linejoin="round"/>
<path d="M39.8325 55.7887L41.9894 62.0853L39.2703 63.2977L35.8082 59.2474" stroke="#252B33" stroke-width="3.5" stroke-linecap="round" stroke-linejoin="round"/>
<path d="M43.6944 40.7928L36.5798 49.5814C36.5798 49.5814 29.7913 58.1595 32.1929 60.0021C34.5946 61.8447 41.4857 53.5529 41.4857 53.5529C41.4857 53.5529 55.8611 35.865 56.7113 34.7449C57.5615 33.6247 58.7331 30.7506 57.0076 29.2676C55.2821 27.7846 52.4649 30.0031 51.8053 30.7734C51.1458 31.5436 45.9519 38.0041 45.9519 38.0041" stroke="#252B33" stroke-width="3.5" stroke-linecap="round" stroke-linejoin="round"/>
<path d="M45.6102 49.1809L51.5862 57.5106" stroke="#252B33" stroke-width="3.5" stroke-linecap="round"/>
<path d="M51.654 42.2329L58.2278 59.3746L55.4897 62.7569L53.4669 60.2319" stroke="#252B33" stroke-width="3.5" stroke-linecap="round" stroke-linejoin="round"/>
<path d="M45.9477 37.2417L27.6278 34.5749L24.7344 38.1491L39.8267 44.4502" stroke="#252B33" stroke-width="3.5" stroke-linecap="round" stroke-linejoin="round"/>
<path d="M19.7386 45.3296C19.7386 45.3296 17.9626 38.6304 21.1987 32.5677C24.4349 26.5051 31.1161 23.9649 31.1161 23.9649" stroke="#252B33" stroke-width="3.5" stroke-linecap="round" stroke-linejoin="round"/>
<path d="M67.3705 51.2659C67.3705 51.2659 67.7149 58.188 63.289 63.4454C58.863 68.7027 51.7997 69.7983 51.7997 69.7983" stroke="#252B33" stroke-width="3.5" stroke-linecap="round" stroke-linejoin="round"/>
</svg>
