<svg width="90" height="90" viewBox="0 0 90 90" fill="none" xmlns="http://www.w3.org/2000/svg">
<rect x="62" y="62" width="18" height="18" rx="9" fill="#FFE147"/>
<path d="M52.6714 50.7258H68.996" stroke="#252B33" stroke-width="3.5" stroke-linecap="round"/>
<path d="M43.5286 34.7261H59.8531" stroke="#252B33" stroke-width="3.5" stroke-linecap="round"/>
<path d="M43.3469 41V17H69.6326V73H43.3469V50.1429" stroke="#252B33" stroke-width="3.5" stroke-linejoin="round"/>
<path d="M44.0933 45.53C44.0933 38.5387 38.4258 32.8711 31.4345 32.8711C24.4432 32.8711 18.7756 38.5387 18.7756 45.53C18.7756 52.5212 24.4432 58.1888 31.4345 58.1888C38.4258 58.1888 44.0933 52.5212 44.0933 45.53Z" stroke="#252B33" stroke-width="3.5" stroke-linecap="round" stroke-linejoin="round"/>
<path d="M24.6664 56.9656V69.7073" stroke="#252B33" stroke-width="3.5" stroke-linecap="round"/>
<path d="M37.0835 56.9656V69.7073" stroke="#252B33" stroke-width="3.5" stroke-linecap="round"/>
<path d="M24.6664 21.2947V34.0352" stroke="#252B33" stroke-width="3.5" stroke-linecap="round"/>
<path d="M37.0835 21.2947V34.0352" stroke="#252B33" stroke-width="3.5" stroke-linecap="round"/>
<path d="M25.3311 46.8536L29.2591 50.8319L37.9653 42.2524" stroke="#252B33" stroke-width="3" stroke-linecap="round" stroke-linejoin="round"/>
</svg>
