<svg width="90" height="90" viewBox="0 0 90 90" fill="none" xmlns="http://www.w3.org/2000/svg">
<rect x="10" y="52" width="18" height="18" rx="9" fill="#FFE147"/>
<path d="M72.7847 23.3482H17.704C17.5446 23.3572 17.3904 23.4078 17.2565 23.4947C17.1379 23.5999 17.0494 23.7347 17 23.8853V59.056C17.0926 59.5105 17.2893 59.9373 17.5746 60.3031C17.8885 60.6132 18.2778 60.8362 18.7042 60.95H71.5074C71.9018 60.8978 72.2745 60.7388 72.5852 60.4904C72.8265 60.1303 72.9695 59.7133 73 59.2809V24.0945C72.9896 23.8829 72.8978 23.6836 72.7436 23.5382C72.5273 23.4134 72.2821 23.3471 72.0324 23.3458H65.4453" stroke="#252B33" stroke-width="3.5" stroke-linecap="round" stroke-linejoin="round"/>
<path d="M35.9234 70.6543L54.8468 70.6543" stroke="#252B33" stroke-width="3.5" stroke-linecap="round"/>
<path d="M40.6542 69.7081V61.1926" stroke="#252B33" stroke-width="3.5" stroke-linecap="round"/>
<path d="M50.1159 68.7619V61.1926" stroke="#252B33" stroke-width="3.5" stroke-linecap="round"/>
<path d="M37.5 47L27.5 42L37.5 37" stroke="#252B33" stroke-width="3.5" stroke-linecap="round" stroke-linejoin="round"/>
<path d="M53.5 47L63.5 42L53.5 37" stroke="#252B33" stroke-width="3.5" stroke-linecap="round" stroke-linejoin="round"/>
<path d="M42.5 52L48.5 32" stroke="#252B33" stroke-width="3.5" stroke-linecap="round"/>
</svg>
