<svg width="90" height="90" viewBox="0 0 90 90" fill="none" xmlns="http://www.w3.org/2000/svg">
<rect x="50" y="62" width="18" height="18" rx="9" fill="#FFE147"/>
<path d="M69.9778 21.7283H19.0221C18.124 21.7283 17.3959 22.4564 17.3959 23.3545V56.9636C17.3959 57.8618 18.124 58.5899 19.0221 58.5899H69.9778C70.876 58.5899 71.6041 57.8618 71.6041 56.9636V23.3545C71.6041 22.4564 70.876 21.7283 69.9778 21.7283Z" stroke="#252B33" stroke-width="3.5" stroke-linecap="round" stroke-linejoin="round"/>
<path d="M36.7526 60.9739V68.9272" stroke="#252B33" stroke-width="3.5" stroke-linecap="round"/>
<path d="M52.6333 60.9946V68.6346" stroke="#252B33" stroke-width="3.5" stroke-linecap="round"/>
<path d="M31.5128 69H57.9328" stroke="#252B33" stroke-width="3.5" stroke-linecap="round"/>
<path d="M47.2365 34.0034H45.3847C44.9201 33.9768 44.4551 34.0502 44.0213 34.2188C43.5874 34.3873 43.1948 34.647 42.87 34.9803C42.5451 35.3136 42.2955 35.7127 42.1382 36.1508C41.9808 36.5888 41.9192 37.0555 41.9577 37.5193V39.1455H40.0951C40.0178 39.1455 39.9436 39.1763 39.8889 39.231C39.8342 39.2857 39.8035 39.3598 39.8035 39.4372V41.7811C39.8035 41.8194 39.811 41.8574 39.8257 41.8928C39.8403 41.9281 39.8618 41.9603 39.8889 41.9874C39.916 42.0144 39.9481 42.0359 39.9835 42.0506C40.0189 42.0652 40.0568 42.0728 40.0951 42.0728H41.9577V47.9999C41.9577 48.0773 41.9884 48.1514 42.0431 48.2061C42.0978 48.2608 42.172 48.2916 42.2493 48.2916H44.68C44.7574 48.2916 44.8316 48.2608 44.8863 48.2061C44.941 48.1514 44.9717 48.0773 44.9717 47.9999V42.0728H47.1498C47.2271 42.0728 47.3013 42.0421 47.356 41.9874C47.4107 41.9327 47.4414 41.8585 47.4414 41.7811V39.4318C47.4414 39.3544 47.4107 39.2802 47.356 39.2255C47.3013 39.1708 47.2271 39.1401 47.1498 39.1401H44.9706V37.7665C44.9706 37.1062 45.1278 36.7701 45.9886 36.7701H47.2365C47.3138 36.7701 47.388 36.7394 47.4427 36.6847C47.4974 36.63 47.5281 36.5558 47.5281 36.4785V34.2972C47.5284 34.2587 47.5211 34.2205 47.5066 34.1849C47.492 34.1493 47.4706 34.1168 47.4435 34.0895C47.4164 34.0622 47.3841 34.0405 47.3486 34.0258C47.3131 34.011 47.275 34.0034 47.2365 34.0034V34.0034Z" fill="#252B33"/>
<path d="M43.8399 29.3899C37.0335 29.3899 32.1786 34.4638 31.8761 41.1271C31.8065 43.0409 32.2681 44.9366 33.2096 46.6043C33.485 47.1398 32.0724 52.3601 32.0724 52.3601L37.71 50.8954C39.7525 51.9393 42.0042 52.5089 44.2974 52.5617C51.1027 52.5617 56.2611 48.1676 56.2611 41.1271C56.2611 34.0865 50.6452 29.3899 43.8399 29.3899Z" stroke="#252B33" stroke-width="3.5" stroke-linejoin="round"/>
</svg>
