<svg width="90" height="90" viewBox="0 0 90 90" fill="none" xmlns="http://www.w3.org/2000/svg">
<rect x="57" y="58" width="18" height="18" rx="9" fill="#FFE147"/>
<path d="M27.912 37.4502L38.1585 59.4243" stroke="#252B33" stroke-width="3.5" stroke-linecap="round" stroke-linejoin="round"/>
<path d="M50.1919 37.4202L38.4536 59.514" stroke="#252B33" stroke-width="3.5" stroke-linecap="round"/>
<path d="M24.5689 36.9573H31.0689" stroke="#252B33" stroke-width="3.5" stroke-linecap="round"/>
<path d="M46.5892 36.9573H53.0892" stroke="#252B33" stroke-width="3.5" stroke-linecap="round"/>
<path d="M38.7303 37.2444L50.0689 59.5793" stroke="#252B33" stroke-width="3.5" stroke-linecap="round"/>
<path d="M61.3559 37.3145L50.2469 59.7389" stroke="#252B33" stroke-width="3.5" stroke-linecap="round"/>
<path d="M57.5993 36.9573H64.0993" stroke="#252B33" stroke-width="3.5" stroke-linecap="round"/>
<path d="M35.579 36.9573H42.079" stroke="#252B33" stroke-width="3.5" stroke-linecap="round"/>
<path d="M45 73C60.464 73 73 60.464 73 45C73 29.536 60.464 17 45 17C29.536 17 17 29.536 17 45C17 60.464 29.536 73 45 73Z" stroke="#252B33" stroke-width="3.5" stroke-linecap="round" stroke-linejoin="round"/>
</svg>
