<svg width="200" height="196" viewBox="0 0 200 196" fill="none" xmlns="http://www.w3.org/2000/svg">
<g clip-path="url(#clip0)">
<path d="M8.33301 8.35303H191.667V186.687H8.33301V8.35303Z" fill="white"/>
<path d="M15.12 15.1202H184.88V179.88L15.12 179.92V15.1202ZM0 195.021H200V0.0200195H0V195.021ZM141.5 94.0202C145.75 94.0202 147.25 94.0202 147.666 93.8538C147.666 93.2706 147.834 92.8538 147.834 92.437C147.834 87.937 145.666 79.6035 137 79.6035C129 79.6035 125.583 86.6034 124.75 94.0202H141.5ZM124.583 105.437C124.75 116.687 130.083 124.271 142.75 124.271C147.667 124.271 151.917 123.604 156.334 121.687C156.917 121.437 157.334 121.521 157.334 122.271V132.687C157.334 133.52 157.084 133.938 156.501 134.354C152.084 136.52 146.584 137.521 139.75 137.521C117.751 137.521 109.501 121.271 109.501 103.187C109.501 83.521 119.667 67.4375 137.584 67.4375C155.751 67.4375 162.084 82.6874 162.084 95.1042C162.084 99.1042 161.834 102.355 161.418 103.938C161.251 104.604 161.001 104.855 160.334 105.021C158.667 105.271 153.75 105.604 146.418 105.604H124.583V105.437ZM79.9171 96.937C77.5838 87.6866 71.9169 67.5201 69.8334 57.7701H69.6668C67.917 67.5201 63.3334 84.0202 59.9168 96.937H79.9171ZM56.4999 110.437L49.9168 135.354C49.7501 136.02 49.5002 136.271 48.6666 136.271H36.4166C35.5833 136.271 35.4163 136.02 35.5833 135.02L59.2498 52.2702C59.6665 50.7703 59.9164 49.6035 60.0831 45.4371C60.0831 44.8538 60.333 44.6039 60.7497 44.6039H78.2497C78.833 44.6039 79.0829 44.7705 79.2499 45.4371L105.75 135.187C105.916 135.854 105.75 136.271 105.083 136.271H91.3336C90.6664 136.271 90.2496 136.02 90.0832 135.438L83.2496 110.438H56.4999V110.437Z" fill="#252B33"/>
</g>
<defs>
<clipPath id="clip0">
<rect width="200" height="195.04" fill="white"/>
</clipPath>
</defs>
</svg>
