<svg width="152" height="100" viewBox="0 0 152 100" fill="none" xmlns="http://www.w3.org/2000/svg">
<g clip-path="url(#clip0)">
<path d="M18.2841 84.1421C19.5859 84.1421 20.7693 84.4379 21.4202 85.0297C21.5385 85.9764 20.6509 87.5149 20.1184 87.5149C19.4675 87.2782 18.8758 87.1598 18.1066 87.1598C15.0296 87.1598 13.4912 90.3551 13.4912 93.4912C13.4912 95.4439 14.1421 96.6273 15.7397 96.6273C17.3965 96.6273 19.0533 95.503 20.0001 94.6746C20.2367 94.8521 20.5326 95.3847 20.5326 95.9764C20.5326 96.6273 20.3551 97.2782 19.7042 97.9291C18.6391 98.9942 16.8048 99.9409 14.1421 99.9409C11.1243 99.9409 8.99414 98.2249 8.99414 94.2013C9.11248 88.8758 12.5444 84.1421 18.2841 84.1421ZM28.2249 96.4498C29.8817 96.4498 32.8995 93.5504 33.7279 87.9882C33.787 87.6332 33.787 87.574 33.8462 87.219C33.4912 87.1007 32.9586 86.9823 32.4853 86.9823C31.2427 86.9823 29.9409 87.3374 28.8166 88.935C27.6332 90.5918 27.1006 92.6628 27.1006 94.3196C27.1006 95.6805 27.5149 96.4498 28.2249 96.4498V96.4498ZM22.7811 94.9113C22.7811 92.8995 23.432 89.4675 25.9764 86.9231C28.1657 84.6746 30.7693 84.1421 33.1953 84.1421C34.793 84.1421 36.9231 84.6746 38.2841 84.9113C37.9291 86.3906 37.1598 92.0119 36.7456 95.2663C36.5681 96.6273 36.5089 98.58 36.5681 99.29C35.4438 99.7634 33.3728 99.8817 32.7811 99.8817C32.4853 99.8817 32.4261 98.5208 32.4853 97.1598C32.5444 96.7456 32.6036 96.0947 32.6036 95.7989C31.3018 97.9882 28.6983 99.8226 25.9764 99.8226C24.0237 99.8817 22.7811 98.2249 22.7811 94.9113V94.9113ZM46.6864 84.1421C48.0474 84.1421 49.4083 84.6746 50.0001 85.2663C49.9409 86.2131 49.2308 87.8107 48.0474 87.3374C47.5149 87.1598 47.0415 87.0415 46.3314 87.0415C45.4438 87.0415 44.6154 87.4557 44.6154 88.2841C44.6154 88.935 45.0888 89.4084 47.3373 91.006C48.935 92.1894 49.5859 93.2545 49.5859 94.7338C49.5859 97.219 47.2782 99.8817 43.1953 99.8817C41.5385 99.8817 40.0592 99.2308 39.645 98.58C39.0533 97.574 39.5267 95.5622 40.1776 95.9172C41.0651 96.3314 42.4853 96.8048 43.6687 96.8048C44.793 96.8048 45.503 96.2723 45.503 95.6214C45.503 95.0297 44.9705 94.5563 42.9586 93.077C41.2427 91.7752 40.7101 90.5918 40.7101 89.29C40.7101 86.4498 43.1362 84.1421 46.6864 84.1421V84.1421ZM58.3433 84.1421C59.7042 84.1421 61.0651 84.6746 61.6569 85.2663C61.5977 86.2131 60.8876 87.8107 59.7042 87.3374C59.1717 87.1598 58.6983 87.0415 57.9882 87.0415C57.1007 87.0415 56.2722 87.4557 56.2722 88.2841C56.2722 88.935 56.7456 89.4084 58.9941 91.006C60.5918 92.1894 61.2427 93.2545 61.2427 94.7338C61.2427 97.219 58.935 99.8817 54.8521 99.8817C53.1953 99.8817 51.7752 99.2308 51.3018 98.58C50.7101 97.574 51.1835 95.5622 51.8344 95.9172C52.722 96.3314 54.1421 96.8048 55.3255 96.8048C56.4498 96.8048 57.1598 96.2723 57.1598 95.6214C57.1598 95.0297 56.6273 94.5563 54.6154 93.077C52.8995 91.7752 52.3669 90.5918 52.3669 89.29C52.3669 86.4498 54.793 84.1421 58.3433 84.1421V84.1421ZM68.935 96.4498C70.5918 96.4498 73.6095 93.5504 74.4379 87.9882C74.4971 87.6332 74.4971 87.574 74.5563 87.219C74.2012 87.1007 73.6687 86.9823 73.1953 86.9823C71.9527 86.9823 70.6509 87.3374 69.5267 88.935C68.3433 90.5918 67.8107 92.6628 67.8107 94.3196C67.8699 95.6805 68.2249 96.4498 68.935 96.4498V96.4498ZM63.4912 94.9113C63.4912 92.8995 64.1421 89.4675 66.6864 86.9231C68.8758 84.6746 71.4794 84.1421 73.9054 84.1421C75.503 84.1421 77.6332 84.6746 78.9941 84.9113C78.6391 86.3906 77.8699 92.0119 77.4557 95.2663C77.2782 96.6273 77.219 98.58 77.2782 99.29C76.1539 99.7634 74.0829 99.8817 73.4912 99.8817C73.1953 99.8817 73.1362 98.5208 73.1953 97.1598C73.2545 96.7456 73.3137 96.0947 73.3137 95.7989C72.0119 97.9882 69.4083 99.8226 66.6864 99.8226C64.793 99.8817 63.4912 98.2249 63.4912 94.9113V94.9113ZM86.6273 88.5208C88.1657 86.0356 90.1776 84.1421 93.0178 84.1421C95.4438 84.1421 96.2131 86.3906 95.7397 89.5267C95.503 91.006 95.0888 93.1362 94.8521 95.0888C94.6154 96.7456 94.4379 98.2249 94.4971 99.2308C93.6095 99.645 91.0651 99.8226 90.4734 99.8226C90.2367 99.8226 90.1776 97.9882 90.5326 96.0356C90.8285 94.4379 91.361 91.4794 91.6569 89.7634C91.8344 88.7575 91.7752 87.574 90.8285 87.574C89.5859 87.574 86.6273 89.5859 85.148 97.7515C85.0296 98.4024 84.793 98.8166 84.3788 99.0533C83.8462 99.3492 82.7811 99.645 80.5918 99.645C81.006 97.574 81.6569 93.3729 82.1302 90.2368C82.5444 87.3965 82.722 85.5622 82.6628 84.8521C83.2545 84.6746 86.2723 84.0237 86.5681 84.0237C86.9231 84.0237 86.9823 85.0888 86.6865 87.574C86.6273 87.8107 86.6273 88.1657 86.5681 88.4024H86.6273V88.5208V88.5208ZM103.787 96.3906C105.266 96.3906 108.284 93.6095 109.112 88.6983C109.172 88.4024 109.231 87.9291 109.29 87.6332C108.876 87.219 108.284 86.9823 107.337 86.9823C103.905 86.9823 102.426 91.0652 102.426 94.0237C102.485 95.5622 103.018 96.3906 103.787 96.3906ZM101.598 99.8817C99.4083 99.8817 98.1066 97.9291 98.1066 94.6746C98.1066 89.2308 101.539 84.2013 107.278 84.2013C108.284 84.2013 109.231 84.4971 109.763 84.793C110.059 83.2545 110.769 78.4616 110.828 77.0415C111.775 76.864 113.787 76.5681 114.734 76.5681C115.089 76.5681 115.207 76.9231 115.089 77.8107C114.26 82.8995 112.84 92.6036 112.544 94.7338C112.367 96.5681 112.308 98.3433 112.367 99.3492C111.302 99.8226 109.112 99.9409 108.521 99.9409C108.284 99.9409 108.166 98.4024 108.225 96.9823C108.284 96.5681 108.343 95.9172 108.343 95.7989C106.509 98.5208 104.201 99.8817 101.598 99.8817V99.8817ZM121.361 88.9941C123.136 85.0297 125.266 84.1421 126.686 84.1421C127.101 84.1421 127.811 84.4379 128.107 84.7338C128.225 85.8581 127.337 88.0474 126.568 88.935C126.154 88.7575 125.681 88.5208 125.089 88.5208C123.965 88.5208 121.657 90.2959 120.237 97.9882C120.118 98.6391 119.941 98.8758 119.586 99.0533C118.994 99.4084 116.746 99.645 115.681 99.7042C116.213 96.9231 117.041 91.3018 117.397 87.9882C117.515 87.1598 117.515 85.5622 117.456 84.9705C118.107 84.6746 120.651 84.0829 121.183 84.0829C121.479 84.0829 121.716 85.9172 121.243 88.935H121.361V88.9941V88.9941ZM133.254 96.4498C134.911 96.4498 137.929 93.5504 138.757 87.9882C138.817 87.6332 138.817 87.574 138.876 87.219C138.521 87.1007 137.988 86.9823 137.515 86.9823C136.272 86.9823 134.97 87.3374 133.846 88.935C132.663 90.5918 132.13 92.6628 132.13 94.3196C132.189 95.6805 132.544 96.4498 133.254 96.4498V96.4498ZM127.811 94.9113C127.811 92.8995 128.462 89.4675 131.006 86.9231C133.195 84.6746 135.799 84.1421 138.225 84.1421C139.823 84.1421 141.953 84.6746 143.314 84.9113C142.959 86.3906 142.189 92.0119 141.775 95.2663C141.598 96.6273 141.539 98.58 141.598 99.29C140.473 99.7634 138.402 99.8817 137.811 99.8817C137.515 99.8817 137.456 98.5208 137.515 97.1598C137.574 96.7456 137.633 96.0947 137.633 95.7989C136.331 97.9882 133.728 99.8226 131.006 99.8226C129.112 99.8817 127.811 98.2249 127.811 94.9113V94.9113Z" fill="black"/>
<path d="M121.598 26.923C122.722 39.8816 102.308 52.2485 75.9764 54.497C49.645 56.7455 27.4557 48.0473 26.3314 35.0887C25.2071 22.1301 45.6213 9.76325 71.9527 7.51473C98.2249 5.26621 120.473 13.9053 121.598 26.923" fill="#2C3035"/>
<path d="M72.6616 8.99419C62.6025 8.81668 50.8865 12.8403 42.1291 16.5682C41.2415 19.1717 40.709 21.9528 40.709 24.8522C40.709 40.2368 54.6143 52.722 71.7741 52.722C88.9338 52.722 102.898 40.296 102.898 24.8522C102.898 20.0001 101.478 15.3847 99.0522 11.4202C92.0699 10.3551 82.425 9.17171 72.6616 8.99419" fill="white"/>
<path d="M71.8342 8.99395C66.2721 8.63892 56.6863 11.5383 48.6982 14.4377C47.4556 17.278 46.8047 20.4141 46.8047 23.7277C46.8047 37.2188 59.0532 48.1655 71.9526 48.1655C84.7928 48.1655 96.1538 37.2188 97.1005 23.7277C97.3964 19.349 95.9171 15.207 93.7869 11.6567C85.562 10.2366 76.8047 9.34898 71.8342 8.99395" fill="white"/>
<path d="M57.5731 22.0117C58.2831 20.4732 59.2891 19.7632 60.295 18.5206C60.1766 18.2247 59.94 17.2188 59.94 16.9229C59.94 15.3845 61.1826 14.201 62.6619 14.201C63.0169 14.201 63.3719 14.2602 63.6678 14.3785C68.224 10.8874 74.2004 9.40814 80.2359 10.7691C80.7684 10.8874 81.301 11.0649 81.8335 11.1833C75.9163 10.3549 69.1707 12.4851 64.6145 16.1537C64.7329 16.5087 65.1471 17.3963 65.1471 17.8105C65.1471 19.349 64.1412 19.704 62.6619 19.704C62.3068 19.704 62.011 19.6448 61.6559 19.5265C60.65 20.8874 59.3482 23.5501 58.7565 25.2069C61.3009 27.4555 63.5494 28.2839 66.508 29.4081C66.508 29.2898 66.6264 29.1123 66.6264 28.9939C66.6264 24.4377 70.65 20.7099 75.2063 20.7099C79.2891 20.7099 82.7211 23.6685 83.372 27.5738C85.443 26.272 87.3957 25.2661 88.8749 23.3726C88.5199 22.9584 88.1649 21.7158 88.1649 21.1241C88.1649 19.7632 89.2892 18.6389 90.6501 18.6389C90.8276 18.6389 91.0051 18.6389 91.2418 18.6981C92.0111 17.1004 92.6028 15.4436 92.9578 13.7277C85.798 8.40223 71.9518 9.17146 71.9518 9.17146C71.9518 9.17146 60.9459 8.57974 53.4902 12.2484C54.0228 15.6803 55.4429 19.1123 57.5731 22.0117" fill="#373535"/>
<path d="M91.7754 19.9408C92.308 20.4141 92.5446 20.7692 92.7813 21.1834C93.4322 22.3668 92.1304 23.4911 90.7103 23.4911C90.592 23.4911 90.4145 23.4911 90.2961 23.4319C88.7577 25.8579 86.0358 28.9349 83.6097 30.5325C87.3375 31.1242 90.8287 32.6035 93.5506 34.9112C95.5624 31.3017 97.1009 26.0355 97.1009 21.5976C97.1009 18.2248 95.6216 15.7396 93.373 13.9053C93.3139 15.7396 92.308 18.284 91.7754 19.9408ZM61.7162 42.8994C62.9588 39.4674 65.9766 36.8639 68.876 34.5562C68.4618 33.9644 67.8109 32.5443 67.5742 31.8934C64.0831 30.8284 61.0061 28.8165 58.5801 26.213C58.5801 26.2721 58.5209 26.3905 58.5209 26.4497C58.0476 28.4615 57.9884 30.5325 58.2251 32.4852C59.8819 32.781 61.1837 34.2603 61.1837 36.0355C61.1837 37.1005 60.2369 38.5798 59.5268 39.2899C60.2369 40.8283 60.7695 41.6568 61.7162 42.8994" fill="#373535"/>
<path d="M61.4792 45.7398C60 44.2605 58.994 41.3611 58.0473 39.5267C57.8698 39.5267 57.6923 39.5859 57.5147 39.5859C55.5029 39.5859 53.4319 37.9291 53.9053 35.9764C54.142 34.9113 54.9112 34.2013 56.0946 33.6096C55.7988 31.361 55.7396 28.225 56.2721 25.9173C56.3905 25.2664 56.7455 24.9705 56.923 24.3196C54.7337 21.1244 53.3136 16.864 53.3136 12.6628V12.1895C49.5858 14.0829 46.8047 16.9824 46.8047 21.5977C46.8047 31.8344 52.7218 41.8936 61.4792 45.7989V45.7398V45.7398ZM83.0769 31.5977C81.9526 34.793 78.8757 37.1599 75.2662 37.1599C73.3136 37.1599 71.5384 36.509 70.1775 35.3847C67.2781 37.6332 64.6153 41.5977 63.3136 45.0889C63.9053 45.7397 64.3195 46.2723 65.0295 46.864C67.0414 47.3966 69.8816 46.864 72.071 46.864C80.8875 46.864 88.7574 42.9587 93.2544 36.0356C90.1775 33.9054 86.6272 31.8936 83.0769 31.5977" fill="#373535"/>
<path d="M57.3375 23.1951C58.0476 21.6566 58.876 20.2957 59.8819 18.9939C59.7636 18.698 59.7044 18.343 59.7044 18.0471C59.7044 16.5087 60.947 15.3252 62.4263 15.3252C62.7813 15.3252 63.1363 15.3844 63.4322 15.5028C67.9884 12.0116 73.9647 10.5323 80.0002 11.8933C80.5327 12.0116 81.0653 12.1891 81.5978 12.3075C75.6807 11.4791 69.5268 13.3134 64.9706 16.982C65.089 17.3371 65.2073 17.6921 65.2073 18.0471C65.2073 19.5856 63.9647 20.769 62.4854 20.769C62.1304 20.769 61.8346 20.7099 61.4795 20.5915C60.4736 21.9525 59.586 23.4909 58.9943 25.1477C61.1837 27.4554 63.8464 29.3489 66.805 30.414V29.9998C66.805 25.4436 70.5328 21.7158 75.089 21.7158C79.1718 21.7158 82.6037 24.6744 83.2546 28.5797C85.3256 27.2779 87.1008 25.6211 88.6392 23.6684C88.2842 23.2542 88.0475 22.7217 88.0475 22.13C88.0475 20.769 89.1718 19.6448 90.5327 19.6448C90.7102 19.6448 90.8877 19.6448 91.1244 19.7039C91.8936 18.1063 92.4853 16.4495 92.8404 14.7335C85.6806 9.40809 71.8345 10.1773 71.8345 10.1773C71.8345 10.1773 60.8286 9.5856 53.373 13.2542C53.7872 16.8637 55.2074 20.2957 57.3375 23.1951" fill="#252B33"/>
<path d="M92.1287 20.3551C92.6613 20.8285 92.9571 21.4794 92.9571 22.1895C92.9571 23.5504 91.8329 24.6747 90.4719 24.6747C90.3536 24.6747 90.1761 24.6747 90.0577 24.6155C88.5193 27.0415 86.4483 29.1125 84.0222 30.651C87.5725 31.1835 90.9453 32.722 93.7264 35.0297C95.7382 31.4202 96.9216 27.219 96.9216 22.7812C96.9216 19.4084 95.4423 16.9232 93.1938 15.0889C93.0755 16.9232 92.7205 18.6983 92.1287 20.3551V20.3551ZM62.0696 43.6688C63.3122 40.2368 65.4424 37.219 68.3418 34.9114C67.9276 34.3196 67.5726 33.7279 67.3359 33.0179C63.8448 31.9528 60.7678 29.9409 58.3418 27.3374C58.3418 27.3966 58.2826 27.5149 58.2826 27.5741C57.8093 29.5859 57.7501 31.6569 57.9868 33.6096C59.6436 33.9054 60.9454 35.3847 60.9454 37.1599C60.9454 38.225 60.472 39.1717 59.7619 39.8226C60.3536 41.1835 61.182 42.4853 62.0696 43.6688Z" fill="#252B33"/>
<path d="M61.4796 45.6805C60.0003 44.2012 58.7577 42.5444 57.8109 40.7101C57.6334 40.7101 57.4559 40.7693 57.2784 40.7693C55.2666 40.7693 53.6689 39.1716 53.6689 37.1598C53.6689 35.7397 54.4973 34.4971 55.6808 33.9053C55.3849 31.6568 55.5033 29.4083 56.0358 27.1006C56.1541 26.4497 56.3908 25.7988 56.5683 25.1479C54.379 21.9527 53.0772 18.0474 53.0772 13.8462V13.3728C49.3494 15.2663 46.5684 18.1657 46.5684 22.7811C46.5684 33.0178 52.663 41.8343 61.4204 45.7397C61.4796 45.7397 61.4796 45.7397 61.4796 45.6805V45.6805ZM82.8405 32.7811C81.7162 35.9764 78.6393 38.3432 75.0299 38.3432C73.0772 38.3432 71.3021 37.6923 69.9411 36.5681C67.0417 38.8166 64.8524 41.8935 63.4914 45.3846C64.0831 46.0355 64.734 46.6272 65.3849 47.219C67.3967 47.7515 69.5269 48.0474 71.7163 48.0474C80.5328 48.0474 88.3434 43.4911 92.8405 36.5681C89.8819 34.4379 86.3908 33.0769 82.8405 32.7811" fill="#252B33"/>
<path d="M83.1361 30.6509L90.7692 28.8165L83.0769 28.4023L89.3491 23.6686L82.2485 26.213L87.0414 19.5266L80.355 23.9645L82.6627 16.1538L78.1065 22.6035L77.9881 14.4378L74.9704 21.7159L72.4852 14.3787L72.6035 23.0177L68.284 15.2662L70.6509 23.4911L63.6094 18.4023L69.1124 25.3254L60.355 22.1301L67.2189 27.2189L58.4023 27.5148L67.4556 29.8225L58.4023 31.7751L67.3373 32.426L59.8225 37.2189L67.5739 34.4378L62.1893 41.2426L68.9941 35.7396L66.568 44.8521L71.8343 37.3964L71.1242 46.1538L74.0828 38.1657L76.6272 46.5089L77.2189 38.1065L81.0059 45.2662L78.7574 37.1006L85.6213 42.426L81.1834 35.6213L88.7574 38.5799L82.9586 32.8994L90.71 33.4911L83.1361 30.6509V30.6509Z" fill="white"/>
<path d="M1.65625 45.2663C25.3841 21.5385 44.319 14.2012 61.5379 10.8876C63.7864 10.4734 64.2598 5.44379 64.2598 5.44379C64.2598 5.44379 64.5557 9.11243 66.1533 9.5858C67.7509 10.0592 69.8219 3.84615 69.8219 3.84615C69.8219 3.84615 67.9284 9.40828 69.8219 9.76331C71.7154 10.0592 75.2657 4.31953 75.2657 4.31953C75.2657 4.31953 73.8456 9.23077 74.7923 9.5858C75.7391 9.88166 80.532 2.42603 80.532 2.42603C80.532 2.42603 77.6917 7.33728 80.3545 7.86982C83.0764 8.34319 87.0409 4.49704 87.0409 4.49704C87.0409 4.49704 83.9639 7.98816 85.3249 8.52071C91.242 10.5917 95.9758 2.95858 95.9758 2.95858C95.9758 2.95858 94.8515 6.33136 92.0113 10C98.2243 11.5976 102.84 2.24852 102.84 2.24852L98.2243 11.5976C100.591 12.7811 110.118 1.77515 110.118 1.77515C110.118 1.77515 105.207 10.355 102.307 12.1302C103.905 13.432 109.644 8.28402 109.644 8.28402C109.644 8.28402 105.029 14.0237 106.804 14.3195C109.349 16.3905 118.757 3.66864 118.757 3.66864C118.757 3.66864 115.088 11.1834 109.704 17.0414C114.201 19.3491 125.443 4.85207 125.443 4.85207C125.443 4.85207 125.147 9.46745 116.982 16.8047C123.017 16.0355 130.828 4.55621 130.828 4.55621C130.828 4.55621 127.988 13.1361 121.124 19.2308C127.041 18.6391 136.567 3.9645 136.567 3.9645C136.567 3.9645 132.899 14.142 125.443 20.0592C133.727 21.8935 145.68 9.52663 145.68 9.52663C145.68 9.52663 141.005 18.284 134.852 21.8935C141.715 24.497 151.124 13.6686 151.124 13.6686C151.124 13.6686 141.715 28.1657 126.745 27.5148C121.834 27.2781 106.982 12.6035 75.1474 13.787C33.0172 15.3254 24.1415 33.1953 1.65625 45.2663Z" fill="#373535" fill-opacity="0.35"/>
<path d="M2.60352 43.4912C26.3313 19.7634 45.2662 12.4261 62.4851 9.11249C64.7336 8.69829 65.207 3.6687 65.207 3.6687C65.207 3.6687 65.5028 7.33734 67.1005 7.81072C68.6981 8.28409 70.7691 2.07107 70.7691 2.07107C70.7691 2.07107 68.8756 7.6332 70.7691 7.98823C72.6626 8.28409 76.2129 2.54444 76.2129 2.54444C76.2129 2.54444 74.7928 7.45569 75.7395 7.81072C76.6862 8.10657 81.4791 0.650953 81.4791 0.650953C81.4791 0.650953 78.6389 5.5622 81.3016 6.09474C84.0235 6.56811 87.988 2.72196 87.988 2.72196C87.988 2.72196 84.9111 6.21308 86.272 6.74563C92.1892 8.81663 96.9229 1.1835 96.9229 1.1835C96.9229 1.1835 95.7987 4.55628 92.9584 8.22492C99.1714 9.82255 103.787 0.473438 103.787 0.473438L99.1714 9.82255C101.538 11.1243 111.124 0.118408 111.124 0.118408C111.124 0.118408 106.213 8.69829 103.313 10.4734C104.911 11.5977 110.651 6.50894 110.651 6.50894C110.651 6.50894 106.035 12.2486 107.81 12.5444C110.355 14.6154 119.763 1.89356 119.763 1.89356C119.763 1.89356 116.035 9.40835 110.651 15.2663C115.148 17.5149 126.449 3.01782 126.449 3.01782C126.449 3.01782 126.154 7.6332 117.988 14.9705C124.023 14.2012 131.834 2.72196 131.834 2.72196C131.834 2.72196 128.994 11.3018 122.13 17.3965C128.047 16.8048 137.574 2.13024 137.574 2.13024C137.574 2.13024 133.905 12.3078 126.449 18.2249C134.733 20.0592 146.686 7.69237 146.686 7.69237C146.686 7.69237 142.012 16.4498 135.858 20.0592C142.722 22.6628 152.13 11.8344 152.13 11.8344C152.13 11.8344 142.722 26.3314 127.751 25.6805C122.84 25.4439 107.988 10.7693 76.1537 11.9527C34.0236 13.5504 25.0887 31.361 2.60352 43.4912Z" fill="#373535"/>
<path d="M1.06445 47.8699C13.6088 54.1421 25.0881 46.9232 39.526 51.006C50.5319 54.083 63.9047 57.9291 82.0704 55.2664C100.236 52.6628 115.739 44.7338 123.195 30.651C125.502 24.3788 134.911 32.0711 134.911 32.0711C134.911 32.0711 128.047 29.2308 128.224 30.5326C128.402 31.8936 138.52 36.5681 138.52 36.5681C138.52 36.5681 129.348 33.7279 129.94 35.8581C130.473 37.9883 141.419 46.6273 141.419 46.6273C141.419 46.6273 128.934 37.2782 127.928 38.58C126.863 39.8817 133.195 45.0297 133.195 45.0297C133.195 45.0297 122.78 38.58 119.112 40.4735C116.449 41.8344 129.94 50.651 129.94 50.651C129.94 50.651 121.183 43.9646 119.112 45.7398C117.041 47.5149 128.993 61.8344 128.993 61.8344C128.993 61.8344 115.384 47.1599 114.023 47.8699C112.662 48.58 117.751 55.6214 117.751 55.6214C117.751 55.6214 111.124 48.2841 109.289 49.5267C107.455 50.8285 118.875 69.8226 118.875 69.8226C118.875 69.8226 106.508 50.3551 101.36 53.6096C109.348 71.1836 106.39 73.6688 106.39 73.6688C106.39 73.6688 105.384 55.7398 95.384 56.2131C90.3544 56.4498 97.7508 69.5859 97.7508 69.5859C97.7508 69.5859 90.9461 57.5741 86.3899 57.8108C94.7331 73.6688 91.7745 80.0593 91.7745 80.0593C91.7745 80.0593 93.1355 66.509 81.8337 58.9942C86.1532 62.8404 79.1118 80.0593 79.1118 80.0593C79.1118 80.0593 85.2656 54.6747 74.5556 59.5268C72.8396 60.296 74.4372 72.1895 74.4372 72.1895C74.4372 72.1895 72.3071 58.58 69.0526 59.2901C67.1591 59.7043 57.1 78.1658 57.1 78.1658C57.1 78.1658 65.3248 58.225 62.8396 59.0534C61.0053 59.6451 57.5733 67.87 57.5733 67.87C57.5733 67.87 59.2301 59.7634 57.5733 59.2901C55.9165 58.8167 46.5674 67.87 46.5674 67.87C46.5674 67.87 53.4905 59.7634 52.3071 58.0475C50.4727 55.5031 48.4017 55.3847 45.8574 56.3907C42.1887 57.8108 37.2775 64.4972 37.2775 64.4972C37.2775 64.4972 42.1887 57.6924 41.3603 55.2072C39.9994 51.1244 25.8574 63.0771 25.8574 63.0771C25.8574 63.0771 34.2005 55.2072 32.3071 53.4912C30.4136 51.8344 19.9994 52.3078 16.8041 52.3078C7.27747 52.4262 3.96386 50.1776 1.06445 47.8699" fill="#373535" fill-opacity="0.35"/>
<path d="M0.533203 46.4495C13.0776 52.7217 24.5569 45.5027 38.9947 49.5856C50.0007 52.6625 63.3734 56.5086 81.5391 53.8459C99.7048 51.2424 115.208 43.3134 122.663 29.2306C124.971 22.9584 134.379 30.6507 134.379 30.6507C134.379 30.6507 127.515 27.8104 127.693 29.1122C127.87 30.4732 137.989 35.1477 137.989 35.1477C137.989 35.1477 128.817 32.3075 129.409 34.4376C129.941 36.5678 140.888 45.2069 140.888 45.2069C140.888 45.2069 128.521 35.7986 127.515 37.1004C126.51 38.4021 132.782 43.5501 132.782 43.5501C132.782 43.5501 122.368 37.1004 118.699 38.9939C116.036 40.3548 129.527 49.1714 129.527 49.1714C129.527 49.1714 120.77 42.485 118.699 44.2601C116.628 46.0353 128.581 60.3548 128.581 60.3548C128.581 60.3548 115.03 45.6802 113.669 46.3903C112.308 47.1004 117.397 54.1418 117.397 54.1418C117.397 54.1418 110.652 46.8637 108.817 48.1063C106.983 49.4081 118.344 68.4021 118.344 68.4021C118.344 68.4021 105.977 48.8755 100.888 52.1299C108.936 69.7631 105.918 72.2483 105.918 72.2483C105.918 72.2483 104.912 54.3193 94.9119 54.7927C89.8823 55.0294 97.2788 68.1654 97.2788 68.1654C97.2788 68.1654 90.5332 56.2128 85.977 56.4495C94.3202 72.3074 91.3616 78.698 91.3616 78.698C91.3616 78.698 92.7226 65.1477 81.4208 57.6329C85.7403 61.4791 78.6989 78.698 78.6989 78.698C78.6989 78.698 84.8527 53.3134 74.1427 58.1654C72.4267 58.9347 74.0243 70.8282 74.0243 70.8282C74.0243 70.8282 71.8942 57.2187 68.6397 57.9288C66.7462 58.343 56.6871 76.8045 56.6871 76.8045C56.6871 76.8045 64.9119 56.8637 62.4267 57.6921C60.5924 58.2838 57.1604 66.5086 57.1604 66.5086C57.1604 66.5086 58.8172 58.4021 57.1604 57.9288C55.5036 57.4554 46.1545 66.5086 46.1545 66.5086C46.1545 66.5086 53.0776 58.4021 51.8941 56.6862C50.0598 54.1418 47.9888 54.0234 45.4444 55.0294C41.7758 56.4495 36.8646 63.1359 36.8646 63.1359C36.8646 63.1359 41.7758 56.3311 40.9474 53.8459C39.5865 49.7631 25.4444 61.7157 25.4444 61.7157C25.4444 61.7157 33.7876 53.8459 31.8942 52.1299C30.0007 50.4731 19.5865 50.9465 16.3912 50.9465C6.74622 51.0057 3.43261 48.7572 0.533203 46.4495" fill="#373535"/>
</g>
<defs>
<clipPath id="clip0">
<rect width="151.515" height="100" fill="white"/>
</clipPath>
</defs>
</svg>
