<svg xmlns="http://www.w3.org/2000/svg" xmlns:xlink="http://www.w3.org/1999/xlink" width="65" height="65" viewBox="0 0 65 65">
  <defs>
    <clipPath id="clip-path">
      <rect id="Rectangle_125" data-name="Rectangle 125" width="65" height="65"/>
    </clipPath>
  </defs>
  <g id="objective-c" clip-path="url(#clip-path)">
    <g id="c-2975" transform="translate(11 7)">
      <path id="Path_1186" data-name="Path 1186" d="M43.827,15.5a4.357,4.357,0,0,0-.536-2.19,4.187,4.187,0,0,0-1.586-1.546Q32.953,6.708,24.2,1.664a4.3,4.3,0,0,0-4.658.046C17.216,3.081,5.589,9.749,2.124,11.758A4.052,4.052,0,0,0,0,15.5V35.812a4.378,4.378,0,0,0,.512,2.149,4.173,4.173,0,0,0,1.61,1.588C5.587,41.558,17.216,48.226,19.538,49.6a4.3,4.3,0,0,0,4.659.046q8.75-5.057,17.51-10.1a4.174,4.174,0,0,0,1.61-1.588,4.383,4.383,0,0,0,.512-2.149V15.495" fill="#252b33"/>
      <path id="Path_1188" data-name="Path 1188" d="M73.993,79.753l6.821.048A10.746,10.746,0,0,0,69.689,70c-5.254,0-12.318,3.341-12.318,12.945S64.3,95.681,69.689,95.681c8.734,0,10.822-6.044,10.822-9.46L74,85.849s.174,3.951-4.35,3.951c-4.176,0-4.873-5.115-4.873-6.855,0-2.645.94-6.89,4.873-6.89a4.218,4.218,0,0,1,4.338,3.7" transform="translate(-47.549 -57.187)" fill="#fff"/>
    </g>
  </g>
</svg>
