<svg width="97" height="100" viewBox="0 0 97 100" fill="none" xmlns="http://www.w3.org/2000/svg">
<g clip-path="url(#clip0)">
<path d="M96.583 59.875C96.0016 58.1142 94.4787 56.8878 92.5092 56.5935C91.5805 56.4549 90.517 56.5139 89.2584 56.7734C87.0647 57.226 85.4372 57.3983 84.2494 57.4316C88.7327 49.8623 92.3781 41.2306 94.4768 33.1053C97.8704 19.9668 96.0569 13.9815 93.9378 11.2741C88.3297 4.1082 80.1475 0.258583 70.2766 0.140791C65.0108 0.0764038 60.3882 1.11607 57.9767 1.86372C55.7314 1.46755 53.3173 1.24636 50.7842 1.20546C46.0358 1.12971 41.8404 2.16483 38.2555 4.29227C36.2709 3.62113 33.0856 2.67501 29.4072 2.07128C20.7558 0.650967 13.783 1.75768 8.68272 5.36072C2.50683 9.72317 -0.356145 17.3027 0.173348 27.8888C0.341513 31.2498 2.22163 41.476 5.18194 51.1743C6.88328 56.7488 8.6975 61.3778 10.5742 64.9343C13.2357 69.9774 16.0835 72.9471 19.2805 74.0137C21.0724 74.6106 24.3281 75.0288 27.7524 72.1768C28.1865 72.7025 28.7656 73.2248 29.534 73.7099C30.5101 74.3254 31.7035 74.8284 32.8955 75.1265C37.1909 76.2002 41.2143 75.9317 44.6469 74.4265C44.6681 75.0371 44.6844 75.6204 44.6981 76.1241C44.7208 76.9411 44.7435 77.7421 44.7734 78.4913C44.9768 83.5567 45.3215 87.4953 46.3426 90.2511C46.3986 90.4026 46.474 90.6336 46.5536 90.8787C47.063 92.4384 47.9148 95.0495 50.082 97.0944C52.3261 99.2127 55.0406 99.8623 57.5267 99.8623C58.7735 99.8623 59.9632 99.6986 61.0067 99.4752C64.726 98.6779 68.9502 97.4636 72.0059 93.1126C74.895 88.9993 76.2994 82.8041 76.5536 73.0426C76.5865 72.7665 76.6168 72.5029 76.646 72.2518L76.7066 71.7359L77.3872 71.7957L77.5626 71.8075C81.3508 71.9802 85.9829 71.1769 88.8277 69.8554C91.0756 68.8123 98.2791 65.0093 96.583 59.875" fill="black"/>
<path d="M90.1054 60.8734C78.8414 63.197 78.0668 59.3834 78.0668 59.3834C89.9596 41.7363 94.9314 19.3358 90.6413 13.8534C78.9364 -1.1015 58.6752 5.97127 58.337 6.15459L58.2283 6.17428C56.0028 5.71221 53.5125 5.43724 50.7131 5.39141C45.6167 5.30808 41.7504 6.72764 38.8166 8.95241C38.8166 8.95241 2.67249 -5.93776 4.35376 27.6793C4.7113 34.8309 14.6043 81.7925 26.4038 67.6079C30.7167 62.4209 34.884 58.0354 34.884 58.0354C36.9535 59.4102 39.4313 60.1117 42.0288 59.8598L42.2307 59.6886C42.1678 60.3325 42.1966 60.9624 42.3113 61.7081C39.2715 65.1044 40.165 65.7005 34.0883 66.9515C27.9393 68.2188 31.5514 70.4747 33.9099 71.0648C36.7691 71.7795 43.3836 72.7922 47.8528 66.5357L47.6748 67.2496C48.8656 68.2037 49.7019 73.4547 49.5617 78.2152C49.4216 82.9753 49.328 86.2435 50.2662 88.7963C51.2051 91.3491 52.1403 97.0928 60.1289 95.3813C66.8036 93.9507 70.2627 90.2439 70.7441 84.0604C71.0853 79.6647 71.8584 80.3146 71.9068 76.3843L72.5269 74.5239C73.2416 68.565 72.6405 66.6425 76.7526 67.5367L77.7525 67.6246C80.7787 67.7621 84.7404 67.1375 87.0656 66.0569C92.0719 63.7337 95.0413 59.8541 90.1047 60.8734H90.1054" fill="#252B33"/>
<path d="M40.9334 30.8778C39.9183 30.7365 38.9991 30.8672 38.534 31.2194C38.2727 31.4175 38.1916 31.647 38.1697 31.805C38.1113 32.2235 38.4045 32.6863 38.5848 32.925C39.0946 33.6007 39.8392 34.065 40.5762 34.1673C40.683 34.1824 40.7895 34.1892 40.8951 34.1892C42.1242 34.1892 43.2419 33.2321 43.3404 32.5258C43.4634 31.641 42.1791 31.0513 40.9334 30.8782V30.8778ZM74.5603 30.9058C74.4634 30.2123 73.2294 30.0146 72.0583 30.1775C70.8887 30.3403 69.7548 30.8683 69.8494 31.5633C69.9252 32.1038 70.9012 33.0265 72.0564 33.0265C72.1541 33.0265 72.2526 33.02 72.3518 33.006C73.123 32.8992 73.6888 32.4095 73.9577 32.1273C74.3668 31.697 74.6039 31.2175 74.5603 30.9058" fill="white"/>
<path d="M93.8524 60.6097C93.4229 59.311 92.0405 58.8932 89.7437 59.3674C82.9244 60.7748 80.4822 59.7999 79.6804 59.2095C84.981 51.1345 89.3415 41.3734 91.6939 32.2663C92.8082 27.9524 93.4237 23.9459 93.4741 20.6804C93.5297 17.0962 92.9192 14.4624 91.6602 12.8535C86.5842 6.3674 79.1342 2.8882 70.1162 2.79275C63.9164 2.72306 58.6783 4.30965 57.6629 4.75581C55.5244 4.22405 53.1932 3.89757 50.6552 3.8559C46.0012 3.78053 41.9781 4.89482 38.6473 7.16618C37.2005 6.6276 33.4615 5.34401 28.8888 4.60734C20.9836 3.33474 14.7016 4.29904 10.2187 7.47486C4.86966 11.2646 2.40021 18.039 2.87857 27.6092C3.03954 30.829 4.8742 40.734 7.76937 50.2198C11.5804 62.7049 15.7231 69.7728 20.0818 71.2268C20.592 71.3969 21.1801 71.5158 21.8289 71.5158C23.4189 71.5158 25.3684 70.7992 27.3966 68.3608C29.8704 65.3931 32.4294 62.4975 35.0704 59.6776C36.7839 60.5972 38.6663 61.1108 40.5915 61.1623C40.5953 61.2127 40.6002 61.263 40.6047 61.313C40.2733 61.7082 39.9488 62.1091 39.6313 62.5156C38.2974 64.209 38.0198 64.5616 33.7259 65.4456C32.5044 65.6978 29.2604 66.3663 29.2127 68.6403C29.1612 71.1249 33.0475 72.1684 33.4903 72.279C35.0333 72.6653 36.5199 72.8558 37.9376 72.8558C41.3853 72.8558 44.4195 71.7226 46.8443 69.53C46.7696 78.3875 47.1389 87.1154 48.2024 89.7746C49.0736 91.9516 51.2014 97.2719 57.9227 97.2716C58.909 97.2716 59.9945 97.1568 61.1887 96.9008C68.2035 95.3971 71.2498 92.2967 72.4281 85.4614C73.0587 81.8083 74.1408 73.0853 74.6498 68.4063C75.7239 68.7415 77.1068 68.8949 78.6017 68.8945C81.7196 68.8945 85.3173 68.232 87.5735 67.1848C90.1081 66.0076 94.6819 63.1193 93.8524 60.6097V60.6097ZM77.1473 28.9916C77.1242 30.3729 76.934 31.627 76.7326 32.9359C76.5155 34.3438 76.2913 35.7993 76.2349 37.5662C76.1792 39.2857 76.394 41.0734 76.6015 42.8024C77.0212 46.2945 77.4518 49.8896 75.7849 53.4369C75.508 52.9463 75.2614 52.4392 75.0464 51.9185C74.8392 51.4163 74.3892 50.6096 73.7662 49.493C71.3426 45.1465 65.667 34.9679 68.5724 30.8146C69.4378 29.5783 71.6342 28.3072 77.1473 28.9916V28.9916ZM70.4646 5.58982C78.5449 5.76821 84.9367 8.79102 89.462 14.5738C92.9328 19.0093 89.1109 39.1918 78.0464 56.6033C77.9352 56.4618 77.8233 56.3208 77.7109 56.1802L77.5707 56.0052C80.4299 51.2834 79.8709 46.6115 79.3732 42.4695C79.1687 40.7696 78.9755 39.1641 79.0247 37.6559C79.0755 36.0576 79.2868 34.6865 79.4914 33.3609C79.7425 31.7274 79.9981 30.037 79.9277 28.0444C79.9803 27.8353 80.0015 27.5884 79.9739 27.2952C79.794 25.3844 77.6124 19.6657 73.1659 14.4897C70.7335 11.6585 67.1865 8.49029 62.3435 6.35338C64.4266 5.92161 67.2752 5.519 70.4646 5.58982V5.58982ZM25.2502 66.5761C23.0156 69.263 21.4725 68.7479 20.965 68.579C17.6585 67.4761 13.8218 60.4874 10.4392 49.4051C7.5122 39.8159 5.80176 30.1733 5.66617 27.4695C5.23894 18.918 7.31184 12.9584 11.8277 9.75569C19.1769 4.54409 31.2598 7.66348 36.115 9.24552C36.0453 9.31445 35.9726 9.37884 35.9037 9.44891C27.9363 17.4951 28.1253 31.2422 28.145 32.0826C28.1442 32.4068 28.1715 32.8659 28.2086 33.4973C28.3457 35.8095 28.601 40.1129 27.9192 44.9863C27.286 49.515 28.6821 53.9475 31.7488 57.1475C32.0635 57.4753 32.3943 57.7873 32.74 58.0823C31.375 59.5443 28.4082 62.7773 25.2502 66.5761V66.5761ZM33.7641 55.2163C31.2924 52.637 30.1698 49.0495 30.6837 45.3726C31.4034 40.2246 31.1379 35.741 30.9951 33.3321C30.975 32.995 30.9572 32.6996 30.947 32.4667C32.1109 31.4346 37.5047 28.5447 41.3512 29.4261C43.1064 29.8279 44.176 31.0233 44.6206 33.0791C46.9219 43.7231 44.9251 48.1594 43.3207 51.7246C42.9901 52.459 42.6776 53.1532 42.411 53.8714L42.2042 54.4266C41.6808 55.8302 41.1937 57.1354 40.8918 58.3747C38.264 58.3671 35.7079 57.2445 33.7641 55.2159V55.2163ZM34.1675 69.5709C33.4001 69.3793 32.7101 69.0464 32.3052 68.7702C32.6434 68.6112 33.2452 68.3945 34.2891 68.1794C39.3405 67.1397 40.1207 66.4057 41.8243 64.2427C42.2148 63.7465 42.6575 63.1844 43.2707 62.4997L43.2715 62.4989C44.1847 61.4763 44.6024 61.6497 45.3599 61.9641C45.9739 62.2179 46.5719 62.9875 46.8143 63.8344C46.9291 64.2343 47.0579 64.9933 46.6363 65.5842C43.0776 70.567 37.8917 70.503 34.1675 69.5709V69.5709ZM60.6039 94.1715C54.4242 95.4956 52.2361 92.3425 50.7942 88.7379C49.8636 86.4109 49.4061 75.9173 49.7307 64.3286C49.7349 64.1745 49.7129 64.0256 49.6705 63.8855C49.6325 63.6088 49.5748 63.3351 49.4978 63.0666C49.0152 61.3805 47.8392 59.97 46.4284 59.3852C45.8678 59.153 44.8391 58.7269 43.6029 59.0432C43.8665 57.9569 44.3237 56.7302 44.8195 55.4019L45.0274 54.8432C45.2615 54.2134 45.5554 53.5608 45.8659 52.8699C47.5449 49.14 49.8443 44.0311 47.3487 32.4894C46.414 28.1664 43.2923 26.0552 38.5602 26.5457C35.7234 26.8392 33.1278 27.9838 31.8333 28.6402C31.5549 28.7811 31.3003 28.9174 31.0625 29.05C31.4238 24.6943 32.7888 16.5543 37.8951 11.404C41.1104 8.16191 45.3921 6.56056 50.609 6.64691C60.8883 6.81508 67.4801 12.0903 71.2002 16.4865C74.4059 20.2743 76.1417 24.0902 76.8344 26.1484C71.6247 25.6185 68.0815 26.6468 66.2855 29.2147C62.3779 34.8005 68.4232 45.6419 71.3285 50.8523C71.8614 51.8072 72.3213 52.6325 72.4659 52.9832C73.4121 55.2761 74.6369 56.807 75.5312 57.9244C75.8054 58.2667 76.0713 58.5989 76.2735 58.889C74.6956 59.3439 71.8614 60.3949 72.1198 65.6486C71.9114 68.2847 70.4302 80.6266 69.6776 84.9872C68.6841 90.748 66.5642 92.8936 60.6039 94.1719V94.1715ZM86.3983 64.6532C84.7848 65.402 82.0847 65.9637 79.5198 66.0845C76.6867 66.2171 75.2444 65.7671 74.9051 65.4903C74.746 62.2164 75.9644 61.8743 77.2541 61.5123C77.4567 61.4554 77.6544 61.3998 77.8453 61.3331C77.9639 61.4297 78.0938 61.5255 78.2362 61.6194C80.5132 63.1223 84.5746 63.2844 90.3085 62.1008L90.3713 62.0883C89.5979 62.8114 88.2746 63.7817 86.3983 64.6532Z" fill="white"/>
</g>
<defs>
<clipPath id="clip0">
<rect width="96.96" height="100" fill="white"/>
</clipPath>
</defs>
</svg>
