<svg width="1825" height="2500" viewBox="0 0 1825 2500" fill="none" xmlns="http://www.w3.org/2000/svg">
<g clip-path="url(#clip0)">
<path fill-rule="evenodd" clip-rule="evenodd" d="M12.3184 2084.35V900.181C12.3184 403.023 415.341 0 912.5 0C1409.66 0 1812.68 403.023 1812.68 900.181C1812.68 1390.8 1420.19 1789.74 932.069 1800.15V1800.36C791.562 1800.36 677.67 1686.47 677.67 1545.96C677.67 1406.77 789.457 1293.69 928.155 1291.6V1291.26C1137.05 1283.04 1303.88 1111.09 1303.88 900.181C1303.88 684.028 1128.65 508.798 912.5 508.798C696.347 508.798 521.117 684.028 521.117 900.181V2211.32C521.117 2351.82 407.224 2465.71 266.717 2465.71C214.381 2465.8 163.304 2449.66 120.512 2419.53C193.685 2398.15 247.148 2330.55 247.148 2250.45C247.148 2153.19 168.292 2074.33 71.0258 2074.33C50.4391 2074.33 30.6821 2077.86 12.3184 2084.35ZM932.069 1722.09C1029.34 1722.09 1108.19 1643.23 1108.19 1545.96C1108.19 1448.7 1029.34 1369.84 932.069 1369.84C834.802 1369.84 755.947 1448.7 755.947 1545.96C755.947 1643.23 834.802 1722.09 932.069 1722.09Z" fill="#252B33"/>
</g>
<defs>
<clipPath id="clip0">
<rect width="1825" height="2500" fill="white"/>
</clipPath>
</defs>
</svg>
