<svg width="200" height="196" viewBox="0 0 200 196" fill="none" xmlns="http://www.w3.org/2000/svg">
<g clip-path="url(#clip0)">
<path d="M8.3335 8.35352H191.667V186.687H8.3335V8.35352Z" fill="white"/>
<path d="M0 0.0200195V195.02H200V0.0200195H0ZM15.1334 15.1534L184.866 15.0734L185.266 179.886H15.1334V15.1534Z" fill="#252B33"/>
<path d="M145.251 81.9368C144 81.3536 142.417 81.1032 140.417 81.1032C129.917 81.1032 122.917 89.1864 122.917 102.603C122.917 117.937 130.084 124.103 139.417 124.103C141.417 124.103 143.584 123.854 145.167 123.186V81.9368H145.251ZM107.917 103.27C107.917 83.8536 120.417 68.6867 140.917 68.6867C142.667 68.6867 143.584 68.6867 145.251 68.8534V47.1867C145.251 46.6867 145.667 46.3534 146.084 46.3534H159.5C160.167 46.3534 160.334 46.6034 160.334 47.02V123.186C160.334 125.437 160.334 128.27 160.751 131.354C160.751 131.937 160.751 132.02 160.251 132.27C153.251 135.603 145.917 137.103 138.917 137.103C120.834 137.103 107.917 125.937 107.917 103.27ZM79.5004 89.7696L102.834 135.02C103.251 135.686 103 136.354 102.334 136.354H87.8339C86.9171 136.354 86.5003 136.103 86.0835 135.27C80.7507 124.27 75.3337 112.854 69.7504 101.02H69.5837C64.5837 112.186 59.0837 124.354 53.7504 135.354C53.3337 136.02 52.917 136.27 52.2504 136.27H38.417C37.5837 136.27 37.5004 135.603 37.917 135.103L60.7504 91.1864L38.667 47.52C38.167 46.8534 38.667 46.27 39.2504 46.27H53.5837C54.417 46.27 54.8337 46.4367 55.0837 47.1867C60.3337 58.27 65.667 69.1867 70.667 80.3536H70.8337C75.667 69.3534 81.0003 58.27 86.0835 47.3534C86.5003 46.6867 86.7507 46.27 87.5835 46.27H101C101.667 46.27 101.917 46.77 101.5 47.52L79.5004 89.7696Z" fill="#252B33"/>
</g>
<defs>
<clipPath id="clip0">
<rect width="200" height="195.04" fill="white"/>
</clipPath>
</defs>
</svg>
