<svg width="100" height="99" viewBox="0 0 100 99" fill="none" xmlns="http://www.w3.org/2000/svg">
<g clip-path="url(#clip0)">
<path d="M0.00695801 0H99.9934V98.4252H0.00695801V0Z" fill="#252B33"/>
<path d="M7.95862 7.82697H92.0419V90.5982H7.95862V7.82697Z" fill="white"/>
<path d="M24.1695 27.7406C24.1695 27.7406 30.4913 27.5741 35.6953 27.5741C40.9539 27.5741 44.7034 28.8126 47.2207 30.9889C49.6267 33.0455 51.2492 36.5514 51.2492 40.5425C51.2492 44.5336 50.018 47.7993 47.7796 50.0954C44.8704 53.0585 41.4802 54.8125 35.6953 55.0551C34.0972 55.1221 32.618 55.1381 32.618 55.1381V68.1116H24.1692L24.1695 27.7406V27.7406ZM32.6177 47.9504C33.5356 48.0398 34.1108 47.9968 35.4713 47.9805C40.0034 47.9261 42.8 45.1672 42.8 40.9949C42.8 37.2468 40.494 34.1692 36.1432 34.0097C34.4091 33.9463 32.6177 34.0097 32.6177 34.0097V47.9504V47.9504Z" fill="#252B33"/>
<path d="M54.4734 59.0735C56.1762 60.1194 60.1943 61.6859 62.9332 61.6859C65.7315 61.6859 66.887 60.6987 66.887 59.1596C66.887 57.6184 65.9745 55.9996 62.506 54.8292C56.3605 52.7342 53.9871 50.2265 54.0488 46.7166C54.0488 41.0476 58.7941 36.797 66.1565 36.797C69.6247 36.797 72.3953 37.9321 74.219 38.8556V45.6593C72.8792 44.9193 69.0161 43.2671 66.4611 43.2671C64.2084 43.2671 62.9316 44.1912 62.9316 45.73C62.9316 47.1473 64.0884 47.8867 67.7389 49.1812C73.3965 51.1524 75.7698 54.0471 75.8298 58.4829C75.8298 64.0898 71.5124 68.5483 62.9316 68.2777C59.9866 68.185 56.7241 67.0196 54.4727 65.7891L54.4734 59.0735V59.0735Z" fill="#252B33"/>
</g>
<defs>
<clipPath id="clip0">
<rect width="100" height="98.4252" fill="white"/>
</clipPath>
</defs>
</svg>
