<svg width="2500" height="2448" viewBox="0 0 2500 2448" fill="none" xmlns="http://www.w3.org/2000/svg">
<path d="M0 0.0410156H2500V2447.96H0V0.0410156Z" fill="#252B33"/>
<path d="M911.989 1246.24H1133.58L1022.79 816.541L911.989 1246.24ZM189.138 191.719V2257.49H2314.03V191.719H189.138ZM1255.2 1717.37L1174.12 1438.12H874.148L793.072 1717.37H587.685L876.85 730.065V621.967H1152.5L1482.2 1717.37H1255.2V1717.37ZM1801.11 1717.37H1579.51V884.111H1801.11V1717.37ZM1691.65 784.12C1628.22 784.12 1576.79 733.3 1576.79 670.617C1576.79 607.929 1628.2 557.109 1691.65 557.109C1755.09 557.109 1806.51 607.929 1806.51 670.617C1806.51 733.3 1755.09 784.12 1691.65 784.12Z" fill="white"/>
</svg>
