<svg width="2424" height="2500" viewBox="0 0 2424 2500" fill="none" xmlns="http://www.w3.org/2000/svg">
<path d="M0 2083.04V2092.08C0 2313.78 178.704 2492.48 400.396 2492.48C622.078 2492.48 800.791 2313.78 800.791 2092.08V1650.97L0 2083.03V2083.04ZM2420.9 2085.3C2414.12 1999.34 2377.93 1920.17 2316.84 1859.1V1856.82L1597.5 1221.18L898.499 1596.69L1801.09 2399.73C1868.95 2458.55 1954.91 2490.22 2045.39 2490.22C2056.71 2490.22 2068.02 2490.22 2077.07 2487.96C2176.6 2478.91 2267.08 2431.41 2330.42 2356.75C2398.28 2282.1 2427.69 2184.83 2420.9 2085.3V2085.3ZM800.791 456.576V404.545C800.791 182.872 619.824 4.15869 400.396 4.15869C178.704 4.15869 0 182.862 0 404.535V895.424L800.791 456.566V456.576Z" fill="#252B33"/>
<path d="M0 1067.35L1870.77 47.1373C1925.06 17.7274 1986.14 4.14917 2047.22 4.14917C2085.67 4.14917 2124.12 10.9383 2162.59 22.2534C2359.39 85.5994 2465.71 295.967 2402.36 492.775C2375.23 574.206 2323.2 644.331 2250.81 691.836V694.109L2228.18 707.677L0 1911.11V1067.35Z" fill="#252B33"/>
</svg>
