<svg width="108" height="98" viewBox="0 0 108 98" fill="none" xmlns="http://www.w3.org/2000/svg">
<path fill-rule="evenodd" clip-rule="evenodd" d="M21.9444 35.2128L53.8875 97.8871L0.197021 35.2128H21.9444Z" fill="#2C333E"/>
<path fill-rule="evenodd" clip-rule="evenodd" d="M85.8396 35.2128L53.8965 97.8871L107.587 35.2128H85.8396Z" fill="#2C333E"/>
<path fill-rule="evenodd" clip-rule="evenodd" d="M21.9432 35.2128H85.8293L53.8863 97.8871L21.9432 35.2128Z" fill="#20262E"/>
<path fill-rule="evenodd" clip-rule="evenodd" d="M53.8863 0.478607L23.6245 3.68526L21.9432 35.2128L53.8863 0.478607Z" fill="#2C343E"/>
<path fill-rule="evenodd" clip-rule="evenodd" d="M53.8863 0.478607L84.1481 3.68526L85.8293 35.2128L53.8863 0.478607Z" fill="#2C343E"/>
<path fill-rule="evenodd" clip-rule="evenodd" d="M107.587 35.2128L84.1583 3.68526L85.8396 35.2128H107.587Z" fill="#323A48"/>
<path fill-rule="evenodd" clip-rule="evenodd" d="M0.197021 35.2128L23.6257 3.68526L21.9444 35.2128H0.197021Z" fill="#323A48"/>
<path fill-rule="evenodd" clip-rule="evenodd" d="M53.8863 0.478607L21.9432 35.2128H85.8293L53.8863 0.478607Z" fill="#252B33"/>
</svg>
