<svg width="112" height="100" viewBox="0 0 112 100" fill="none" xmlns="http://www.w3.org/2000/svg">
<g clip-path="url(#clip0)">
<path fill-rule="evenodd" clip-rule="evenodd" d="M69.0797 0.00559998C118.287 33.4711 102.37 70.3764 102.37 70.3764C102.37 70.3764 116.363 86.1763 110.708 99.9939C110.708 99.9939 104.936 90.3158 95.2574 90.3158C85.9291 90.3158 80.4486 99.9939 61.6753 99.9939C19.8726 99.9939 0.108154 65.0709 0.108154 65.0709C37.7714 89.8493 63.4827 72.3004 63.4827 72.3004C46.5167 62.4473 10.4277 15.3391 10.4277 15.3391C41.8526 42.0998 55.437 49.1544 55.437 49.1544C47.333 42.4496 24.5951 9.68377 24.5951 9.68377C42.7854 28.1073 78.9328 53.8186 78.9328 53.8186C89.194 25.3671 69.0797 0.00559998 69.0797 0.00559998Z" fill="#252B33"/>
</g>
<defs>
<clipPath id="clip0">
<rect width="112" height="100" fill="white"/>
</clipPath>
</defs>
</svg>
